<svg version="1.1" viewBox="0.0 0.0 484.0 299.0" fill="none" stroke="none" stroke-linecap="square" stroke-miterlimit="10" width="484" height="299" xmlns:xlink="http://www.w3.org/1999/xlink" xmlns="http://www.w3.org/2000/svg"><path fill="#ffffff" fill-opacity="0.0" d="M0 0L484.0 0L484.0 299.0L0 299.0L0 0Z" fill-rule="nonzero"/><path stroke="#000000" stroke-width="1.0" stroke-linecap="butt" stroke-opacity="0.0" d="M86.5 55.5L86.5 226.5" fill-rule="nonzero"/><path stroke="#000000" stroke-width="1.0" stroke-linecap="butt" stroke-opacity="0.0" d="M94.5 55.5L94.5 226.5" fill-rule="nonzero"/><path stroke="#000000" stroke-width="1.0" stroke-linecap="butt" stroke-opacity="0.0" d="M102.5 55.5L102.5 226.5" fill-rule="nonzero"/><path stroke="#000000" stroke-width="1.0" stroke-linecap="butt" stroke-opacity="0.0" d="M110.5 55.5L110.5 226.5" fill-rule="nonzero"/><path stroke="#000000" stroke-width="1.0" stroke-linecap="butt" stroke-opacity="0.0" d="M118.5 55.5L118.5 226.5" fill-rule="nonzero"/><path stroke="#000000" stroke-width="1.0" stroke-linecap="butt" stroke-opacity="0.0" d="M133.5 55.5L133.5 226.5" fill-rule="nonzero"/><path stroke="#000000" stroke-width="1.0" stroke-linecap="butt" stroke-opacity="0.0" d="M141.5 55.5L141.5 226.5" fill-rule="nonzero"/><path stroke="#000000" stroke-width="1.0" stroke-linecap="butt" stroke-opacity="0.0" d="M149.5 55.5L149.5 226.5" fill-rule="nonzero"/><path stroke="#000000" stroke-width="1.0" stroke-linecap="butt" stroke-opacity="0.0" d="M157.5 55.5L157.5 226.5" fill-rule="nonzero"/><path stroke="#000000" stroke-width="1.0" stroke-linecap="butt" stroke-opacity="0.0" d="M165.5 55.5L165.5 226.5" fill-rule="nonzero"/><path stroke="#000000" stroke-width="1.0" stroke-linecap="butt" stroke-opacity="0.0" d="M181.5 55.5L181.5 226.5" fill-rule="nonzero"/><path stroke="#000000" stroke-width="1.0" stroke-linecap="butt" stroke-opacity="0.0" d="M189.5 55.5L189.5 226.5" fill-rule="nonzero"/><path stroke="#000000" stroke-width="1.0" stroke-linecap="butt" stroke-opacity="0.0" d="M196.5 55.5L196.5 226.5" fill-rule="nonzero"/><path stroke="#000000" stroke-width="1.0" stroke-linecap="butt" stroke-opacity="0.0" d="M204.5 55.5L204.5 226.5" fill-rule="nonzero"/><path stroke="#000000" stroke-width="1.0" stroke-linecap="butt" stroke-opacity="0.0" d="M212.5 55.5L212.5 226.5" fill-rule="nonzero"/><path stroke="#000000" stroke-width="1.0" stroke-linecap="butt" stroke-opacity="0.0" d="M228.5 55.5L228.5 226.5" fill-rule="nonzero"/><path stroke="#000000" stroke-width="1.0" stroke-linecap="butt" stroke-opacity="0.0" d="M236.5 55.5L236.5 226.5" fill-rule="nonzero"/><path stroke="#000000" stroke-width="1.0" stroke-linecap="butt" stroke-opacity="0.0" d="M244.5 55.5L244.5 226.5" fill-rule="nonzero"/><path stroke="#000000" stroke-width="1.0" stroke-linecap="butt" stroke-opacity="0.0" d="M252.5 55.5L252.5 226.5" fill-rule="nonzero"/><path stroke="#000000" stroke-width="1.0" stroke-linecap="butt" stroke-opacity="0.0" d="M260.5 55.5L260.5 226.5" fill-rule="nonzero"/><path stroke="#000000" stroke-width="1.0" stroke-linecap="butt" stroke-opacity="0.0" d="M275.5 55.5L275.5 226.5" fill-rule="nonzero"/><path stroke="#000000" stroke-width="1.0" stroke-linecap="butt" stroke-opacity="0.0" d="M283.5 55.5L283.5 226.5" fill-rule="nonzero"/><path stroke="#000000" stroke-width="1.0" stroke-linecap="butt" stroke-opacity="0.0" d="M291.5 55.5L291.5 226.5" fill-rule="nonzero"/><path stroke="#000000" stroke-width="1.0" stroke-linecap="butt" stroke-opacity="0.0" d="M299.5 55.5L299.5 226.5" fill-rule="nonzero"/><path stroke="#000000" stroke-width="1.0" stroke-linecap="butt" stroke-opacity="0.0" d="M307.5 55.5L307.5 226.5" fill-rule="nonzero"/><path stroke="#000000" stroke-width="1.0" stroke-linecap="butt" stroke-opacity="0.0" d="M323.5 55.5L323.5 226.5" fill-rule="nonzero"/><path stroke="#000000" stroke-width="1.0" stroke-linecap="butt" stroke-opacity="0.0" d="M330.5 55.5L330.5 226.5" fill-rule="nonzero"/><path stroke="#000000" stroke-width="1.0" stroke-linecap="butt" stroke-opacity="0.0" d="M338.5 55.5L338.5 226.5" fill-rule="nonzero"/><path stroke="#000000" stroke-width="1.0" stroke-linecap="butt" stroke-opacity="0.0" d="M346.5 55.5L346.5 226.5" fill-rule="nonzero"/><path stroke="#000000" stroke-width="1.0" stroke-linecap="butt" stroke-opacity="0.0" d="M354.5 55.5L354.5 226.5" fill-rule="nonzero"/><path stroke="#000000" stroke-width="1.0" stroke-linecap="butt" stroke-opacity="0.0" d="M79.5 211.5L370.5 211.5" fill-rule="nonzero"/><path stroke="#000000" stroke-width="1.0" stroke-linecap="butt" stroke-opacity="0.0" d="M79.5 197.5L370.5 197.5" fill-rule="nonzero"/><path stroke="#000000" stroke-width="1.0" stroke-linecap="butt" stroke-opacity="0.0" d="M79.5 169.5L370.5 169.5" fill-rule="nonzero"/><path stroke="#000000" stroke-width="1.0" stroke-linecap="butt" stroke-opacity="0.0" d="M79.5 155.5L370.5 155.5" fill-rule="nonzero"/><path stroke="#000000" stroke-width="1.0" stroke-linecap="butt" stroke-opacity="0.0" d="M79.5 126.5L370.5 126.5" fill-rule="nonzero"/><path stroke="#000000" stroke-width="1.0" stroke-linecap="butt" stroke-opacity="0.0" d="M79.5 112.5L370.5 112.5" fill-rule="nonzero"/><path stroke="#000000" stroke-width="1.0" stroke-linecap="butt" stroke-opacity="0.0" d="M79.5 84.5L370.5 84.5" fill-rule="nonzero"/><path stroke="#000000" stroke-width="1.0" stroke-linecap="butt" stroke-opacity="0.0" d="M79.5 70.5L370.5 70.5" fill-rule="nonzero"/><clipPath id="id_0"><path d="M79.95 55.916668L370.37445 55.916668L370.37445 226.05L79.95 226.05L79.95 55.916668Z" clip-rule="nonzero"/></clipPath><path stroke="#46bdc6" stroke-width="2.0" stroke-linecap="butt" clip-path="url(#id_0)" d="M79.95 193.3844L128.35408 160.7188L176.75815 128.0532L225.16222 95.3876L273.56628 62.722L321.97037 30.0564L370.37445 -2.6092" fill-rule="nonzero"/><path stroke="#fbbc04" stroke-width="2.0" stroke-linecap="butt" clip-path="url(#id_0)" d="M79.95 224.68893L128.35408 223.32787L176.75815 221.9668L225.16222 220.60573L273.56628 219.24466L321.97037 217.8836L370.37445 216.52254" fill-rule="nonzero"/><path fill="#000000" fill-opacity="0.0" clip-path="url(#id_0)" d="M82.95 193.3844C82.95 195.04126 81.60686 196.3844 79.95 196.3844C78.293144 196.3844 76.95 195.04126 76.95 193.3844C76.95 191.72754 78.293144 190.3844 79.95 190.3844C81.60686 190.3844 82.95 191.72754 82.95 193.3844Z" fill-rule="nonzero"/><path fill="#000000" fill-opacity="0.0" clip-path="url(#id_0)" d="M131.35408 160.7188C131.35408 162.37566 130.01093 163.7188 128.35408 163.7188C126.69722 163.7188 125.35407 162.37566 125.35407 160.7188C125.35407 159.06195 126.69722 157.7188 128.35408 157.7188C130.01093 157.7188 131.35408 159.06195 131.35408 160.7188Z" fill-rule="nonzero"/><path fill="#000000" fill-opacity="0.0" clip-path="url(#id_0)" d="M179.75815 128.0532C179.75815 129.71005 178.41501 131.0532 176.75815 131.0532C175.10129 131.0532 173.75815 129.71005 173.75815 128.0532C173.75815 126.39635 175.10129 125.0532 176.75815 125.0532C178.41501 125.0532 179.75815 126.39635 179.75815 128.0532Z" fill-rule="nonzero"/><path fill="#000000" fill-opacity="0.0" clip-path="url(#id_0)" d="M228.16222 95.3876C228.16222 97.04446 226.81908 98.3876 225.16222 98.3876C223.50537 98.3876 222.16222 97.04446 222.16222 95.3876C222.16222 93.73074 223.50537 92.3876 225.16222 92.3876C226.81908 92.3876 228.16222 93.73074 228.16222 95.3876Z" fill-rule="nonzero"/><path fill="#000000" fill-opacity="0.0" clip-path="url(#id_0)" d="M276.56628 62.722C276.56628 64.37885 275.22314 65.722 273.56628 65.722C271.90945 65.722 270.56628 64.37885 270.56628 62.722C270.56628 61.065147 271.90945 59.722 273.56628 59.722C275.22314 59.722 276.56628 61.065147 276.56628 62.722Z" fill-rule="nonzero"/><path fill="#000000" fill-opacity="0.0" clip-path="url(#id_0)" d="M324.97037 30.0564C324.97037 31.713255 323.62723 33.0564 321.97037 33.0564C320.3135 33.0564 318.97037 31.713255 318.97037 30.0564C318.97037 28.399546 320.3135 27.0564 321.97037 27.0564C323.62723 27.0564 324.97037 28.399546 324.97037 30.0564Z" fill-rule="nonzero"/><path fill="#000000" fill-opacity="0.0" clip-path="url(#id_0)" d="M373.37445 -2.6092C373.37445 -0.9523457 372.0313 0.3908 370.37445 0.3908C368.7176 0.3908 367.37445 -0.9523457 367.37445 -2.6092C367.37445 -4.266054 368.7176 -5.6092 370.37445 -5.6092C372.0313 -5.6092 373.37445 -4.266054 373.37445 -2.6092Z" fill-rule="nonzero"/><path fill="#000000" fill-opacity="0.0" clip-path="url(#id_0)" d="M82.95 224.68893C82.95 226.3458 81.60686 227.68893 79.95 227.68893C78.293144 227.68893 76.95 226.3458 76.95 224.68893C76.95 223.03207 78.293144 221.68893 79.95 221.68893C81.60686 221.68893 82.95 223.03207 82.95 224.68893Z" fill-rule="nonzero"/><path fill="#000000" fill-opacity="0.0" clip-path="url(#id_0)" d="M131.35408 223.32787C131.35408 224.98473 130.01093 226.32787 128.35408 226.32787C126.69722 226.32787 125.35407 224.98473 125.35407 223.32787C125.35407 221.671 126.69722 220.32787 128.35408 220.32787C130.01093 220.32787 131.35408 221.671 131.35408 223.32787Z" fill-rule="nonzero"/><path fill="#000000" fill-opacity="0.0" clip-path="url(#id_0)" d="M179.75815 221.9668C179.75815 223.62366 178.41501 224.9668 176.75815 224.9668C175.10129 224.9668 173.75815 223.62366 173.75815 221.9668C173.75815 220.30995 175.10129 218.9668 176.75815 218.9668C178.41501 218.9668 179.75815 220.30995 179.75815 221.9668Z" fill-rule="nonzero"/><path fill="#000000" fill-opacity="0.0" clip-path="url(#id_0)" d="M228.16222 220.60573C228.16222 222.26259 226.81908 223.60573 225.16222 223.60573C223.50537 223.60573 222.16222 222.26259 222.16222 220.60573C222.16222 218.94888 223.50537 217.60573 225.16222 217.60573C226.81908 217.60573 228.16222 218.94888 228.16222 220.60573Z" fill-rule="nonzero"/><path fill="#000000" fill-opacity="0.0" clip-path="url(#id_0)" d="M276.56628 219.24466C276.56628 220.90152 275.22314 222.24466 273.56628 222.24466C271.90945 222.24466 270.56628 220.90152 270.56628 219.24466C270.56628 217.58781 271.90945 216.24466 273.56628 216.24466C275.22314 216.24466 276.56628 217.58781 276.56628 219.24466Z" fill-rule="nonzero"/><path fill="#000000" fill-opacity="0.0" clip-path="url(#id_0)" d="M324.97037 217.8836C324.97037 219.54045 323.62723 220.8836 321.97037 220.8836C320.3135 220.8836 318.97037 219.54045 318.97037 217.8836C318.97037 216.22675 320.3135 214.8836 321.97037 214.8836C323.62723 214.8836 324.97037 216.22675 324.97037 217.8836Z" fill-rule="nonzero"/><path fill="#000000" fill-opacity="0.0" clip-path="url(#id_0)" d="M373.37445 216.52254C373.37445 218.17938 372.0313 219.52254 370.37445 219.52254C368.7176 219.52254 367.37445 218.17938 367.37445 216.52254C367.37445 214.86568 368.7176 213.52254 370.37445 213.52254C372.0313 213.52254 373.37445 214.86568 373.37445 216.52254Z" fill-rule="nonzero"/><path fill="#f3f3f3" d="M191.22472 277.2531L189.89659 277.2531L189.41222 280.05L188.16222 280.05L188.64659 277.2531L187.09972 277.2531L187.09972 276.0656L188.84972 276.0656L189.19347 274.1281L187.61534 274.1281L187.61534 272.9406L189.41222 272.9406L189.91222 270.09686L191.14659 270.09686L190.66222 272.9406L191.97472 272.9406L192.47472 270.09686L193.72472 270.09686L193.22472 272.9406L194.72472 272.9406L194.72472 274.1281L193.02159 274.1281L192.67784 276.0656L194.20909 276.0656L194.20909 277.2531L192.47472 277.2531L191.97472 280.05L190.72472 280.05L191.22472 277.2531ZM190.11534 276.0656L191.42784 276.0656L191.77159 274.1281L190.44347 274.1281L190.11534 276.0656ZM198.11534 276.28436Q198.11534 275.175 198.53722 274.3156Q198.95909 273.45624 199.75597 272.9875Q200.55284 272.51874 201.59972 272.51874Q203.09972 272.51874 204.03722 273.4406Q204.99034 274.34686 205.09972 275.925L205.11534 276.425Q205.11534 278.1281 204.16222 279.15936Q203.22472 280.1906 201.61534 280.1906Q200.02159 280.1906 199.06847 279.15936Q198.11534 278.1281 198.11534 276.3781L198.11534 276.28436ZM200.08409 276.425Q200.08409 277.47186 200.47472 278.03436Q200.88097 278.59686 201.61534 278.59686Q202.33409 278.59686 202.74034 278.05Q203.14659 277.4875 203.14659 276.28436Q203.14659 275.2531 202.74034 274.6906Q202.33409 274.1125 201.59972 274.1125Q200.88097 274.1125 200.47472 274.675Q200.08409 275.2375 200.08409 276.425ZM206.95909 280.05L206.95909 274.09686L205.86534 274.09686L205.86534 272.65936L206.95909 272.65936L206.95909 272.01874Q206.95909 270.78436 207.67784 270.09686Q208.39659 269.40936 209.67784 269.40936Q210.08409 269.40936 210.67784 269.55L210.66222 271.08124Q210.41222 271.01874 210.05284 271.01874Q208.94347 271.01874 208.94347 272.0656L208.94347 272.65936L210.41222 272.65936L210.41222 274.09686L208.94347 274.09686L208.94347 280.05L206.95909 280.05ZM222.70909 275.3Q222.70909 276.6906 222.25597 277.72186Q221.81847 278.7531 221.00597 279.3781L222.66222 280.675L221.36534 281.83124L219.24034 280.1281Q218.88097 280.1906 218.49034 280.1906Q217.25597 280.1906 216.27159 279.59686Q215.30284 279.0031 214.77159 277.89374Q214.24034 276.78436 214.24034 275.34686L214.24034 274.8625Q214.24034 273.39374 214.77159 272.28436Q215.30284 271.15936 216.25597 270.5656Q217.22472 269.95624 218.47472 269.95624Q219.72472 269.95624 220.67784 270.5656Q221.64659 271.15936 222.17784 272.28436Q222.70909 273.39374 222.70909 274.84686L222.70909 275.3ZM220.63097 274.84686Q220.63097 273.28436 220.06847 272.47186Q219.52159 271.65936 218.47472 271.65936Q217.44347 271.65936 216.88097 272.47186Q216.31847 273.26874 216.31847 274.8156L216.31847 275.3Q216.31847 276.8156 216.88097 277.65936Q217.44347 278.5031 218.49034 278.5031Q219.52159 278.5031 220.06847 277.6906Q220.63097 276.8781 220.63097 275.33124L220.63097 274.84686ZM228.84972 279.3Q228.11534 280.1906 226.83409 280.1906Q225.63097 280.1906 225.00597 279.5031Q224.38097 278.8156 224.38097 277.5031L224.38097 272.65936L226.34972 272.65936L226.34972 277.425Q226.34972 278.58124 227.39659 278.58124Q228.41222 278.58124 228.78722 277.89374L228.78722 272.65936L230.77159 272.65936L230.77159 280.05L228.91222 280.05L228.84972 279.3ZM235.81847 280.1906Q234.19347 280.1906 233.17784 279.1906Q232.16222 278.1906 232.16222 276.53436L232.16222 276.33124Q232.16222 275.22186 232.58409 274.34686Q233.02159 273.47186 233.80284 273.0031Q234.59972 272.51874 235.59972 272.51874Q237.13097 272.51874 237.99034 273.47186Q238.86534 274.425 238.86534 276.1906L238.86534 276.9875L234.16222 276.9875Q234.25597 277.72186 234.74034 278.15936Q235.22472 278.59686 235.95909 278.59686Q237.09972 278.59686 237.74034 277.76874L238.70909 278.84686Q238.27159 279.4875 237.50597 279.84686Q236.75597 280.1906 235.81847 280.1906ZM235.59972 274.1125Q235.00597 274.1125 234.64659 274.51874Q234.28722 274.90936 234.17784 275.64374L236.92784 275.64374L236.92784 275.4875Q236.91222 274.83124 236.56847 274.47186Q236.22472 274.1125 235.59972 274.1125ZM244.58409 274.5031Q244.17784 274.45624 243.86534 274.45624Q242.74034 274.45624 242.39659 275.20624L242.39659 280.05L240.42784 280.05L240.42784 272.65936L242.28722 272.65936L242.34972 273.53436Q242.94347 272.51874 243.99034 272.51874Q244.31847 272.51874 244.59972 272.6125L244.58409 274.5031ZM247.50597 280.05L245.52159 280.05L245.52159 272.65936L247.50597 272.65936L247.50597 280.05ZM245.41222 270.7375Q245.41222 270.3 245.70909 270.01874Q246.00597 269.72186 246.52159 269.72186Q247.02159 269.72186 247.31847 270.01874Q247.61534 270.3 247.61534 270.7375Q247.61534 271.1906 247.31847 271.4875Q247.02159 271.76874 246.52159 271.76874Q246.02159 271.76874 245.70909 271.4875Q245.41222 271.1906 245.41222 270.7375ZM252.81847 280.1906Q251.19347 280.1906 250.17784 279.1906Q249.16222 278.1906 249.16222 276.53436L249.16222 276.33124Q249.16222 275.22186 249.58409 274.34686Q250.02159 273.47186 250.80284 273.0031Q251.59972 272.51874 252.59972 272.51874Q254.13097 272.51874 254.99034 273.47186Q255.86534 274.425 255.86534 276.1906L255.86534 276.9875L251.16222 276.9875Q251.25597 277.72186 251.74034 278.15936Q252.22472 278.59686 252.95909 278.59686Q254.09972 278.59686 254.74034 277.76874L255.70909 278.84686Q255.27159 279.4875 254.50597 279.84686Q253.75597 280.1906 252.81847 280.1906ZM252.59972 274.1125Q252.00597 274.1125 251.64659 274.51874Q251.28722 274.90936 251.17784 275.64374L253.92784 275.64374L253.92784 275.4875Q253.91222 274.83124 253.56847 274.47186Q253.22472 274.1125 252.59972 274.1125ZM261.42786 278.0031Q261.42786 277.64374 261.06848 277.4406Q260.7091 277.22186 259.91223 277.0656Q257.2716 276.5031 257.2716 274.8156Q257.2716 273.83124 258.0841 273.175Q258.91223 272.51874 260.22473 272.51874Q261.6466 272.51874 262.49036 273.1906Q263.3341 273.84686 263.3341 274.90936L261.34973 274.90936Q261.34973 274.47186 261.06848 274.20624Q260.80286 273.925 260.22473 273.925Q259.72473 273.925 259.44348 274.15936Q259.17786 274.3781 259.17786 274.72186Q259.17786 275.05 259.49036 275.2531Q259.80286 275.45624 260.53723 275.6125Q261.2716 275.7531 261.78723 275.9406Q263.34973 276.5031 263.34973 277.925Q263.34973 278.9406 262.47473 279.5656Q261.61536 280.1906 260.24036 280.1906Q259.30286 280.1906 258.5841 279.8625Q257.86536 279.51874 257.4591 278.9406Q257.05286 278.3625 257.05286 277.6906L258.91223 277.6906Q258.94348 278.22186 259.30286 278.5031Q259.67786 278.78436 260.2716 278.78436Q260.84973 278.78436 261.13098 278.5656Q261.42786 278.34686 261.42786 278.0031Z" fill-rule="nonzero"/><path fill="#f3f3f3" d="M19.653112 208.10834L19.653112 211.15521L27.949987 211.15521L27.949987 213.20209L19.653112 213.20209L19.653112 216.20209L17.996862 216.20209L17.996862 208.10834L19.653112 208.10834ZM27.949987 204.63959L27.949987 206.62396L20.559362 206.62396L20.559362 204.63959L27.949987 204.63959ZM18.637487 206.73334Q18.199987 206.73334 17.918737 206.43646Q17.621862 206.13959 17.621862 205.62396Q17.621862 205.12396 17.918737 204.82709Q18.199987 204.53021 18.637487 204.53021Q19.090612 204.53021 19.387487 204.82709Q19.668737 205.12396 19.668737 205.62396Q19.668737 206.12396 19.387487 206.43646Q19.090612 206.73334 18.637487 206.73334ZM20.559362 200.87396L21.387487 200.81146Q20.418737 200.03021 20.418737 198.68646Q20.418737 197.24896 21.543737 196.71771Q20.418737 195.93646 20.418737 194.49896Q20.418737 193.29584 21.121862 192.71771Q21.824987 192.12396 23.231237 192.12396L27.949987 192.12396L27.949987 194.10834L23.231237 194.10834Q22.606237 194.10834 22.324987 194.35834Q22.028112 194.59271 22.028112 195.21771Q22.028112 196.10834 22.871862 196.45209L27.949987 196.43646L27.949987 198.42084L23.246862 198.42084Q22.590612 198.42084 22.309362 198.67084Q22.028112 198.92084 22.028112 199.53021Q22.028112 200.37396 22.715612 200.74896L27.949987 200.74896L27.949987 202.71771L20.559362 202.71771L20.559362 200.87396ZM28.090612 187.32709Q28.090612 188.95209 27.090612 189.96771Q26.090612 190.98334 24.434362 190.98334L24.231237 190.98334Q23.121862 190.98334 22.246862 190.56146Q21.371862 190.12396 20.903112 189.34271Q20.418737 188.54584 20.418737 187.54584Q20.418737 186.01459 21.371862 185.15521Q22.324987 184.28021 24.090612 184.28021L24.887487 184.28021L24.887487 188.98334Q25.621862 188.88959 26.059362 188.40521Q26.496862 187.92084 26.496862 187.18646Q26.496862 186.04584 25.668737 185.40521L26.746862 184.43646Q27.387487 184.87396 27.746862 185.63959Q28.090612 186.38959 28.090612 187.32709ZM22.012487 187.54584Q22.012487 188.13959 22.418737 188.49896Q22.809362 188.85834 23.543737 188.96771L23.543737 186.21771L23.387487 186.21771Q22.731237 186.23334 22.371862 186.57709Q22.012487 186.92084 22.012487 187.54584ZM18.731237 177.35834L20.559362 177.35834L20.559362 176.09271L21.996862 176.09271L21.996862 177.35834L25.699987 177.35834Q26.106237 177.35834 26.293737 177.20209Q26.465612 177.04584 26.465612 176.59271Q26.465612 176.26459 26.418737 176.01459L27.903112 176.01459Q28.090612 176.59271 28.090612 177.21771Q28.090612 179.29584 25.981237 179.32709L21.996862 179.32709L21.996862 180.42084L20.559362 180.42084L20.559362 179.32709L18.731237 179.32709L18.731237 177.35834ZM27.949987 170.43646Q27.684362 170.57709 27.293737 170.63959Q28.090612 171.35834 28.090612 172.49896Q28.090612 173.59271 27.465612 174.31146Q26.824987 175.01459 25.871862 175.01459Q24.699987 175.01459 24.074987 174.15521Q23.434362 173.28021 23.434362 171.62396L23.434362 170.71771L23.012487 170.71771Q22.496862 170.71771 22.184362 170.98334Q21.871862 171.24896 21.871862 171.81146Q21.871862 172.31146 22.121862 172.59271Q22.356237 172.87396 22.778112 172.87396L22.778112 174.85834Q22.137487 174.85834 21.590612 174.46771Q21.043737 174.06146 20.731237 173.34271Q20.418737 172.60834 20.418737 171.70209Q20.418737 170.34271 21.106237 169.54584Q21.793737 168.73334 23.028112 168.73334L26.246862 168.73334Q27.293737 168.73334 27.840612 168.43646L27.949987 168.43646L27.949987 170.43646ZM26.574987 172.07709Q26.574987 171.63959 26.387487 171.26459Q26.184362 170.88959 25.856237 170.71771L24.590612 170.71771L24.590612 171.45209Q24.590612 172.93646 25.606237 173.03021L25.731237 173.04584Q26.090612 173.04584 26.340612 172.79584Q26.574987 172.53021 26.574987 172.07709ZM24.981237 164.03021L25.699987 164.74896L27.949987 164.74896L27.949987 166.71771L17.449987 166.71771L17.449987 164.74896L23.262487 164.74896L22.778112 164.35834L20.559362 162.46771L20.559362 160.09271L23.637487 162.78021L27.949987 159.87396L27.949987 162.13959L24.981237 164.03021ZM28.090612 156.32709Q28.090612 157.95209 27.090612 158.96771Q26.090612 159.98334 24.434362 159.98334L24.231237 159.98334Q23.121862 159.98334 22.246862 159.56146Q21.371862 159.12396 20.903112 158.34271Q20.418737 157.54584 20.418737 156.54584Q20.418737 155.01459 21.371862 154.15521Q22.324987 153.28021 24.090612 153.28021L24.887487 153.28021L24.887487 157.98334Q25.621862 157.88959 26.059362 157.40521Q26.496862 156.92084 26.496862 156.18646Q26.496862 155.04584 25.668737 154.40521L26.746862 153.43646Q27.387487 153.87396 27.746862 154.63959Q28.090612 155.38959 28.090612 156.32709ZM22.012487 156.54584Q22.012487 157.13959 22.418737 157.49896Q22.809362 157.85834 23.543737 157.96771L23.543737 155.21771L23.387487 155.21771Q22.731237 155.23334 22.371862 155.57709Q22.012487 155.92084 22.012487 156.54584ZM20.559362 149.90521L21.403112 149.84271Q20.418737 149.04584 20.418737 147.71771Q20.418737 146.54584 21.106237 145.96771Q21.793737 145.38959 23.168737 145.37396L27.949987 145.37396L27.949987 147.35834L23.215612 147.35834Q22.590612 147.35834 22.309362 147.63959Q22.028112 147.90521 22.028112 148.54584Q22.028112 149.37396 22.731237 149.79584L27.949987 149.79584L27.949987 151.76459L20.559362 151.76459L20.559362 149.90521ZM23.903112 140.63959Q22.340612 140.63959 20.934362 140.21771Q19.512487 139.79584 18.418737 138.98334Q17.324987 138.17084 16.903112 137.21771L17.965612 136.84271Q18.699987 137.84271 20.246862 138.40521Q21.793737 138.96771 23.856237 138.96771L24.074987 138.96771Q26.137487 138.96771 27.699987 138.42084Q29.246862 137.85834 30.012487 136.84271L31.059362 137.21771Q30.637487 138.15521 29.574987 138.96771Q28.528112 139.76459 27.153112 140.18646Q25.762487 140.60834 24.262487 140.63959L23.903112 140.63959ZM25.903112 131.71771Q25.543737 131.71771 25.340612 132.07709Q25.121862 132.43646 24.965612 133.23334Q24.403112 135.87396 22.715612 135.87396Q21.731237 135.87396 21.074987 135.06146Q20.418737 134.23334 20.418737 132.92084Q20.418737 131.49896 21.090612 130.65521Q21.746862 129.81146 22.809362 129.81146L22.809362 131.79584Q22.371862 131.79584 22.106237 132.07709Q21.824987 132.34271 21.824987 132.92084Q21.824987 133.42084 22.059362 133.70209Q22.278112 133.96771 22.621862 133.96771Q22.949987 133.96771 23.153112 133.65521Q23.356237 133.34271 23.512487 132.60834Q23.653112 131.87396 23.840612 131.35834Q24.403112 129.79584 25.824987 129.79584Q26.840612 129.79584 27.465612 130.67084Q28.090612 131.53021 28.090612 132.90521Q28.090612 133.84271 27.762487 134.56146Q27.418737 135.28021 26.840612 135.68646Q26.262487 136.09271 25.590612 136.09271L25.590612 134.23334Q26.121862 134.20209 26.403112 133.84271Q26.684362 133.46771 26.684362 132.87396Q26.684362 132.29584 26.465612 132.01459Q26.246862 131.71771 25.903112 131.71771ZM28.090612 125.32709Q28.090612 126.95209 27.090612 127.96771Q26.090612 128.98334 24.434362 128.98334L24.231237 128.98334Q23.121862 128.98334 22.246862 128.56146Q21.371862 128.12396 20.903112 127.34271Q20.418737 126.54584 20.418737 125.54584Q20.418737 124.01459 21.371862 123.15521Q22.324987 122.28021 24.090612 122.28021L24.887487 122.28021L24.887487 126.98334Q25.621862 126.88959 26.059362 126.40521Q26.496862 125.92084 26.496862 125.18646Q26.496862 124.04584 25.668737 123.40521L26.746862 122.43646Q27.387487 122.87396 27.746862 123.63959Q28.090612 124.38959 28.090612 125.32709ZM22.012487 125.54584Q22.012487 126.13959 22.418737 126.49896Q22.809362 126.85834 23.543737 126.96771L23.543737 124.21771L23.387487 124.21771Q22.731237 124.23334 22.371862 124.57709Q22.012487 124.92084 22.012487 125.54584ZM26.496862 117.65521Q26.496862 117.10834 26.199987 116.76459Q25.887487 116.42084 25.387487 116.40521L25.387487 114.54584Q26.137487 114.56146 26.778112 114.96771Q27.403112 115.35834 27.746862 116.06146Q28.090612 116.76459 28.090612 117.60834Q28.090612 119.20209 27.090612 120.12396Q26.074987 121.03021 24.293737 121.03021L24.168737 121.03021Q22.449987 121.03021 21.434362 120.12396Q20.418737 119.21771 20.418737 117.62396Q20.418737 116.23334 21.215612 115.40521Q21.996862 114.56146 23.309362 114.54584L23.309362 116.40521Q22.731237 116.42084 22.371862 116.76459Q22.012487 117.10834 22.012487 117.65521Q22.012487 118.35834 22.528112 118.71771Q23.028112 119.06146 24.153112 119.06146L24.356237 119.06146Q25.496862 119.06146 25.996862 118.71771Q26.496862 118.35834 26.496862 117.65521ZM24.184362 114.03021Q23.074987 114.03021 22.215612 113.60834Q21.356237 113.18646 20.887487 112.38959Q20.418737 111.59271 20.418737 110.54584Q20.418737 109.04584 21.340612 108.10834Q22.246862 107.15521 23.824987 107.04584L24.324987 107.03021Q26.028112 107.03021 27.059362 107.98334Q28.090612 108.92084 28.090612 110.53021Q28.090612 112.12396 27.059362 113.07709Q26.028112 114.03021 24.278112 114.03021L24.184362 114.03021ZM24.324987 112.06146Q25.371862 112.06146 25.934362 111.67084Q26.496862 111.26459 26.496862 110.53021Q26.496862 109.81146 25.949987 109.40521Q25.387487 108.99896 24.184362 108.99896Q23.153112 108.99896 22.590612 109.40521Q22.012487 109.81146 22.012487 110.54584Q22.012487 111.26459 22.574987 111.67084Q23.137487 112.06146 24.324987 112.06146ZM20.559362 103.90521L21.403112 103.84271Q20.418737 103.04584 20.418737 101.71771Q20.418737 100.54584 21.106237 99.96771Q21.793737 99.38959 23.168737 99.37396L27.949987 99.37396L27.949987 101.35834L23.215612 101.35834Q22.590612 101.35834 22.309362 101.63959Q22.028112 101.90521 22.028112 102.54584Q22.028112 103.37396 22.731237 103.79584L27.949987 103.79584L27.949987 105.76459L20.559362 105.76459L20.559362 103.90521ZM24.199987 98.03021Q22.465612 98.03021 21.449987 97.26459Q20.418737 96.48334 20.418737 95.13959Q20.418737 94.04584 21.215612 93.34271L17.449987 93.34271L17.449987 91.37396L27.949987 91.37396L27.949987 93.15521L27.168737 93.24896Q28.090612 93.98334 28.090612 95.13959Q28.090612 96.45209 27.059362 97.24896Q26.028112 98.03021 24.199987 98.03021ZM24.340612 96.06146Q25.371862 96.06146 25.934362 95.70209Q26.481237 95.32709 26.481237 94.63959Q26.481237 93.71771 25.715612 93.34271L22.793737 93.34271Q22.028112 93.71771 22.028112 94.62396Q22.028112 96.06146 24.340612 96.06146ZM25.903112 85.71771Q25.543737 85.71771 25.340612 86.07709Q25.121862 86.43646 24.965612 87.23334Q24.403112 89.87396 22.715612 89.87396Q21.731237 89.87396 21.074987 89.06146Q20.418737 88.23334 20.418737 86.92084Q20.418737 85.49896 21.090612 84.65521Q21.746862 83.81146 22.809362 83.81146L22.809362 85.79584Q22.371862 85.79584 22.106237 86.07709Q21.824987 86.34271 21.824987 86.92084Q21.824987 87.42084 22.059362 87.70209Q22.278112 87.96771 22.621862 87.96771Q22.949987 87.96771 23.153112 87.65521Q23.356237 87.34271 23.512487 86.60834Q23.653112 85.87396 23.840612 85.35834Q24.403112 83.79584 25.824987 83.79584Q26.840612 83.79584 27.465612 84.67084Q28.090612 85.53021 28.090612 86.90521Q28.090612 87.84271 27.762487 88.56146Q27.418737 89.28021 26.840612 89.68646Q26.262487 90.09271 25.590612 90.09271L25.590612 88.23334Q26.121862 88.20209 26.403112 87.84271Q26.684362 87.46771 26.684362 86.87396Q26.684362 86.29584 26.465612 86.01459Q26.246862 85.71771 25.903112 85.71771ZM24.059362 79.32709Q25.606237 79.32709 27.043737 79.76459Q28.465612 80.20209 29.559362 81.04584Q30.653112 81.87396 31.059362 82.82709L30.012487 83.20209Q29.278112 82.23334 27.762487 81.68646Q26.231237 81.12396 24.246862 81.09271L23.887487 81.09271Q21.840612 81.09271 20.293737 81.65521Q18.731237 82.21771 17.949987 83.20209L16.903112 82.82709Q17.309362 81.88959 18.371862 81.07709Q19.418737 80.24896 20.840612 79.79584Q22.246862 79.34271 23.746862 79.32709L24.059362 79.32709Z" fill-rule="nonzero"/><path fill="#f3f3f3" d="M67.45 225.81563Q67.45 224.28438 67.7625 223.3625Q68.075 222.425 68.68437 221.925Q69.30937 221.425 70.24687 221.425Q70.93437 221.425 71.45 221.70625Q71.98125 221.9875 72.325 222.51875Q72.66875 223.03438 72.85625 223.78438Q73.04375 224.53438 73.04375 225.81563Q73.04375 227.33125 72.73125 228.25313Q72.43437 229.175 71.80937 229.69063Q71.2 230.19063 70.24687 230.19063Q69.0125 230.19063 68.29375 229.3Q67.45 228.2375 67.45 225.81563ZM68.52812 225.81563Q68.52812 227.925 69.02812 228.62813Q69.52812 229.33125 70.24687 229.33125Q70.98125 229.33125 71.46562 228.62813Q71.96562 227.925 71.96562 225.81563Q71.96562 223.69063 71.46562 223.00313Q70.98125 222.3 70.23125 222.3Q69.5125 222.3 69.075 222.90938Q68.52812 223.69063 68.52812 225.81563Z" fill-rule="nonzero"/><path fill="#f3f3f3" d="M60.45 185.26666L61.559376 185.17291Q61.684376 185.98541 62.121876 186.39166Q62.575 186.79791 63.215626 186.79791Q63.965626 186.79791 64.49687 186.21979Q65.02812 185.64166 65.02812 184.70416Q65.02812 183.79791 64.5125 183.28229Q64.0125 182.75104 63.184376 182.75104Q62.684376 182.75104 62.2625 182.98541Q61.85625 183.21979 61.621876 183.57916L60.6375 183.45416L61.465626 179.04791L65.74687 179.04791L65.74687 180.04791L62.309376 180.04791L61.85625 182.36041Q62.621876 181.81354 63.465626 181.81354Q64.59062 181.81354 65.35625 182.59479Q66.1375 183.37604 66.1375 184.61041Q66.1375 185.76666 65.46562 186.62604Q64.6375 187.65729 63.215626 187.65729Q62.04375 187.65729 61.29375 187.00104Q60.559376 186.34479 60.45 185.26666ZM67.45 183.28229Q67.45 181.75104 67.7625 180.82916Q68.075 179.89166 68.68437 179.39166Q69.30937 178.89166 70.24687 178.89166Q70.93437 178.89166 71.45 179.17291Q71.98125 179.45416 72.325 179.98541Q72.66875 180.50104 72.85625 181.25104Q73.04375 182.00104 73.04375 183.28229Q73.04375 184.79791 72.73125 185.71979Q72.43437 186.64166 71.80937 187.15729Q71.2 187.65729 70.24687 187.65729Q69.0125 187.65729 68.29375 186.76666Q67.45 185.70416 67.45 183.28229ZM68.52812 183.28229Q68.52812 185.39166 69.02812 186.09479Q69.52812 186.79791 70.24687 186.79791Q70.98125 186.79791 71.46562 186.09479Q71.96562 185.39166 71.96562 183.28229Q71.96562 181.15729 71.46562 180.46979Q70.98125 179.76666 70.23125 179.76666Q69.5125 179.76666 69.075 180.37604Q68.52812 181.15729 68.52812 183.28229Z" fill-rule="nonzero"/><path fill="#f3f3f3" d="M57.41875 144.98334L56.371876 144.98334L56.371876 138.26459Q55.98125 138.62396 55.35625 138.99896Q54.746876 139.35834 54.2625 139.53021L54.2625 138.51459Q55.1375 138.09271 55.79375 137.51459Q56.465626 136.92084 56.746876 136.35834L57.41875 136.35834L57.41875 144.98334ZM60.45 140.74896Q60.45 139.21771 60.7625 138.29584Q61.075 137.35834 61.684376 136.85834Q62.309376 136.35834 63.246876 136.35834Q63.934376 136.35834 64.45 136.63959Q64.98125 136.92084 65.325 137.45209Q65.66875 137.96771 65.85625 138.71771Q66.04375 139.46771 66.04375 140.74896Q66.04375 142.26459 65.73125 143.18646Q65.43437 144.10834 64.80937 144.62396Q64.2 145.12396 63.246876 145.12396Q62.0125 145.12396 61.29375 144.23334Q60.45 143.17084 60.45 140.74896ZM61.528126 140.74896Q61.528126 142.85834 62.028126 143.56146Q62.528126 144.26459 63.246876 144.26459Q63.98125 144.26459 64.46562 143.56146Q64.96562 142.85834 64.96562 140.74896Q64.96562 138.62396 64.46562 137.93646Q63.98125 137.23334 63.23125 137.23334Q62.5125 137.23334 62.075 137.84271Q61.528126 138.62396 61.528126 140.74896ZM67.45 140.74896Q67.45 139.21771 67.7625 138.29584Q68.075 137.35834 68.68437 136.85834Q69.30937 136.35834 70.24687 136.35834Q70.93437 136.35834 71.45 136.63959Q71.98125 136.92084 72.325 137.45209Q72.66875 137.96771 72.85625 138.71771Q73.04375 139.46771 73.04375 140.74896Q73.04375 142.26459 72.73125 143.18646Q72.43437 144.10834 71.80937 144.62396Q71.2 145.12396 70.24687 145.12396Q69.0125 145.12396 68.29375 144.23334Q67.45 143.17084 67.45 140.74896ZM68.52812 140.74896Q68.52812 142.85834 69.02812 143.56146Q69.52812 144.26459 70.24687 144.26459Q70.98125 144.26459 71.46562 143.56146Q71.96562 142.85834 71.96562 140.74896Q71.96562 138.62396 71.46562 137.93646Q70.98125 137.23334 70.23125 137.23334Q69.5125 137.23334 69.075 137.84271Q68.52812 138.62396 68.52812 140.74896Z" fill-rule="nonzero"/><path fill="#f3f3f3" d="M57.41875 102.45L56.371876 102.45L56.371876 95.73125Q55.98125 96.09062 55.35625 96.46562Q54.746876 96.825 54.2625 96.99687L54.2625 95.98125Q55.1375 95.55937 55.79375 94.98125Q56.465626 94.3875 56.746876 93.825L57.41875 93.825L57.41875 102.45ZM60.45 100.2L61.559376 100.10625Q61.684376 100.91875 62.121876 101.325Q62.575 101.73125 63.215626 101.73125Q63.965626 101.73125 64.49687 101.15312Q65.02812 100.575 65.02812 99.6375Q65.02812 98.73125 64.5125 98.21562Q64.0125 97.68437 63.184376 97.68437Q62.684376 97.68437 62.2625 97.91875Q61.85625 98.15312 61.621876 98.5125L60.6375 98.3875L61.465626 93.98125L65.74687 93.98125L65.74687 94.98125L62.309376 94.98125L61.85625 97.29375Q62.621876 96.74687 63.465626 96.74687Q64.59062 96.74687 65.35625 97.52812Q66.1375 98.30937 66.1375 99.54375Q66.1375 100.7 65.46562 101.55937Q64.6375 102.59062 63.215626 102.59062Q62.04375 102.59062 61.29375 101.93437Q60.559376 101.27812 60.45 100.2ZM67.45 98.21562Q67.45 96.68437 67.7625 95.7625Q68.075 94.825 68.68437 94.325Q69.30937 93.825 70.24687 93.825Q70.93437 93.825 71.45 94.10625Q71.98125 94.3875 72.325 94.91875Q72.66875 95.43437 72.85625 96.18437Q73.04375 96.93437 73.04375 98.21562Q73.04375 99.73125 72.73125 100.65312Q72.43437 101.575 71.80937 102.09062Q71.2 102.59062 70.24687 102.59062Q69.0125 102.59062 68.29375 101.7Q67.45 100.6375 67.45 98.21562ZM68.52812 98.21562Q68.52812 100.325 69.02812 101.02812Q69.52812 101.73125 70.24687 101.73125Q70.98125 101.73125 71.46562 101.02812Q71.96562 100.325 71.96562 98.21562Q71.96562 96.09062 71.46562 95.40312Q70.98125 94.7 70.23125 94.7Q69.5125 94.7 69.075 95.30937Q68.52812 96.09062 68.52812 98.21562Z" fill-rule="nonzero"/><path fill="#f3f3f3" d="M58.996876 58.901043L58.996876 59.916668L53.309376 59.916668Q53.309376 59.541668 53.434376 59.182293Q53.653126 58.604168 54.121876 58.041668Q54.60625 57.479168 55.5125 56.744793Q56.91875 55.588543 57.403126 54.916668Q57.903126 54.244793 57.903126 53.651043Q57.903126 53.026043 57.45 52.604168Q56.996876 52.166668 56.278126 52.166668Q55.5125 52.166668 55.059376 52.619793Q54.60625 53.072918 54.590626 53.885418L53.5125 53.776043Q53.621876 52.557293 54.340626 51.932293Q55.075 51.291668 56.309376 51.291668Q57.54375 51.291668 58.2625 51.979168Q58.98125 52.666668 58.98125 53.682293Q58.98125 54.197918 58.7625 54.697918Q58.559376 55.182293 58.059376 55.744793Q57.575 56.291668 56.45 57.244793Q55.496876 58.041668 55.215626 58.338543Q54.95 58.619793 54.778126 58.901043L58.996876 58.901043ZM60.45 55.682293Q60.45 54.151043 60.7625 53.229168Q61.075 52.291668 61.684376 51.791668Q62.309376 51.291668 63.246876 51.291668Q63.934376 51.291668 64.45 51.572918Q64.98125 51.854168 65.325 52.385418Q65.66875 52.901043 65.85625 53.651043Q66.04375 54.401043 66.04375 55.682293Q66.04375 57.197918 65.73125 58.119793Q65.43437 59.041668 64.80937 59.557293Q64.2 60.057293 63.246876 60.057293Q62.0125 60.057293 61.29375 59.166668Q60.45 58.104168 60.45 55.682293ZM61.528126 55.682293Q61.528126 57.791668 62.028126 58.494793Q62.528126 59.197918 63.246876 59.197918Q63.98125 59.197918 64.46562 58.494793Q64.96562 57.791668 64.96562 55.682293Q64.96562 53.557293 64.46562 52.869793Q63.98125 52.166668 63.23125 52.166668Q62.5125 52.166668 62.075 52.776043Q61.528126 53.557293 61.528126 55.682293ZM67.45 55.682293Q67.45 54.151043 67.7625 53.229168Q68.075 52.291668 68.68437 51.791668Q69.30937 51.291668 70.24687 51.291668Q70.93437 51.291668 71.45 51.572918Q71.98125 51.854168 72.325 52.385418Q72.66875 52.901043 72.85625 53.651043Q73.04375 54.401043 73.04375 55.682293Q73.04375 57.197918 72.73125 58.119793Q72.43437 59.041668 71.80937 59.557293Q71.2 60.057293 70.24687 60.057293Q69.0125 60.057293 68.29375 59.166668Q67.45 58.104168 67.45 55.682293ZM68.52812 55.682293Q68.52812 57.791668 69.02812 58.494793Q69.52812 59.197918 70.24687 59.197918Q70.98125 59.197918 71.46562 58.494793Q71.96562 57.791668 71.96562 55.682293Q71.96562 53.557293 71.46562 52.869793Q70.98125 52.166668 70.23125 52.166668Q69.5125 52.166668 69.075 52.776043Q68.52812 53.557293 68.52812 55.682293Z" fill-rule="nonzero"/><path fill="#f3f3f3" d="M116.08514 240.8L117.19451 240.70625Q117.31951 241.51875 117.75701 241.925Q118.21014 242.33125 118.85076 242.33125Q119.60076 242.33125 120.13201 241.75313Q120.66326 241.175 120.66326 240.2375Q120.66326 239.33125 120.14764 238.81563Q119.64764 238.28438 118.81951 238.28438Q118.31951 238.28438 117.89764 238.51875Q117.49139 238.75313 117.25701 239.1125L116.27264 238.9875L117.10076 234.58125L121.38201 234.58125L121.38201 235.58125L117.94451 235.58125L117.49139 237.89375Q118.25701 237.34688 119.10076 237.34688Q120.22576 237.34688 120.99139 238.12813Q121.77264 238.90938 121.77264 240.14375Q121.77264 241.3 121.10076 242.15938Q120.27264 243.19063 118.85076 243.19063Q117.67889 243.19063 116.92889 242.53438Q116.19451 241.87813 116.08514 240.8ZM123.08514 238.81563Q123.08514 237.28438 123.39764 236.3625Q123.71014 235.425 124.31951 234.925Q124.94451 234.425 125.88201 234.425Q126.56951 234.425 127.08514 234.70625Q127.61639 234.9875 127.96014 235.51875Q128.3039 236.03438 128.4914 236.78438Q128.6789 237.53438 128.6789 238.81563Q128.6789 240.33125 128.3664 241.25313Q128.06952 242.175 127.44451 242.69063Q126.83514 243.19063 125.88201 243.19063Q124.64764 243.19063 123.92889 242.3Q123.08514 241.2375 123.08514 238.81563ZM124.16326 238.81563Q124.16326 240.925 124.66326 241.62813Q125.16326 242.33125 125.88201 242.33125Q126.61639 242.33125 127.10076 241.62813Q127.60076 240.925 127.60076 238.81563Q127.60076 236.69063 127.10076 236.00313Q126.61639 235.3 125.86639 235.3Q125.14764 235.3 124.71014 235.90938Q124.16326 236.69063 124.16326 238.81563ZM130.08514 238.81563Q130.08514 237.28438 130.39764 236.3625Q130.71014 235.425 131.31952 234.925Q131.94452 234.425 132.88202 234.425Q133.56952 234.425 134.08514 234.70625Q134.6164 234.9875 134.96014 235.51875Q135.3039 236.03438 135.4914 236.78438Q135.6789 237.53438 135.6789 238.81563Q135.6789 240.33125 135.3664 241.25313Q135.06952 242.175 134.44452 242.69063Q133.83514 243.19063 132.88202 243.19063Q131.64764 243.19063 130.9289 242.3Q130.08514 241.2375 130.08514 238.81563ZM131.16327 238.81563Q131.16327 240.925 131.66327 241.62813Q132.16327 242.33125 132.88202 242.33125Q133.6164 242.33125 134.10077 241.62813Q134.60077 240.925 134.60077 238.81563Q134.60077 236.69063 134.10077 236.00313Q133.6164 235.3 132.8664 235.3Q132.14764 235.3 131.71014 235.90938Q131.16327 236.69063 131.16327 238.81563Z" fill-rule="nonzero"/><path fill="#f3f3f3" d="M163.41724 235.58125L163.41724 234.56563L168.97974 234.56563L168.97974 235.39375Q168.16724 236.26875 167.35474 237.72188Q166.55786 239.15938 166.12036 240.69063Q165.79224 241.76875 165.71411 243.05L164.62036 243.05Q164.63599 242.03438 165.01099 240.59688Q165.40161 239.15938 166.10474 237.83125Q166.82349 236.50313 167.63599 235.58125L163.41724 235.58125ZM170.35474 240.8L171.46411 240.70625Q171.58911 241.51875 172.02661 241.925Q172.47974 242.33125 173.12036 242.33125Q173.87036 242.33125 174.40161 241.75313Q174.93286 241.175 174.93286 240.2375Q174.93286 239.33125 174.41724 238.81563Q173.91724 238.28438 173.08911 238.28438Q172.58911 238.28438 172.16724 238.51875Q171.76099 238.75313 171.52661 239.1125L170.54224 238.9875L171.37036 234.58125L175.65161 234.58125L175.65161 235.58125L172.21411 235.58125L171.76099 237.89375Q172.52661 237.34688 173.37036 237.34688Q174.49536 237.34688 175.26099 238.12813Q176.04224 238.90938 176.04224 240.14375Q176.04224 241.3 175.37036 242.15938Q174.54224 243.19063 173.12036 243.19063Q171.94849 243.19063 171.19849 242.53438Q170.46411 241.87813 170.35474 240.8ZM177.35474 238.81563Q177.35474 237.28438 177.66724 236.3625Q177.97974 235.425 178.58911 234.925Q179.21411 234.425 180.15161 234.425Q180.83911 234.425 181.35474 234.70625Q181.88599 234.9875 182.22974 235.51875Q182.57349 236.03438 182.76099 236.78438Q182.94849 237.53438 182.94849 238.81563Q182.94849 240.33125 182.63599 241.25313Q182.33911 242.175 181.71411 242.69063Q181.10474 243.19063 180.15161 243.19063Q178.91724 243.19063 178.19849 242.3Q177.35474 241.2375 177.35474 238.81563ZM178.43286 238.81563Q178.43286 240.925 178.93286 241.62813Q179.43286 242.33125 180.15161 242.33125Q180.88599 242.33125 181.37036 241.62813Q181.87036 240.925 181.87036 238.81563Q181.87036 236.69063 181.37036 236.00313Q180.88599 235.3 180.13599 235.3Q179.41724 235.3 178.97974 235.90938Q178.43286 236.69063 178.43286 238.81563Z" fill-rule="nonzero"/><path fill="#f3f3f3" d="M211.0931 243.05L210.04622 243.05L210.04622 236.33125Q209.6556 236.69063 209.0306 237.06563Q208.42122 237.425 207.93684 237.59688L207.93684 236.58125Q208.81184 236.15938 209.4681 235.58125Q210.13997 234.9875 210.42122 234.425L211.0931 234.425L211.0931 243.05ZM214.12434 238.81563Q214.12434 237.28438 214.43684 236.3625Q214.74934 235.425 215.35872 234.925Q215.98372 234.425 216.92122 234.425Q217.60872 234.425 218.12434 234.70625Q218.6556 234.9875 218.99934 235.51875Q219.3431 236.03438 219.5306 236.78438Q219.7181 237.53438 219.7181 238.81563Q219.7181 240.33125 219.4056 241.25313Q219.10872 242.175 218.48372 242.69063Q217.87434 243.19063 216.92122 243.19063Q215.68684 243.19063 214.9681 242.3Q214.12434 241.2375 214.12434 238.81563ZM215.20247 238.81563Q215.20247 240.925 215.70247 241.62813Q216.20247 242.33125 216.92122 242.33125Q217.6556 242.33125 218.13997 241.62813Q218.63997 240.925 218.63997 238.81563Q218.63997 236.69063 218.13997 236.00313Q217.6556 235.3 216.9056 235.3Q216.18684 235.3 215.74934 235.90938Q215.20247 236.69063 215.20247 238.81563ZM221.12434 238.81563Q221.12434 237.28438 221.43684 236.3625Q221.74934 235.425 222.35872 234.925Q222.98372 234.425 223.92122 234.425Q224.60872 234.425 225.12434 234.70625Q225.6556 234.9875 225.99934 235.51875Q226.3431 236.03438 226.5306 236.78438Q226.7181 237.53438 226.7181 238.81563Q226.7181 240.33125 226.4056 241.25313Q226.10872 242.175 225.48372 242.69063Q224.87434 243.19063 223.92122 243.19063Q222.68684 243.19063 221.9681 242.3Q221.12434 241.2375 221.12434 238.81563ZM222.20247 238.81563Q222.20247 240.925 222.70247 241.62813Q223.20247 242.33125 223.92122 242.33125Q224.6556 242.33125 225.13997 241.62813Q225.63997 240.925 225.63997 238.81563Q225.63997 236.69063 225.13997 236.00313Q224.6556 235.3 223.9056 235.3Q223.18684 235.3 222.74934 235.90938Q222.20247 236.69063 222.20247 238.81563ZM228.12434 238.81563Q228.12434 237.28438 228.43684 236.3625Q228.74934 235.425 229.35872 234.925Q229.98372 234.425 230.92122 234.425Q231.60872 234.425 232.12434 234.70625Q232.6556 234.9875 232.99934 235.51875Q233.3431 236.03438 233.5306 236.78438Q233.7181 237.53438 233.7181 238.81563Q233.7181 240.33125 233.4056 241.25313Q233.10872 242.175 232.48372 242.69063Q231.87434 243.19063 230.92122 243.19063Q229.68684 243.19063 228.9681 242.3Q228.12434 241.2375 228.12434 238.81563ZM229.20247 238.81563Q229.20247 240.925 229.70247 241.62813Q230.20247 242.33125 230.92122 242.33125Q231.6556 242.33125 232.13997 241.62813Q232.63997 240.925 232.63997 238.81563Q232.63997 236.69063 232.13997 236.00313Q231.6556 235.3 230.9056 235.3Q230.18684 235.3 229.74934 235.90938Q229.20247 236.69063 229.20247 238.81563Z" fill-rule="nonzero"/><path fill="#f3f3f3" d="M258.3627 243.05L257.31583 243.05L257.31583 236.33125Q256.9252 236.69063 256.3002 237.06563Q255.69083 237.425 255.20645 237.59688L255.20645 236.58125Q256.08145 236.15938 256.7377 235.58125Q257.40958 234.9875 257.69083 234.425L258.3627 234.425L258.3627 243.05ZM266.94083 242.03438L266.94083 243.05L261.25333 243.05Q261.25333 242.675 261.37833 242.31563Q261.59708 241.7375 262.06583 241.175Q262.5502 240.6125 263.45645 239.87813Q264.8627 238.72188 265.34708 238.05Q265.84708 237.37813 265.84708 236.78438Q265.84708 236.15938 265.39395 235.7375Q264.94083 235.3 264.22208 235.3Q263.45645 235.3 263.00333 235.75313Q262.5502 236.20625 262.53458 237.01875L261.45645 236.90938Q261.56583 235.69063 262.28458 235.06563Q263.01895 234.425 264.25333 234.425Q265.4877 234.425 266.20645 235.1125Q266.9252 235.8 266.9252 236.81563Q266.9252 237.33125 266.70645 237.83125Q266.50333 238.31563 266.00333 238.87813Q265.51895 239.425 264.39395 240.37813Q263.44083 241.175 263.15958 241.47188Q262.89395 241.75313 262.72208 242.03438L266.94083 242.03438ZM268.39395 240.8L269.50333 240.70625Q269.62833 241.51875 270.06583 241.925Q270.51895 242.33125 271.15958 242.33125Q271.90958 242.33125 272.44083 241.75313Q272.97208 241.175 272.97208 240.2375Q272.97208 239.33125 272.45645 238.81563Q271.95645 238.28438 271.12833 238.28438Q270.62833 238.28438 270.20645 238.51875Q269.8002 238.75313 269.56583 239.1125L268.58145 238.9875L269.40958 234.58125L273.69083 234.58125L273.69083 235.58125L270.25333 235.58125L269.8002 237.89375Q270.56583 237.34688 271.40958 237.34688Q272.53458 237.34688 273.3002 238.12813Q274.08145 238.90938 274.08145 240.14375Q274.08145 241.3 273.40958 242.15938Q272.58145 243.19063 271.15958 243.19063Q269.9877 243.19063 269.2377 242.53438Q268.50333 241.87813 268.39395 240.8ZM275.39395 238.81563Q275.39395 237.28438 275.70645 236.3625Q276.01895 235.425 276.62833 234.925Q277.25333 234.425 278.19083 234.425Q278.87833 234.425 279.39395 234.70625Q279.9252 234.9875 280.26895 235.51875Q280.6127 236.03438 280.8002 236.78438Q280.9877 237.53438 280.9877 238.81563Q280.9877 240.33125 280.6752 241.25313Q280.37833 242.175 279.75333 242.69063Q279.14395 243.19063 278.19083 243.19063Q276.95645 243.19063 276.2377 242.3Q275.39395 241.2375 275.39395 238.81563ZM276.47208 238.81563Q276.47208 240.925 276.97208 241.62813Q277.47208 242.33125 278.19083 242.33125Q278.9252 242.33125 279.40958 241.62813Q279.90958 240.925 279.90958 238.81563Q279.90958 236.69063 279.40958 236.00313Q278.9252 235.3 278.1752 235.3Q277.45645 235.3 277.01895 235.90938Q276.47208 236.69063 276.47208 238.81563Z" fill-rule="nonzero"/><path fill="#f3f3f3" d="M305.6323 243.05L304.58542 243.05L304.58542 236.33125Q304.1948 236.69063 303.5698 237.06563Q302.96042 237.425 302.47604 237.59688L302.47604 236.58125Q303.35104 236.15938 304.0073 235.58125Q304.67917 234.9875 304.96042 234.425L305.6323 234.425L305.6323 243.05ZM308.66354 240.8L309.77292 240.70625Q309.89792 241.51875 310.33542 241.925Q310.78854 242.33125 311.42917 242.33125Q312.17917 242.33125 312.71042 241.75313Q313.24167 241.175 313.24167 240.2375Q313.24167 239.33125 312.72604 238.81563Q312.22604 238.28438 311.39792 238.28438Q310.89792 238.28438 310.47604 238.51875Q310.0698 238.75313 309.83542 239.1125L308.85104 238.9875L309.67917 234.58125L313.96042 234.58125L313.96042 235.58125L310.52292 235.58125L310.0698 237.89375Q310.83542 237.34688 311.67917 237.34688Q312.80417 237.34688 313.5698 238.12813Q314.35104 238.90938 314.35104 240.14375Q314.35104 241.3 313.67917 242.15938Q312.85104 243.19063 311.42917 243.19063Q310.2573 243.19063 309.5073 242.53438Q308.77292 241.87813 308.66354 240.8ZM315.66354 238.81563Q315.66354 237.28438 315.97604 236.3625Q316.28854 235.425 316.89792 234.925Q317.52292 234.425 318.46042 234.425Q319.14792 234.425 319.66354 234.70625Q320.1948 234.9875 320.53854 235.51875Q320.8823 236.03438 321.0698 236.78438Q321.2573 237.53438 321.2573 238.81563Q321.2573 240.33125 320.9448 241.25313Q320.64792 242.175 320.02292 242.69063Q319.41354 243.19063 318.46042 243.19063Q317.22604 243.19063 316.5073 242.3Q315.66354 241.2375 315.66354 238.81563ZM316.74167 238.81563Q316.74167 240.925 317.24167 241.62813Q317.74167 242.33125 318.46042 242.33125Q319.1948 242.33125 319.67917 241.62813Q320.17917 240.925 320.17917 238.81563Q320.17917 236.69063 319.67917 236.00313Q319.1948 235.3 318.4448 235.3Q317.72604 235.3 317.28854 235.90938Q316.74167 236.69063 316.74167 238.81563ZM322.66354 238.81563Q322.66354 237.28438 322.97604 236.3625Q323.28854 235.425 323.89792 234.925Q324.52292 234.425 325.46042 234.425Q326.14792 234.425 326.66354 234.70625Q327.1948 234.9875 327.53854 235.51875Q327.8823 236.03438 328.0698 236.78438Q328.2573 237.53438 328.2573 238.81563Q328.2573 240.33125 327.9448 241.25313Q327.64792 242.175 327.02292 242.69063Q326.41354 243.19063 325.46042 243.19063Q324.22604 243.19063 323.5073 242.3Q322.66354 241.2375 322.66354 238.81563ZM323.74167 238.81563Q323.74167 240.925 324.24167 241.62813Q324.74167 242.33125 325.46042 242.33125Q326.1948 242.33125 326.67917 241.62813Q327.17917 240.925 327.17917 238.81563Q327.17917 236.69063 326.67917 236.00313Q326.1948 235.3 325.4448 235.3Q324.72604 235.3 324.28854 235.90938Q323.74167 236.69063 323.74167 238.81563Z" fill-rule="nonzero"/><path fill="#f3f3f3" d="M352.9019 243.05L351.855 243.05L351.855 236.33125Q351.4644 236.69063 350.8394 237.06563Q350.23 237.425 349.74564 237.59688L349.74564 236.58125Q350.62064 236.15938 351.2769 235.58125Q351.94876 234.9875 352.23 234.425L352.9019 234.425L352.9019 243.05ZM355.99564 235.58125L355.99564 234.56563L361.55814 234.56563L361.55814 235.39375Q360.74564 236.26875 359.93314 237.72188Q359.13626 239.15938 358.69876 240.69063Q358.37064 241.76875 358.2925 243.05L357.19876 243.05Q357.2144 242.03438 357.5894 240.59688Q357.98 239.15938 358.68314 237.83125Q359.4019 236.50313 360.2144 235.58125L355.99564 235.58125ZM362.93314 240.8L364.0425 240.70625Q364.1675 241.51875 364.605 241.925Q365.05814 242.33125 365.69876 242.33125Q366.44876 242.33125 366.98 241.75313Q367.51126 241.175 367.51126 240.2375Q367.51126 239.33125 366.99564 238.81563Q366.49564 238.28438 365.6675 238.28438Q365.1675 238.28438 364.74564 238.51875Q364.3394 238.75313 364.105 239.1125L363.12064 238.9875L363.94876 234.58125L368.23 234.58125L368.23 235.58125L364.7925 235.58125L364.3394 237.89375Q365.105 237.34688 365.94876 237.34688Q367.07376 237.34688 367.8394 238.12813Q368.62064 238.90938 368.62064 240.14375Q368.62064 241.3 367.94876 242.15938Q367.12064 243.19063 365.69876 243.19063Q364.5269 243.19063 363.7769 242.53438Q363.0425 241.87813 362.93314 240.8ZM369.93314 238.81563Q369.93314 237.28438 370.24564 236.3625Q370.55814 235.425 371.1675 234.925Q371.7925 234.425 372.73 234.425Q373.4175 234.425 373.93314 234.70625Q374.4644 234.9875 374.80814 235.51875Q375.1519 236.03438 375.3394 236.78438Q375.5269 237.53438 375.5269 238.81563Q375.5269 240.33125 375.2144 241.25313Q374.9175 242.175 374.2925 242.69063Q373.68314 243.19063 372.73 243.19063Q371.49564 243.19063 370.7769 242.3Q369.93314 241.2375 369.93314 238.81563ZM371.01126 238.81563Q371.01126 240.925 371.51126 241.62813Q372.01126 242.33125 372.73 242.33125Q373.4644 242.33125 373.94876 241.62813Q374.44876 240.925 374.44876 238.81563Q374.44876 236.69063 373.94876 236.00313Q373.4644 235.3 372.7144 235.3Q371.99564 235.3 371.55814 235.90938Q371.01126 236.69063 371.01126 238.81563Z" fill-rule="nonzero"/><path stroke="#46bdc6" stroke-width="4.0" stroke-linecap="butt" d="M386.05 57.416668L398.05 57.416668" fill-rule="nonzero"/><path fill="#f3f3f3" d="M409.1125 61.916668L407.0656 61.916668L407.0656 51.963543L409.1125 51.963543L409.1125 61.916668ZM412.6281 54.526043L412.6906 55.369793Q413.4875 54.385418 414.8156 54.385418Q415.9875 54.385418 416.5656 55.072918Q417.14374 55.760418 417.15936 57.135418L417.15936 61.916668L415.175 61.916668L415.175 57.182293Q415.175 56.557293 414.89374 56.276043Q414.6281 55.994793 413.9875 55.994793Q413.15936 55.994793 412.7375 56.697918L412.7375 61.916668L410.76874 61.916668L410.76874 54.526043L412.6281 54.526043ZM418.5031 58.166668Q418.5031 56.432293 419.26874 55.416668Q420.05 54.385418 421.39374 54.385418Q422.4875 54.385418 423.1906 55.182293L423.1906 51.416668L425.15936 51.416668L425.15936 61.916668L423.3781 61.916668L423.28436 61.135418Q422.55 62.057293 421.39374 62.057293Q420.08124 62.057293 419.28436 61.026043Q418.5031 59.994793 418.5031 58.166668ZM420.47186 58.307293Q420.47186 59.338543 420.83124 59.901043Q421.20624 60.447918 421.89374 60.447918Q422.8156 60.447918 423.1906 59.682293L423.1906 56.760418Q422.8156 55.994793 421.90936 55.994793Q420.47186 55.994793 420.47186 58.307293ZM428.89374 61.916668L426.90936 61.916668L426.90936 54.526043L428.89374 54.526043L428.89374 61.916668ZM426.8 52.604168Q426.8 52.166668 427.09686 51.885418Q427.39374 51.588543 427.90936 51.588543Q428.40936 51.588543 428.70624 51.885418Q429.0031 52.166668 429.0031 52.604168Q429.0031 53.057293 428.70624 53.354168Q428.40936 53.635418 427.90936 53.635418Q427.40936 53.635418 427.09686 53.354168Q426.8 53.057293 426.8 52.604168ZM433.58124 59.510418L434.95624 54.526043L437.01874 54.526043L434.51874 61.916668L432.6281 61.916668L430.14374 54.526043L432.20624 54.526043L433.58124 59.510418ZM439.89374 61.916668L437.90936 61.916668L437.90936 54.526043L439.89374 54.526043L439.89374 61.916668ZM437.8 52.604168Q437.8 52.166668 438.09686 51.885418Q438.39374 51.588543 438.90936 51.588543Q439.40936 51.588543 439.70624 51.885418Q440.0031 52.166668 440.0031 52.604168Q440.0031 53.057293 439.70624 53.354168Q439.40936 53.635418 438.90936 53.635418Q438.40936 53.635418 438.09686 53.354168Q437.8 53.057293 437.8 52.604168ZM441.5031 58.166668Q441.5031 56.432293 442.26874 55.416668Q443.05 54.385418 444.39374 54.385418Q445.4875 54.385418 446.1906 55.182293L446.1906 51.416668L448.15936 51.416668L448.15936 61.916668L446.3781 61.916668L446.28436 61.135418Q445.55 62.057293 444.39374 62.057293Q443.08124 62.057293 442.28436 61.026043Q441.5031 59.994793 441.5031 58.166668ZM443.47186 58.307293Q443.47186 59.338543 443.83124 59.901043Q444.20624 60.447918 444.89374 60.447918Q445.8156 60.447918 446.1906 59.682293L446.1906 56.760418Q445.8156 55.994793 444.90936 55.994793Q443.47186 55.994793 443.47186 58.307293ZM454.2375 61.166668Q453.5031 62.057293 452.22186 62.057293Q451.01874 62.057293 450.39374 61.369793Q449.76874 60.682293 449.76874 59.369793L449.76874 54.526043L451.7375 54.526043L451.7375 59.291668Q451.7375 60.447918 452.78436 60.447918Q453.8 60.447918 454.175 59.760418L454.175 54.526043L456.15936 54.526043L456.15936 61.916668L454.3 61.916668L454.2375 61.166668ZM462.09686 61.916668Q461.95624 61.651043 461.89374 61.260418Q461.175 62.057293 460.03436 62.057293Q458.9406 62.057293 458.22186 61.432293Q457.51874 60.791668 457.51874 59.838543Q457.51874 58.666668 458.3781 58.041668Q459.2531 57.401043 460.90936 57.401043L461.8156 57.401043L461.8156 56.979168Q461.8156 56.463543 461.55 56.151043Q461.28436 55.838543 460.72186 55.838543Q460.22186 55.838543 459.9406 56.088543Q459.65936 56.322918 459.65936 56.744793L457.675 56.744793Q457.675 56.104168 458.0656 55.557293Q458.47186 55.010418 459.1906 54.697918Q459.925 54.385418 460.83124 54.385418Q462.1906 54.385418 462.9875 55.072918Q463.8 55.760418 463.8 56.994793L463.8 60.213543Q463.8 61.260418 464.09686 61.807293L464.09686 61.916668L462.09686 61.916668ZM460.45624 60.541668Q460.89374 60.541668 461.26874 60.354168Q461.64374 60.151043 461.8156 59.822918L461.8156 58.557293L461.08124 58.557293Q459.59686 58.557293 459.5031 59.572918L459.4875 59.697918Q459.4875 60.057293 459.7375 60.307293Q460.0031 60.541668 460.45624 60.541668ZM467.89374 61.916668L465.90936 61.916668L465.90936 51.416668L467.89374 51.416668L467.89374 61.916668Z" fill-rule="nonzero"/><path stroke="#fbbc04" stroke-width="4.0" stroke-linecap="butt" d="M386.05 84.416664L398.05 84.416664" fill-rule="nonzero"/><path fill="#f3f3f3" d="M406.9406 88.916664L406.9406 78.96354L410.425 78.96354Q412.2375 78.96354 413.175 79.666664Q414.1125 80.354164 414.1125 81.697914Q414.1125 82.416664 413.7375 82.979164Q413.3625 83.541664 412.6906 83.791664Q413.45624 83.99479 413.89374 84.572914Q414.33124 85.15104 414.33124 85.99479Q414.33124 87.43229 413.40936 88.166664Q412.5031 88.90104 410.8156 88.916664L406.9406 88.916664ZM408.9875 84.58854L408.9875 87.27604L410.7531 87.27604Q411.47186 87.27604 411.8781 86.93229Q412.28436 86.572914 412.28436 85.96354Q412.28436 84.604164 410.8625 84.58854L408.9875 84.58854ZM408.9875 83.135414L410.5031 83.135414Q412.0656 83.104164 412.0656 81.90104Q412.0656 81.21354 411.65936 80.916664Q411.26874 80.61979 410.425 80.61979L408.9875 80.61979L408.9875 83.135414ZM420.09686 88.916664Q419.95624 88.65104 419.89374 88.260414Q419.175 89.05729 418.03436 89.05729Q416.9406 89.05729 416.22186 88.43229Q415.51874 87.791664 415.51874 86.83854Q415.51874 85.666664 416.3781 85.041664Q417.2531 84.40104 418.90936 84.40104L419.8156 84.40104L419.8156 83.979164Q419.8156 83.46354 419.55 83.15104Q419.28436 82.83854 418.72186 82.83854Q418.22186 82.83854 417.9406 83.08854Q417.65936 83.322914 417.65936 83.74479L415.675 83.74479Q415.675 83.104164 416.0656 82.55729Q416.47186 82.010414 417.1906 81.697914Q417.925 81.385414 418.83124 81.385414Q420.1906 81.385414 420.9875 82.072914Q421.8 82.760414 421.8 83.99479L421.8 87.21354Q421.8 88.260414 422.09686 88.80729L422.09686 88.916664L420.09686 88.916664ZM418.45624 87.541664Q418.89374 87.541664 419.26874 87.354164Q419.64374 87.15104 419.8156 86.822914L419.8156 85.55729L419.08124 85.55729Q417.59686 85.55729 417.5031 86.572914L417.4875 86.697914Q417.4875 87.05729 417.7375 87.30729Q418.0031 87.541664 418.45624 87.541664ZM426.175 79.697914L426.175 81.52604L427.4406 81.52604L427.4406 82.96354L426.175 82.96354L426.175 86.666664Q426.175 87.072914 426.33124 87.260414Q426.4875 87.43229 426.9406 87.43229Q427.26874 87.43229 427.51874 87.385414L427.51874 88.86979Q426.9406 89.05729 426.3156 89.05729Q424.2375 89.05729 424.20624 86.947914L424.20624 82.96354L423.1125 82.96354L423.1125 81.52604L424.20624 81.52604L424.20624 79.697914L426.175 79.697914ZM431.8781 87.46354Q432.425 87.46354 432.76874 87.166664Q433.1125 86.854164 433.1281 86.354164L434.9875 86.354164Q434.97186 87.104164 434.5656 87.74479Q434.175 88.36979 433.47186 88.71354Q432.76874 89.05729 431.925 89.05729Q430.33124 89.05729 429.40936 88.05729Q428.5031 87.041664 428.5031 85.260414L428.5031 85.135414Q428.5031 83.416664 429.40936 82.40104Q430.3156 81.385414 431.90936 81.385414Q433.3 81.385414 434.1281 82.18229Q434.97186 82.96354 434.9875 84.27604L433.1281 84.27604Q433.1125 83.697914 432.76874 83.33854Q432.425 82.979164 431.8781 82.979164Q431.175 82.979164 430.8156 83.49479Q430.47186 83.99479 430.47186 85.11979L430.47186 85.322914Q430.47186 86.46354 430.8156 86.96354Q431.175 87.46354 431.8781 87.46354ZM437.7375 82.322914Q438.51874 81.385414 439.70624 81.385414Q442.1125 81.385414 442.15936 84.18229L442.15936 88.916664L440.175 88.916664L440.175 84.229164Q440.175 83.604164 439.89374 83.30729Q439.6281 82.99479 438.9875 82.99479Q438.1281 82.99479 437.7375 83.666664L437.7375 88.916664L435.76874 88.916664L435.76874 78.416664L437.7375 78.416664L437.7375 82.322914ZM445.89374 88.916664L443.90936 88.916664L443.90936 81.52604L445.89374 81.52604L445.89374 88.916664ZM443.8 79.604164Q443.8 79.166664 444.09686 78.885414Q444.39374 78.58854 444.90936 78.58854Q445.40936 78.58854 445.70624 78.885414Q446.0031 79.166664 446.0031 79.604164Q446.0031 80.05729 445.70624 80.354164Q445.40936 80.635414 444.90936 80.635414Q444.40936 80.635414 444.09686 80.354164Q443.8 80.05729 443.8 79.604164ZM449.6281 81.52604L449.6906 82.36979Q450.4875 81.385414 451.8156 81.385414Q452.9875 81.385414 453.5656 82.072914Q454.14374 82.760414 454.15936 84.135414L454.15936 88.916664L452.175 88.916664L452.175 84.18229Q452.175 83.55729 451.89374 83.27604Q451.6281 82.99479 450.9875 82.99479Q450.15936 82.99479 449.7375 83.697914L449.7375 88.916664L447.76874 88.916664L447.76874 81.52604L449.6281 81.52604ZM455.51874 85.166664Q455.51874 83.46354 456.33124 82.43229Q457.14374 81.385414 458.51874 81.385414Q459.7375 81.385414 460.40936 82.21354L460.4875 81.52604L462.28436 81.52604L462.28436 88.666664Q462.28436 89.635414 461.83124 90.354164Q461.39374 91.072914 460.59686 91.447914Q459.8 91.822914 458.72186 91.822914Q457.90936 91.822914 457.1281 91.49479Q456.3625 91.18229 455.97186 90.666664L456.84686 89.46354Q457.58124 90.291664 458.64374 90.291664Q459.425 90.291664 459.8625 89.86979Q460.3 89.447914 460.3 88.68229L460.3 88.27604Q459.6125 89.05729 458.5031 89.05729Q457.175 89.05729 456.34686 88.010414Q455.51874 86.96354 455.51874 85.24479L455.51874 85.166664ZM457.5031 85.30729Q457.5031 86.30729 457.89374 86.885414Q458.3 87.447914 459.0031 87.447914Q459.90936 87.447914 460.3 86.77604L460.3 83.666664Q459.90936 82.99479 459.01874 82.99479Q458.3156 82.99479 457.90936 83.572914Q457.5031 84.15104 457.5031 85.30729Z" fill-rule="nonzero"/><path fill="#757575" d="M97.359375 33.95L97.359375 19.6375L99.265625 19.6375L99.265625 33.95L97.359375 33.95ZM102.8125 33.95L102.8125 23.575L104.40625 23.575L104.40625 25.059376Q105.546875 23.340626 107.703125 23.340626Q108.640625 23.340626 109.421875 23.684376Q110.21875 24.0125 110.609375 24.559376Q111.0 25.10625 111.15625 25.85625Q111.25 26.35625 111.25 27.575L111.25 33.95L109.484375 33.95L109.484375 27.6375Q109.484375 26.559376 109.28125 26.028126Q109.078125 25.496876 108.546875 25.184376Q108.03125 24.871876 107.328125 24.871876Q106.203125 24.871876 105.390625 25.590626Q104.578125 26.29375 104.578125 28.278126L104.578125 33.95L102.8125 33.95ZM119.546875 33.95L119.546875 32.6375Q118.5625 34.184376 116.640625 34.184376Q115.40625 34.184376 114.359375 33.496876Q113.328125 32.809376 112.75 31.590626Q112.1875 30.371876 112.1875 28.778126Q112.1875 27.215626 112.703125 25.95Q113.21875 24.684376 114.25 24.0125Q115.296875 23.340626 116.5625 23.340626Q117.5 23.340626 118.234375 23.746876Q118.96875 24.1375 119.4375 24.7625L119.4375 19.6375L121.171875 19.6375L121.171875 33.95L119.546875 33.95ZM113.984375 28.778126Q113.984375 30.7625 114.828125 31.746876Q115.671875 32.73125 116.8125 32.73125Q117.96875 32.73125 118.765625 31.79375Q119.578125 30.85625 119.578125 28.91875Q119.578125 26.79375 118.75 25.79375Q117.9375 24.79375 116.734375 24.79375Q115.5625 24.79375 114.765625 25.7625Q113.984375 26.715626 113.984375 28.778126ZM123.828125 21.653126L123.828125 19.6375L125.59375 19.6375L125.59375 21.653126L123.828125 21.653126ZM123.828125 33.95L123.828125 23.575L125.59375 23.575L125.59375 33.95L123.828125 33.95ZM130.70312 33.95L126.75 23.575L128.60938 23.575L130.84375 29.79375Q131.20312 30.79375 131.5 31.871876Q131.73438 31.059376 132.15625 29.903126L134.45312 23.575L136.26562 23.575L132.34375 33.95L130.70312 33.95ZM136.82812 21.653126L136.82812 19.6375L138.59375 19.6375L138.59375 21.653126L136.82812 21.653126ZM136.82812 33.95L136.82812 23.575L138.59375 23.575L138.59375 33.95L136.82812 33.95ZM147.54688 33.95L147.54688 32.6375Q146.5625 34.184376 144.64062 34.184376Q143.40625 34.184376 142.35938 33.496876Q141.32812 32.809376 140.75 31.590626Q140.1875 30.371876 140.1875 28.778126Q140.1875 27.215626 140.70312 25.95Q141.21875 24.684376 142.25 24.0125Q143.29688 23.340626 144.5625 23.340626Q145.5 23.340626 146.23438 23.746876Q146.96875 24.1375 147.4375 24.7625L147.4375 19.6375L149.17188 19.6375L149.17188 33.95L147.54688 33.95ZM141.98438 28.778126Q141.98438 30.7625 142.82812 31.746876Q143.67188 32.73125 144.8125 32.73125Q145.96875 32.73125 146.76562 31.79375Q147.57812 30.85625 147.57812 28.91875Q147.57812 26.79375 146.75 25.79375Q145.9375 24.79375 144.73438 24.79375Q143.5625 24.79375 142.76562 25.7625Q141.98438 26.715626 141.98438 28.778126ZM158.60938 33.95L158.60938 32.41875Q157.40625 34.184376 155.32812 34.184376Q154.40625 34.184376 153.60938 33.840626Q152.8125 33.48125 152.42188 32.95Q152.04688 32.41875 151.89062 31.6375Q151.78125 31.121876 151.78125 29.996876L151.78125 23.575L153.53125 23.575L153.53125 29.325Q153.53125 30.7 153.64062 31.184376Q153.8125 31.871876 154.34375 32.278126Q154.89062 32.66875 155.67188 32.66875Q156.46875 32.66875 157.15625 32.2625Q157.85938 31.85625 158.14062 31.16875Q158.4375 30.465626 158.4375 29.1375L158.4375 23.575L160.1875 23.575L160.1875 33.95L158.60938 33.95ZM168.59375 32.66875Q167.60938 33.496876 166.70312 33.840626Q165.79688 34.184376 164.76562 34.184376Q163.0625 34.184376 162.14062 33.35625Q161.21875 32.5125 161.21875 31.215626Q161.21875 30.45 161.5625 29.825Q161.92188 29.2 162.48438 28.825Q163.04688 28.434376 163.75 28.23125Q164.26562 28.10625 165.3125 27.965626Q167.4375 27.715626 168.4375 27.371876Q168.45312 27.0125 168.45312 26.903126Q168.45312 25.840626 167.95312 25.3875Q167.28125 24.79375 165.95312 24.79375Q164.70312 24.79375 164.10938 25.23125Q163.53125 25.66875 163.25 26.778126L161.53125 26.54375Q161.76562 25.434376 162.29688 24.7625Q162.82812 24.075 163.84375 23.715626Q164.85938 23.340626 166.20312 23.340626Q167.53125 23.340626 168.35938 23.653126Q169.1875 23.965626 169.57812 24.45Q169.96875 24.91875 170.125 25.6375Q170.21875 26.090626 170.21875 27.2625L170.21875 29.60625Q170.21875 32.059376 170.32812 32.715626Q170.4375 33.35625 170.78125 33.95L168.9375 33.95Q168.67188 33.403126 168.59375 32.66875ZM168.4375 28.746876Q167.48438 29.1375 165.5625 29.403126Q164.48438 29.559376 164.03125 29.7625Q163.59375 29.95 163.34375 30.325Q163.09375 30.7 163.09375 31.16875Q163.09375 31.871876 163.625 32.340626Q164.15625 32.809376 165.1875 32.809376Q166.20312 32.809376 166.98438 32.371876Q167.78125 31.91875 168.15625 31.153126Q168.4375 30.54375 168.4375 29.3875L168.4375 28.746876ZM172.78125 33.95L172.78125 19.6375L174.53125 19.6375L174.53125 33.95L172.78125 33.95ZM185.70312 33.95L181.75 23.575L183.60938 23.575L185.84375 29.79375Q186.20312 30.79375 186.5 31.871876Q186.73438 31.059376 187.15625 29.903126L189.45312 23.575L191.26562 23.575L187.34375 33.95L185.70312 33.95ZM191.10938 30.85625L192.85938 30.575Q193.0 31.621876 193.67188 32.184376Q194.34375 32.73125 195.54688 32.73125Q196.75 32.73125 197.32812 32.246876Q197.92188 31.746876 197.92188 31.090626Q197.92188 30.496876 197.40625 30.153126Q197.04688 29.91875 195.60938 29.559376Q193.67188 29.059376 192.92188 28.715626Q192.1875 28.35625 191.79688 27.73125Q191.40625 27.090626 191.40625 26.325Q191.40625 25.6375 191.71875 25.04375Q192.04688 24.45 192.59375 24.059376Q193.0 23.7625 193.70312 23.559376Q194.42188 23.340626 195.23438 23.340626Q196.45312 23.340626 197.375 23.7Q198.29688 24.04375 198.73438 24.653126Q199.17188 25.246876 199.34375 26.246876L197.625 26.48125Q197.5 25.684376 196.9375 25.246876Q196.375 24.79375 195.35938 24.79375Q194.14062 24.79375 193.625 25.2Q193.10938 25.590626 193.10938 26.121876Q193.10938 26.465626 193.32812 26.746876Q193.53125 27.028126 194.0 27.215626Q194.26562 27.309376 195.54688 27.653126Q197.42188 28.153126 198.15625 28.48125Q198.89062 28.79375 199.3125 29.403126Q199.73438 29.996876 199.73438 30.903126Q199.73438 31.778126 199.21875 32.559376Q198.70312 33.340626 197.73438 33.7625Q196.76562 34.184376 195.54688 34.184376Q193.53125 34.184376 192.46875 33.340626Q191.40625 32.496876 191.10938 30.85625ZM207.96875 33.95L207.96875 19.6375L213.34375 19.6375Q214.98438 19.6375 215.96875 20.075Q216.95312 20.496876 217.51562 21.403126Q218.07812 22.309376 218.07812 23.29375Q218.07812 24.215626 217.57812 25.028126Q217.09375 25.840626 216.07812 26.325Q217.375 26.715626 218.07812 27.6375Q218.78125 28.54375 218.78125 29.79375Q218.78125 30.809376 218.34375 31.66875Q217.92188 32.528126 217.29688 32.996876Q216.67188 33.465626 215.73438 33.715626Q214.79688 33.95 213.42188 33.95L207.96875 33.95ZM209.85938 25.653126L212.95312 25.653126Q214.21875 25.653126 214.76562 25.48125Q215.48438 25.2625 215.84375 24.778126Q216.21875 24.278126 216.21875 23.5125Q216.21875 22.809376 215.875 22.2625Q215.53125 21.715626 214.89062 21.528126Q214.26562 21.325 212.71875 21.325L209.85938 21.325L209.85938 25.653126ZM209.85938 32.2625L213.42188 32.2625Q214.34375 32.2625 214.71875 32.184376Q215.375 32.075 215.8125 31.809376Q216.25 31.528126 216.53125 31.0125Q216.8125 30.48125 216.8125 29.79375Q216.8125 28.996876 216.40625 28.403126Q216.0 27.809376 215.26562 27.575Q214.53125 27.340626 213.17188 27.340626L209.85938 27.340626L209.85938 32.2625ZM227.59375 32.66875Q226.60938 33.496876 225.70312 33.840626Q224.79688 34.184376 223.76562 34.184376Q222.0625 34.184376 221.14062 33.35625Q220.21875 32.5125 220.21875 31.215626Q220.21875 30.45 220.5625 29.825Q220.92188 29.2 221.48438 28.825Q222.04688 28.434376 222.75 28.23125Q223.26562 28.10625 224.3125 27.965626Q226.4375 27.715626 227.4375 27.371876Q227.45312 27.0125 227.45312 26.903126Q227.45312 25.840626 226.95312 25.3875Q226.28125 24.79375 224.95312 24.79375Q223.70312 24.79375 223.10938 25.23125Q222.53125 25.66875 222.25 26.778126L220.53125 26.54375Q220.76562 25.434376 221.29688 24.7625Q221.82812 24.075 222.84375 23.715626Q223.85938 23.340626 225.20312 23.340626Q226.53125 23.340626 227.35938 23.653126Q228.1875 23.965626 228.57812 24.45Q228.96875 24.91875 229.125 25.6375Q229.21875 26.090626 229.21875 27.2625L229.21875 29.60625Q229.21875 32.059376 229.32812 32.715626Q229.4375 33.35625 229.78125 33.95L227.9375 33.95Q227.67188 33.403126 227.59375 32.66875ZM227.4375 28.746876Q226.48438 29.1375 224.5625 29.403126Q223.48438 29.559376 223.03125 29.7625Q222.59375 29.95 222.34375 30.325Q222.09375 30.7 222.09375 31.16875Q222.09375 31.871876 222.625 32.340626Q223.15625 32.809376 224.1875 32.809376Q225.20312 32.809376 225.98438 32.371876Q226.78125 31.91875 227.15625 31.153126Q227.4375 30.54375 227.4375 29.3875L227.4375 28.746876ZM235.65625 32.371876L235.90625 33.934376Q235.17188 34.090626 234.57812 34.090626Q233.625 34.090626 233.09375 33.79375Q232.57812 33.48125 232.35938 32.996876Q232.14062 32.496876 232.14062 30.91875L232.14062 24.95L230.85938 24.95L230.85938 23.575L232.14062 23.575L232.14062 21.0125L233.89062 19.95L233.89062 23.575L235.65625 23.575L235.65625 24.95L233.89062 24.95L233.89062 31.0125Q233.89062 31.7625 233.98438 31.98125Q234.07812 32.184376 234.28125 32.325Q234.5 32.45 234.89062 32.45Q235.17188 32.45 235.65625 32.371876ZM244.59375 30.153126L246.3125 30.371876Q246.03125 32.16875 244.85938 33.184376Q243.70312 34.184376 242.0 34.184376Q239.875 34.184376 238.57812 32.79375Q237.28125 31.403126 237.28125 28.809376Q237.28125 27.121876 237.82812 25.871876Q238.39062 24.60625 239.53125 23.98125Q240.67188 23.340626 242.01562 23.340626Q243.70312 23.340626 244.76562 24.2Q245.84375 25.059376 246.15625 26.621876L244.4375 26.8875Q244.20312 25.840626 243.57812 25.325Q242.95312 24.79375 242.07812 24.79375Q240.75 24.79375 239.92188 25.746876Q239.09375 26.7 239.09375 28.746876Q239.09375 30.840626 239.89062 31.79375Q240.6875 32.73125 241.98438 32.73125Q243.01562 32.73125 243.70312 32.10625Q244.40625 31.465626 244.59375 30.153126ZM247.8125 33.95L247.8125 19.6375L249.57812 19.6375L249.57812 24.7625Q250.8125 23.340626 252.6875 23.340626Q253.82812 23.340626 254.67188 23.79375Q255.53125 24.246876 255.89062 25.059376Q256.26562 25.85625 256.26562 27.371876L256.26562 33.95L254.51562 33.95L254.51562 27.371876Q254.51562 26.059376 253.9375 25.465626Q253.35938 24.85625 252.32812 24.85625Q251.54688 24.85625 250.84375 25.2625Q250.15625 25.66875 249.85938 26.371876Q249.57812 27.059376 249.57812 28.278126L249.57812 33.95L247.8125 33.95ZM257.82812 21.653126L257.82812 19.6375L259.59375 19.6375L259.59375 21.653126L257.82812 21.653126ZM257.82812 33.95L257.82812 23.575L259.59375 23.575L259.59375 33.95L257.82812 33.95ZM261.8125 33.95L261.8125 23.575L263.40625 23.575L263.40625 25.059376Q264.54688 23.340626 266.70312 23.340626Q267.64062 23.340626 268.42188 23.684376Q269.21875 24.0125 269.60938 24.559376Q270.0 25.10625 270.15625 25.85625Q270.25 26.35625 270.25 27.575L270.25 33.95L268.48438 33.95L268.48438 27.6375Q268.48438 26.559376 268.28125 26.028126Q268.07812 25.496876 267.54688 25.184376Q267.03125 24.871876 266.32812 24.871876Q265.20312 24.871876 264.39062 25.590626Q263.57812 26.29375 263.57812 28.278126L263.57812 33.95L261.8125 33.95ZM271.5 34.809376L273.20312 35.059376Q273.3125 35.85625 273.79688 36.215626Q274.45312 36.7 275.59375 36.7Q276.8125 36.7 277.46875 36.215626Q278.14062 35.73125 278.375 34.85625Q278.51562 34.309376 278.5 32.590626Q277.34375 33.95 275.625 33.95Q273.48438 33.95 272.3125 32.403126Q271.14062 30.85625 271.14062 28.7Q271.14062 27.215626 271.67188 25.965626Q272.21875 24.715626 273.23438 24.028126Q274.26562 23.340626 275.64062 23.340626Q277.46875 23.340626 278.67188 24.825L278.67188 23.575L280.28125 23.575L280.28125 32.54375Q280.28125 34.965626 279.78125 35.965626Q279.29688 36.98125 278.21875 37.559376Q277.15625 38.153126 275.59375 38.153126Q273.75 38.153126 272.59375 37.325Q271.45312 36.496876 271.5 34.809376ZM272.95312 28.575Q272.95312 30.621876 273.76562 31.559376Q274.57812 32.496876 275.79688 32.496876Q277.0 32.496876 277.8125 31.559376Q278.64062 30.621876 278.64062 28.6375Q278.64062 26.73125 277.79688 25.7625Q276.95312 24.79375 275.76562 24.79375Q274.59375 24.79375 273.76562 25.746876Q272.95312 26.7 272.95312 28.575ZM295.59375 30.153126L297.3125 30.371876Q297.03125 32.16875 295.85938 33.184376Q294.70312 34.184376 293.0 34.184376Q290.875 34.184376 289.57812 32.79375Q288.28125 31.403126 288.28125 28.809376Q288.28125 27.121876 288.82812 25.871876Q289.39062 24.60625 290.53125 23.98125Q291.67188 23.340626 293.01562 23.340626Q294.70312 23.340626 295.76562 24.2Q296.84375 25.059376 297.15625 26.621876L295.4375 26.8875Q295.20312 25.840626 294.57812 25.325Q293.95312 24.79375 293.07812 24.79375Q291.75 24.79375 290.92188 25.746876Q290.09375 26.7 290.09375 28.746876Q290.09375 30.840626 290.89062 31.79375Q291.6875 32.73125 292.98438 32.73125Q294.01562 32.73125 294.70312 32.10625Q295.40625 31.465626 295.59375 30.153126ZM298.17188 28.7625Q298.17188 25.8875 299.76562 24.496876Q301.10938 23.340626 303.03125 23.340626Q305.17188 23.340626 306.51562 24.746876Q307.875 26.153126 307.875 28.621876Q307.875 30.621876 307.28125 31.778126Q306.6875 32.91875 305.53125 33.559376Q304.39062 34.184376 303.03125 34.184376Q300.84375 34.184376 299.5 32.79375Q298.17188 31.3875 298.17188 28.7625ZM299.96875 28.7625Q299.96875 30.7625 300.82812 31.746876Q301.70312 32.73125 303.03125 32.73125Q304.34375 32.73125 305.20312 31.746876Q306.07812 30.746876 306.07812 28.7Q306.07812 26.778126 305.20312 25.79375Q304.32812 24.79375 303.03125 24.79375Q301.70312 24.79375 300.82812 25.79375Q299.96875 26.778126 299.96875 28.7625ZM309.8125 33.95L309.8125 23.575L311.39062 23.575L311.39062 25.028126Q311.875 24.278126 312.6875 23.809376Q313.5 23.340626 314.53125 23.340626Q315.6875 23.340626 316.42188 23.825Q317.15625 24.29375 317.46875 25.153126Q318.70312 23.340626 320.67188 23.340626Q322.21875 23.340626 323.04688 24.2Q323.875 25.059376 323.875 26.825L323.875 33.95L322.125 33.95L322.125 27.41875Q322.125 26.35625 321.95312 25.903126Q321.78125 25.434376 321.32812 25.153126Q320.89062 24.871876 320.28125 24.871876Q319.1875 24.871876 318.45312 25.60625Q317.73438 26.325 317.73438 27.91875L317.73438 33.95L315.98438 33.95L315.98438 27.215626Q315.98438 26.04375 315.54688 25.465626Q315.125 24.871876 314.14062 24.871876Q313.40625 24.871876 312.76562 25.2625Q312.14062 25.653126 311.85938 26.403126Q311.57812 27.153126 311.57812 28.575L311.57812 33.95L309.8125 33.95ZM325.8125 37.91875L325.8125 23.575L327.42188 23.575L327.42188 24.91875Q327.98438 24.1375 328.6875 23.746876Q329.40625 23.340626 330.42188 23.340626Q331.75 23.340626 332.76562 24.028126Q333.78125 24.715626 334.29688 25.965626Q334.82812 27.2 334.82812 28.684376Q334.82812 30.278126 334.25 31.559376Q333.6875 32.825 332.59375 33.5125Q331.5 34.184376 330.29688 34.184376Q329.42188 34.184376 328.71875 33.809376Q328.03125 33.434376 327.57812 32.871876L327.57812 37.91875L325.8125 37.91875ZM327.40625 28.825Q327.40625 30.825 328.21875 31.778126Q329.03125 32.73125 330.1875 32.73125Q331.35938 32.73125 332.1875 31.746876Q333.03125 30.7625 333.03125 28.66875Q333.03125 26.7 332.20312 25.715626Q331.39062 24.715626 330.26562 24.715626Q329.14062 24.715626 328.26562 25.778126Q327.40625 26.825 327.40625 28.825ZM343.59375 32.66875Q342.60938 33.496876 341.70312 33.840626Q340.79688 34.184376 339.76562 34.184376Q338.0625 34.184376 337.14062 33.35625Q336.21875 32.5125 336.21875 31.215626Q336.21875 30.45 336.5625 29.825Q336.92188 29.2 337.48438 28.825Q338.04688 28.434376 338.75 28.23125Q339.26562 28.10625 340.3125 27.965626Q342.4375 27.715626 343.4375 27.371876Q343.45312 27.0125 343.45312 26.903126Q343.45312 25.840626 342.95312 25.3875Q342.28125 24.79375 340.95312 24.79375Q339.70312 24.79375 339.10938 25.23125Q338.53125 25.66875 338.25 26.778126L336.53125 26.54375Q336.76562 25.434376 337.29688 24.7625Q337.82812 24.075 338.84375 23.715626Q339.85938 23.340626 341.20312 23.340626Q342.53125 23.340626 343.35938 23.653126Q344.1875 23.965626 344.57812 24.45Q344.96875 24.91875 345.125 25.6375Q345.21875 26.090626 345.21875 27.2625L345.21875 29.60625Q345.21875 32.059376 345.32812 32.715626Q345.4375 33.35625 345.78125 33.95L343.9375 33.95Q343.67188 33.403126 343.59375 32.66875ZM343.4375 28.746876Q342.48438 29.1375 340.5625 29.403126Q339.48438 29.559376 339.03125 29.7625Q338.59375 29.95 338.34375 30.325Q338.09375 30.7 338.09375 31.16875Q338.09375 31.871876 338.625 32.340626Q339.15625 32.809376 340.1875 32.809376Q341.20312 32.809376 341.98438 32.371876Q342.78125 31.91875 343.15625 31.153126Q343.4375 30.54375 343.4375 29.3875L343.4375 28.746876ZM347.79688 33.95L347.79688 23.575L349.375 23.575L349.375 25.153126Q349.98438 24.04375 350.5 23.7Q351.01562 23.340626 351.625 23.340626Q352.51562 23.340626 353.4375 23.903126L352.82812 25.54375Q352.1875 25.153126 351.54688 25.153126Q350.96875 25.153126 350.5 25.5125Q350.04688 25.85625 349.84375 26.465626Q349.5625 27.403126 349.5625 28.5125L349.5625 33.95L347.79688 33.95ZM354.82812 21.653126L354.82812 19.6375L356.59375 19.6375L356.59375 21.653126L354.82812 21.653126ZM354.82812 33.95L354.82812 23.575L356.59375 23.575L356.59375 33.95L354.82812 33.95ZM358.10938 30.85625L359.85938 30.575Q360.0 31.621876 360.67188 32.184376Q361.34375 32.73125 362.54688 32.73125Q363.75 32.73125 364.32812 32.246876Q364.92188 31.746876 364.92188 31.090626Q364.92188 30.496876 364.40625 30.153126Q364.04688 29.91875 362.60938 29.559376Q360.67188 29.059376 359.92188 28.715626Q359.1875 28.35625 358.79688 27.73125Q358.40625 27.090626 358.40625 26.325Q358.40625 25.6375 358.71875 25.04375Q359.04688 24.45 359.59375 24.059376Q360.0 23.7625 360.70312 23.559376Q361.42188 23.340626 362.23438 23.340626Q363.45312 23.340626 364.375 23.7Q365.29688 24.04375 365.73438 24.653126Q366.17188 25.246876 366.34375 26.246876L364.625 26.48125Q364.5 25.684376 363.9375 25.246876Q363.375 24.79375 362.35938 24.79375Q361.14062 24.79375 360.625 25.2Q360.10938 25.590626 360.10938 26.121876Q360.10938 26.465626 360.32812 26.746876Q360.53125 27.028126 361.0 27.215626Q361.26562 27.309376 362.54688 27.653126Q364.42188 28.153126 365.15625 28.48125Q365.89062 28.79375 366.3125 29.403126Q366.73438 29.996876 366.73438 30.903126Q366.73438 31.778126 366.21875 32.559376Q365.70312 33.340626 364.73438 33.7625Q363.76562 34.184376 362.54688 34.184376Q360.53125 34.184376 359.46875 33.340626Q358.40625 32.496876 358.10938 30.85625ZM368.17188 28.7625Q368.17188 25.8875 369.76562 24.496876Q371.10938 23.340626 373.03125 23.340626Q375.17188 23.340626 376.51562 24.746876Q377.875 26.153126 377.875 28.621876Q377.875 30.621876 377.28125 31.778126Q376.6875 32.91875 375.53125 33.559376Q374.39062 34.184376 373.03125 34.184376Q370.84375 34.184376 369.5 32.79375Q368.17188 31.3875 368.17188 28.7625ZM369.96875 28.7625Q369.96875 30.7625 370.82812 31.746876Q371.70312 32.73125 373.03125 32.73125Q374.34375 32.73125 375.20312 31.746876Q376.07812 30.746876 376.07812 28.7Q376.07812 26.778126 375.20312 25.79375Q374.32812 24.79375 373.03125 24.79375Q371.70312 24.79375 370.82812 25.79375Q369.96875 26.778126 369.96875 28.7625ZM379.8125 33.95L379.8125 23.575L381.40625 23.575L381.40625 25.059376Q382.54688 23.340626 384.70312 23.340626Q385.64062 23.340626 386.42188 23.684376Q387.21875 24.0125 387.60938 24.559376Q388.0 25.10625 388.15625 25.85625Q388.25 26.35625 388.25 27.575L388.25 33.95L386.48438 33.95L386.48438 27.6375Q386.48438 26.559376 386.28125 26.028126Q386.07812 25.496876 385.54688 25.184376Q385.03125 24.871876 384.32812 24.871876Q383.20312 24.871876 382.39062 25.590626Q381.57812 26.29375 381.57812 28.278126L381.57812 33.95L379.8125 33.95Z" fill-rule="nonzero"/></svg>
