<svg xmlns="http://www.w3.org/2000/svg" xmlns:xlink="http://www.w3.org/1999/xlink" width="724.063" height="269.787" viewBox="0 0 543.047 202.34"><path d="M-.002 202.343V.001h543.054v202.342zM543.052.001" fill="#231f20"/><path d="M166.201 19.07h56.694V4.897H166.2z" fill="#231f20"/><symbol id="a"><path d="M.366.696C.361.709.359.716.343.716S.324.71.319.696L.112.098C.094.047.054.032 0 .031V0c.023.001.066.003.102.003L.217 0v.031c-.05 0-.075.025-.075.051l.002.015.046.131h.247L.49.075.493.061c0-.03-.056-.03-.083-.03V0a2.274 2.274 0 0 0 .275 0v.031H.667c-.06 0-.074.007-.085.04L.366.696M.313.584.426.259H.201l.112.325z"/></symbol><symbol id="b"><path d="M.144.694 0 .683V.652C.07.652.078.645.078.596v-.52C.078.031.067.031 0 .031V0l.111.003L.222 0v.031c-.067 0-.078 0-.078.045v.618z"/></symbol><symbol id="c"><path d="M.144.442.004.431V.4C.069.4.078.394.078.345V.076C.078.031.067.031 0 .031V0l.11.003C.145.003.18.001.214 0v.031c-.066 0-.07.005-.07.044v.367m.004.174a.052.052 0 0 1-.053.053.054.054 0 0 1-.053-.053c0-.027.022-.053.053-.053.028 0 .053.021.053.053z"/></symbol><symbol id="d"><path d="M.083.229c0 .163.082.205.135.205C.227.434.29.433.325.397.284.394.278.364.278.351c0-.026.018-.046.046-.046C.35.305.37.322.37.352.37.42.294.459.217.459.092.459 0 .351 0 .227 0 .099.099 0 .215 0c.134 0 .166.12.166.13 0 .01-.01.01-.013.01C.359.14.357.136.355.13.326.037.261.025.224.025.171.025.083.068.083.229z"/></symbol><symbol id="e"><path d="M.084.263c.006.149.09.174.124.174.103 0 .113-.135.113-.174H.084M.083.242h.279c.022 0 .025 0 .025.021 0 .099-.054.196-.179.196C.092.459 0 .356 0 .231 0 .097.105 0 .22 0a.17.17 0 0 1 .167.13c0 .01-.008.012-.013.012C.365.142.363.136.361.128.326.025.236.025.226.025c-.05 0-.09.03-.113.067-.03.048-.03.114-.03.15z"/></symbol><use xlink:href="#a" transform="matrix(9.9626 0 0 -9.9626 183.935 15.442)" fill="#fff"/><use xlink:href="#b" transform="matrix(9.9626 0 0 -9.9626 191.417 15.442)" fill="#fff"/><use xlink:href="#c" transform="matrix(9.9626 0 0 -9.9626 194.186 15.442)" fill="#fff"/><use xlink:href="#d" transform="matrix(9.9626 0 0 -9.9626 196.966 15.552)" fill="#fff"/><use xlink:href="#e" transform="matrix(9.9626 0 0 -9.9626 201.33 15.552)" fill="#fff"/><path d="M350.455 19.677h56.694V4.29h-56.694z" fill="#231f20"/><symbol id="f"><path d="M.186.366v.246c0 .033.002.04.049.04h.124C.456.652.491.567.491.514a.15.15 0 0 0-.16-.148H.186M.422.357C.519.376.588.44.588.514c0 .087-.092.169-.222.169H0V.652h.024C.101.652.103.641.103.605V.078C.103.042.101.031.024.031H0V0h.392c.133 0 .223.089.223.183C.615.27.533.345.422.357M.36.031H.235c-.047 0-.049.007-.049.04v.273h.188c.099 0 .141-.093.141-.16A.151.151 0 0 0 .36.031z"/></symbol><symbol id="g"><path d="M.396.541a.094.094 0 0 0 .093.064v.031a.94.94 0 0 0-.162 0V.605C.358.604.374.587.374.562.374.552.373.55.368.538L.267.292.156.561C.152.571.15.575.15.579c0 .026.037.026.056.026v.031a1.646 1.646 0 0 0-.206 0V.605c.048 0 .067 0 .081-.035l.15-.365A1.487 1.487 0 0 0 .206.146C.184.091.156.022.092.022c-.005 0-.028 0-.047.018.031.004.039.026.039.042a.04.04 0 0 1-.042.042C.022.124 0 .111 0 .081 0 .036.042 0 .092 0 .155 0 .196.057.22.114l.176.427z"/></symbol><symbol id="h"><path d="M.139.332v.11L0 .431V.4C.07.4.078.393.078.344V.076C.078.031.067.031 0 .031V0l.114.003c.04 0 .087 0 .127-.003v.031H.22C.146.031.144.042.144.078v.154c0 .099.042.188.118.188L.273.419A.043.043 0 0 1 .25.38C.25.352.271.337.293.337c.018 0 .043.012.043.044S.305.442.262.442C.189.442.153.375.139.332z"/></symbol><symbol id="i"><path d="M.443.225c0 .128-.1.234-.221.234C.097.459 0 .35 0 .225 0 .096.104 0 .221 0c.121 0 .222.098.222.225m-.221-.2a.13.13 0 0 0-.114.067C.083.136.083.197.083.233c0 .039 0 .093.024.137a.134.134 0 0 0 .114.067.131.131 0 0 0 .113-.065C.36.329.36.271.36.233c0-.036 0-.09-.022-.134A.129.129 0 0 0 .222.025z"/></symbol><symbol id="j"><path d="M.078.344V.076C.078.031.067.031 0 .031V0l.113.003L.225 0v.031c-.067 0-.078 0-.078.045V.26c0 .104.071.16.135.16C.345.42.356.366.356.309V.076C.356.031.345.031.278.031V0l.113.003L.503 0v.031c-.052 0-.077 0-.078.03v.191c0 .086 0 .117-.031.153C.38.422.347.442.289.442.216.442.169.399.141.337v.105L0 .431V.4C.07.4.078.393.078.344z"/></symbol><use xlink:href="#f" transform="matrix(9.9626 0 0 -9.9626 365.79 14.418)" fill="#fff"/><use xlink:href="#g" transform="matrix(9.9626 0 0 -9.9626 372.675 16.46)" fill="#fff"/><use xlink:href="#h" transform="matrix(9.9626 0 0 -9.9626 378.025 14.418)" fill="#fff"/><use xlink:href="#i" transform="matrix(9.9626 0 0 -9.9626 381.93 14.528)" fill="#fff"/><use xlink:href="#j" transform="matrix(9.9626 0 0 -9.9626 386.951 14.418)" fill="#fff"/><path stroke-width=".399" stroke-miterlimit="10" fill="none" stroke="#ffe4e1" d="M201.634 33.244h171.04"/><path stroke-width=".319" stroke-linecap="round" stroke-linejoin="round" fill="none" stroke="#ffe4e1" d="M371.479 31.65c.1.597 1.196 1.494 1.494 1.594-.298.1-1.394.996-1.494 1.594"/><symbol id="k"><path d="M.46.635H.43L.394.548a.177.177 0 0 1-.152.087C.113.635 0 .537 0 .409A.23.23 0 0 1 .233.184c.08 0 .123.043.148.068V.079C.381.036.371.036.306.036V0C.308 0 .378.004.42.004.457.004.526.001.535 0v.036C.47.036.46.036.46.079v.556M.385.338C.385.32.385.316.37.29A.156.156 0 0 0 .239.212c-.083 0-.148.09-.148.196 0 .117.079.195.159.195.084 0 .135-.082.135-.138V.338z"/></symbol><symbol id="l"><path d="M.307.44V.404C.374.404.382.397.382.348V.177C.382.089.325.028.249.028.158.028.154.071.154.122v.329L0 .44V.404C.075.404.075.401.075.312v-.15C.075.093.075 0 .242 0c.022 0 .095 0 .143.084h.001V0l.15.01v.036C.469.046.461.053.461.102v.349L.307.44z"/></symbol><symbol id="m"><path d="M.401.238c.021 0 .028 0 .028.022C.429.348.38.456.231.456A.228.228 0 0 1 0 .229C0 .102.111 0 .244 0c.135 0 .185.108.185.13 0 .004-.002.014-.017.014C.399.144.397.138.394.128A.15.15 0 0 0 .251.032a.155.155 0 0 0-.122.059C.092.138.091.199.091.238h.31M.092.264c.011.141.101.164.139.164.123 0 .127-.139.128-.164H.092z"/></symbol><symbol id="n"><path d="M.15.228c0 .084.039.185.134.185A.046.046 0 0 1 .267.377c0-.033.026-.046.045-.046.024 0 .046.016.046.046 0 .034-.032.064-.079.064C.229.441.174.41.144.334H.143v.107L0 .43V.394C.067.394.075.387.075.338V.079C.075.036.065.036 0 .036V0c.005 0 .073.004.114.004C.157.004.201.002.244 0v.036h-.02C.15.036.15.047.15.081v.147z"/></symbol><symbol id="o"><path d="M.443.537a.098.098 0 0 0 .095.062v.036C.51.633.491.631.462.631a.923.923 0 0 0-.091.004V.599C.404.597.412.577.412.561.412.549.407.54.403.53L.292.293.169.557a.042.042 0 0 0-.006.019c0 .023.034.023.051.023v.036A3.02 3.02 0 0 0 .099.631C.069.631.03.632.001.635V.599C.057.599.068.596.083.564l.168-.36L.223.145C.201.097.169.028.101.028.076.028.068.033.058.04c.001 0 .029.01.029.043a.041.041 0 0 1-.043.043A.042.042 0 0 1 0 .082C0 .035.047 0 .101 0c.085 0 .134.089.148.119l.194.418z"/></symbol><symbol id="p"><path d="M.161.395h.125v.036H.157v.112c0 .091.054.133.097.133A.104.104 0 0 0 .283.671a.046.046 0 0 1-.022-.04C.261.604.28.585.307.585s.046.019.046.046C.353.674.31.704.255.704.176.704.086.648.086.543V.431H0V.395h.086V.079C.086.036.076.036.011.036V0c.005 0 .073.004.114.004C.168.004.212.002.255 0v.036h-.02C.161.036.161.047.161.081v.314z"/></symbol><symbol id="q"><path d="M.49.223a.24.24 0 0 1-.245.233A.24.24 0 0 1 0 .223C0 .099.11 0 .245 0S.49.099.49.223M.245.032a.147.147 0 0 0-.124.061.25.25 0 0 0-.03.139c0 .043.001.102.036.145a.155.155 0 0 0 .118.051.148.148 0 0 0 .123-.059C.396.33.399.28.399.232.399.184.396.131.367.09A.147.147 0 0 0 .245.032z"/></symbol><use xlink:href="#k" transform="matrix(6.9738 0 0 -6.9738 211.073 29.332)" fill="#fff"/><use xlink:href="#l" transform="matrix(6.9738 0 0 -6.9738 215.313 28.049)" fill="#fff"/><use xlink:href="#m" transform="matrix(6.9738 0 0 -6.9738 219.609 28.049)" fill="#fff"/><use xlink:href="#n" transform="matrix(6.9738 0 0 -6.9738 223.221 27.979)" fill="#fff"/><use xlink:href="#o" transform="matrix(6.9738 0 0 -6.9738 226.199 29.402)" fill="#fff"/><use xlink:href="#p" transform="matrix(6.9738 0 0 -6.9738 233.173 27.979)" fill="#fff"/><use xlink:href="#q" transform="matrix(6.9738 0 0 -6.9738 235.6 28.049)" fill="#fff"/><use xlink:href="#n" transform="matrix(6.9738 0 0 -6.9738 239.644 27.979)" fill="#fff"/><symbol id="r"><path d="M.376.393A.058.058 0 0 1 .325.337C.325.31.346.3.364.3.386.3.421.316.421.364c0 .068-.078.087-.132.087C.139.451 0 .313 0 .174 0 .088.06 0 .185 0c.169 0 .248.099.248.113C.433.119.424.13.416.13.41.13.408.128.4.12.322.028.205.028.187.028.115.028.083.077.083.139c0 .029.014.138.066.207.038.049.09.077.14.077.014 0 .062-.002.087-.03z"/></symbol><symbol id="s"><path d="M.204.405h.102c.019 0 .032 0 .032.022 0 .014-.013.014-.03.014H.213L.25.589l.003.014c0 .018-.014.032-.034.032C.194.635.179.618.172.592L.134.441H.032C.013.441 0 .441 0 .419 0 .405.012.405.03.405h.095L.066.169C.06.144.051.108.051.095.051.036.101 0 .158 0c.111 0 .174.14.174.153 0 .013-.013.013-.016.013C.304.166.303.164.295.147.267.084.216.028.161.028.14.028.126.041.126.077c0 .01.004.031.006.041l.072.287z"/></symbol><use xlink:href="#r" transform="matrix(6.9738 0 0 -6.9738 245.534 28.049)" fill="#fff"/><use xlink:href="#s" transform="matrix(6.9738 0 0 -6.9738 248.958 28.049)" fill="#fff"/><symbol id="t"><path d="M.255.636c0 .03-.003.03-.036.03C.148.602.037.602.017.602H0V.558h.017c.023 0 .088.003.146.028v-.5c0-.031 0-.042-.106-.042h-.05V0c.055.004.144.004.202.004.058 0 .147 0 .202-.004v.044h-.05C.255.044.255.055.255.086v.55z"/></symbol><use xlink:href="#t" transform="matrix(4.9813 0 0 -4.9813 252.384 28.976)" fill="#fff"/><symbol id="u"><path d="M.115.373a.057.057 0 0 1-.057.058A.057.057 0 0 1 0 .374C0 .339.028.316.057.316c.035 0 .058.028.058.057m0-.316a.057.057 0 0 1-.057.058A.057.057 0 0 1 0 .058C0 .023.028 0 .057 0c.035 0 .058.028.058.057z"/></symbol><symbol id="v"><path d="M.698.22c.015 0 .038 0 .038.025 0 .024-.024.024-.037.024H.037C.024.269 0 .269 0 .245 0 .22.023.22.038.22h.66M.699 0c.013 0 .037 0 .037.024 0 .025-.023.025-.038.025h-.66C.023.049 0 .049 0 .024 0 0 .024 0 .037 0h.662z"/></symbol><symbol id="w"><path d="M.154 0v.049H.049v.902h.105V1H0V0h.154z"/></symbol><symbol id="x"><path d="M.397.416.6.589c.049.042.1.057.148.058v.036A1.209 1.209 0 0 0 .663.679L.525.683V.647C.539.647.562.642.562.618A.039.039 0 0 0 .553.595L.198.291v.311c0 .034.002.045.079.045h.024v.036a4.593 4.593 0 0 0-.15-.004L0 .683V.647h.024c.077 0 .079-.01.079-.045V.081C.103.047.101.036.024.036H0V0l.15.004L.301 0v.036H.277C.2.036.198.046.198.081v.165l.135.115.204-.266C.543.087.552.076.552.063.552.036.517.036.499.036V0l.149.004C.683.004.749.001.763 0v.036C.709.036.686.038.648.088L.397.416z"/></symbol><symbol id="y"><path d="M.205.668C.194.682.193.683.173.683H0V.647h.03C.073.647.098.642.103.641V.108c0-.027 0-.072-.103-.072V0a1.657 1.657 0 0 0 .244 0v.036C.141.036.141.081.141.108v.505L.585.015C.595.001.596 0 .608 0c.019 0 .019.009.019.028v.547c0 .027 0 .072.103.072v.036a1.657 1.657 0 0 0-.244 0V.647C.589.647.589.602.589.575V.151L.205.668z"/></symbol><symbol id="z"><path d="M.736.358c0 .2-.164.365-.368.365A.366.366 0 0 1 0 .358C0 .162.163 0 .368 0s.368.162.368.358M.368.033C.251.033.107.128.107.374c0 .232.147.317.261.317.114 0 .261-.085.261-.317C.629.128.485.033.368.033z"/></symbol><symbol id="A"><path d="M.989.601c.013.036.037.066.103.066v.036a1.554 1.554 0 0 0-.22 0V.667C.929.666.956.642.956.616c0-.004 0-.006-.005-.019L.786.135l-.175.49-.004.014c0 .028.057.028.083.028v.036A4.612 4.612 0 0 0 .541.699C.5.699.46.7.419.703V.667C.472.667.489.665.5.652A.37.37 0 0 0 .528.584L.367.135.193.621C.188.634.188.636.188.639c0 .028.057.028.083.028v.036A4.612 4.612 0 0 0 .122.699C.081.699.041.7 0 .703V.667c.062 0 .08 0 .093-.037L.31.023C.316.006.321 0 .337 0c.018 0 .021.01.026.023l.183.511.183-.511C.734.01.737 0 .755 0c.017 0 .021.007.027.023l.207.578z"/></symbol><symbol id="B"><path d="M.672.263H.638C.612.112.589.036.404.036H.246C.199.036.198.044.198.075v.26h.101C.4.335.415.305.415.218h.034v.27H.415C.415.401.4.371.299.371H.198v.233c0 .031.001.039.048.039h.15C.56.643.589.589.607.449h.034l-.03.23H0V.643h.024c.077 0 .079-.01.079-.045V.081C.103.047.101.036.024.036H0V0h.627l.045.263z"/></symbol><symbol id="C"><path d="M.674.697c0 .017 0 .026-.014.026-.004 0-.009 0-.017-.012L.59.635a.29.29 0 0 1-.207.088C.173.723 0 .561 0 .362 0 .159.176 0 .383 0 .56 0 .674.132.674.254c0 .011-.001.019-.017.019C.651.273.641.273.64.26.632.099.496.036.397.036c-.107 0-.29.065-.29.325 0 .271.194.326.288.326.099 0 .217-.066.243-.238C.64.437.649.437.656.437c.018 0 .018.006.018.026v.234z"/></symbol><symbol id="D"><path d="M.444.361c.09.021.18.08.18.161 0 .1-.132.181-.287.181H0V.667h.024c.077 0 .079-.01.079-.045V.101C.103.067.101.056.024.056H0V.02c.001 0 .107.004.148.004C.19.024.247.022.297.02v.036H.273c-.077 0-.079.01-.079.045v.247h.133c.018 0 .07 0 .114-.041C.476.276.476.251.476.184c0-.065 0-.106.046-.144A.214.214 0 0 1 .652 0c.085 0 .107.081.107.111 0 .007 0 .019-.017.019C.727.13.726.121.725.111.72.053.687.028.656.028c-.057 0-.065.059-.077.15C.568.258.565.274.536.307a.207.207 0 0 1-.092.054m-.12.015h-.13v.252c0 .028.001.035.027.038l.063.001c.096 0 .233 0 .233-.145C.517.41.43.376.324.376z"/></symbol><symbol id="E"><path d="M.658.582a.156.156 0 0 0 .136.065v.036A1.056 1.056 0 0 0 .696.679c-.04 0-.114.004-.12.004V.647C.609.647.627.632.627.612.627.599.618.587.613.579L.431.319.23.607C.221.619.221.621.221.625c0 .022.04.022.065.022v.036L.132.679C.08.679.001.683 0 .683V.647h.02C.072.647.094.642.114.613l.237-.34V.081C.351.047.349.036.272.036H.248V0C.25 0 .355.004.397.004L.546 0v.036H.521c-.077 0-.079.01-.079.049v.188l.216.309z"/></symbol><symbol id="F"><path d="M.198.31H.38c.145 0 .259.084.259.185C.639.594.527.683.38.683H0V.647h.024c.077 0 .079-.01.079-.045V.081C.103.047.101.036.024.036H0V0l.15.004L.301 0v.036H.277C.2.036.198.046.198.081V.31m.157.337C.522.647.532.553.532.495c0-.044 0-.153-.177-.153H.194v.266c0 .031.001.039.048.039h.113z"/></symbol><symbol id="G"><path d="M.697.676H.021L0 .446h.034C.048.619.077.64.231.64L.29.639C.312.635.312.624.312.601V.082c0-.033 0-.046-.104-.046H.166V0C.215.004.308.004.36.004.412.004.504.004.553 0v.036H.511C.407.036.407.049.407.082v.519c0 .023 0 .034.022.038L.488.64C.544.64.587.64.622.62.667.593.674.529.675.524L.684.446h.034l-.021.23z"/></symbol><symbol id="H"><path d="M0 .683V.647h.024c.077 0 .079-.01.079-.045V.081C.103.047.101.036.024.036H0V0h.394c.184 0 .337.148.337.336 0 .19-.151.347-.337.347H0M.242.036C.195.036.194.044.194.075v.533c0 .031.001.039.048.039h.124A.255.255 0 0 0 .571.553.357.357 0 0 0 .628.336C.628.22.599.16.564.118A.262.262 0 0 0 .367.036H.242z"/></symbol><symbol id="I"><path d="M.154 1H0V.951h.105V.049H0V0h.154v1z"/></symbol><symbol id="J"><path d="M.343.409A.046.046 0 0 1 .315.365c0-.027.019-.047.047-.047.027 0 .048.017.048.049C.41.456.271.456.243.456A.234.234 0 0 1 0 .226C0 .1.107 0 .238 0c.149 0 .184.118.184.13 0 .012-.013.012-.017.012C.392.142.391.139.386.125A.137.137 0 0 0 .25.032C.181.032.091.083.091.227c0 .127.062.197.155.197.013 0 .061 0 .097-.015z"/></symbol><use xlink:href="#u" transform="matrix(6.9738 0 0 -6.9738 258.553 27.979)" fill="#fff"/><use xlink:href="#v" transform="matrix(6.9738 0 0 -6.9738 260.569 27.17)" fill="#fff"/><use xlink:href="#w" transform="matrix(6.9738 0 0 -6.9738 269.411 29.722)" fill="#fff"/><use xlink:href="#x" transform="matrix(6.9738 0 0 -6.9738 271.106 27.979)" fill="#fff"/><use xlink:href="#y" transform="matrix(6.9738 0 0 -6.9738 277.201 27.979)" fill="#fff"/><use xlink:href="#z" transform="matrix(6.9738 0 0 -6.9738 283.178 28.118)" fill="#fff"/><use xlink:href="#A" transform="matrix(6.9738 0 0 -6.9738 288.792 28.118)" fill="#fff"/><use xlink:href="#y" transform="matrix(6.9738 0 0 -6.9738 297.007 27.979)" fill="#fff"/><use xlink:href="#B" transform="matrix(6.9738 0 0 -6.9738 305.57 27.979)" fill="#fff"/><use xlink:href="#y" transform="matrix(6.9738 0 0 -6.9738 310.926 27.979)" fill="#fff"/><use xlink:href="#C" transform="matrix(6.9738 0 0 -6.9738 316.903 28.118)" fill="#fff"/><use xlink:href="#D" transform="matrix(6.9738 0 0 -6.9738 322.51 28.118)" fill="#fff"/><use xlink:href="#E" transform="matrix(6.9738 0 0 -6.9738 327.413 27.979)" fill="#fff"/><use xlink:href="#F" transform="matrix(6.9738 0 0 -6.9738 333.529 27.979)" fill="#fff"/><use xlink:href="#G" transform="matrix(6.9738 0 0 -6.9738 338.815 27.979)" fill="#fff"/><use xlink:href="#B" transform="matrix(6.9738 0 0 -6.9738 344.561 27.979)" fill="#fff"/><use xlink:href="#H" transform="matrix(6.9738 0 0 -6.9738 349.93 27.979)" fill="#fff"/><use xlink:href="#I" transform="matrix(6.9738 0 0 -6.9738 355.747 29.722)" fill="#fff"/><use xlink:href="#J" transform="matrix(6.9738 0 0 -6.9738 360.782 28.049)" fill="#fff"/><path d="M383.088 85.335h155.475v-47.49H383.088z" fill="#231f20"/><path stroke-width=".399" stroke-miterlimit="10" fill="none" stroke="#ffe4e1" d="M383.088 85.335h155.475v-47.49H383.088z"/><symbol id="K"><path d="M.059.07C.056.055.05.032.05.027.05.009.064 0 .079 0a.04.04 0 0 1 .037.028 2.1 2.1 0 0 1 .019.074l.022.09.017.067.013.05C.202.34.255.431.35.431c.045 0 .054-.037.054-.07A.34.34 0 0 0 .389.278L.361.162.341.086C.337.066.328.032.328.027.328.009.342 0 .357 0c.031 0 .037.025.045.057l.06.241c.003.013.056.133.165.133.043 0 .054-.034.054-.07A.889.889 0 0 0 .619.137.136.136 0 0 1 .606.082.08.08 0 0 1 .688 0c.094 0 .131.146.131.154 0 .01-.009.01-.012.01-.01 0-.01-.003-.015-.018C.777.093.745.022.69.022c-.017 0-.024.01-.024.033a.19.19 0 0 0 .018.071c.019.052.061.163.061.22 0 .065-.04.107-.115.107C.555.453.504.409.467.356a.1.1 0 0 1-.032.071.127.127 0 0 1-.082.026.193.193 0 0 1-.156-.087.09.09 0 0 1-.092.087C.059.453.04.414.031.396A.436.436 0 0 1 0 .299c0-.01.01-.01.012-.01.01 0 .011.001.017.023.017.071.037.119.073.119.016 0 .031-.008.031-.046C.133.364.13.353.117.301L.059.07z"/></symbol><use xlink:href="#K" transform="matrix(9.9626 0 0 -9.9626 418.29 48.747)" fill="#fff"/><symbol id="L"><path d="M.106.378a.053.053 0 0 1-.053.053A.053.053 0 0 1 0 .378C0 .349.024.325.053.325c.029 0 .053.024.053.053m0-.325a.053.053 0 0 1-.053.053A.053.053 0 0 1 0 .053C0 .024.024 0 .053 0c.029 0 .053.024.053.053z"/></symbol><symbol id="M"><path d="M.631.194c.015 0 .034 0 .034.02s-.019.02-.033.02H.033C.019.234 0 .234 0 .214s.019-.02.034-.02h.597M.632 0c.014 0 .033 0 .033.02S.646.04.631.04H.034C.019.04 0 .04 0 .02S.019 0 .033 0h.599z"/></symbol><use xlink:href="#L" transform="matrix(9.9626 0 0 -9.9626 430.373 48.637)" fill="#fff"/><use xlink:href="#M" transform="matrix(9.9626 0 0 -9.9626 432.844 47.312)" fill="#fff"/><symbol id="N"><path d="M.108.639V.047H0V0h.431c.197 0 .347.123.347.337 0 .22-.15.349-.348.349H0V.639h.108M.244.047v.592H.39C.456.639.539.62.588.55.623.499.631.431.631.338.631.229.619.176.587.131.539.063.451.047.39.047H.244z"/></symbol><symbol id="O"><path d="M.43.224c.022 0 .032 0 .032.027a.223.223 0 0 1-.056.154C.369.441.316.459.247.459.087.459 0 .356 0 .231 0 .097.1 0 .261 0c.158 0 .201.106.201.123 0 .018-.019.018-.024.018C.421.141.419.136.413.12.392.072.335.04.27.04.129.04.128.173.128.224H.43M.128.257C.13.296.131.338.152.371c.026.04.066.052.095.052.117 0 .119-.131.12-.166H.128z"/></symbol><symbol id="P"><path d="M.322.413a.061.061 0 0 1-.02-.046c0-.044.035-.063.062-.063.031 0 .063.021.063.063 0 .086-.116.092-.174.092C.074.459 0 .344 0 .228 0 .095.094 0 .248 0 .41 0 .44.116.44.123.44.137.426.137.416.137.398.137.397.135.392.122.366.059.318.04.267.04.128.04.128.187.128.233c0 .056 0 .186.129.186A.267.267 0 0 0 .322.413z"/></symbol><symbol id="Q"><path d="M.166.337V.45L0 .442V.395c.062 0 .069 0 .069-.039V.047H0V0c.035.001.08.003.126.003.038 0 .102 0 .138-.003v.047H.177v.175c0 .07.025.192.125.192C.301.413.283.397.283.368c0-.041.032-.061.061-.061a.06.06 0 0 1 .061.061C.405.421.351.45.299.45.229.45.189.4.166.337z"/></symbol><symbol id="R"><path d="M.484.576c.007.014.01.021.074.021v.047a1.023 1.023 0 0 0-.17 0V.597c.002 0 .047 0 .047-.012A.061.061 0 0 0 .43.573L.315.327l-.127.27h.054v.047A4.028 4.028 0 0 0 .118.641L.004.644V.597h.064L.255.2.232.152C.21.104.178.036.107.036.093.036.091.037.083.04a.055.055 0 0 1 .032.053.055.055 0 0 1-.058.057A.055.055 0 0 1 0 .092C0 .041.047 0 .107 0c.077 0 .135.062.162.119l.215.457z"/></symbol><symbol id="S"><path d="M.183.523c0 .019.001.02.015.034.04.041.092.047.114.047.067 0 .123-.061.123-.187C.435.276.365.224.3.224c-.014 0-.061 0-.106.054C.183.291.183.292.183.311v.212m0-.29A.195.195 0 0 1 .311.188c.15 0 .252.09.252.229C.563.55.472.644.328.644A.25.25 0 0 1 .177.595v.049L0 .636V.589c.062 0 .069 0 .069-.038V.047H0V0a4.263 4.263 0 0 0 .252 0v.047H.183v.186z"/></symbol><symbol id="T"><path d="M.082.403V.129C.082.022.169 0 .24 0c.076 0 .121.057.121.13v.053H.314V.132C.314.064.282.04.254.04.196.04.196.104.196.127v.276h.146V.45H.196v.191H.149C.148.541.099.442 0 .439V.403h.082z"/></symbol><use xlink:href="#N" transform="matrix(9.9626 0 0 -9.9626 443.188 48.637)" fill="#fff"/><use xlink:href="#O" transform="matrix(9.9626 0 0 -9.9626 451.905 48.697)" fill="#fff"/><use xlink:href="#P" transform="matrix(9.9626 0 0 -9.9626 457.215 48.697)" fill="#fff"/><use xlink:href="#Q" transform="matrix(9.9626 0 0 -9.9626 462.296 48.637)" fill="#fff"/><use xlink:href="#R" transform="matrix(9.9626 0 0 -9.9626 466.869 50.63)" fill="#fff"/><use xlink:href="#S" transform="matrix(9.9626 0 0 -9.9626 473.065 50.57)" fill="#fff"/><use xlink:href="#T" transform="matrix(9.9626 0 0 -9.9626 479.272 48.697)" fill="#fff"/><symbol id="U"><path d="M.232.01c0 .003 0 .005-.017.022C.09.158.058.347.058.5c0 .174.038.348.161.473.013.012.013.014.013.017 0 .007-.004.01-.01.01-.01 0-.1-.068-.159-.195A.727.727 0 0 1 0 .5C0 .422.011.301.066.188A.432.432 0 0 1 .222 0c.006 0 .01.003.01.01z"/></symbol><use xlink:href="#U" transform="matrix(9.9626 0 0 -9.9626 484.501 51.128)" fill="#fff"/><symbol id="V"><path d="M.355.391c-.016 0-.03 0-.044-.014A.054.054 0 0 1 .293.338C.293.314.311.303.33.303c.029 0 .056.024.056.064 0 .049-.047.086-.118.086C.133.453 0 .31 0 .169 0 .079.058 0 .162 0c.143 0 .227.106.227.118 0 .006-.006.013-.012.013C.372.131.37.129.364.121.285.022.176.022.164.022c-.063 0-.09.049-.09.109 0 .041.02.138.054.2.031.057.086.1.141.1.034 0 .072-.013.086-.04z"/></symbol><symbol id="W"><path d="M.183.411h.094c.02 0 .03 0 .03.02 0 .011-.01.011-.028.011H.191C.227.584.232.604.232.61.232.627.22.637.203.637.2.637.172.636.163.601L.124.442H.03c-.02 0-.03 0-.03-.019C0 .411.008.411.028.411h.088C.044.127.04.11.04.092.04.038.078 0 .132 0c.102 0 .159.146.159.154 0 .01-.008.01-.012.01C.27.164.269.161.264.15.221.046.168.022.134.022.113.022.103.035.103.068c0 .024.002.031.006.048l.074.295z"/></symbol><use xlink:href="#V" transform="matrix(9.9626 0 0 -9.9626 487.798 48.747)" fill="#fff"/><use xlink:href="#W" transform="matrix(9.9626 0 0 -9.9626 491.932 48.747)" fill="#fff"/><symbol id="X"><path d="M.226.636c0 .027-.002.028-.03.028C.132.601.041.6 0 .6V.564c.024 0 .09 0 .145.028v-.51c0-.033 0-.046-.1-.046H.007V0l.178.004L.364 0v.036H.326c-.1 0-.1.013-.1.046v.554z"/></symbol><use xlink:href="#X" transform="matrix(6.9738 0 0 -6.9738 496.058 50.132)" fill="#fff"/><symbol id="Y"><path d="M.232.5a.729.729 0 0 1-.066.312A.432.432 0 0 1 .01 1C.004 1 0 .996 0 .99 0 .987 0 .985.019.967.117.868.174.709.174.5.174.329.137.153.013.027 0 .015 0 .013 0 .01 0 .004.004 0 .01 0c.01 0 .1.068.159.195C.22.305.232.416.232.5z"/></symbol><use xlink:href="#Y" transform="matrix(9.9626 0 0 -9.9626 500.335 51.128)" fill="#fff"/><use xlink:href="#h" transform="matrix(9.9626 0 0 -9.9626 386.684 69.559)" fill="#fff"/><use xlink:href="#M" transform="matrix(9.9626 0 0 -9.9626 394.186 68.234)" fill="#fff"/><symbol id="Z"><path d="M.307 1.132c0 .11-.076.279-.25.367a.448.448 0 0 1 .249.362l.001.006v.693a.387.387 0 0 0 .201.392c.008.005.009.006.009.024 0 .022-.001.023-.023.023-.018 0-.02 0-.047-.016C.223 2.856.21 2.67.21 2.635v-.711c0-.072 0-.153-.052-.245a.423.423 0 0 0-.143-.152C.001 1.518 0 1.517 0 1.5c0-.018.001-.019.009-.024a.42.42 0 0 0 .198-.308c.003-.022.003-.024.003-.036V.364C.21.283.26.115.453.013.476 0 .478 0 .494 0c.022 0 .023.001.023.023 0 .018-.001.019-.005.021C.469.071.338.15.311.324.307.35.307.352.307.365v.767z"/></symbol><use xlink:href="#Z" transform="matrix(9.9626 0 0 -9.9626 406.133 82.002)" fill="#fff"/><symbol id="aa"><path d="M.12.194c0 .06-.024.105-.067.105C.018.299 0 .272 0 .246S.017.193.053.193c.02 0 .034.01.04.016l.003.003C.098.212.098.198.098.194a.232.232 0 0 0-.07-.166C.016.016.016.014.016.011.016.004.021 0 .026 0 .037 0 .12.076.12.194m.194 0c0 .06-.024.105-.067.105C.212.299.194.272.194.246S.211.193.247.193c.02 0 .034.01.04.016L.29.212C.292.212.292.198.292.194a.232.232 0 0 0-.07-.166C.21.016.21.014.21.011.21.004.215 0 .22 0c.011 0 .094.076.094.194z"/></symbol><symbol id="ab"><path d="M.356.4V.076C.356.031.345.031.278.031V0l.111.003L.5 0v.031c-.067 0-.078 0-.078.045v.618L.386.688C.382.688.381.689.377.691.345.705.304.705.293.705.188.705.079.649.079.545V.431H0V.4h.079V.076C.079.031.068.031.001.031V0l.111.003L.223 0v.031c-.067 0-.078 0-.078.045V.4h.211m0 .031H.142v.113c0 .093.076.139.15.139.009 0 .036 0 .064-.009a.04.04 0 0 1-.025-.04c0-.018.008-.033.025-.039V.431z"/></symbol><symbol id="ac"><path d="M.291.087C.295.047.322.005.369.005.39.005.451.019.451.1v.056H.426V.1C.426.042.401.036.39.036c-.033 0-.037.045-.037.05v.2c0 .042 0 .081-.036.118A.191.191 0 0 1 .18.459C.098.459.029.412.029.346c0-.03.02-.047.046-.047.028 0 .046.02.046.046C.121.357.116.39.07.391c.027.035.076.046.108.046.049 0 .106-.039.106-.128V.272C.233.269.163.266.1.236.025.202 0 .15 0 .106 0 .025.097 0 .16 0c.066 0 .112.04.131.087M.284.251v-.1C.284.056.212.022.167.022c-.049 0-.09.035-.09.085 0 .055.042.138.207.144z"/></symbol><symbol id="ad"><path d="M.194.378c-.087 0-.087.1-.087.123 0 .027.001.059.016.084.008.012.031.04.071.04.087 0 .087-.1.087-.123A.164.164 0 0 0 .265.418a.086.086 0 0 0-.071-.04M.078.339c0 .004 0 .027.017.047A.17.17 0 0 1 .194.355c.093 0 .162.069.162.146a.135.135 0 0 1-.041.097.131.131 0 0 0 .09.039l.01-.001C.404.632.399.621.399.609.399.592.412.58.428.58c.01 0 .029.007.029.03a.049.049 0 0 1-.051.049A.154.154 0 0 1 .3.612a.167.167 0 0 1-.106.036C.101.648.032.579.032.502.032.458.054.42.079.399A.138.138 0 0 1 .048.316c0-.031.013-.069.044-.089C.032.21 0 .167 0 .127 0 .055.099 0 .221 0c.118 0 .222.051.222.129a.128.128 0 0 1-.065.114C.325.271.267.271.206.271L.131.272C.099.276.078.307.078.339M.222.023c-.101 0-.17.051-.17.104 0 .046.038.083.082.086h.059c.086 0 .198 0 .198-.086C.391.073.32.023.222.023z"/></symbol><symbol id="ae"><path d="m.067.209.039.456c0 .033-.027.051-.053.051S0 .698 0 .665L.039.21C.04.195.041.187.053.187c.01 0 .013.005.014.022M.106.053a.053.053 0 0 1-.053.053A.053.053 0 0 1 0 .053C0 .024.024 0 .053 0c.029 0 .053.024.053.053z"/></symbol><use xlink:href="#aa" transform="matrix(9.9626 0 0 -9.9626 413.052 58.83)" fill="#fff"/><use xlink:href="#j" transform="matrix(9.9626 0 0 -9.9626 418.023 62.765)" fill="#fff"/><use xlink:href="#c" transform="matrix(9.9626 0 0 -9.9626 423.572 62.765)" fill="#fff"/><use xlink:href="#d" transform="matrix(9.9626 0 0 -9.9626 426.352 62.875)" fill="#fff"/><use xlink:href="#e" transform="matrix(9.9626 0 0 -9.9626 430.715 62.875)" fill="#fff"/><use xlink:href="#ab" transform="matrix(9.9626 0 0 -9.9626 438.446 62.765)" fill="#fff"/><use xlink:href="#ac" transform="matrix(9.9626 0 0 -9.9626 444.135 62.875)" fill="#fff"/><use xlink:href="#ad" transform="matrix(9.9626 0 0 -9.9626 448.977 64.817)" fill="#fff"/><use xlink:href="#ae" transform="matrix(9.9626 0 0 -9.9626 454.536 62.765)" fill="#fff"/><use xlink:href="#aa" transform="matrix(9.9626 0 0 -9.9626 456.778 58.83)" fill="#fff"/><symbol id="af"><path d="M.255.636c0 .02-.014.036-.037.036C.191.672.164.646.164.619.164.6.178.583.202.583c.023 0 .053.023.053.053M.179.26l.022.058c.008.02.013.034.013.053a.08.08 0 0 1-.082.082C.038.453 0 .308 0 .299c0-.01.01-.01.012-.01.01 0 .011.002.016.018.027.094.067.124.101.124.008 0 .025 0 .025-.032A.15.15 0 0 0 .143.347C.135.321.09.205.074.162.064.136.051.103.051.082A.08.08 0 0 1 .133 0c.094 0 .131.145.131.154 0 .01-.009.01-.012.01-.01 0-.01-.003-.015-.018C.219.083.186.022.135.022c-.017 0-.024.01-.024.033 0 .025.006.039.029.1L.179.26z"/></symbol><symbol id="ag"><path d="M.314.605H.4c.02 0 .03 0 .03.02C.43.636.42.636.403.636H.32L.341.75a.953.953 0 0 0 .024.104c.009.019.026.034.047.034.004 0 .03 0 .049-.018A.055.055 0 0 1 .407.816c0-.023.018-.035.037-.035.026 0 .055.022.055.06C.499.887.453.91.412.91.378.91.315.892.285.793.279.772.276.762.252.636H.183c-.019 0-.03 0-.03-.019 0-.012.009-.012.028-.012h.066L.172.21C.154.113.137.022.085.022c-.004 0-.029 0-.048.018a.054.054 0 0 1 .055.054c0 .023-.018.035-.037.035C.029.129 0 .107 0 .069 0 .024.044 0 .085 0 .14 0 .18.059.198.097a.894.894 0 0 1 .056.191l.06.317z"/></symbol><use xlink:href="#af" transform="matrix(9.9626 0 0 -9.9626 474.725 62.875)" fill="#fff"/><use xlink:href="#ag" transform="matrix(9.9626 0 0 -9.9626 478.401 64.807)" fill="#fff"/><symbol id="ah"><path d="M.714.625c.006.013.01.022.083.022h.019v.047L.703.691c-.04 0-.092 0-.131.003V.647C.581.647.66.647.66.635.66.631.657.626.656.623L.454.168.241.647h.094v.047C.297.691.201.691.158.691c-.039 0-.123 0-.158.003V.647h.092L.368.026C.376.008.38 0 .408 0c.016 0 .029 0 .04.024l.266.601z"/></symbol><symbol id="ai"><path d="M.177.45.003.442V.395c.059 0 .066 0 .066-.039V.047H0V0c.031.001.08.003.122.003L.239 0v.047H.177V.45m.01.167a.078.078 0 1 1-.156 0 .078.078 0 0 1 .156 0z"/></symbol><symbol id="aj"><path d="M.075.444H0V.397h.075v-.35H.006V0c.035.001.08.003.126.003C.17.003.234.003.27 0v.047H.183v.35h.115v.047H.177v.101c0 .11.076.119.101.119.005 0 .01 0 .017-.002A.06.06 0 0 1 .272.613.06.06 0 0 1 .333.551a.06.06 0 0 1 .062.062C.395.655.359.7.281.7.183.7.075.658.075.545V.444z"/></symbol><use xlink:href="#ah" transform="matrix(9.9626 0 0 -9.9626 487.4 62.845)" fill="#fff"/><use xlink:href="#O" transform="matrix(9.9626 0 0 -9.9626 495.16 62.825)" fill="#fff"/><use xlink:href="#Q" transform="matrix(9.9626 0 0 -9.9626 500.46 62.765)" fill="#fff"/><use xlink:href="#ai" transform="matrix(9.9626 0 0 -9.9626 505.282 62.765)" fill="#fff"/><use xlink:href="#aj" transform="matrix(9.9626 0 0 -9.9626 508.41 62.765)" fill="#fff"/><use xlink:href="#R" transform="matrix(9.9626 0 0 -9.9626 511.708 64.758)" fill="#fff"/><use xlink:href="#U" transform="matrix(9.9626 0 0 -9.9626 518.532 65.256)" fill="#fff"/><use xlink:href="#K" transform="matrix(9.9626 0 0 -9.9626 521.71 62.875)" fill="#fff"/><symbol id="ak"><path d="M.154.411h.143v.031H.154v.184H.129C.128.544.098.437 0 .433V.411h.085V.135C.085.012.178 0 .214 0c.071 0 .099.071.099.135v.057H.288V.137C.288.063.258.025.221.025.154.025.154.116.154.133v.278z"/></symbol><symbol id="al"><path d="M.144.388v.317L0 .694V.663C.07.663.078.656.078.607V.011h.025l.036.062A.157.157 0 0 1 .27 0c.119 0 .223.098.223.227 0 .127-.098.226-.212.226A.178.178 0 0 1 .144.388M.147.125v.206c0 .019 0 .02.011.036a.144.144 0 0 0 .118.064C.321.431.357.405.381.367A.269.269 0 0 0 .41.228.268.268 0 0 0 .379.086.137.137 0 0 0 .266.022a.124.124 0 0 0-.105.061C.147.104.147.107.147.125z"/></symbol><symbol id="am"><path d="M.346.066V0l.147.011v.031c-.07 0-.078.007-.078.056v.607L.271.694V.663c.07 0 .078-.007.078-.056V.391a.16.16 0 0 1-.126.062A.226.226 0 0 1 0 .226C0 .099.098 0 .212 0c.064 0 .109.034.134.066m0 .268V.129c0-.018 0-.02-.011-.037a.14.14 0 0 0-.118-.07C.172.022.136.048.112.086a.269.269 0 0 0-.029.139c0 .037.002.097.031.142a.137.137 0 0 0 .113.064.13.13 0 0 0 .108-.06C.346.354.346.352.346.334z"/></symbol><symbol id="an"><path d="M.106.053a.053.053 0 0 1-.053.053A.053.053 0 0 1 0 .053C0 .024.024 0 .053 0c.029 0 .053.024.053.053z"/></symbol><use xlink:href="#Y" transform="matrix(9.9626 0 0 -9.9626 530.736 65.256)" fill="#fff"/><use xlink:href="#aa" transform="matrix(9.9626 0 0 -9.9626 413.052 73.176)" fill="#fff"/><use xlink:href="#ak" transform="matrix(9.9626 0 0 -9.9626 417.894 77.22)" fill="#fff"/><use xlink:href="#i" transform="matrix(9.9626 0 0 -9.9626 421.859 77.22)" fill="#fff"/><use xlink:href="#i" transform="matrix(9.9626 0 0 -9.9626 427.119 77.22)" fill="#fff"/><use xlink:href="#al" transform="matrix(9.9626 0 0 -9.9626 435.418 77.22)" fill="#fff"/><use xlink:href="#ac" transform="matrix(9.9626 0 0 -9.9626 441.096 77.22)" fill="#fff"/><use xlink:href="#am" transform="matrix(9.9626 0 0 -9.9626 445.998 77.22)" fill="#fff"/><use xlink:href="#an" transform="matrix(9.9626 0 0 -9.9626 452.055 77.111)" fill="#fff"/><use xlink:href="#an" transform="matrix(9.9626 0 0 -9.9626 454.825 77.111)" fill="#fff"/><use xlink:href="#an" transform="matrix(9.9626 0 0 -9.9626 457.595 77.111)" fill="#fff"/><use xlink:href="#aa" transform="matrix(9.9626 0 0 -9.9626 459.836 73.176)" fill="#fff"/><symbol id="ao"><path d="M.428.284c0 .104-.07.169-.16.169C.134.453 0 .311 0 .169 0 .07.067 0 .16 0c.133 0 .268.138.268.284M.161.022C.118.022.074.053.074.131.074.18.1.288.132.339c.05.077.107.092.135.092.058 0 .088-.048.088-.108A.527.527 0 0 0 .297.114C.262.056.207.022.161.022z"/></symbol><symbol id="ap"><path d="M.232.694c0 .001 0 .011-.013.011C.196.705.123.697.097.695.089.694.078.693.078.675c0-.012.009-.012.024-.012.048 0 .05-.007.05-.017L.149.626.004.05C0 .036 0 .034 0 .028 0 .005.02 0 .029 0c.016 0 .032.012.037.026l.019.076.022.09a1.31 1.31 0 0 1 .028.112.295.295 0 0 0 .068.092.16.16 0 0 0 .096.035c.043 0 .054-.034.054-.07A.85.85 0 0 0 .291.137C.283.114.278.102.278.082A.08.08 0 0 1 .36 0c.094 0 .131.146.131.154 0 .01-.009.01-.012.01-.01 0-.01-.003-.015-.018C.449.093.417.022.362.022c-.017 0-.024.01-.024.033a.19.19 0 0 0 .018.071c.016.043.061.162.061.22 0 .065-.04.107-.115.107A.186.186 0 0 1 .154.376l.078.318z"/></symbol><symbol id="aq"><path d="M.141.242a.45.45 0 0 1 .153.023c.07.03.075.089.075.103 0 .044-.038.085-.107.085A.272.272 0 0 1 0 .181C0 .079.059 0 .157 0 .3 0 .384.106.384.118c0 .006-.006.013-.012.013C.367.131.365.129.359.121.28.022.171.022.159.022.081.022.072.106.072.138c0 .012.001.043.016.104h.053M.094.264c.039.152.142.167.168.167.047 0 .074-.029.074-.063C.336.264.176.264.135.264H.094z"/></symbol><symbol id="ar"><path d="M.059.07C.056.055.05.032.05.027.05.009.064 0 .079 0a.04.04 0 0 1 .037.028l.04.158.032.13c.004.013.032.06.056.082.008.007.037.033.08.033C.35.431.365.419.366.419.336.414.314.39.314.364c0-.016.011-.035.038-.035s.055.023.055.059c0 .035-.032.065-.083.065C.259.453.215.404.196.376a.09.09 0 0 1-.091.077C.059.453.04.414.031.396A.42.42 0 0 1 0 .299c0-.01.01-.01.012-.01.01 0 .011.001.017.023.017.071.037.119.073.119.017 0 .031-.008.031-.046C.133.364.13.353.117.301L.059.07z"/></symbol><symbol id="as"><path d="M.433.35c.005.022.015.059.015.065 0 .018-.014.027-.029.027A.04.04 0 0 1 .382.414C.379.407.332.216.325.19A.274.274 0 0 1 .317.106C.294.053.264.022.225.022c-.08 0-.08.074-.08.091 0 .032.005.071.052.194.011.03.017.044.017.064a.08.08 0 0 1-.082.082C.037.453 0 .308 0 .299c0-.01.01-.01.012-.01.01 0 .011.002.016.018C.055.4.094.431.129.431.138.431.154.43.154.398a.2.2 0 0 0-.018-.07A.63.63 0 0 1 .08.126C.08.035.147 0 .222 0c.017 0 .064 0 .104.07C.352.006.421 0 .451 0 .526 0 .57.063.596.123a.933.933 0 0 1 .066.26c0 .055-.027.07-.044.07-.025 0-.05-.026-.05-.048 0-.013.006-.019.015-.027A.114.114 0 0 0 .619.293.607.607 0 0 0 .564.11C.538.057.503.022.454.022.407.022.38.052.38.109c0 .028.007.059.011.073L.433.35z"/></symbol><symbol id="at"><path d="M.339.385C.311.384.291.362.291.34.291.326.3.311.322.311s.046.017.046.056c0 .045-.043.086-.119.086C.117.453.08.351.08.307.08.229.154.214.183.208.235.198.287.187.287.132c0-.026-.023-.11-.143-.11-.014 0-.091 0-.114.053a.055.055 0 0 1 .063.053c0 .023-.016.035-.037.035C.03.163 0 .142 0 .097 0 .04.057 0 .143 0c.162 0 .201.121.201.166a.104.104 0 0 1-.031.073C.286.267.257.272.213.281.177.289.137.296.137.341c0 .029.024.09.112.09.025 0 .075-.007.09-.046z"/></symbol><use xlink:href="#ao" transform="matrix(9.9626 0 0 -9.9626 474.844 77.22)" fill="#fff"/><use xlink:href="#W" transform="matrix(9.9626 0 0 -9.9626 479.497 77.22)" fill="#fff"/><use xlink:href="#ap" transform="matrix(9.9626 0 0 -9.9626 483.412 77.22)" fill="#fff"/><use xlink:href="#aq" transform="matrix(9.9626 0 0 -9.9626 489.061 77.22)" fill="#fff"/><use xlink:href="#ar" transform="matrix(9.9626 0 0 -9.9626 493.534 77.22)" fill="#fff"/><use xlink:href="#as" transform="matrix(9.9626 0 0 -9.9626 498.306 77.22)" fill="#fff"/><use xlink:href="#af" transform="matrix(9.9626 0 0 -9.9626 505.709 77.22)" fill="#fff"/><use xlink:href="#at" transform="matrix(9.9626 0 0 -9.9626 509.375 77.22)" fill="#fff"/><use xlink:href="#aq" transform="matrix(9.9626 0 0 -9.9626 513.988 77.22)" fill="#fff"/><path stroke-width=".399" stroke-miterlimit="10" fill="none" stroke="#ffe4e1" d="M202.093 89.937h171.04"/><path stroke-width=".319" stroke-linecap="round" stroke-linejoin="round" fill="none" stroke="#ffe4e1" d="M203.288 91.531c-.1-.598-1.195-1.494-1.494-1.594.299-.1 1.395-.996 1.494-1.594"/><symbol id="au"><path d="M.334.43c0 .017 0 .026-.014.026-.005 0-.007 0-.02-.012L.282.429a.182.182 0 0 1-.105.027C.034.456 0 .381 0 .331 0 .299.014.273.038.253.076.22.114.213.176.203.226.194.307.18.307.113.307.074.28.028.184.028S.053.091.035.159C.032.172.031.176.017.176 0 .176 0 .169 0 .149V.026C0 .009 0 0 .014 0c.009 0 .028.021.048.043A.174.174 0 0 1 .184 0c.13 0 .178.07.178.141a.122.122 0 0 1-.043.092A.219.219 0 0 1 .2.282C.12.296.055.308.055.361c0 .032.027.071.122.071C.293.432.298.351.3.322.301.311.313.311.317.311c.017 0 .017.007.017.026V.43z"/></symbol><symbol id="av"><path d="M.229.036c-.065 0-.075 0-.075.043v.163C.159.237.206.184.29.184c.132 0 .245.099.245.226a.228.228 0 0 1-.229.225A.225.225 0 0 1 .15.574v.061L0 .624V.588C.07.588.075.583.075.541V.079C.075.036.065.036 0 .036V0c.002 0 .072.004.114.004C.151.004.22.001.229 0v.036M.154.527c.03.05.088.076.141.076C.379.603.444.515.444.41.444.296.369.212.284.212c-.088 0-.127.077-.13.083v.232z"/></symbol><symbol id="aw"><path d="M.461.303c0 .087-.043.138-.15.138A.179.179 0 0 1 .148.344H.147v.097L0 .43V.394C.067.394.075.387.075.338V.079C.075.036.065.036 0 .036V0c.002 0 .072.004.114.004C.151.004.22.001.229 0v.036c-.065 0-.075 0-.075.043v.18c0 .105.083.154.149.154.07 0 .079-.055.079-.106V.079C.382.036.372.036.307.036V0c.002 0 .072.004.114.004C.458.004.527.001.536 0v.036c-.065 0-.075 0-.075.043v.224z"/></symbol><symbol id="ax"><path d="M.31.693V.657C.377.657.385.65.385.601V.394a.197.197 0 0 1-.14.057C.112.451 0 .351 0 .225A.23.23 0 0 1 .233 0c.082 0 .131.044.148.062V0l.154.01v.036C.468.046.46.053.46.102v.602L.31.693M.381.115A.164.164 0 0 0 .239.028.142.142 0 0 0 .123.09a.231.231 0 0 0-.032.134c0 .023 0 .098.041.145.04.045.089.054.118.054A.15.15 0 0 0 .369.365C.381.349.381.348.381.329V.115z"/></symbol><symbol id="ay"><path d="M.67.344c.02.05.053.06.084.061v.036a1.07 1.07 0 0 0-.17 0V.405C.619.404.636.385.636.361c0-.008 0-.01-.006-.024L.533.088.425.361A.06.06 0 0 0 .42.38c0 .022.026.025.054.025v.036a1.3 1.3 0 0 0-.196 0V.405c.023 0 .044 0 .057-.008C.349.387.358.354.358.353A.041.041 0 0 0 .354.341L.26.103.159.361C.153.375.153.376.153.38c0 .025.036.025.054.025v.036C.205.441.134.437.094.437A.985.985 0 0 0 0 .441V.405c.039 0 .061 0 .072-.029L.211.023C.217.008.22 0 .238 0c.018 0 .021.008.026.021l.113.286.111-.283C.494.009.498 0 .516 0c.018 0 .021.007.027.023L.67.344z"/></symbol><symbol id="az"><path d="M.155.617a.058.058 0 0 1-.058.057A.057.057 0 0 1 .04.617a.057.057 0 1 1 .115 0M.003.43V.394C.066.394.075.388.075.339v-.26C.075.036.065.036 0 .036V0c.002 0 .072.004.112.004C.147.004.183.003.218 0v.036C.16.036.15.036.15.078v.363L.003.43z"/></symbol><symbol id="aA"><path d="M.172.405h.156v.036H.172v.184H.138C.137.535.096.436 0 .433V.405h.093v-.27C.093.023.177 0 .233 0 .3 0 .346.057.346.136v.055H.312V.137C.312.069.28.032.241.032.172.032.172.116.172.134v.271z"/></symbol><symbol id="aB"><path d="M.461.303c0 .087-.043.138-.15.138A.18.18 0 0 1 .151.35H.15v.344L0 .683V.647C.067.647.075.64.075.591V.079C.075.036.065.036 0 .036V0c.002 0 .072.004.114.004C.151.004.22.001.229 0v.036c-.065 0-.075 0-.075.043v.18c0 .105.083.154.149.154.07 0 .079-.055.079-.106V.079C.382.036.372.036.307.036V0c.002 0 .072.004.114.004C.458.004.527.001.536 0v.036c-.065 0-.075 0-.075.043v.224z"/></symbol><use xlink:href="#n" transform="matrix(6.9738 0 0 -6.9738 226.899 84.672)" fill="#fff"/><use xlink:href="#m" transform="matrix(6.9738 0 0 -6.9738 229.94 84.742)" fill="#fff"/><use xlink:href="#au" transform="matrix(6.9738 0 0 -6.9738 233.524 84.742)" fill="#fff"/><use xlink:href="#av" transform="matrix(6.9738 0 0 -6.9738 236.71 86.025)" fill="#fff"/><use xlink:href="#q" transform="matrix(6.9738 0 0 -6.9738 241.258 84.742)" fill="#fff"/><use xlink:href="#aw" transform="matrix(6.9738 0 0 -6.9738 245.337 84.672)" fill="#fff"/><use xlink:href="#ax" transform="matrix(6.9738 0 0 -6.9738 249.682 84.742)" fill="#fff"/><use xlink:href="#ay" transform="matrix(6.9738 0 0 -6.9738 256.656 84.742)" fill="#fff"/><use xlink:href="#az" transform="matrix(6.9738 0 0 -6.9738 262.528 84.672)" fill="#fff"/><use xlink:href="#aA" transform="matrix(6.9738 0 0 -6.9738 264.592 84.742)" fill="#fff"/><use xlink:href="#aB" transform="matrix(6.9738 0 0 -6.9738 267.877 84.672)" fill="#fff"/><use xlink:href="#r" transform="matrix(6.9738 0 0 -6.9738 275.012 84.742)" fill="#fff"/><use xlink:href="#s" transform="matrix(6.9738 0 0 -6.9738 278.437 84.742)" fill="#fff"/><symbol id="aC"><path d="M.498.193H.456C.453.174.443.112.427.102.419.096.335.096.32.096H.124c.066.049.14.105.2.145.09.062.174.12.174.226 0 .128-.121.199-.264.199C.099.666 0 .588 0 .49 0 .438.044.429.058.429c.027 0 .059.018.059.059C.117.524.091.544.06.547a.178.178 0 0 0 .153.075C.31.622.391.564.391.466.391.382.333.318.256.253L.012.046C.002.037.001.037 0 .03V0h.465l.033.193z"/></symbol><use xlink:href="#aC" transform="matrix(4.9813 0 0 -4.9813 281.603 85.668)" fill="#fff"/><use xlink:href="#u" transform="matrix(6.9738 0 0 -6.9738 288.031 84.672)" fill="#fff"/><use xlink:href="#v" transform="matrix(6.9738 0 0 -6.9738 290.047 83.863)" fill="#fff"/><symbol id="aD"><path d="M.488.676C.475.704.463.704.433.704.402.704.39.704.377.676L.108.074C.102.062.101.061.076.058.057.056.047.056.03.056H0V0c.004 0 .08.004.125.004C.169.004.262 0 .267 0v.056c-.003 0-.086 0-.086.008l.005.011.054.121h.305l.063-.14h-.09V0a4 4 0 0 0 .347 0v.056H.766l-.278.62M.392.536.52.252H.265l.127.284z"/></symbol><symbol id="aE"><path d="M.746.269H.683C.656.126.613.056.441.056H.258v.268h.066c.085 0 .114-.023.114-.11h.063V.49H.438C.438.404.41.38.324.38H.258v.243h.173C.571.623.628.584.648.44h.063L.677.679H0V.623h.107V.056H0V0h.695l.051.269z"/></symbol><symbol id="aF"><path d="M.211.458C.138.472.102.514.102.557c0 .042.03.102.147.102.086 0 .193-.03.217-.16C.471.473.471.47.499.47c.029 0 .032.003.032.032v.176c0 .02 0 .032-.023.032C.497.71.495.71.482.697L.448.665C.44.657.439.657.438.657c-.001 0-.002 0-.008.005A.325.325 0 0 1 .249.71C.068.71 0 .602 0 .509 0 .456.023.413.053.382.107.328.155.318.28.294L.366.278C.415.265.465.227.465.169c0-.011 0-.113-.151-.113a.422.422 0 0 0-.169.032.14.14 0 0 0-.082.126C.062.234.061.24.032.24.003.24 0 .237 0 .208V.032C0 .012 0 0 .023 0c.012 0 .014.001.021.007.011.01.036.036.047.045A.428.428 0 0 1 .315 0c.189 0 .252.119.252.215C.567.33.471.407.375.426L.211.458z"/></symbol><symbol id="aG"><path d="M.34.111H0V0h.34v.111z"/></symbol><symbol id="aH"><path d="M.78.678C.78.698.78.71.757.71.745.71.743.709.733.7L.666.642C.567.71.472.71.442.71.152.71 0 .547 0 .355 0 .166.148 0 .443 0 .649 0 .78.116.78.24.78.265.769.265.748.265c-.014 0-.03 0-.031-.017C.708.095.555.056.468.056c-.082 0-.174.02-.234.079C.177.192.163.276.163.355c0 .095.02.182.088.235a.351.351 0 0 0 .215.064.24.24 0 0 0 .241-.192C.712.435.712.433.741.433h.007C.777.433.78.436.78.465v.213z"/></symbol><symbol id="aI"><path d="M.772.673H.024L0 .434h.063c.011.109.025.183.17.183h.09V.056H.171V0c.026.002.081.003.108.003l.119.001.123-.001C.55.003.597.002.626 0v.056H.474v.561h.089c.145 0 .159-.073.17-.183h.063L.772.673z"/></symbol><symbol id="aJ"><path d="M.573.351C.628.368.738.413.738.51c0 .108-.13.188-.328.188H0V.642h.107V.068H0V.012c.024.002.17.004.179.004.003 0 .152-.002.179-.004v.056H.251v.264H.39c.019 0 .061 0 .102-.033C.528.271.528.247.528.175c0-.08 0-.175.231-.175.119 0 .135.089.135.111 0 .025-.018.025-.032.025-.014 0-.029 0-.031-.023C.826.059.791.046.769.046.704.046.695.111.685.189.675.256.667.316.573.351M.396.378H.251v.264H.4C.561.642.575.575.575.51.575.447.562.378.396.378z"/></symbol><use xlink:href="#aD" transform="matrix(6.9738 0 0 -6.9738 298.3 84.672)" fill="#fff"/><use xlink:href="#aE" transform="matrix(6.9738 0 0 -6.9738 305.093 84.672)" fill="#fff"/><use xlink:href="#aF" transform="matrix(6.9738 0 0 -6.9738 311.105 84.756)" fill="#fff"/><use xlink:href="#aG" transform="matrix(6.9738 0 0 -6.9738 315.714 83.507)" fill="#fff"/><use xlink:href="#aH" transform="matrix(6.9738 0 0 -6.9738 319.138 84.756)" fill="#fff"/><use xlink:href="#aI" transform="matrix(6.9738 0 0 -6.9738 325.457 84.672)" fill="#fff"/><use xlink:href="#aJ" transform="matrix(6.9738 0 0 -6.9738 331.761 84.756)" fill="#fff"/><symbol id="aK"><path d="M.24.999A.6.6 0 0 1 0 .5.6.6 0 0 1 .24 0c.008 0 .02 0 .02.012C.26.018.257.02.25.027.117.147.068.317.068.499c0 .27.103.402.185.476C.257.979.26.982.26.987.26.999.248.999.24.999z"/></symbol><use xlink:href="#aK" transform="matrix(6.9738 0 0 -6.9738 338.87 86.408)" fill="#fff"/><symbol id="aL"><path d="m.188.212.026.101a.244.244 0 0 0 .063.082c.011.008.038.028.081.028.01 0 .035-.001.055-.014A.059.059 0 0 1 .369.354c0-.022.017-.037.04-.037s.056.019.056.061C.465.43.41.451.359.451.307.451.262.43.218.38.2.441.139.451.115.451.078.451.053.428.037.4A.364.364 0 0 1 0 .298C0 .285.014.285.017.285c.014 0 .015.003.022.03.015.061.034.108.073.108.026 0 .033-.022.033-.049A.442.442 0 0 0 .129.291a3.78 3.78 0 0 1-.022-.09L.075.073a.378.378 0 0 1-.01-.041C.065.01.083 0 .099 0c.015 0 .035.009.043.029l.019.075.027.108z"/></symbol><use xlink:href="#aL" transform="matrix(6.9738 0 0 -6.9738 341.508 84.742)" fill="#fff"/><symbol id="aM"><path d="M.019.999C.012.999 0 .999 0 .987 0 .982.003.979.009.972.095.893.191.758.191.5.191.291.126.133.018.035.001.018 0 .017 0 .012 0 .007.003 0 .013 0 .025 0 .12.066.186.191a.667.667 0 0 1 .073.308.6.6 0 0 1-.24.5z"/></symbol><use xlink:href="#aM" transform="matrix(6.9738 0 0 -6.9738 345.588 86.408)" fill="#fff"/><path d="M4.487 142.028h185.087V94.54H4.487z" fill="#231f20"/><path stroke-width=".399" stroke-miterlimit="10" fill="none" stroke="#ffe4e1" d="M4.487 142.028h185.087V94.54H4.487z"/><use xlink:href="#K" transform="matrix(9.9626 0 0 -9.9626 54.5 105.44)" fill="#fff"/><use xlink:href="#L" transform="matrix(9.9626 0 0 -9.9626 66.583 105.33)" fill="#fff"/><use xlink:href="#M" transform="matrix(9.9626 0 0 -9.9626 69.054 104.005)" fill="#fff"/><use xlink:href="#N" transform="matrix(9.9626 0 0 -9.9626 79.398 105.33)" fill="#fff"/><use xlink:href="#O" transform="matrix(9.9626 0 0 -9.9626 88.115 105.39)" fill="#fff"/><use xlink:href="#P" transform="matrix(9.9626 0 0 -9.9626 93.425 105.39)" fill="#fff"/><use xlink:href="#Q" transform="matrix(9.9626 0 0 -9.9626 98.506 105.33)" fill="#fff"/><use xlink:href="#R" transform="matrix(9.9626 0 0 -9.9626 103.079 107.323)" fill="#fff"/><use xlink:href="#S" transform="matrix(9.9626 0 0 -9.9626 109.275 107.263)" fill="#fff"/><use xlink:href="#T" transform="matrix(9.9626 0 0 -9.9626 115.482 105.39)" fill="#fff"/><use xlink:href="#U" transform="matrix(9.9626 0 0 -9.9626 120.71 107.82)" fill="#fff"/><use xlink:href="#V" transform="matrix(9.9626 0 0 -9.9626 124.007 105.44)" fill="#fff"/><use xlink:href="#W" transform="matrix(9.9626 0 0 -9.9626 128.142 105.44)" fill="#fff"/><symbol id="aN"><path d="M.442.182H.408C.405.16.395.101.382.091.374.085.297.085.283.085H.099a3.5 3.5 0 0 0 .2.168c.074.059.143.121.143.216C.442.59.336.664.208.664.084.664 0 .577 0 .485 0 .434.043.429.053.429c.024 0 .053.017.053.053C.106.5.099.535.047.535a.157.157 0 0 0 .146.093c.1 0 .152-.078.152-.159C.345.382.283.313.251.277L.01.039C0 .03 0 .028 0 0h.412l.03.182z"/></symbol><use xlink:href="#aN" transform="matrix(6.9738 0 0 -6.9738 131.947 106.825)" fill="#fff"/><use xlink:href="#Y" transform="matrix(9.9626 0 0 -9.9626 136.545 107.82)" fill="#fff"/><use xlink:href="#h" transform="matrix(9.9626 0 0 -9.9626 8.088 126.252)" fill="#fff"/><use xlink:href="#M" transform="matrix(9.9626 0 0 -9.9626 15.59 124.927)" fill="#fff"/><use xlink:href="#Z" transform="matrix(9.9626 0 0 -9.9626 27.537 138.695)" fill="#fff"/><use xlink:href="#aa" transform="matrix(9.9626 0 0 -9.9626 34.456 115.522)" fill="#fff"/><use xlink:href="#L" transform="matrix(9.9626 0 0 -9.9626 39.965 119.457)" fill="#fff"/><use xlink:href="#Y" transform="matrix(9.9626 0 0 -9.9626 42.446 121.948)" fill="#fff"/><use xlink:href="#aa" transform="matrix(9.9626 0 0 -9.9626 46.082 115.522)" fill="#fff"/><use xlink:href="#af" transform="matrix(9.9626 0 0 -9.9626 125.74 119.567)" fill="#fff"/><use xlink:href="#ag" transform="matrix(9.9626 0 0 -9.9626 129.417 121.5)" fill="#fff"/><use xlink:href="#ah" transform="matrix(9.9626 0 0 -9.9626 138.414 119.537)" fill="#fff"/><use xlink:href="#O" transform="matrix(9.9626 0 0 -9.9626 146.175 119.517)" fill="#fff"/><use xlink:href="#Q" transform="matrix(9.9626 0 0 -9.9626 151.475 119.457)" fill="#fff"/><use xlink:href="#ai" transform="matrix(9.9626 0 0 -9.9626 156.297 119.457)" fill="#fff"/><use xlink:href="#aj" transform="matrix(9.9626 0 0 -9.9626 159.425 119.457)" fill="#fff"/><use xlink:href="#R" transform="matrix(9.9626 0 0 -9.9626 162.723 121.45)" fill="#fff"/><use xlink:href="#U" transform="matrix(9.9626 0 0 -9.9626 169.547 121.948)" fill="#fff"/><use xlink:href="#K" transform="matrix(9.9626 0 0 -9.9626 172.725 119.567)" fill="#fff"/><symbol id="aO"><path d="M.601.347C.619.397.65.41.685.411v.031a.89.89 0 0 0-.166 0V.411C.555.41.577.392.577.363c0-.006 0-.008-.005-.021L.481.086.382.365C.378.377.377.379.377.384c0 .027.039.027.059.027v.031L.332.439C.302.439.273.44.243.442V.411C.28.411.296.409.306.396.311.39.322.36.329.341L.243.099.148.366C.143.378.143.38.143.384c0 .027.039.027.059.027v.031L.093.439 0 .442V.411C.05.411.062.408.074.376L.2.022C.205.008.208 0 .221 0c.013 0 .015.006.02.02l.101.283.102-.284C.448.008.451 0 .464 0c.013 0 .016.009.02.019l.117.328z"/></symbol><symbol id="aP"><path d="M.078.076C.078.031.067.031 0 .031V0l.113.003L.225 0v.031c-.067 0-.078 0-.078.045V.26c0 .104.071.16.135.16C.345.42.356.366.356.309V.076C.356.031.345.031.278.031V0l.113.003L.503 0v.031c-.052 0-.077 0-.078.03v.191c0 .086 0 .117-.031.153C.38.422.347.442.289.442A.158.158 0 0 1 .144.344v.35L0 .683V.652C.07.652.078.645.078.596v-.52z"/></symbol><symbol id="aQ"><path d="M.144.57v.066L0 .625V.594c.071 0 .078-.006.078-.05V.076C.078.031.067.031 0 .031V0l.112.003L.225 0v.031c-.067 0-.078 0-.078.045V.253C.152.237.194.183.27.183c.119 0 .223.098.223.227 0 .127-.097.226-.209.226A.18.18 0 0 1 .144.57M.147.308v.223a.15.15 0 0 0 .129.08C.349.611.41.523.41.41.41.289.34.205.266.205c-.04 0-.078.02-.105.061C.147.287.147.288.147.308z"/></symbol><symbol id="aR"><path d="M.179.249c0 .126.097.197.132.223.027.02.048.056.048.098 0 .058-.04.135-.189.135C.062.705 0 .637 0 .572 0 .538.023.524.046.524c.028 0 .046.02.046.046C.092.615.05.615.036.615c.031.053.089.068.131.068.109 0 .109-.068.109-.107C.276.517.26.499.242.481A.346.346 0 0 1 .154.256V.211c0-.018 0-.024.012-.024.013 0 .013.009.013.027v.035m.04-.196a.053.053 0 0 1-.053.053.053.053 0 0 1-.053-.053C.113.024.137 0 .166 0c.029 0 .053.024.053.053z"/></symbol><use xlink:href="#Y" transform="matrix(9.9626 0 0 -9.9626 181.75 121.948)" fill="#fff"/><use xlink:href="#aa" transform="matrix(9.9626 0 0 -9.9626 34.456 129.869)" fill="#fff"/><use xlink:href="#aO" transform="matrix(9.9626 0 0 -9.9626 39.288 133.914)" fill="#fff"/><use xlink:href="#aP" transform="matrix(9.9626 0 0 -9.9626 46.62 133.804)" fill="#fff"/><use xlink:href="#ac" transform="matrix(9.9626 0 0 -9.9626 52.259 133.914)" fill="#fff"/><use xlink:href="#ak" transform="matrix(9.9626 0 0 -9.9626 57.011 133.914)" fill="#fff"/><use xlink:href="#aP" transform="matrix(9.9626 0 0 -9.9626 64.334 133.804)" fill="#fff"/><use xlink:href="#ac" transform="matrix(9.9626 0 0 -9.9626 69.972 133.914)" fill="#fff"/><use xlink:href="#aQ" transform="matrix(9.9626 0 0 -9.9626 74.814 135.737)" fill="#fff"/><use xlink:href="#aQ" transform="matrix(9.9626 0 0 -9.9626 80.353 135.737)" fill="#fff"/><use xlink:href="#e" transform="matrix(9.9626 0 0 -9.9626 86.172 133.914)" fill="#fff"/><use xlink:href="#j" transform="matrix(9.9626 0 0 -9.9626 90.635 133.804)" fill="#fff"/><use xlink:href="#e" transform="matrix(9.9626 0 0 -9.9626 96.134 133.914)" fill="#fff"/><use xlink:href="#am" transform="matrix(9.9626 0 0 -9.9626 100.617 133.914)" fill="#fff"/><use xlink:href="#aR" transform="matrix(9.9626 0 0 -9.9626 106.376 133.804)" fill="#fff"/><use xlink:href="#aa" transform="matrix(9.9626 0 0 -9.9626 110.849 129.869)" fill="#fff"/><use xlink:href="#ao" transform="matrix(9.9626 0 0 -9.9626 125.86 133.914)" fill="#fff"/><use xlink:href="#W" transform="matrix(9.9626 0 0 -9.9626 130.513 133.914)" fill="#fff"/><use xlink:href="#ap" transform="matrix(9.9626 0 0 -9.9626 134.428 133.914)" fill="#fff"/><use xlink:href="#aq" transform="matrix(9.9626 0 0 -9.9626 140.077 133.914)" fill="#fff"/><use xlink:href="#ar" transform="matrix(9.9626 0 0 -9.9626 144.55 133.914)" fill="#fff"/><use xlink:href="#as" transform="matrix(9.9626 0 0 -9.9626 149.322 133.914)" fill="#fff"/><use xlink:href="#af" transform="matrix(9.9626 0 0 -9.9626 156.725 133.914)" fill="#fff"/><use xlink:href="#at" transform="matrix(9.9626 0 0 -9.9626 160.39 133.914)" fill="#fff"/><use xlink:href="#aq" transform="matrix(9.9626 0 0 -9.9626 165.004 133.914)" fill="#fff"/><path stroke-width=".399" stroke-miterlimit="10" fill="none" stroke="#ffe4e1" d="M201.634 143.796h171.04"/><path stroke-width=".319" stroke-linecap="round" stroke-linejoin="round" fill="none" stroke="#ffe4e1" d="M371.479 142.202c.1.598 1.196 1.494 1.494 1.594-.298.1-1.394.996-1.494 1.594"/><use xlink:href="#n" transform="matrix(6.9738 0 0 -6.9738 226.899 138.53)" fill="#fff"/><use xlink:href="#m" transform="matrix(6.9738 0 0 -6.9738 229.94 138.6)" fill="#fff"/><use xlink:href="#au" transform="matrix(6.9738 0 0 -6.9738 233.524 138.6)" fill="#fff"/><use xlink:href="#av" transform="matrix(6.9738 0 0 -6.9738 236.71 139.883)" fill="#fff"/><use xlink:href="#q" transform="matrix(6.9738 0 0 -6.9738 241.258 138.6)" fill="#fff"/><use xlink:href="#aw" transform="matrix(6.9738 0 0 -6.9738 245.337 138.53)" fill="#fff"/><use xlink:href="#ax" transform="matrix(6.9738 0 0 -6.9738 249.682 138.6)" fill="#fff"/><use xlink:href="#ay" transform="matrix(6.9738 0 0 -6.9738 256.656 138.6)" fill="#fff"/><use xlink:href="#az" transform="matrix(6.9738 0 0 -6.9738 262.528 138.53)" fill="#fff"/><use xlink:href="#aA" transform="matrix(6.9738 0 0 -6.9738 264.592 138.6)" fill="#fff"/><use xlink:href="#aB" transform="matrix(6.9738 0 0 -6.9738 267.877 138.53)" fill="#fff"/><use xlink:href="#r" transform="matrix(6.9738 0 0 -6.9738 275.012 138.6)" fill="#fff"/><use xlink:href="#s" transform="matrix(6.9738 0 0 -6.9738 278.437 138.6)" fill="#fff"/><symbol id="aS"><path d="M.25.353C.342.353.403.296.403.197.403.095.34.041.251.041c-.011 0-.13 0-.181.052.041.006.053.037.053.061a.06.06 0 0 1-.061.061C.03.215 0 .194 0 .152 0 .048.118 0 .254 0 .418 0 .52.099.52.196.52.278.447.348.333.374c.12.039.152.115.152.171 0 .082-.102.143-.228.143C.134.688.035.636.035.546c0-.047.038-.059.057-.059.029 0 .057.021.057.057 0 .023-.012.051-.048.057C.144.647.233.65.254.65.327.65.379.613.379.545.379.487.341.396.236.39L.178.387C.167.386.156.385.156.37c0-.017.01-.017.028-.017H.25z"/></symbol><use xlink:href="#aS" transform="matrix(4.9813 0 0 -4.9813 281.549 139.636)" fill="#fff"/><use xlink:href="#u" transform="matrix(6.9738 0 0 -6.9738 288.031 138.53)" fill="#fff"/><use xlink:href="#v" transform="matrix(6.9738 0 0 -6.9738 290.047 137.721)" fill="#fff"/><use xlink:href="#aD" transform="matrix(6.9738 0 0 -6.9738 298.3 138.53)" fill="#fff"/><use xlink:href="#aE" transform="matrix(6.9738 0 0 -6.9738 305.093 138.53)" fill="#fff"/><use xlink:href="#aF" transform="matrix(6.9738 0 0 -6.9738 311.105 138.614)" fill="#fff"/><use xlink:href="#aG" transform="matrix(6.9738 0 0 -6.9738 315.714 137.365)" fill="#fff"/><use xlink:href="#aH" transform="matrix(6.9738 0 0 -6.9738 319.138 138.614)" fill="#fff"/><use xlink:href="#aI" transform="matrix(6.9738 0 0 -6.9738 325.457 138.53)" fill="#fff"/><use xlink:href="#aJ" transform="matrix(6.9738 0 0 -6.9738 331.761 138.614)" fill="#fff"/><use xlink:href="#aK" transform="matrix(6.9738 0 0 -6.9738 338.87 140.266)" fill="#fff"/><use xlink:href="#aL" transform="matrix(6.9738 0 0 -6.9738 341.508 138.6)" fill="#fff"/><use xlink:href="#aM" transform="matrix(6.9738 0 0 -6.9738 345.588 140.266)" fill="#fff"/><path d="M383.088 193.053h154.8v-47.49h-154.8z" fill="#231f20"/><path stroke-width=".399" stroke-miterlimit="10" fill="none" stroke="#ffe4e1" d="M383.088 193.053h154.8v-47.49h-154.8z"/><symbol id="aT"><path d="M.09.094c.054.058.083.083.119.114 0 .001.062.054.098.09a.474.474 0 0 1 .117.145c0 .01-.009.01-.011.01C.406.453.403.451.398.442.368.394.347.378.323.378S.287.393.272.41C.253.433.236.453.203.453.128.453.082.36.082.339c0-.005.003-.011.012-.011.009 0 .011.005.013.011.019.046.077.047.085.047.021 0 .04-.007.063-.015C.295.356.306.356.332.356A1.501 1.501 0 0 0 .193.225L.103.141A.479.479 0 0 1 0 .01C0 0 .01 0 .012 0c.008 0 .01.002.016.013.023.035.053.062.085.062.023 0 .033-.009.058-.038C.188.016.206 0 .235 0c.099 0 .157.127.157.154 0 .005-.004.01-.012.01C.371.164.369.158.366.151a.13.13 0 0 0-.12-.084C.226.067.208.073.187.08a.178.178 0 0 1-.07.017C.115.097.099.097.09.094z"/></symbol><use xlink:href="#at" transform="matrix(9.9626 0 0 -9.9626 425.423 156.464)" fill="#fff"/><use xlink:href="#aT" transform="matrix(9.9626 0 0 -9.9626 430.006 156.464)" fill="#fff"/><use xlink:href="#L" transform="matrix(9.9626 0 0 -9.9626 438.27 156.354)" fill="#fff"/><use xlink:href="#M" transform="matrix(9.9626 0 0 -9.9626 440.74 155.029)" fill="#fff"/><symbol id="aU"><path d="M.338.425.193.456C.153.465.097.499.097.56c0 .043.028.105.128.105.08 0 .181-.034.204-.17C.433.471.433.469.454.469c.024 0 .024.005.024.028V.68c0 .019 0 .028-.018.028C.452.708.451.707.44.697L.395.653a.27.27 0 0 1-.171.055C.072.708 0 .612 0 .507 0 .442.033.396.054.374.103.325.137.318.246.294.334.275.351.272.373.251a.117.117 0 0 0 .04-.087C.413.116.387.047.283.047c-.076 0-.228.02-.236.169C.046.234.046.239.024.239 0 .239 0 .233 0 .21V.028C0 .009 0 0 .018 0c.009 0 .011.002.019.009l.046.046A.355.355 0 0 1 .283 0C.448 0 .51.113.51.214a.216.216 0 0 1-.172.211z"/></symbol><symbol id="aV"><path d="M.256.639H.37v.047C.329.683.231.683.185.683c-.046 0-.144 0-.185.003V.639h.114V.047H0V0c.041.003.139.003.185.003C.231.003.329.003.37 0v.047H.256v.592z"/></symbol><symbol id="aW"><path d="M.566.637C.574.649.574.65.574.661c0 .025-.011.025-.032.025H.028L.016.445h.047c.008.133.075.194.215.194h.13l-.4-.587C0 .04 0 .037 0 .026 0 0 .01 0 .032 0h.531l.018.284H.534C.526.173.512.051.307.051h-.14l.399.586z"/></symbol><symbol id="aX"><path d="M.684.274H.637C.615.136.587.047.402.047H.25v.282h.055C.401.329.411.286.411.212h.047v.281H.411C.411.419.402.376.305.376H.25v.257h.152C.563.633.589.56.605.439h.047L.621.68H0V.633h.108V.047H0V0h.638l.046.274z"/></symbol><use xlink:href="#aU" transform="matrix(9.9626 0 0 -9.9626 451.335 156.464)" fill="#fff"/><use xlink:href="#aV" transform="matrix(9.9626 0 0 -9.9626 457.392 156.354)" fill="#fff"/><use xlink:href="#aW" transform="matrix(9.9626 0 0 -9.9626 462.044 156.354)" fill="#fff"/><use xlink:href="#aX" transform="matrix(9.9626 0 0 -9.9626 468.799 156.354)" fill="#fff"/><use xlink:href="#U" transform="matrix(9.9626 0 0 -9.9626 476.921 158.845)" fill="#fff"/><use xlink:href="#V" transform="matrix(9.9626 0 0 -9.9626 480.218 156.464)" fill="#fff"/><use xlink:href="#W" transform="matrix(9.9626 0 0 -9.9626 484.353 156.464)" fill="#fff"/><symbol id="aY"><path d="M.219.354C.297.354.353.3.353.193.353.069.281.032.223.032c-.04 0-.128.011-.17.07C.1.104.111.137.111.158a.054.054 0 0 1-.055.055C.028.213 0 .196 0 .155 0 .061.104 0 .225 0 .364 0 .46.093.46.193.46.271.396.349.286.372.391.41.429.485.429.546c0 .079-.091.138-.202.138C.116.684.031.63.031.55c0-.034.022-.053.052-.053a.05.05 0 0 1 .051.051c0 .029-.02.05-.051.052.035.044.104.055.141.055.045 0 .108-.022.108-.109a.192.192 0 0 0-.04-.119C.259.389.231.387.181.384L.149.381C.147.381.139.379.139.368c0-.014.009-.014.026-.014h.054z"/></symbol><use xlink:href="#aY" transform="matrix(6.9738 0 0 -6.9738 488.096 157.987)" fill="#fff"/><use xlink:href="#Y" transform="matrix(9.9626 0 0 -9.9626 492.756 158.845)" fill="#fff"/><symbol id="aZ"><path d="M.077.072C.069.038.067.031.023.031.011.031 0 .031 0 .012 0 .004.005 0 .013 0l.084.003L.196 0c.005 0 .018 0 .018.02 0 .011-.01.011-.024.011-.05 0-.05.007-.05.016 0 .012.042.175.049.2C.202.218.23.183.281.183c.116 0 .241.146.241.293 0 .094-.057.16-.133.16C.339.636.291.6.258.561a.088.088 0 0 1-.09.075C.122.636.103.597.094.579A.42.42 0 0 1 .063.482c0-.01.01-.01.012-.01.01 0 .011.001.017.023.017.071.037.119.073.119.017 0 .031-.008.031-.046C.196.545.193.534.189.517L.077.072m.176.434a.161.161 0 0 0 .052.07C.34.607.369.614.386.614.426.614.45.579.45.52A.71.71 0 0 0 .399.308C.365.238.317.205.28.205.214.205.201.288.201.294L.204.31l.049.196z"/></symbol><symbol id="ba"><path d="M.333.389C.315.426.286.453.241.453.124.453 0 .306 0 .16 0 .066.055 0 .133 0c.02 0 .07.004.13.075A.09.09 0 0 1 .354 0c.035 0 .058.023.074.055.017.036.03.097.03.099 0 .01-.009.01-.012.01C.436.164.435.16.432.146.415.081.397.022.356.022c-.027 0-.03.026-.03.046 0 .022.002.03.013.074l.022.09.036.14C.404.4.404.402.404.406c0 .017-.012.027-.029.027C.351.433.336.411.333.389M.268.13C.263.112.263.11.248.093.204.038.163.022.135.022c-.05 0-.064.055-.064.094 0 .05.032.173.055.219.031.059.076.096.116.096.065 0 .079-.082.079-.088C.321.337.319.331.318.326L.268.13z"/></symbol><symbol id="bb"><path d="M.476.694c0 .001 0 .011-.013.011C.448.705.353.696.336.694.328.693.322.688.322.675c0-.012.009-.012.024-.012.048 0 .05-.007.05-.017L.393.626.333.389C.315.426.286.453.241.453.124.453 0 .306 0 .16 0 .066.055 0 .133 0c.02 0 .07.004.13.075A.09.09 0 0 1 .354 0c.035 0 .058.023.074.055.017.036.03.097.03.099 0 .01-.009.01-.012.01C.436.164.435.16.432.146.415.081.397.022.356.022c-.027 0-.03.026-.03.046 0 .024.002.031.006.048l.144.578M.268.13C.263.112.263.11.248.093.204.038.163.022.135.022c-.05 0-.064.055-.064.094 0 .05.032.173.055.219.031.059.076.096.116.096.065 0 .079-.082.079-.088C.321.337.319.331.318.326L.268.13z"/></symbol><use xlink:href="#aZ" transform="matrix(9.9626 0 0 -9.9626 386.086 179.209)" fill="#fff"/><use xlink:href="#ba" transform="matrix(9.9626 0 0 -9.9626 391.815 177.386)" fill="#fff"/><use xlink:href="#bb" transform="matrix(9.9626 0 0 -9.9626 397.085 177.386)" fill="#fff"/><symbol id="bc"><path d="M.277.635a.038.038 0 0 1-.04.038C.21.673.181.647.181.618.181.601.194.58.221.58.25.58.277.608.277.635M.073.127C.069.114.064.102.064.085.064.038.104 0 .159 0c.1 0 .144.138.144.153C.303.166.29.166.287.166.273.166.272.16.268.149.245.069.201.028.162.028c-.02 0-.025.013-.025.035 0 .023.007.042.016.064l.032.08.049.127A.12.12 0 0 1 .24.366C.24.413.2.451.145.451.046.451 0 .315 0 .298 0 .285.014.285.017.285c.014 0 .015.005.018.016.026.086.07.122.107.122.016 0 .025-.008.025-.035C.167.365.161.35.136.288L.073.127z"/></symbol><use xlink:href="#bc" transform="matrix(6.9738 0 0 -6.9738 402.197 178.84)" fill="#fff"/><use xlink:href="#M" transform="matrix(9.9626 0 0 -9.9626 409.065 175.951)" fill="#fff"/><use xlink:href="#Z" transform="matrix(9.9626 0 0 -9.9626 421.012 189.718)" fill="#fff"/><use xlink:href="#V" transform="matrix(9.9626 0 0 -9.9626 428.01 170.59)" fill="#fff"/><use xlink:href="#af" transform="matrix(9.9626 0 0 -9.9626 489.938 170.59)" fill="#fff"/><use xlink:href="#ag" transform="matrix(9.9626 0 0 -9.9626 493.614 172.523)" fill="#fff"/><use xlink:href="#at" transform="matrix(9.9626 0 0 -9.9626 502.88 170.59)" fill="#fff"/><use xlink:href="#aT" transform="matrix(9.9626 0 0 -9.9626 507.462 170.59)" fill="#fff"/><symbol id="bd"><path d="M.077.077.183.18c.156.138.216.192.216.292 0 .114-.09.194-.212.194A.185.185 0 0 1 0 .485C0 .429.05.429.053.429c.017 0 .052.012.052.053a.05.05 0 0 1-.053.052L.039.533a.144.144 0 0 0 .135.102C.265.635.308.554.308.472c0-.08-.05-.159-.105-.221L.011.037C0 .026 0 .024 0 0h.371l.028.174H.374C.369.144.362.1.352.085.345.077.279.077.257.077h-.18z"/></symbol><symbol id="be"><path d="M.63.677H.019L0 .452h.025c.014.161.029.194.18.194.018 0 .044 0 .054-.002C.28.64.28.629.28.606V.079C.28.045.28.031.175.031h-.04V0c.041.003.143.003.189.003.046 0 .149 0 .19-.003v.031h-.04C.369.031.369.045.369.079v.527c0 .02 0 .034.018.038a.471.471 0 0 0 .057.002C.595.646.61.613.624.452h.025L.63.677z"/></symbol><use xlink:href="#M" transform="matrix(9.9626 0 0 -9.9626 515.417 169.156)" fill="#fff"/><use xlink:href="#bd" transform="matrix(9.9626 0 0 -9.9626 525.878 170.481)" fill="#fff"/><use xlink:href="#be" transform="matrix(9.9626 0 0 -9.9626 427.96 184.827)" fill="#fff"/><use xlink:href="#h" transform="matrix(9.9626 0 0 -9.9626 434.247 184.827)" fill="#fff"/><use xlink:href="#g" transform="matrix(9.9626 0 0 -9.9626 438.063 186.87)" fill="#fff"/><use xlink:href="#ac" transform="matrix(9.9626 0 0 -9.9626 446.87 184.937)" fill="#fff"/><use xlink:href="#j" transform="matrix(9.9626 0 0 -9.9626 451.751 184.827)" fill="#fff"/><use xlink:href="#i" transform="matrix(9.9626 0 0 -9.9626 457.25 184.937)" fill="#fff"/><use xlink:href="#ak" transform="matrix(9.9626 0 0 -9.9626 462.142 184.937)" fill="#fff"/><use xlink:href="#aP" transform="matrix(9.9626 0 0 -9.9626 466.147 184.827)" fill="#fff"/><use xlink:href="#e" transform="matrix(9.9626 0 0 -9.9626 471.647 184.937)" fill="#fff"/><use xlink:href="#h" transform="matrix(9.9626 0 0 -9.9626 476.07 184.827)" fill="#fff"/><use xlink:href="#ao" transform="matrix(9.9626 0 0 -9.9626 490.055 184.937)" fill="#fff"/><use xlink:href="#W" transform="matrix(9.9626 0 0 -9.9626 494.708 184.937)" fill="#fff"/><use xlink:href="#ap" transform="matrix(9.9626 0 0 -9.9626 498.623 184.937)" fill="#fff"/><use xlink:href="#aq" transform="matrix(9.9626 0 0 -9.9626 504.272 184.937)" fill="#fff"/><use xlink:href="#ar" transform="matrix(9.9626 0 0 -9.9626 508.745 184.937)" fill="#fff"/><use xlink:href="#as" transform="matrix(9.9626 0 0 -9.9626 513.517 184.937)" fill="#fff"/><use xlink:href="#af" transform="matrix(9.9626 0 0 -9.9626 520.92 184.937)" fill="#fff"/><use xlink:href="#at" transform="matrix(9.9626 0 0 -9.9626 524.586 184.937)" fill="#fff"/><use xlink:href="#aq" transform="matrix(9.9626 0 0 -9.9626 529.198 184.937)" fill="#fff"/><path stroke-width=".797" stroke-miterlimit="10" fill="none" stroke="#ffe4e1" d="M194.548 19.07v178.585M378.802 19.07v178.585"/></svg>
