<svg xmlns="http://www.w3.org/2000/svg" xmlns:xlink="http://www.w3.org/1999/xlink" width="427pt" height="242pt" viewBox="0 0 427 242"><clipPath id="a"><path transform="matrix(1 0 0 -1 0 242)" d="M0 0h427v242H0z"/></clipPath><g clip-path="url(#a)"><path d="M0 0h427v242H0z" fill="#fff"/></g><path d="M0 0h427v242H0z" fill="none"/><clipPath id="b"><path transform="matrix(1 0 0 -1 0 242)" d="M0 1h427v241H0z"/></clipPath><g clip-path="url(#b)"><path stroke-width="1.016" stroke-linejoin="round" fill="none" stroke="#fff" d="M49.5 71.5h295v120h-295z"/></g><clipPath id="c"><path transform="matrix(1 0 0 -1 0 242)" d="M0 1h427v241H0z"/></clipPath><g clip-path="url(#c)"><path stroke-width="1.016" stroke-linejoin="round" fill="none" stroke="#fff" d="M49.5 191.5v-120"/></g><clipPath id="d"><path transform="matrix(1 0 0 -1 0 242)" d="M0 1h427v241H0z"/></clipPath><g clip-path="url(#d)"><path stroke-width="1.016" stroke-linejoin="round" fill="none" stroke="#fff" d="M46.5 191.5h3m-3-20h3m-3-20h3m-3-20h3m-3-20h3m-3-20h3m-3-20h3"/></g><clipPath id="e"><path transform="matrix(1 0 0 -1 0 242)" d="M0 1h427v241H0z"/></clipPath><g clip-path="url(#e)"><path stroke-width=".762" stroke-linejoin="round" fill="none" stroke="#fff" d="M49.5 191.5h295"/></g><clipPath id="f"><path transform="matrix(1 0 0 -1 0 242)" d="M0 1h427v241H0z"/></clipPath><g clip-path="url(#f)"><path stroke-width=".762" stroke-linejoin="round" fill="none" stroke="#fff" d="M49.5 191.5v3m42-3v3m42-3v3m42-3v3m43-3v3m42-3v3m42-3v3m42-3v3"/></g><clipPath id="g"><path transform="matrix(1 0 0 -1 0 242)" d="M49 50h295v121H49z"/></clipPath><g clip-path="url(#g)"><path stroke-width="2.286" stroke-linecap="round" stroke-linejoin="round" fill="none" stroke="#ed7d31" d="m71 176 42-15 42-16 42-15 42-16 42-15 42-15"/></g><clipPath id="h"><path transform="matrix(1 0 0 -1 0 242)" d="M49 50h295v121H49z"/></clipPath><g clip-path="url(#h)"><path stroke-width="2.286" stroke-linecap="round" stroke-linejoin="round" fill="none" stroke="#ffc000" d="m71 191 42-1h42l42-1 42-1h42l42-1"/></g><clipPath id="i"><path transform="matrix(1 0 0 -1 0 242)" d="M0 1h427v241H0z"/></clipPath><g clip-path="url(#i)"><symbol id="j"><path d="M.437.327A.695.695 0 0 0 .425.194.3.3 0 0 0 .387.09a.187.187 0 0 0-.07-.067A.219.219 0 0 0 .213 0a.219.219 0 0 0-.1.021.167.167 0 0 0-.066.062.298.298 0 0 0-.036.102.837.837 0 0 0 .002.271C.02.496.032.531.05.56c.017.029.04.05.07.066A.214.214 0 0 0 .224.65c.04 0 .073-.007.1-.021A.162.162 0 0 0 .391.566.287.287 0 0 0 .426.465.792.792 0 0 0 .437.327M.351.32a.947.947 0 0 1-.014.151.198.198 0 0 1-.017.05.11.11 0 0 1-.025.034.086.086 0 0 1-.033.02.13.13 0 0 1-.042.006.109.109 0 0 1-.068-.02.133.133 0 0 1-.04-.054.288.288 0 0 1-.02-.08A.85.85 0 0 1 .092.21a.27.27 0 0 1 .023-.08.107.107 0 0 1 .04-.046.12.12 0 0 1 .06-.014.12.12 0 0 1 .049.009A.1.1 0 0 1 .3.103c.01.01.019.024.025.04a.413.413 0 0 1 .023.11.912.912 0 0 1 .003.068z"/></symbol><use xlink:href="#j" transform="matrix(9 0 0 -9 37.185 194.083)" fill="#fff"/></g><clipPath id="k"><path transform="matrix(1 0 0 -1 0 242)" d="M0 1h427v241H0z"/></clipPath><g clip-path="url(#k)"><symbol id="l"><path d="M.399.212a.226.226 0 0 0-.017-.09.185.185 0 0 0-.049-.067.216.216 0 0 0-.074-.04.305.305 0 0 0-.152-.01.368.368 0 0 0-.08.021.078.078 0 0 0-.017.01.026.026 0 0 0-.005.006.072.072 0 0 0-.003.007.201.201 0 0 0-.001.04L.002.1a.017.017 0 0 0 .005.006.011.011 0 0 0 .006.002C.017.108.022.106.03.102A.276.276 0 0 1 .1.076a.259.259 0 0 1 .122.001.124.124 0 0 1 .047.025.114.114 0 0 1 .03.041.152.152 0 0 1 .012.062C.31.225.307.243.3.258a.088.088 0 0 1-.029.038.126.126 0 0 1-.05.023.386.386 0 0 1-.124.005.297.297 0 0 0-.04-.003C.05.321.043.323.039.328.034.332.032.34.032.352V.61c0 .011.003.02.008.024a.03.03 0 0 0 .022.008h.28c.002 0 .004 0 .007-.002A.015.015 0 0 0 .355.632.078.078 0 0 0 .36.605.062.062 0 0 0 .355.578C.352.57.347.568.341.568H.105V.39a.307.307 0 0 0 .17-.01.181.181 0 0 0 .069-.037.147.147 0 0 0 .04-.057A.191.191 0 0 0 .4.212z"/></symbol><use xlink:href="#l" transform="matrix(9 0 0 -9 32.752 174.083)" fill="#fff"/><use xlink:href="#j" transform="matrix(9 0 0 -9 37.625 174.083)" fill="#fff"/></g><clipPath id="m"><path transform="matrix(1 0 0 -1 0 242)" d="M0 1h427v241H0z"/></clipPath><g clip-path="url(#m)"><symbol id="n"><path d="M.368.033A.07.07 0 0 0 .366.018a.034.034 0 0 0-.004-.01A.017.017 0 0 0 .356 0 .014.014 0 0 0 .35 0H.02L.014.001a.025.025 0 0 0-.006.006.034.034 0 0 0-.004.01.07.07 0 0 0-.002.016c0 .006 0 .011.002.015a.047.047 0 0 0 .003.01.018.018 0 0 0 .006.007.012.012 0 0 0 .007.002h.132v.48L.03.476A.054.054 0 0 0 .015.47C.01.47.008.47.005.471a.02.02 0 0 0-.004.01.145.145 0 0 0 .002.043.023.023 0 0 0 .004.007.048.048 0 0 0 .007.006L.16.63a.017.017 0 0 0 .005.003l.007.002h.01A.182.182 0 0 0 .23.633C.23.632.233.63.234.628A.01.01 0 0 0 .236.623V.067H.35c.003 0 .005 0 .007-.002A.013.013 0 0 0 .363.059a.027.027 0 0 0 .003-.01.068.068 0 0 0 .002-.016z"/></symbol><use xlink:href="#n" transform="matrix(9 0 0 -9 28.513 154)" fill="#fff"/><use xlink:href="#j" transform="matrix(9 0 0 -9 33.065 154.083)" fill="#fff"/><use xlink:href="#j" transform="matrix(9 0 0 -9 37.067 154.083)" fill="#fff"/></g><clipPath id="o"><path transform="matrix(1 0 0 -1 0 242)" d="M0 1h427v241H0z"/></clipPath><g clip-path="url(#o)" fill="#fff"><use xlink:href="#n" transform="matrix(9 0 0 -9 28.513 134)"/><use xlink:href="#l" transform="matrix(9 0 0 -9 33.193 134.083)"/><use xlink:href="#j" transform="matrix(9 0 0 -9 37.067 134.083)"/></g><clipPath id="p"><path transform="matrix(1 0 0 -1 0 242)" d="M0 1h427v241H0z"/></clipPath><g clip-path="url(#p)"><symbol id="q"><path d="M.396.036A.075.075 0 0 0 .39.01.015.015 0 0 0 .385.002.015.015 0 0 0 .377 0h-.35L.017.001a.026.026 0 0 0-.01.006.028.028 0 0 0-.005.012A.26.26 0 0 0 0 .054l.004.012A.074.074 0 0 0 .02.09l.122.13C.17.25.193.277.21.3c.017.024.03.046.04.065a.213.213 0 0 1 .022.098.113.113 0 0 1-.006.04.095.095 0 0 1-.098.064.163.163 0 0 1-.053-.008.294.294 0 0 1-.072-.037C.036.517.03.514.026.514.024.514.02.514.02.516a.017.017 0 0 0-.005.006.135.135 0 0 0-.001.051.05.05 0 0 0 .003.008.035.035 0 0 0 .008.008c.004.004.01.009.02.015L.08.62a.318.318 0 0 0 .103.02c.03 0 .057-.004.08-.013A.155.155 0 0 0 .321.593.143.143 0 0 0 .355.54.178.178 0 0 0 .367.477c0-.02-.002-.04-.006-.06A.244.244 0 0 0 .338.352a.488.488 0 0 0-.05-.078A1.161 1.161 0 0 0 .203.176L.102.07h.274C.38.071.382.071.384.07A.015.015 0 0 0 .39.062a.027.027 0 0 0 .004-.01.068.068 0 0 0 .002-.016z"/></symbol><use xlink:href="#q" transform="matrix(9 0 0 -9 28.25 114)" fill="#fff"/><use xlink:href="#j" transform="matrix(9 0 0 -9 33.065 114.083)" fill="#fff"/><use xlink:href="#j" transform="matrix(9 0 0 -9 37.067 114.083)" fill="#fff"/></g><clipPath id="r"><path transform="matrix(1 0 0 -1 0 242)" d="M0 1h427v241H0z"/></clipPath><g clip-path="url(#r)" fill="#fff"><use xlink:href="#q" transform="matrix(9 0 0 -9 28.25 94)"/><use xlink:href="#l" transform="matrix(9 0 0 -9 33.193 94.083)"/><use xlink:href="#j" transform="matrix(9 0 0 -9 37.067 94.083)"/></g><clipPath id="s"><path transform="matrix(1 0 0 -1 0 242)" d="M0 1h427v241H0z"/></clipPath><g clip-path="url(#s)"><symbol id="t"><path d="M.396.19A.197.197 0 0 0 .381.11a.168.168 0 0 0-.044-.06.198.198 0 0 0-.07-.038.31.31 0 0 0-.153-.008.385.385 0 0 0-.084.027.126.126 0 0 0-.018.011.033.033 0 0 0-.01.015.081.081 0 0 0-.002.03c0 .011.001.02.003.024.003.004.006.007.01.007C.016.119.022.116.03.11A.379.379 0 0 1 .11.077a.22.22 0 0 1 .118 0c.016.006.03.014.041.024.011.01.02.022.025.036A.122.122 0 0 1 .292.23.101.101 0 0 1 .26.268a.142.142 0 0 1-.05.024A.246.246 0 0 1 .144.3h-.06L.076.3A.021.021 0 0 0 .07.307a.044.044 0 0 0-.005.01.076.076 0 0 0 0 .032.028.028 0 0 0 .004.01.016.016 0 0 0 .007.005.015.015 0 0 0 .007.002H.14c.021 0 .04.003.057.009A.12.12 0 0 1 .24.398a.119.119 0 0 1 .03.123.085.085 0 0 1-.019.032.085.085 0 0 1-.032.02A.15.15 0 0 1 .12.572.319.319 0 0 1 .048.536C.04.53.035.527.031.527a.02.02 0 0 0-.006.001.013.013 0 0 0-.004.005.053.053 0 0 0-.003.01.256.256 0 0 0 0 .03l.002.01a.043.043 0 0 0 .003.008A.04.04 0 0 0 .03.6l.019.014a.277.277 0 0 0 .218.026.15.15 0 0 0 .055-.032.125.125 0 0 0 .033-.049A.192.192 0 0 0 .358.44.146.146 0 0 0 .337.394.148.148 0 0 0 .299.36.146.146 0 0 0 .248.341.175.175 0 0 0 .354.29a.138.138 0 0 0 .03-.045A.138.138 0 0 0 .397.19z"/></symbol><use xlink:href="#t" transform="matrix(9 0 0 -9 28.201 74.083)" fill="#fff"/><use xlink:href="#j" transform="matrix(9 0 0 -9 33.065 74.083)" fill="#fff"/><use xlink:href="#j" transform="matrix(9 0 0 -9 37.067 74.083)" fill="#fff"/></g><clipPath id="u"><path transform="matrix(1 0 0 -1 0 242)" d="M0 1h427v241H0z"/></clipPath><g clip-path="url(#u)"><symbol id="v"><path d="M.415.214a.259.259 0 0 0-.013-.08.193.193 0 0 0-.039-.07.196.196 0 0 0-.067-.046A.24.24 0 0 0 .201 0a.228.228 0 0 0-.07.01.156.156 0 0 0-.09.072.272.272 0 0 0-.024.06.475.475 0 0 0-.013.074.887.887 0 0 0 0 .168.459.459 0 0 0 .016.08c.008.026.018.05.03.072a.225.225 0 0 0 .118.1A.277.277 0 0 0 .3.646.248.248 0 0 0 .36.634.059.059 0 0 0 .375.626.014.014 0 0 0 .379.621.022.022 0 0 0 .382.614L.383.605v-.01A.201.201 0 0 0 .382.568.012.012 0 0 0 .377.563.01.01 0 0 0 .37.561a.046.046 0 0 0-.015.003.371.371 0 0 1-.054.016.243.243 0 0 1-.044.003A.156.156 0 0 1 .18.564a.157.157 0 0 1-.054-.05.234.234 0 0 1-.03-.072.43.43 0 0 1-.012-.086.377.377 0 0 0 .063.028.3.3 0 0 0 .085.013.232.232 0 0 0 .087-.014.14.14 0 0 0 .088-.097.268.268 0 0 0 .009-.072M.33.206a.207.207 0 0 1-.006.051.085.085 0 0 1-.054.064.146.146 0 0 1-.054.01.214.214 0 0 1-.104-.025.208.208 0 0 1-.027-.017c0-.042.003-.077.008-.105A.22.22 0 0 1 .116.115.094.094 0 0 1 .155.08.126.126 0 0 1 .208.068.112.112 0 0 1 .3.11c.01.013.018.028.023.044A.18.18 0 0 1 .33.206z"/></symbol><use xlink:href="#q" transform="matrix(9 0 0 -9 64.468 206)" fill="#fff"/><use xlink:href="#l" transform="matrix(9 0 0 -9 69.411 206.083)" fill="#fff"/><use xlink:href="#v" transform="matrix(9 0 0 -9 73.439 206.083)" fill="#fff"/></g><clipPath id="w"><path transform="matrix(1 0 0 -1 0 242)" d="M0 1h427v241H0z"/></clipPath><g clip-path="url(#w)" fill="#fff"><use xlink:href="#l" transform="matrix(9 0 0 -9 106.477 206.083)"/><use xlink:href="#n" transform="matrix(9 0 0 -9 111.798 206)"/><use xlink:href="#q" transform="matrix(9 0 0 -9 115.536 206)"/></g><clipPath id="x"><path transform="matrix(1 0 0 -1 0 242)" d="M0 1h427v241H0z"/></clipPath><g clip-path="url(#x)"><symbol id="y"><path d="M.412.599A.122.122 0 0 0 .41.569.165.165 0 0 0 .401.544L.173.018a.03.03 0 0 0-.006-.01.028.028 0 0 0-.01-.006.2.2 0 0 0-.062-.002.035.035 0 0 0-.012.005C.08.008.079.01.079.014s.002.007.004.01l.239.537H.019c-.007 0-.011.003-.015.01A.068.068 0 0 0 0 .598l.001.016a.04.04 0 0 0 .004.011.016.016 0 0 0 .006.007.013.013 0 0 0 .008.003h.368c.004 0 .008 0 .011-.002A.012.012 0 0 0 .406.627a.032.032 0 0 0 .005-.01.086.086 0 0 0 .001-.018z"/></symbol><symbol id="z"><path d="M.426.171A.175.175 0 0 0 .41.098.145.145 0 0 0 .37.044.186.186 0 0 0 .3.011.348.348 0 0 0 .208 0a.34.34 0 0 0-.087.01.19.19 0 0 0-.066.03.133.133 0 0 0-.04.05A.152.152 0 0 0 0 .157a.149.149 0 0 0 .038.1.236.236 0 0 0 .045.04.479.479 0 0 0 .06.035.382.382 0 0 0-.051.031A.215.215 0 0 0 .054.4.158.158 0 0 0 .03.442a.163.163 0 0 0 .004.11.14.14 0 0 0 .036.052.174.174 0 0 0 .061.034A.273.273 0 0 0 .22.65C.25.65.279.646.3.64A.157.157 0 0 0 .36.607.118.118 0 0 0 .393.561.154.154 0 0 0 .372.412.216.216 0 0 0 .333.374.355.355 0 0 0 .281.34.531.531 0 0 0 .343.305.218.218 0 0 0 .388.266.145.145 0 0 0 .416.222a.128.128 0 0 0 .01-.05M.32.495a.091.091 0 0 1-.007.037.074.074 0 0 1-.02.028.09.09 0 0 1-.035.018.152.152 0 0 1-.046.006C.177.585.151.577.132.561A.083.083 0 0 1 .105.496C.105.483.108.47.112.46a.106.106 0 0 1 .02-.03A.22.22 0 0 1 .167.4.658.658 0 0 1 .218.372a.248.248 0 0 1 .076.056C.312.448.32.47.32.496M.34.163a.096.096 0 0 1-.033.074.213.213 0 0 1-.042.031A.706.706 0 0 1 .207.3.539.539 0 0 1 .153.27.213.213 0 0 1 .115.238a.1.1 0 0 1-.03-.073c0-.032.01-.056.032-.074C.14.074.171.065.214.065c.042 0 .073.01.095.026A.087.087 0 0 1 .34.163z"/></symbol><use xlink:href="#y" transform="matrix(9 0 0 -9 148.535 206.026)" fill="#fff"/><use xlink:href="#v" transform="matrix(9 0 0 -9 153.57 206.083)" fill="#fff"/><use xlink:href="#z" transform="matrix(9 0 0 -9 157.462 206.083)" fill="#fff"/></g><clipPath id="A"><path transform="matrix(1 0 0 -1 0 242)" d="M0 1h427v241H0z"/></clipPath><g clip-path="url(#A)"><symbol id="B"><path d="M.16.211A.244.244 0 0 0 .155.16.18.18 0 0 0 .131.115L.064.013A.025.025 0 0 0 .06.008.029.029 0 0 0 .05.003.095.095 0 0 0 .01.001a.015.015 0 0 0-.008.002A.006.006 0 0 0 0 .008C0 .01 0 .012.002.015l.065.134V.21c0 .01 0 .016.002.021.002.006.005.01.01.012A.037.037 0 0 0 .092.25a.133.133 0 0 0 .042 0A.033.033 0 0 0 .15.244.021.021 0 0 0 .158.232.061.061 0 0 0 .16.212z"/></symbol><symbol id="C"><path d="M.455.183C.455.172.453.163.45.157.446.151.442.147.436.147H.365V.016c0-.002 0-.005-.002-.007A.017.017 0 0 0 .356.004.052.052 0 0 0 .343 0a.167.167 0 0 0-.052.003.017.017 0 0 0-.006.004.015.015 0 0 0-.002.007v.133h-.26l-.01.001a.018.018 0 0 0-.008.006.028.028 0 0 0-.004.011.15.15 0 0 0 0 .036.075.075 0 0 0 .005.025.137.137 0 0 0 .006.012L.24.623a.023.023 0 0 0 .007.006.048.048 0 0 0 .012.005c.005.002.01.002.018.003A.285.285 0 0 0 .35.633.028.028 0 0 0 .36.628.009.009 0 0 0 .366.62V.217h.071c.006 0 .01-.003.013-.009A.049.049 0 0 0 .455.183M.283.564.076.217h.206v.347z"/></symbol><use xlink:href="#n" transform="matrix(9 0 0 -9 187.529 206)" fill="#fff"/><use xlink:href="#B" transform="matrix(9 0 0 -9 191.95 207.274)" fill="#fff"/><use xlink:href="#j" transform="matrix(9 0 0 -9 194.084 206.083)" fill="#fff"/><use xlink:href="#q" transform="matrix(9 0 0 -9 198.27 206)" fill="#fff"/><use xlink:href="#C" transform="matrix(9 0 0 -9 202.98 206.026)" fill="#fff"/></g><clipPath id="D"><path transform="matrix(1 0 0 -1 0 242)" d="M0 1h427v241H0z"/></clipPath><g clip-path="url(#D)" fill="#fff"><use xlink:href="#n" transform="matrix(9 0 0 -9 229.595 206)"/><use xlink:href="#B" transform="matrix(9 0 0 -9 234.016 207.274)"/><use xlink:href="#q" transform="matrix(9 0 0 -9 236.336 206)"/><use xlink:href="#z" transform="matrix(9 0 0 -9 240.196 206.083)"/><use xlink:href="#j" transform="matrix(9 0 0 -9 245.153 206.083)"/></g><clipPath id="E"><path transform="matrix(1 0 0 -1 0 242)" d="M0 1h427v241H0z"/></clipPath><g clip-path="url(#E)" fill="#fff"><use xlink:href="#n" transform="matrix(9 0 0 -9 271.662 206)"/><use xlink:href="#B" transform="matrix(9 0 0 -9 276.082 207.274)"/><use xlink:href="#l" transform="matrix(9 0 0 -9 278.345 206.083)"/><use xlink:href="#t" transform="matrix(9 0 0 -9 282.355 206.083)"/><use xlink:href="#v" transform="matrix(9 0 0 -9 287.373 206.083)"/></g><clipPath id="F"><path transform="matrix(1 0 0 -1 0 242)" d="M0 1h427v241H0z"/></clipPath><g clip-path="url(#F)"><symbol id="G"><path d="M.416.35A.718.718 0 0 0 .395.186.338.338 0 0 0 .363.113.222.222 0 0 0 .242.014.293.293 0 0 0 .105.003a.32.32 0 0 0-.062.015.055.055 0 0 0-.016.008.027.027 0 0 0-.007.012.234.234 0 0 0-.001.038l.002.01.004.004A.015.015 0 0 0 .032.09a.583.583 0 0 1 .075-.02A.268.268 0 0 1 .15.068a.17.17 0 0 1 .081.018.16.16 0 0 1 .056.05c.014.02.025.044.032.07a.363.363 0 0 1 .012.086.269.269 0 0 0-.145-.039.245.245 0 0 0-.089.015.153.153 0 0 0-.057.04.154.154 0 0 0-.032.058.285.285 0 0 0 .003.155.182.182 0 0 0 .104.112.243.243 0 0 0 .096.017c.026 0 .05-.003.07-.01A.153.153 0 0 0 .335.611.167.167 0 0 0 .373.566a.245.245 0 0 0 .025-.06A.739.739 0 0 0 .416.35M.331.36a.56.56 0 0 1-.009.104.21.21 0 0 1-.024.07.098.098 0 0 1-.04.038.12.12 0 0 1-.054.011A.116.116 0 0 1 .15.572.104.104 0 0 1 .113.54.131.131 0 0 1 .092.498.222.222 0 0 1 .09.395.105.105 0 0 1 .11.354.091.091 0 0 1 .146.328.146.146 0 0 1 .201.32a.235.235 0 0 1 .13.04z"/></symbol><use xlink:href="#n" transform="matrix(9 0 0 -9 313.729 206)" fill="#fff"/><use xlink:href="#B" transform="matrix(9 0 0 -9 318.149 207.274)" fill="#fff"/><use xlink:href="#y" transform="matrix(9 0 0 -9 320.403 206.026)" fill="#fff"/><use xlink:href="#G" transform="matrix(9 0 0 -9 324.33 206.083)" fill="#fff"/><use xlink:href="#q" transform="matrix(9 0 0 -9 329.47 206)" fill="#fff"/></g><clipPath id="H"><path transform="matrix(1 0 0 -1 0 242)" d="M0 1h427v241H0z"/></clipPath><g clip-path="url(#H)"><symbol id="I"><path d="M.473.599.472.583A.033.033 0 0 0 .468.57.013.013 0 0 0 .463.565.012.012 0 0 0 .456.563H.278V.016c0-.003 0-.005-.002-.007A.014.014 0 0 0 .27.004.112.112 0 0 0 .237 0a.117.117 0 0 0-.034.004.014.014 0 0 0-.007.005.012.012 0 0 0-.002.007v.547H.017L.009.565a.015.015 0 0 0-.005.006A.058.058 0 0 0 0 .6l.001.016a.057.057 0 0 0 .003.011.014.014 0 0 0 .005.007.015.015 0 0 0 .008.002h.44c.002 0 .004 0 .006-.002A.013.013 0 0 0 .468.626.033.033 0 0 0 .472.615V.599z"/></symbol><symbol id="J"><path d="M.09.015C.09.013.09.01.088.008A.017.017 0 0 0 .082.004.045.045 0 0 0 .07 0a.167.167 0 0 0-.052.003.017.017 0 0 0-.007.004.015.015 0 0 0-.001.007v.44L.01.46a.014.014 0 0 0 .007.005.052.052 0 0 0 .012.003.162.162 0 0 0 .052-.003A.014.014 0 0 0 .088.46.011.011 0 0 0 .09.455v-.44M.1.603C.1.584.096.571.089.564.082.558.069.554.049.554.03.554.017.557.01.564.003.571 0 .584 0 .602c0 .019.004.032.01.039.008.006.021.01.04.01C.07.65.082.647.09.64.096.634.099.62.099.603z"/></symbol><symbol id="K"><path d="M.652.015C.652.013.652.01.65.008A.017.017 0 0 0 .644.004.045.045 0 0 0 .63 0 .162.162 0 0 0 .58.004a.017.017 0 0 0-.006.004.012.012 0 0 0-.002.007v.267a.244.244 0 0 1-.005.051.117.117 0 0 1-.016.04.073.073 0 0 1-.027.025.082.082 0 0 1-.04.009.093.093 0 0 1-.055-.022.393.393 0 0 1-.062-.063V.015c0-.002 0-.005-.002-.007A.017.017 0 0 0 .357.004.045.045 0 0 0 .345 0a.162.162 0 0 0-.052.003.017.017 0 0 0-.006.004.015.015 0 0 0-.001.007v.267A.223.223 0 0 1 .28.333a.124.124 0 0 1-.016.04.073.073 0 0 1-.066.034.093.093 0 0 1-.056-.022.367.367 0 0 1-.061-.063V.015L.079.008A.017.017 0 0 0 .072.004.045.045 0 0 0 .06 0a.167.167 0 0 0-.052.003A.017.017 0 0 0 0 .008.015.015 0 0 0 0 .015v.44L.001.46c.001.002.003.004.006.005A.027.027 0 0 0 .02.469.133.133 0 0 0 .065.466.011.011 0 0 0 .071.46.01.01 0 0 0 .073.455V.396a.283.283 0 0 0 .072.061c.023.013.047.02.07.02A.172.172 0 0 0 .265.47.128.128 0 0 0 .35.39a.475.475 0 0 0 .08.067.153.153 0 0 0 .141.004.125.125 0 0 0 .047-.04.154.154 0 0 0 .025-.058.306.306 0 0 0 .008-.07V.015z"/></symbol><symbol id="L"><path d="M.404.26C.404.248.401.238.394.233A.032.032 0 0 0 .374.225H.085C.085.201.087.18.092.16A.127.127 0 0 1 .117.11.11.11 0 0 1 .16.077.176.176 0 0 1 .228.065a.286.286 0 0 1 .127.028A.048.048 0 0 0 .373.1.01.01 0 0 0 .378.097.01.01 0 0 0 .383.092.091.091 0 0 0 .384.048.015.015 0 0 0 .38.042.023.023 0 0 0 .377.036a.078.078 0 0 0-.016-.01A.437.437 0 0 0 .22 0a.274.274 0 0 0-.094.016.176.176 0 0 0-.11.12A.348.348 0 0 0 0 .239c0 .038.005.072.015.102.01.03.023.056.042.076.018.022.04.038.067.049A.216.216 0 0 0 .21.483.21.21 0 0 0 .299.466a.165.165 0 0 0 .094-.11.28.28 0 0 0 .011-.081V.26m-.08.024a.147.147 0 0 1-.03.1C.276.408.247.42.209.42a.113.113 0 0 1-.09-.041.136.136 0 0 1-.024-.044.179.179 0 0 1-.009-.05h.238z"/></symbol><symbol id="M"><path d="M0 0z"/></symbol><symbol id="N"><path d="M.378.015c0-.002 0-.005-.002-.007A.017.017 0 0 0 .37.004.045.045 0 0 0 .358 0a.162.162 0 0 0-.052.003A.017.017 0 0 0 .3.008a.012.012 0 0 0-.002.007v.257a.253.253 0 0 1-.006.061.125.125 0 0 1-.017.04.074.074 0 0 1-.03.025.09.09 0 0 1-.04.009.104.104 0 0 1-.061-.022.328.328 0 0 1-.063-.063V.015L.079.008A.017.017 0 0 0 .072.004.045.045 0 0 0 .06 0a.167.167 0 0 0-.052.003A.017.017 0 0 0 0 .008.015.015 0 0 0 0 .015v.44L.001.46c.001.002.003.004.006.005A.027.027 0 0 0 .02.469.133.133 0 0 0 .065.466.011.011 0 0 0 .071.46.01.01 0 0 0 .073.455V.396c.024.028.05.048.073.061.025.013.05.02.075.02.03 0 .054-.005.074-.016a.13.13 0 0 0 .049-.04A.156.156 0 0 0 .37.364a.334.334 0 0 0 .008-.08V.015z"/></symbol><symbol id="O"><path d="M.311.141a.137.137 0 0 0-.013-.06.12.12 0 0 0-.035-.044.16.16 0 0 0-.055-.028.248.248 0 0 0-.114-.005.274.274 0 0 0-.067.02.09.09 0 0 0-.017.012.028.028 0 0 0-.008.013A.093.093 0 0 0 0 .073.105.105 0 0 0 .003.1a.01.01 0 0 0 .004.005.011.011 0 0 0 .007.002C.017.106.022.104.029.1A.525.525 0 0 1 .092.07.167.167 0 0 1 .177.07c.011.003.02.007.03.013a.057.057 0 0 1 .018.022C.229.112.23.123.23.134a.05.05 0 0 1-.01.032.088.088 0 0 1-.024.022.196.196 0 0 1-.035.018A10.87 10.87 0 0 1 .08.24a.163.163 0 0 0-.036.026.12.12 0 0 0-.025.036.124.124 0 0 0-.01.05c0 .018.004.034.01.05.007.016.017.03.03.041.014.012.03.022.05.03A.21.21 0 0 0 .207.48.241.241 0 0 0 .262.463.081.081 0 0 0 .277.454.022.022 0 0 0 .284.447.049.049 0 0 0 .288.431V.405a.027.027 0 0 0-.003-.01.013.013 0 0 0-.004-.006.01.01 0 0 0-.005-.001C.273.387.269.389.263.392A.211.211 0 0 1 .21.415a.139.139 0 0 1-.076 0A.067.067 0 0 1 .108.403a.057.057 0 0 1-.015-.02.065.065 0 0 1-.005-.025c0-.013.003-.024.01-.032A.095.095 0 0 1 .123.302.214.214 0 0 1 .159.285 3.48 3.48 0 0 0 .24.25.151.151 0 0 0 .276.225.11.11 0 0 0 .311.141z"/></symbol><symbol id="P"><path d="M.347.088A.193.193 0 0 0 .344.063.029.029 0 0 0 .341.056a.045.045 0 0 0-.008-.01.128.128 0 0 0-.02-.014A.225.225 0 0 0 .196 0a.212.212 0 0 0-.084.016A.162.162 0 0 0 .05.06a.216.216 0 0 0-.037.074.365.365 0 0 0-.013.1C0 .28.005.317.016.348c.01.031.025.057.043.077.019.02.04.034.065.044A.221.221 0 0 0 .312.454.114.114 0 0 0 .33.439.05.05 0 0 0 .338.43.028.028 0 0 0 .342.422.059.059 0 0 0 .34.37C.337.365.334.363.33.363.325.363.319.365.312.37a.216.216 0 0 1-.06.035.13.13 0 0 1-.048.009.102.102 0 0 1-.09-.045.227.227 0 0 1-.03-.13.32.32 0 0 1 .008-.074.157.157 0 0 1 .024-.054A.1.1 0 0 1 .154.08.127.127 0 0 1 .206.07c.019 0 .035.003.049.009a.207.207 0 0 1 .062.038C.324.123.33.125.333.125A.01.01 0 0 0 .34.124.014.014 0 0 0 .343.117.12.12 0 0 0 .346.089z"/></symbol><symbol id="Q"><path d="M.44.246A.332.332 0 0 0 .424.147.216.216 0 0 0 .383.069a.191.191 0 0 0-.07-.05A.245.245 0 0 0 .214 0 .255.255 0 0 0 .12.016a.173.173 0 0 0-.067.047.199.199 0 0 0-.04.075.347.347 0 0 0-.013.1c0 .035.005.068.014.098a.192.192 0 0 0 .112.129c.028.012.06.018.098.018A.252.252 0 0 0 .318.467.172.172 0 0 0 .386.42a.199.199 0 0 0 .04-.075.333.333 0 0 0 .013-.099M.354.241a.32.32 0 0 1-.006.067.163.163 0 0 1-.022.056.106.106 0 0 1-.04.037.133.133 0 0 1-.065.015.138.138 0 0 1-.062-.013.112.112 0 0 1-.042-.036.162.162 0 0 1-.025-.055.346.346 0 0 1-.001-.137.17.17 0 0 1 .022-.056.116.116 0 0 1 .106-.051c.023 0 .044.004.06.013.018.008.032.02.043.035.011.016.02.034.025.055a.292.292 0 0 1 .007.07z"/></symbol><symbol id="R"><path d="M.404.021c0-.002 0-.004-.002-.006C.402.013.4.01.396.01a.12.12 0 0 0-.056 0 .014.014 0 0 0-.006.005.012.012 0 0 0-.001.006V.08A.295.295 0 0 0 .26.02.163.163 0 0 0 .18 0a.17.17 0 0 0-.083.019.16.16 0 0 0-.055.05.23.23 0 0 0-.031.076.415.415 0 0 0 .002.193c.008.03.02.057.036.078a.16.16 0 0 0 .06.05.183.183 0 0 0 .081.017C.215.483.24.477.26.466a.243.243 0 0 0 .064-.05v.256c0 .002 0 .004.002.006a.011.011 0 0 0 .007.005.109.109 0 0 0 .032.004.112.112 0 0 0 .032-.004.01.01 0 0 0 .006-.005.01.01 0 0 0 .002-.006v-.65M.324.33A.308.308 0 0 1 .26.392a.108.108 0 0 1-.064.022.09.09 0 0 1-.052-.015A.115.115 0 0 1 .109.36a.194.194 0 0 1-.02-.054A.427.427 0 0 1 .088.18.196.196 0 0 1 .106.123.11.11 0 0 1 .14.083a.106.106 0 0 1 .114.004l.033.027a.43.43 0 0 1 .036.04v.177z"/></symbol><use xlink:href="#I" transform="matrix(0 -10 -10 0 22.573 163.927)" fill="#fff"/><use xlink:href="#J" transform="matrix(0 -10 -10 0 22.573 158.35)" fill="#fff"/><use xlink:href="#K" transform="matrix(0 -10 -10 0 22.573 156.253)" fill="#fff"/><use xlink:href="#L" transform="matrix(0 -10 -10 0 22.636 148.546)" fill="#fff"/><use xlink:href="#M" transform="matrix(0 -10 -10 0 22.543 144)" fill="#fff"/><use xlink:href="#J" transform="matrix(0 -10 -10 0 22.573 141.35)" fill="#fff"/><use xlink:href="#N" transform="matrix(0 -10 -10 0 22.573 139.253)" fill="#fff"/><use xlink:href="#M" transform="matrix(0 -10 -10 0 22.543 135)" fill="#fff"/><use xlink:href="#O" transform="matrix(0 -10 -10 0 22.636 131.604)" fill="#fff"/><use xlink:href="#L" transform="matrix(0 -10 -10 0 22.636 127.546)" fill="#fff"/><use xlink:href="#P" transform="matrix(0 -10 -10 0 22.636 122.56)" fill="#fff"/><use xlink:href="#Q" transform="matrix(0 -10 -10 0 22.636 118.56)" fill="#fff"/><use xlink:href="#N" transform="matrix(0 -10 -10 0 22.573 113.253)" fill="#fff"/><use xlink:href="#R" transform="matrix(0 -10 -10 0 22.636 108.531)" fill="#fff"/><use xlink:href="#O" transform="matrix(0 -10 -10 0 22.636 103.604)" fill="#fff"/></g><clipPath id="S"><path transform="matrix(1 0 0 -1 0 242)" d="M0 1h427v241H0z"/></clipPath><g clip-path="url(#S)"><symbol id="T"><path d="M.462.436A.06.06 0 0 0 .458.412.014.014 0 0 0 .452.406.014.014 0 0 0 .446.405H.382L.362.243H.42C.424.243.428.24.43.235.434.23.436.222.436.211A.06.06 0 0 0 .43.188.014.014 0 0 0 .425.181.014.014 0 0 0 .42.181H.354L.334.014A.02.02 0 0 0 .331.007.013.013 0 0 0 .326.003.133.133 0 0 0 .28 0a.041.041 0 0 0-.011.002.013.013 0 0 0-.006.004v.007l.02.167H.146L.126.014A.037.037 0 0 0 .122.007C.123.006.121.004.118.003A.133.133 0 0 0 .071 0 .041.041 0 0 0 .06.003a.013.013 0 0 0-.006.004v.007l.02.167H.016C.012.18.007.183.004.188A.049.049 0 0 0 0 .21l.001.015a.037.037 0 0 0 .004.009A.015.015 0 0 0 .01.24a.012.012 0 0 0 .007.002h.065l.02.162H.043C.038.405.034.407.031.412a.046.046 0 0 0-.005.023c0 .011.002.02.005.024.003.005.007.008.012.008h.066l.02.157.002.005a.012.012 0 0 0 .006.005.044.044 0 0 0 .012.003.145.145 0 0 0 .047-.003C.2.633.201.63.201.629L.202.624.182.467h.135l.02.157c0 .002 0 .004.002.005a.012.012 0 0 0 .006.005.037.037 0 0 0 .011.003.15.15 0 0 0 .048-.003.007.007 0 0 0 .004-.005C.41.628.41.626.41.624L.39.467h.057C.45.467.455.464.458.459A.043.043 0 0 0 .462.436M.174.405.154.243H.29l.02.162H.174z"/></symbol><symbol id="U"><path d="M.297.635V.62A.042.042 0 0 0 .293.611.009.009 0 0 0 .29.606a.01.01 0 0 0-.005 0L.277.606a.095.095 0 0 1-.012.005.096.096 0 0 1-.017.005.095.095 0 0 1-.054-.003.047.047 0 0 1-.02-.019.087.087 0 0 1-.012-.032A.283.283 0 0 1 .16.515V.467h.098A.01.01 0 0 0 .263.465C.265.465.267.462.268.46A.027.027 0 0 0 .271.45.07.07 0 0 0 .273.434.055.055 0 0 0 .269.408C.266.403.262.4.257.4H.159V.015L.157.008A.017.017 0 0 0 .15.004.045.045 0 0 0 .138 0a.162.162 0 0 0-.052.003.017.017 0 0 0-.006.004.012.012 0 0 0-.002.007V.4H.016C.01.4.006.403.004.408A.105.105 0 0 0 0 .45c0 .004.002.008.003.01.001.003.003.005.005.006a.012.012 0 0 0 .007.002h.062v.046c0 .03.002.056.008.078S.1.631.112.646a.103.103 0 0 0 .044.03.176.176 0 0 0 .096.007.114.114 0 0 0 .025-.007A.036.036 0 0 0 .29.67.023.023 0 0 0 .294.662.105.105 0 0 0 .297.635z"/></symbol><symbol id="V"><path d="M.404.016A.01.01 0 0 0 .402.009.014.014 0 0 0 .396.004.045.045 0 0 0 .383 0a.162.162 0 0 0-.051.003.014.014 0 0 0-.007.005.015.015 0 0 0-.002.007V.24A.428.428 0 0 0 .285.207.23.23 0 0 0 .25.184.168.168 0 0 0 .178.168a.167.167 0 0 0-.082.019.162.162 0 0 0-.055.05.23.23 0 0 0-.031.076.415.415 0 0 0 .002.193c.008.03.02.057.036.078a.164.164 0 0 0 .06.05.183.183 0 0 0 .119.013A.178.178 0 0 0 .295.61.543.543 0 0 0 .332.576V.63l.001.007a.014.014 0 0 0 .007.005.124.124 0 0 0 .056 0L.401.636A.01.01 0 0 0 .404.63V.016m-.08.483A.308.308 0 0 1 .26.561a.108.108 0 0 1-.064.021.09.09 0 0 1-.052-.015A.115.115 0 0 1 .109.53a.194.194 0 0 1-.02-.054.43.43 0 0 1-.001-.127.19.19 0 0 1 .018-.056.11.11 0 0 1 .034-.04.106.106 0 0 1 .114.004.43.43 0 0 1 .069.067V.5z"/></symbol><symbol id="W"><path d="M.379.021c0-.002 0-.004-.002-.006A.013.013 0 0 0 .371.01.044.044 0 0 0 .36.007a.145.145 0 0 0-.036 0 .043.043 0 0 0-.01.003.013.013 0 0 0-.006.005.015.015 0 0 0-.001.006V.08A.274.274 0 0 0 .23.019.17.17 0 0 0 .083.015a.131.131 0 0 0-.048.04.167.167 0 0 0-.027.058A.366.366 0 0 0 0 .194v.267l.001.006a.014.014 0 0 0 .007.005.033.033 0 0 0 .013.003.162.162 0 0 0 .051-.003A.014.014 0 0 0 .08.467.01.01 0 0 0 .081.461V.205C.081.18.083.16.086.143a.125.125 0 0 1 .018-.04.085.085 0 0 1 .029-.025.09.09 0 0 1 .04-.009c.021 0 .041.007.06.022.021.014.042.035.065.063V.46l.001.006a.014.014 0 0 0 .007.005.032.032 0 0 0 .012.003A.167.167 0 0 0 .37.472.014.014 0 0 0 .376.467.009.009 0 0 0 .38.461V.02z"/></symbol><symbol id="X"><path d="M.257.426a.279.279 0 0 0-.003-.03A.018.018 0 0 0 .25.39C.25.388.247.388.245.388c-.003 0-.006 0-.01.002a.082.082 0 0 1-.013.004.132.132 0 0 1-.015.004.088.088 0 0 1-.02.002.062.062 0 0 1-.023-.004.097.097 0 0 1-.025-.017A.66.66 0 0 1 .08.304V.015L.079.008A.017.017 0 0 0 .072.004.045.045 0 0 0 .06 0a.167.167 0 0 0-.052.003A.017.017 0 0 0 0 .008.015.015 0 0 0 0 .015v.44L.001.46c.001.002.003.004.006.005A.027.027 0 0 0 .02.469.133.133 0 0 0 .065.466.011.011 0 0 0 .071.46.01.01 0 0 0 .073.455V.39a.361.361 0 0 0 .033.043c.011.01.021.02.03.025.01.007.02.011.029.014a.106.106 0 0 0 .042.003A.108.108 0 0 0 .24.469.033.033 0 0 0 .25.464.013.013 0 0 0 .254.459L.255.454A.243.243 0 0 0 .256.426z"/></symbol><use xlink:href="#T" transform="matrix(10 0 0 -10 173.4 221.03)" fill="#fff"/><use xlink:href="#M" transform="matrix(10 0 0 -10 178.224 221)" fill="#fff"/><use xlink:href="#Q" transform="matrix(10 0 0 -10 180.664 221.093)" fill="#fff"/><use xlink:href="#U" transform="matrix(10 0 0 -10 185.405 221.03)" fill="#fff"/><use xlink:href="#M" transform="matrix(10 0 0 -10 188.224 221)" fill="#fff"/><use xlink:href="#V" transform="matrix(10 0 0 -10 191.693 222.777)" fill="#fff"/><use xlink:href="#W" transform="matrix(10 0 0 -10 196.947 221.093)" fill="#fff"/><use xlink:href="#L" transform="matrix(10 0 0 -10 201.678 221.093)" fill="#fff"/><use xlink:href="#X" transform="matrix(10 0 0 -10 206.971 221.03)" fill="#fff"/><use xlink:href="#J" transform="matrix(10 0 0 -10 209.874 221.03)" fill="#fff"/><use xlink:href="#L" transform="matrix(10 0 0 -10 211.678 221.093)" fill="#fff"/><use xlink:href="#O" transform="matrix(10 0 0 -10 216.62 221.093)" fill="#fff"/></g><clipPath id="Y"><path transform="matrix(1 0 0 -1 0 242)" d="M0 1h427v241H0z"/></clipPath><g clip-path="url(#Y)"><symbol id="Z"><path d="M.084.016c0-.003 0-.005-.002-.007A.014.014 0 0 0 .075.004.112.112 0 0 0 .042 0a.117.117 0 0 0-.033.004.014.014 0 0 0-.007.005A.012.012 0 0 0 0 .016v.606C0 .625 0 .627.002.63a.015.015 0 0 0 .007.004.114.114 0 0 0 .053.003c.006 0 .01-.001.013-.003A.012.012 0 0 0 .082.63.012.012 0 0 0 .084.622V.016z"/></symbol><symbol id="aa"><path d="M.378.015c0-.002 0-.005-.002-.007A.017.017 0 0 0 .37.004.045.045 0 0 0 .358 0a.162.162 0 0 0-.052.003A.017.017 0 0 0 .3.008a.012.012 0 0 0-.002.007v.257a.253.253 0 0 1-.006.061.125.125 0 0 1-.017.04.074.074 0 0 1-.03.025.09.09 0 0 1-.04.009.104.104 0 0 1-.061-.022.328.328 0 0 1-.063-.063V.015L.079.008A.017.017 0 0 0 .072.004.045.045 0 0 0 .06 0a.167.167 0 0 0-.052.003A.017.017 0 0 0 0 .008.015.015 0 0 0 0 .015v.44L.001.46c.001.002.003.004.006.005A.027.027 0 0 0 .02.469.133.133 0 0 0 .065.466.011.011 0 0 0 .071.46.01.01 0 0 0 .073.455V.396c.024.028.05.048.073.061.025.013.05.02.075.02.03 0 .054-.005.074-.016a.13.13 0 0 0 .049-.04A.156.156 0 0 0 .37.364a.334.334 0 0 0 .008-.08V.015z"/></symbol><symbol id="ab"><path d="M.404.021c0-.002 0-.004-.002-.006C.402.013.4.01.396.01a.12.12 0 0 0-.056 0 .014.014 0 0 0-.006.005.012.012 0 0 0-.001.006V.08A.295.295 0 0 0 .26.02.163.163 0 0 0 .18 0a.17.17 0 0 0-.083.019.16.16 0 0 0-.055.05.23.23 0 0 0-.031.076.415.415 0 0 0 .002.193c.008.03.02.057.036.078a.16.16 0 0 0 .06.05.183.183 0 0 0 .081.017C.215.483.24.477.26.466a.243.243 0 0 0 .064-.05v.256c0 .002 0 .004.002.006a.011.011 0 0 0 .007.005.109.109 0 0 0 .032.004.112.112 0 0 0 .032-.004.01.01 0 0 0 .006-.005.01.01 0 0 0 .002-.006v-.65M.324.33A.308.308 0 0 1 .26.392a.108.108 0 0 1-.064.022.09.09 0 0 1-.052-.015A.115.115 0 0 1 .109.36a.194.194 0 0 1-.02-.054A.427.427 0 0 1 .088.18.196.196 0 0 1 .106.123.11.11 0 0 1 .14.083a.106.106 0 0 1 .114.004l.033.027a.43.43 0 0 1 .036.04v.177z"/></symbol><symbol id="ac"><path d="M.09.015C.09.013.09.01.088.008A.017.017 0 0 0 .082.004.045.045 0 0 0 .07 0a.167.167 0 0 0-.052.003.017.017 0 0 0-.007.004.015.015 0 0 0-.001.007v.44L.01.46a.014.014 0 0 0 .007.005.052.052 0 0 0 .012.003.162.162 0 0 0 .052-.003A.014.014 0 0 0 .088.46.011.011 0 0 0 .09.455v-.44M.1.603C.1.584.096.571.089.564.082.558.069.554.049.554.03.554.017.557.01.564.003.571 0 .584 0 .602c0 .019.004.032.01.039.008.006.021.01.04.01C.07.65.082.647.09.64.096.634.099.62.099.603z"/></symbol><symbol id="ad"><path d="M.418.456V.447L.415.44.415.435.265.018a.024.024 0 0 0-.006-.01A.02.02 0 0 0 .25.004a.253.253 0 0 0-.081 0 .023.023 0 0 0-.01.006.024.024 0 0 0-.005.009l-.15.417c0 .004-.002.007-.003.01A.28.28 0 0 1 0 .452v.004C0 .458 0 .46.002.462a.012.012 0 0 0 .006.005.313.313 0 0 0 .067 0A.014.014 0 0 0 .082.46.031.031 0 0 0 .086.454L.21.092.212.086l.002.006.122.362.004.007a.018.018 0 0 0 .007.005.19.19 0 0 0 .064 0C.414.467.416.465.417.463A.01.01 0 0 0 .418.456z"/></symbol><symbol id="ae"><path d="M.379.021c0-.002 0-.004-.002-.006A.013.013 0 0 0 .371.01.044.044 0 0 0 .36.007a.145.145 0 0 0-.036 0 .043.043 0 0 0-.01.003.013.013 0 0 0-.006.005.015.015 0 0 0-.001.006V.08A.274.274 0 0 0 .23.019.17.17 0 0 0 .083.015a.131.131 0 0 0-.048.04.167.167 0 0 0-.027.058A.366.366 0 0 0 0 .194v.267l.001.006a.014.014 0 0 0 .007.005.033.033 0 0 0 .013.003.162.162 0 0 0 .051-.003A.014.014 0 0 0 .08.467.01.01 0 0 0 .081.461V.205C.081.18.083.16.086.143a.125.125 0 0 1 .018-.04.085.085 0 0 1 .029-.025.09.09 0 0 1 .04-.009c.021 0 .041.007.06.022.021.014.042.035.065.063V.46l.001.006a.014.014 0 0 0 .007.005.032.032 0 0 0 .012.003A.167.167 0 0 0 .37.472.014.014 0 0 0 .376.467.009.009 0 0 0 .38.461V.02z"/></symbol><symbol id="af"><path d="M.36.021C.36.017.36.014.358.012a.027.027 0 0 0-.01-.004.102.102 0 0 0-.02-.002c-.01 0-.016 0-.021.002a.024.024 0 0 0-.011.004C.293.014.292.017.292.021v.044A.216.216 0 0 0 .227.017.169.169 0 0 0 .152 0 .202.202 0 0 0 .09.01.121.121 0 0 0 .01.077.142.142 0 0 0 0 .133C0 .159.005.18.015.198.025.216.04.232.06.244A.21.21 0 0 0 .128.27.42.42 0 0 0 .22.28h.06v.034a.17.17 0 0 1-.005.045.074.074 0 0 1-.048.052.183.183 0 0 1-.1 0A.264.264 0 0 1 .054.378.04.04 0 0 0 .038.372c-.003 0-.005 0-.007.002A.019.019 0 0 0 .025.38a.035.035 0 0 0-.003.01.096.096 0 0 0 0 .033.03.03 0 0 0 .01.013c.004.004.011.01.022.015a.295.295 0 0 0 .133.032.264.264 0 0 0 .081-.01A.12.12 0 0 0 .351.39a.25.25 0 0 0 .01-.073V.021m-.08.2H.21A.25.25 0 0 1 .155.217a.113.113 0 0 1-.04-.017A.068.068 0 0 1 .09.173.08.08 0 0 1 .083.138C.083.115.09.097.104.083a.087.087 0 0 1 .061-.02c.021 0 .04.005.059.016A.25.25 0 0 1 .28.13v.093z"/></symbol><symbol id="ag"><path d="M.08.015.08.008A.017.017 0 0 0 .072.004.045.045 0 0 0 .06 0a.167.167 0 0 0-.052.003A.017.017 0 0 0 0 .008.015.015 0 0 0 0 .015v.652l.001.007A.014.014 0 0 0 .008.68.052.052 0 0 0 .02.682.162.162 0 0 0 .072.68.014.014 0 0 0 .08.674.012.012 0 0 0 .08.667V.015z"/></symbol><symbol id="ah"><path d="M0 0z"/></symbol><symbol id="ai"><path d="M.311.141a.137.137 0 0 0-.013-.06.12.12 0 0 0-.035-.044.16.16 0 0 0-.055-.028.248.248 0 0 0-.114-.005.274.274 0 0 0-.067.02.09.09 0 0 0-.017.012.028.028 0 0 0-.008.013A.093.093 0 0 0 0 .073.105.105 0 0 0 .003.1a.01.01 0 0 0 .004.005.011.011 0 0 0 .007.002C.017.106.022.104.029.1A.525.525 0 0 1 .092.07.167.167 0 0 1 .177.07c.011.003.02.007.03.013a.057.057 0 0 1 .018.022C.229.112.23.123.23.134a.05.05 0 0 1-.01.032.088.088 0 0 1-.024.022.196.196 0 0 1-.035.018A10.87 10.87 0 0 1 .08.24a.163.163 0 0 0-.036.026.12.12 0 0 0-.025.036.124.124 0 0 0-.01.05c0 .018.004.034.01.05.007.016.017.03.03.041.014.012.03.022.05.03A.21.21 0 0 0 .207.48.241.241 0 0 0 .262.463.081.081 0 0 0 .277.454.022.022 0 0 0 .284.447.049.049 0 0 0 .288.431V.405a.027.027 0 0 0-.003-.01.013.013 0 0 0-.004-.006.01.01 0 0 0-.005-.001C.273.387.269.389.263.392A.211.211 0 0 1 .21.415a.139.139 0 0 1-.076 0A.067.067 0 0 1 .108.403a.057.057 0 0 1-.015-.02.065.065 0 0 1-.005-.025c0-.013.003-.024.01-.032A.095.095 0 0 1 .123.302.214.214 0 0 1 .159.285 3.48 3.48 0 0 0 .24.25.151.151 0 0 0 .276.225.11.11 0 0 0 .311.141z"/></symbol><symbol id="aj"><path d="M.417.181a.187.187 0 0 0-.03-.1.184.184 0 0 0-.077-.06A.252.252 0 0 0 .197 0H.031A.036.036 0 0 0 .01.007C.003.013 0 .021 0 .034v.564C0 .61.003.619.01.624A.035.035 0 0 0 .03.632h.144a.333.333 0 0 0 .093-.01.162.162 0 0 0 .06-.032.128.128 0 0 0 .036-.05A.176.176 0 0 0 .355.39.135.135 0 0 0 .292.338.15.15 0 0 0 .407.24a.172.172 0 0 0 .01-.059M.29.464C.29.479.288.493.284.505a.075.075 0 0 1-.02.032.088.088 0 0 1-.036.02.201.201 0 0 1-.058.006H.083V.36h.096A.14.14 0 0 1 .23.367a.089.089 0 0 1 .052.057.129.129 0 0 1 .007.04M.328.176a.125.125 0 0 1-.01.05.091.091 0 0 1-.026.036.112.112 0 0 1-.043.022.23.23 0 0 1-.065.008H.083V.069h.122c.02 0 .036.003.05.007a.113.113 0 0 1 .038.02c.011.01.02.02.026.034a.11.11 0 0 1 .01.046z"/></symbol><symbol id="ak"><path d="M.287.053c0-.01 0-.017-.002-.023A.025.025 0 0 0 .28.018.038.038 0 0 0 .268.011a.186.186 0 0 0-.12-.002.098.098 0 0 0-.064.074.285.285 0 0 0-.006.066v.257H.016C.011.406.007.408.004.414A.055.055 0 0 0 0 .439l.001.016a.047.047 0 0 0 .003.01L.01.47a.015.015 0 0 0 .008.002h.06v.104L.08.583a.014.014 0 0 0 .006.005.04.04 0 0 0 .013.004A.162.162 0 0 0 .15.588.014.014 0 0 0 .156.583.011.011 0 0 0 .158.577V.473h.113L.278.47.283.465a.027.027 0 0 0 .003-.01L.287.439A.055.055 0 0 0 .283.414C.28.408.276.406.27.406H.158V.16c0-.03.005-.054.013-.07C.181.077.197.07.22.07a.093.093 0 0 1 .035.007.34.34 0 0 1 .02.007C.279.083.28.082.28.08.282.081.283.08.284.077a.042.042 0 0 0 .002-.01L.287.053z"/></symbol><symbol id="al"><path d="M.347.088A.193.193 0 0 0 .344.063.029.029 0 0 0 .341.056a.045.045 0 0 0-.008-.01.128.128 0 0 0-.02-.014A.225.225 0 0 0 .196 0a.212.212 0 0 0-.084.016A.162.162 0 0 0 .05.06a.216.216 0 0 0-.037.074.365.365 0 0 0-.013.1C0 .28.005.317.016.348c.01.031.025.057.043.077.019.02.04.034.065.044A.221.221 0 0 0 .312.454.114.114 0 0 0 .33.439.05.05 0 0 0 .338.43.028.028 0 0 0 .342.422.059.059 0 0 0 .34.37C.337.365.334.363.33.363.325.363.319.365.312.37a.216.216 0 0 1-.06.035.13.13 0 0 1-.048.009.102.102 0 0 1-.09-.045.227.227 0 0 1-.03-.13.32.32 0 0 1 .008-.074.157.157 0 0 1 .024-.054A.1.1 0 0 1 .154.08.127.127 0 0 1 .206.07c.019 0 .035.003.049.009a.207.207 0 0 1 .062.038C.324.123.33.125.333.125A.01.01 0 0 0 .34.124.014.014 0 0 0 .343.117.12.12 0 0 0 .346.089z"/></symbol><symbol id="am"><path d="M.378.015c0-.002 0-.005-.002-.007A.017.017 0 0 0 .37.004.045.045 0 0 0 .358 0a.162.162 0 0 0-.052.003A.017.017 0 0 0 .3.008a.012.012 0 0 0-.002.007v.257a.253.253 0 0 1-.006.061.125.125 0 0 1-.017.04.074.074 0 0 1-.03.025.09.09 0 0 1-.04.009.104.104 0 0 1-.061-.022.328.328 0 0 1-.063-.063V.015L.079.008A.017.017 0 0 0 .072.004.045.045 0 0 0 .06 0a.167.167 0 0 0-.052.003A.017.017 0 0 0 0 .008.015.015 0 0 0 0 .015v.652l.001.007A.014.014 0 0 0 .008.68.052.052 0 0 0 .02.682.162.162 0 0 0 .072.68.014.014 0 0 0 .08.674.012.012 0 0 0 .08.667V.404a.256.256 0 0 0 .07.054.162.162 0 0 0 .145.003.13.13 0 0 0 .048-.04A.156.156 0 0 0 .37.364a.337.337 0 0 0 .008-.08V.015z"/></symbol><symbol id="an"><path d="M.416.61A.049.049 0 0 0 .411.585C.408.58.404.578.4.578H.336A.099.099 0 0 0 .36.538.174.174 0 0 0 .355.428.136.136 0 0 0 .32.377a.156.156 0 0 0-.054-.03.212.212 0 0 0-.12-.004.11.11 0 0 0-.038.018.06.06 0 0 1-.02-.046c0-.011.006-.02.016-.028A.078.078 0 0 1 .146.274L.261.27a.23.23 0 0 0 .06-.01A.143.143 0 0 0 .37.237.103.103 0 0 0 .41.15.13.13 0 0 0 .36.045.186.186 0 0 0 .293.012.384.384 0 0 0 .106.01a.193.193 0 0 0-.06.025A.095.095 0 0 0 0 .118a.125.125 0 0 0 .016.06.15.15 0 0 0 .02.026.264.264 0 0 0 .027.025.076.076 0 0 0-.047.07c0 .02.005.038.013.054s.018.03.03.042a.145.145 0 0 0-.024.04.154.154 0 0 0-.009.056.17.17 0 0 0 .013.067.143.143 0 0 0 .089.082.205.205 0 0 0 .069.01.263.263 0 0 0 .07-.007h.132C.405.643.41.64.412.634A.052.052 0 0 0 .416.61M.29.494c0 .03-.008.053-.025.07C.25.581.225.589.195.589a.1.1 0 0 1-.04-.007.083.083 0 0 1-.047-.054.126.126 0 0 1-.005-.037C.103.462.111.44.127.423a.094.094 0 0 1 .07-.025c.016 0 .03.002.041.007a.08.08 0 0 1 .046.053.115.115 0 0 1 .006.036M.33.146a.049.049 0 0 1-.023.043.115.115 0 0 1-.062.017L.13.21A.21.21 0 0 1 .089.166a.08.08 0 0 1-.008-.02.102.102 0 0 1-.002-.02C.08.105.09.089.111.078a.2.2 0 0 1 .09-.016c.025 0 .045.002.061.007.017.004.03.01.04.018.01.008.017.017.022.027.004.01.007.02.007.032z"/></symbol><use xlink:href="#Z" transform="matrix(14 0 0 -14 152.915 21.041)" fill="#fff"/><use xlink:href="#aa" transform="matrix(14 0 0 -14 156.785 21.041)" fill="#fff"/><use xlink:href="#ab" transform="matrix(14 0 0 -14 163.391 21.13)" fill="#fff"/><use xlink:href="#ac" transform="matrix(14 0 0 -14 170.64 21.041)" fill="#fff"/><use xlink:href="#ad" transform="matrix(14 0 0 -14 172.969 21.041)" fill="#fff"/><use xlink:href="#ac" transform="matrix(14 0 0 -14 179.647 21.041)" fill="#fff"/><use xlink:href="#ab" transform="matrix(14 0 0 -14 182.4 21.13)" fill="#fff"/><use xlink:href="#ae" transform="matrix(14 0 0 -14 189.752 21.13)" fill="#fff"/><use xlink:href="#af" transform="matrix(14 0 0 -14 196.364 21.13)" fill="#fff"/><use xlink:href="#ag" transform="matrix(14 0 0 -14 203.777 21.041)" fill="#fff"/><use xlink:href="#ah" transform="matrix(14 0 0 -14 205.737 21)" fill="#fff"/><use xlink:href="#ad" transform="matrix(14 0 0 -14 210.963 21.041)" fill="#fff"/><use xlink:href="#ai" transform="matrix(14 0 0 -14 217.286 21.13)" fill="#fff"/><use xlink:href="#ah" transform="matrix(14 0 0 -14 221.727 21)" fill="#fff"/><use xlink:href="#aj" transform="matrix(14 0 0 -14 226.902 21)" fill="#fff"/><use xlink:href="#af" transform="matrix(14 0 0 -14 234.36 21.13)" fill="#fff"/><use xlink:href="#ak" transform="matrix(14 0 0 -14 240.952 21.116)" fill="#fff"/><use xlink:href="#al" transform="matrix(14 0 0 -14 246.335 21.13)" fill="#fff"/><use xlink:href="#am" transform="matrix(14 0 0 -14 252.767 21.041)" fill="#fff"/><use xlink:href="#ac" transform="matrix(14 0 0 -14 259.627 21.041)" fill="#fff"/><use xlink:href="#aa" transform="matrix(14 0 0 -14 262.77 21.041)" fill="#fff"/><use xlink:href="#an" transform="matrix(14 0 0 -14 269.081 23.495)" fill="#fff"/></g><clipPath id="ao"><path transform="matrix(1 0 0 -1 0 242)" d="M0 1h427v241H0z"/></clipPath><g clip-path="url(#ao)"><path stroke-width=".762" stroke-linejoin="round" fill="none" stroke="#fff" d="M355.5 32.5h65v34h-65z"/></g><clipPath id="ap"><path transform="matrix(1 0 0 -1 0 242)" d="M0 1h427v241H0z"/></clipPath><g clip-path="url(#ap)"><path stroke-width="2.286" stroke-linecap="round" stroke-linejoin="round" fill="none" stroke="#ed7d31" d="M360 41h19"/></g><clipPath id="aq"><path transform="matrix(1 0 0 -1 0 242)" d="M0 1h427v241H0z"/></clipPath><g clip-path="url(#aq)"><symbol id="ar"><path d="M.084.016c0-.003 0-.005-.002-.007A.014.014 0 0 0 .075.004.112.112 0 0 0 .042 0a.117.117 0 0 0-.033.004.014.014 0 0 0-.007.005A.012.012 0 0 0 0 .016v.606C0 .625 0 .627.002.63a.015.015 0 0 0 .007.004.114.114 0 0 0 .053.003c.006 0 .01-.001.013-.003A.012.012 0 0 0 .082.63.012.012 0 0 0 .084.622V.016z"/></symbol><symbol id="as"><path d="M.378.015c0-.002 0-.005-.002-.007A.017.017 0 0 0 .37.004.045.045 0 0 0 .358 0a.162.162 0 0 0-.052.003A.017.017 0 0 0 .3.008a.012.012 0 0 0-.002.007v.257a.253.253 0 0 1-.006.061.125.125 0 0 1-.017.04.074.074 0 0 1-.03.025.09.09 0 0 1-.04.009.104.104 0 0 1-.061-.022.328.328 0 0 1-.063-.063V.015L.079.008A.017.017 0 0 0 .072.004.045.045 0 0 0 .06 0a.167.167 0 0 0-.052.003A.017.017 0 0 0 0 .008.015.015 0 0 0 0 .015v.44L.001.46c.001.002.003.004.006.005A.027.027 0 0 0 .02.469.133.133 0 0 0 .065.466.011.011 0 0 0 .071.46.01.01 0 0 0 .073.455V.396c.024.028.05.048.073.061.025.013.05.02.075.02.03 0 .054-.005.074-.016a.13.13 0 0 0 .049-.04A.156.156 0 0 0 .37.364a.334.334 0 0 0 .008-.08V.015z"/></symbol><symbol id="at"><path d="M.404.021c0-.002 0-.004-.002-.006C.402.013.4.01.396.01a.12.12 0 0 0-.056 0 .014.014 0 0 0-.006.005.012.012 0 0 0-.001.006V.08A.295.295 0 0 0 .26.02.163.163 0 0 0 .18 0a.17.17 0 0 0-.083.019.16.16 0 0 0-.055.05.23.23 0 0 0-.031.076.415.415 0 0 0 .002.193c.008.03.02.057.036.078a.16.16 0 0 0 .06.05.183.183 0 0 0 .081.017C.215.483.24.477.26.466a.243.243 0 0 0 .064-.05v.256c0 .002 0 .004.002.006a.011.011 0 0 0 .007.005.109.109 0 0 0 .032.004.112.112 0 0 0 .032-.004.01.01 0 0 0 .006-.005.01.01 0 0 0 .002-.006v-.65M.324.33A.308.308 0 0 1 .26.392a.108.108 0 0 1-.064.022.09.09 0 0 1-.052-.015A.115.115 0 0 1 .109.36a.194.194 0 0 1-.02-.054A.427.427 0 0 1 .088.18.196.196 0 0 1 .106.123.11.11 0 0 1 .14.083a.106.106 0 0 1 .114.004l.033.027a.43.43 0 0 1 .036.04v.177z"/></symbol><symbol id="au"><path d="M.09.015C.09.013.09.01.088.008A.017.017 0 0 0 .082.004.045.045 0 0 0 .07 0a.167.167 0 0 0-.052.003.017.017 0 0 0-.007.004.015.015 0 0 0-.001.007v.44L.01.46a.014.014 0 0 0 .007.005.052.052 0 0 0 .012.003.162.162 0 0 0 .052-.003A.014.014 0 0 0 .088.46.011.011 0 0 0 .09.455v-.44M.1.603C.1.584.096.571.089.564.082.558.069.554.049.554.03.554.017.557.01.564.003.571 0 .584 0 .602c0 .019.004.032.01.039.008.006.021.01.04.01C.07.65.082.647.09.64.096.634.099.62.099.603z"/></symbol><symbol id="av"><path d="M.418.456V.447L.415.44.415.435.265.018a.024.024 0 0 0-.006-.01A.02.02 0 0 0 .25.004a.253.253 0 0 0-.081 0 .023.023 0 0 0-.01.006.024.024 0 0 0-.005.009l-.15.417c0 .004-.002.007-.003.01A.28.28 0 0 1 0 .452v.004C0 .458 0 .46.002.462a.012.012 0 0 0 .006.005.313.313 0 0 0 .067 0A.014.014 0 0 0 .082.46.031.031 0 0 0 .086.454L.21.092.212.086l.002.006.122.362.004.007a.018.018 0 0 0 .007.005.19.19 0 0 0 .064 0C.414.467.416.465.417.463A.01.01 0 0 0 .418.456z"/></symbol><symbol id="aw"><path d="M.379.021c0-.002 0-.004-.002-.006A.013.013 0 0 0 .371.01.044.044 0 0 0 .36.007a.145.145 0 0 0-.036 0 .043.043 0 0 0-.01.003.013.013 0 0 0-.006.005.015.015 0 0 0-.001.006V.08A.274.274 0 0 0 .23.019.17.17 0 0 0 .083.015a.131.131 0 0 0-.048.04.167.167 0 0 0-.027.058A.366.366 0 0 0 0 .194v.267l.001.006a.014.014 0 0 0 .007.005.033.033 0 0 0 .013.003.162.162 0 0 0 .051-.003A.014.014 0 0 0 .08.467.01.01 0 0 0 .081.461V.205C.081.18.083.16.086.143a.125.125 0 0 1 .018-.04.085.085 0 0 1 .029-.025.09.09 0 0 1 .04-.009c.021 0 .041.007.06.022.021.014.042.035.065.063V.46l.001.006a.014.014 0 0 0 .007.005.032.032 0 0 0 .012.003A.167.167 0 0 0 .37.472.014.014 0 0 0 .376.467.009.009 0 0 0 .38.461V.02z"/></symbol><symbol id="ax"><path d="M.36.021C.36.017.36.014.358.012a.027.027 0 0 0-.01-.004.102.102 0 0 0-.02-.002c-.01 0-.016 0-.021.002a.024.024 0 0 0-.011.004C.293.014.292.017.292.021v.044A.216.216 0 0 0 .227.017.169.169 0 0 0 .152 0 .202.202 0 0 0 .09.01.121.121 0 0 0 .01.077.142.142 0 0 0 0 .133C0 .159.005.18.015.198.025.216.04.232.06.244A.21.21 0 0 0 .128.27.42.42 0 0 0 .22.28h.06v.034a.17.17 0 0 1-.005.045.074.074 0 0 1-.048.052.183.183 0 0 1-.1 0A.264.264 0 0 1 .054.378.04.04 0 0 0 .038.372c-.003 0-.005 0-.007.002A.019.019 0 0 0 .025.38a.035.035 0 0 0-.003.01.096.096 0 0 0 0 .033.03.03 0 0 0 .01.013c.004.004.011.01.022.015a.295.295 0 0 0 .133.032.264.264 0 0 0 .081-.01A.12.12 0 0 0 .351.39a.25.25 0 0 0 .01-.073V.021m-.08.2H.21A.25.25 0 0 1 .155.217a.113.113 0 0 1-.04-.017A.068.068 0 0 1 .09.173.08.08 0 0 1 .083.138C.083.115.09.097.104.083a.087.087 0 0 1 .061-.02c.021 0 .04.005.059.016A.25.25 0 0 1 .28.13v.093z"/></symbol><symbol id="ay"><path d="M.08.015.08.008A.017.017 0 0 0 .072.004.045.045 0 0 0 .06 0a.167.167 0 0 0-.052.003A.017.017 0 0 0 0 .008.015.015 0 0 0 0 .015v.652l.001.007A.014.014 0 0 0 .008.68.052.052 0 0 0 .02.682.162.162 0 0 0 .072.68.014.014 0 0 0 .08.674.012.012 0 0 0 .08.667V.015z"/></symbol><use xlink:href="#ar" transform="matrix(9 0 0 -9 381.87 44.026)" fill="#fff"/><use xlink:href="#as" transform="matrix(9 0 0 -9 383.787 44.026)" fill="#fff"/><use xlink:href="#at" transform="matrix(9 0 0 -9 388.533 44.083)" fill="#fff"/><use xlink:href="#au" transform="matrix(9 0 0 -9 393.693 44.026)" fill="#fff"/><use xlink:href="#av" transform="matrix(9 0 0 -9 395.257 44.026)" fill="#fff"/><use xlink:href="#au" transform="matrix(9 0 0 -9 399.69 44.026)" fill="#fff"/><use xlink:href="#at" transform="matrix(9 0 0 -9 401.527 44.083)" fill="#fff"/><use xlink:href="#aw" transform="matrix(9 0 0 -9 406.753 44.083)" fill="#fff"/><use xlink:href="#ax" transform="matrix(9 0 0 -9 410.505 44.083)" fill="#fff"/><use xlink:href="#ay" transform="matrix(9 0 0 -9 415.77 44.026)" fill="#fff"/></g><clipPath id="az"><path transform="matrix(1 0 0 -1 0 242)" d="M0 1h427v241H0z"/></clipPath><g clip-path="url(#az)"><path stroke-width="2.286" stroke-linecap="round" stroke-linejoin="round" fill="none" stroke="#ffc000" d="M360 58h19"/></g><clipPath id="aA"><path transform="matrix(1 0 0 -1 0 242)" d="M0 1h427v241H0z"/></clipPath><g clip-path="url(#aA)"><symbol id="aB"><path d="M.417.181a.187.187 0 0 0-.03-.1.184.184 0 0 0-.077-.06A.252.252 0 0 0 .197 0H.031A.036.036 0 0 0 .01.007C.003.013 0 .021 0 .034v.564C0 .61.003.619.01.624A.035.035 0 0 0 .03.632h.144a.333.333 0 0 0 .093-.01.162.162 0 0 0 .06-.032.128.128 0 0 0 .036-.05A.176.176 0 0 0 .355.39.135.135 0 0 0 .292.338.15.15 0 0 0 .407.24a.172.172 0 0 0 .01-.059M.29.464C.29.479.288.493.284.505a.075.075 0 0 1-.02.032.088.088 0 0 1-.036.02.201.201 0 0 1-.058.006H.083V.36h.096A.14.14 0 0 1 .23.367a.089.089 0 0 1 .052.057.129.129 0 0 1 .007.04M.328.176a.125.125 0 0 1-.01.05.091.091 0 0 1-.026.036.112.112 0 0 1-.043.022.23.23 0 0 1-.065.008H.083V.069h.122c.02 0 .036.003.05.007a.113.113 0 0 1 .038.02c.011.01.02.02.026.034a.11.11 0 0 1 .01.046z"/></symbol><symbol id="aC"><path d="M.287.053c0-.01 0-.017-.002-.023A.025.025 0 0 0 .28.018.038.038 0 0 0 .268.011a.186.186 0 0 0-.12-.002.098.098 0 0 0-.064.074.285.285 0 0 0-.006.066v.257H.016C.011.406.007.408.004.414A.055.055 0 0 0 0 .439l.001.016a.047.047 0 0 0 .003.01L.01.47a.015.015 0 0 0 .008.002h.06v.104L.08.583a.014.014 0 0 0 .006.005.04.04 0 0 0 .013.004A.162.162 0 0 0 .15.588.014.014 0 0 0 .156.583.011.011 0 0 0 .158.577V.473h.113L.278.47.283.465a.027.027 0 0 0 .003-.01L.287.439A.055.055 0 0 0 .283.414C.28.408.276.406.27.406H.158V.16c0-.03.005-.054.013-.07C.181.077.197.07.22.07a.093.093 0 0 1 .035.007.34.34 0 0 1 .02.007C.279.083.28.082.28.08.282.081.283.08.284.077a.042.042 0 0 0 .002-.01L.287.053z"/></symbol><symbol id="aD"><path d="M.347.088A.193.193 0 0 0 .344.063.029.029 0 0 0 .341.056a.045.045 0 0 0-.008-.01.128.128 0 0 0-.02-.014A.225.225 0 0 0 .196 0a.212.212 0 0 0-.084.016A.162.162 0 0 0 .05.06a.216.216 0 0 0-.037.074.365.365 0 0 0-.013.1C0 .28.005.317.016.348c.01.031.025.057.043.077.019.02.04.034.065.044A.221.221 0 0 0 .312.454.114.114 0 0 0 .33.439.05.05 0 0 0 .338.43.028.028 0 0 0 .342.422.059.059 0 0 0 .34.37C.337.365.334.363.33.363.325.363.319.365.312.37a.216.216 0 0 1-.06.035.13.13 0 0 1-.048.009.102.102 0 0 1-.09-.045.227.227 0 0 1-.03-.13.32.32 0 0 1 .008-.074.157.157 0 0 1 .024-.054A.1.1 0 0 1 .154.08.127.127 0 0 1 .206.07c.019 0 .035.003.049.009a.207.207 0 0 1 .062.038C.324.123.33.125.333.125A.01.01 0 0 0 .34.124.014.014 0 0 0 .343.117.12.12 0 0 0 .346.089z"/></symbol><symbol id="aE"><path d="M.378.015c0-.002 0-.005-.002-.007A.017.017 0 0 0 .37.004.045.045 0 0 0 .358 0a.162.162 0 0 0-.052.003A.017.017 0 0 0 .3.008a.012.012 0 0 0-.002.007v.257a.253.253 0 0 1-.006.061.125.125 0 0 1-.017.04.074.074 0 0 1-.03.025.09.09 0 0 1-.04.009.104.104 0 0 1-.061-.022.328.328 0 0 1-.063-.063V.015L.079.008A.017.017 0 0 0 .072.004.045.045 0 0 0 .06 0a.167.167 0 0 0-.052.003A.017.017 0 0 0 0 .008.015.015 0 0 0 0 .015v.652l.001.007A.014.014 0 0 0 .008.68.052.052 0 0 0 .02.682.162.162 0 0 0 .072.68.014.014 0 0 0 .08.674.012.012 0 0 0 .08.667V.404a.256.256 0 0 0 .07.054.162.162 0 0 0 .145.003.13.13 0 0 0 .048-.04A.156.156 0 0 0 .37.364a.337.337 0 0 0 .008-.08V.015z"/></symbol><symbol id="aF"><path d="M.416.61A.049.049 0 0 0 .411.585C.408.58.404.578.4.578H.336A.099.099 0 0 0 .36.538.174.174 0 0 0 .355.428.136.136 0 0 0 .32.377a.156.156 0 0 0-.054-.03.212.212 0 0 0-.12-.004.11.11 0 0 0-.038.018.06.06 0 0 1-.02-.046c0-.011.006-.02.016-.028A.078.078 0 0 1 .146.274L.261.27a.23.23 0 0 0 .06-.01A.143.143 0 0 0 .37.237.103.103 0 0 0 .41.15.13.13 0 0 0 .36.045.186.186 0 0 0 .293.012.384.384 0 0 0 .106.01a.193.193 0 0 0-.06.025A.095.095 0 0 0 0 .118a.125.125 0 0 0 .016.06.15.15 0 0 0 .02.026.264.264 0 0 0 .027.025.076.076 0 0 0-.047.07c0 .02.005.038.013.054s.018.03.03.042a.145.145 0 0 0-.024.04.154.154 0 0 0-.009.056.17.17 0 0 0 .013.067.143.143 0 0 0 .089.082.205.205 0 0 0 .069.01.263.263 0 0 0 .07-.007h.132C.405.643.41.64.412.634A.052.052 0 0 0 .416.61M.29.494c0 .03-.008.053-.025.07C.25.581.225.589.195.589a.1.1 0 0 1-.04-.007.083.083 0 0 1-.047-.054.126.126 0 0 1-.005-.037C.103.462.111.44.127.423a.094.094 0 0 1 .07-.025c.016 0 .03.002.041.007a.08.08 0 0 1 .046.053.115.115 0 0 1 .006.036M.33.146a.049.049 0 0 1-.023.043.115.115 0 0 1-.062.017L.13.21A.21.21 0 0 1 .089.166a.08.08 0 0 1-.008-.02.102.102 0 0 1-.002-.02C.08.105.09.089.111.078a.2.2 0 0 1 .09-.016c.025 0 .045.002.061.007.017.004.03.01.04.018.01.008.017.017.022.027.004.01.007.02.007.032z"/></symbol><use xlink:href="#aB" transform="matrix(9 0 0 -9 381.87 60)" fill="#fff"/><use xlink:href="#ax" transform="matrix(9 0 0 -9 386.52 60.083)" fill="#fff"/><use xlink:href="#aC" transform="matrix(9 0 0 -9 390.262 60.075)" fill="#fff"/><use xlink:href="#aD" transform="matrix(9 0 0 -9 393.515 60.083)" fill="#fff"/><use xlink:href="#aE" transform="matrix(9 0 0 -9 397.793 60.026)" fill="#fff"/><use xlink:href="#au" transform="matrix(9 0 0 -9 402.705 60.026)" fill="#fff"/><use xlink:href="#as" transform="matrix(9 0 0 -9 404.797 60.026)" fill="#fff"/><use xlink:href="#aF" transform="matrix(9 0 0 -9 409.358 61.604)" fill="#fff"/></g></svg>