<?xml version="1.0" encoding="UTF-8" standalone="no"?><!DOCTYPE svg PUBLIC "-//W3C//DTD SVG 1.1//EN" "http://www.w3.org/Graphics/SVG/1.1/DTD/svg11.dtd"><!-- Generated by graphviz version 2.40.1 (20161225.0304)
 --><!-- Title: R Pages: 1 --><svg xmlns="http://www.w3.org/2000/svg" xmlns:xlink="http://www.w3.org/1999/xlink" width="316pt" height="173pt" viewBox="0.00 0.00 316.00 172.80">
<g id="graph0" class="graph" transform="scale(1 1) rotate(0) translate(4 168.8)">
<title>R</title>
<g id="clust1" class="cluster">
<title>cluster_0</title>
<polygon fill="transparent" stroke="transparent" points="8,-8 8,-156.8 150,-156.8 150,-8 8,-8"/>
<text text-anchor="middle" x="79" y="-140.2" font-family="consolas" font-size="14.00" fill="#d3d3d3">H(B₁) &lt; H(B₂)</text>
</g>
<g id="clust3" class="cluster">
<title>cluster_1</title>
<polygon fill="transparent" stroke="transparent" points="158,-8 158,-156.8 300,-156.8 300,-8 158,-8"/>
<text text-anchor="middle" x="229" y="-140.2" font-family="consolas" font-size="14.00" fill="#d3d3d3">H(B₁) &gt; H(B₂)</text>
</g>
<!-- node1 -->
<g id="node1" class="node">
<title>node1</title>
<path fill="none" stroke="#d3d3d3" d="M105.8312,-124C105.8312,-124 52.1688,-124 52.1688,-124 46.1688,-124 40.1688,-118 40.1688,-112 40.1688,-112 40.1688,-100 40.1688,-100 40.1688,-94 46.1688,-88 52.1688,-88 52.1688,-88 105.8312,-88 105.8312,-88 111.8312,-88 117.8312,-94 117.8312,-100 117.8312,-100 117.8312,-112 117.8312,-112 117.8312,-118 111.8312,-124 105.8312,-124"/>
<text text-anchor="start" x="48.0845" y="-101.8" font-family="consolas" font-size="14.00" fill="#d3d3d3">C(B₁,B₂)</text>
</g>
<!-- node2 -->
<g id="node2" class="node">
<title>node2</title>
<path fill="none" stroke="#d3d3d3" d="M58,-52C58,-52 28,-52 28,-52 22,-52 16,-46 16,-40 16,-40 16,-28 16,-28 16,-22 22,-16 28,-16 28,-16 58,-16 58,-16 64,-16 70,-22 70,-28 70,-28 70,-40 70,-40 70,-46 64,-52 58,-52"/>
<text text-anchor="start" x="33.0817" y="-29.8" font-family="consolas" font-size="14.00" fill="#d3d3d3">B₁</text>
</g>
<!-- node1&#45;&gt;node2 -->
<g id="edge1" class="edge">
<title>node1-&gt;node2</title>
<path fill="none" stroke="#d3d3d3" d="M69.9157,-87.8314C65.9385,-79.8771 61.1845,-70.369 56.7861,-61.5723"/>
<polygon fill="#d3d3d3" stroke="#d3d3d3" points="59.8093,-59.7923 52.2066,-52.4133 53.5483,-62.9228 59.8093,-59.7923"/>
</g>
<!-- node3 -->
<g id="node3" class="node">
<title>node3</title>
<path fill="none" stroke="#d3d3d3" d="M130,-52C130,-52 100,-52 100,-52 94,-52 88,-46 88,-40 88,-40 88,-28 88,-28 88,-22 94,-16 100,-16 100,-16 130,-16 130,-16 136,-16 142,-22 142,-28 142,-28 142,-40 142,-40 142,-46 136,-52 130,-52"/>
<text text-anchor="start" x="105.0817" y="-29.8" font-family="consolas" font-size="14.00" fill="#d3d3d3">B₂</text>
</g>
<!-- node1&#45;&gt;node3 -->
<g id="edge2" class="edge">
<title>node1-&gt;node3</title>
<path fill="none" stroke="#d3d3d3" d="M88.0843,-87.8314C92.0615,-79.8771 96.8155,-70.369 101.2139,-61.5723"/>
<polygon fill="#d3d3d3" stroke="#d3d3d3" points="104.4517,-62.9228 105.7934,-52.4133 98.1907,-59.7923 104.4517,-62.9228"/>
</g>
<!-- node4 -->
<g id="node4" class="node">
<title>node4</title>
<path fill="none" stroke="#d3d3d3" d="M255.8312,-124C255.8312,-124 202.1688,-124 202.1688,-124 196.1688,-124 190.1688,-118 190.1688,-112 190.1688,-112 190.1688,-100 190.1688,-100 190.1688,-94 196.1688,-88 202.1688,-88 202.1688,-88 255.8312,-88 255.8312,-88 261.8312,-88 267.8312,-94 267.8312,-100 267.8312,-100 267.8312,-112 267.8312,-112 267.8312,-118 261.8312,-124 255.8312,-124"/>
<text text-anchor="start" x="198.0845" y="-101.8" font-family="consolas" font-size="14.00" fill="#d3d3d3">C(B₂,B₁)</text>
</g>
<!-- node5 -->
<g id="node5" class="node">
<title>node5</title>
<path fill="none" stroke="#d3d3d3" d="M208,-52C208,-52 178,-52 178,-52 172,-52 166,-46 166,-40 166,-40 166,-28 166,-28 166,-22 172,-16 178,-16 178,-16 208,-16 208,-16 214,-16 220,-22 220,-28 220,-28 220,-40 220,-40 220,-46 214,-52 208,-52"/>
<text text-anchor="start" x="183.0817" y="-29.8" font-family="consolas" font-size="14.00" fill="#d3d3d3">B₂</text>
</g>
<!-- node4&#45;&gt;node5 -->
<g id="edge3" class="edge">
<title>node4-&gt;node5</title>
<path fill="none" stroke="#d3d3d3" d="M219.9157,-87.8314C215.9385,-79.8771 211.1845,-70.369 206.7861,-61.5723"/>
<polygon fill="#d3d3d3" stroke="#d3d3d3" points="209.8093,-59.7923 202.2066,-52.4133 203.5483,-62.9228 209.8093,-59.7923"/>
</g>
<!-- node6 -->
<g id="node6" class="node">
<title>node6</title>
<path fill="none" stroke="#d3d3d3" d="M280,-52C280,-52 250,-52 250,-52 244,-52 238,-46 238,-40 238,-40 238,-28 238,-28 238,-22 244,-16 250,-16 250,-16 280,-16 280,-16 286,-16 292,-22 292,-28 292,-28 292,-40 292,-40 292,-46 286,-52 280,-52"/>
<text text-anchor="start" x="255.0817" y="-29.8" font-family="consolas" font-size="14.00" fill="#d3d3d3">B₁</text>
</g>
<!-- node4&#45;&gt;node6 -->
<g id="edge4" class="edge">
<title>node4-&gt;node6</title>
<path fill="none" stroke="#d3d3d3" d="M238.0843,-87.8314C242.0615,-79.8771 246.8155,-70.369 251.2139,-61.5723"/>
<polygon fill="#d3d3d3" stroke="#d3d3d3" points="254.4517,-62.9228 255.7934,-52.4133 248.1907,-59.7923 254.4517,-62.9228"/>
</g>
</g>
</svg>