<?xml version="1.0" encoding="UTF-8" standalone="no"?><!DOCTYPE svg PUBLIC "-//W3C//DTD SVG 1.1//EN" "http://www.w3.org/Graphics/SVG/1.1/DTD/svg11.dtd"><!-- Generated by graphviz version 2.40.1 (20161225.0304)
 --><!-- Title: R Pages: 1 --><svg xmlns="http://www.w3.org/2000/svg" xmlns:xlink="http://www.w3.org/1999/xlink" width="1192pt" height="245pt" viewBox="0.00 0.00 1192.00 244.80">
<g id="graph0" class="graph" transform="scale(1 1) rotate(0) translate(4 240.8)">
<title>R</title>
<g id="clust1" class="cluster">
<title>cluster_0</title>
<polygon fill="transparent" stroke="transparent" points="8,-8 8,-228.8 294,-228.8 294,-8 8,-8"/>
<text text-anchor="middle" x="151" y="-212.2" font-family="consolas" font-size="14.00" fill="#d3d3d3">H(B₁) &lt; H(B₂) | H(B₃) &lt; H(B₄)</text>
</g>
<g id="clust2" class="cluster">
<title>cluster_1</title>
<polygon fill="transparent" stroke="transparent" points="302,-8 302,-228.8 588,-228.8 588,-8 302,-8"/>
<text text-anchor="middle" x="445" y="-212.2" font-family="consolas" font-size="14.00" fill="#d3d3d3">H(B₁) &gt; H(B₂) | H(B₃) &lt; H(B₄)</text>
</g>
<g id="clust3" class="cluster">
<title>cluster_2</title>
<polygon fill="transparent" stroke="transparent" points="596,-8 596,-228.8 882,-228.8 882,-8 596,-8"/>
<text text-anchor="middle" x="739" y="-212.2" font-family="consolas" font-size="14.00" fill="#d3d3d3">H(B₁) &lt; H(B₂) | H(B₃) &gt; H(B₄)</text>
</g>
<g id="clust4" class="cluster">
<title>cluster_3</title>
<polygon fill="transparent" stroke="transparent" points="890,-8 890,-228.8 1176,-228.8 1176,-8 890,-8"/>
<text text-anchor="middle" x="1033" y="-212.2" font-family="consolas" font-size="14.00" fill="#d3d3d3">H(B₁) &gt; H(B₂) | H(B₃) &gt; H(B₄)</text>
</g>
<!-- node1 -->
<g id="node1" class="node">
<title>node1</title>
<path fill="none" stroke="#d3d3d3" d="M218.3201,-196C218.3201,-196 69.6799,-196 69.6799,-196 63.6799,-196 57.6799,-190 57.6799,-184 57.6799,-184 57.6799,-172 57.6799,-172 57.6799,-166 63.6799,-160 69.6799,-160 69.6799,-160 218.3201,-160 218.3201,-160 224.3201,-160 230.3201,-166 230.3201,-172 230.3201,-172 230.3201,-184 230.3201,-184 230.3201,-190 224.3201,-196 218.3201,-196"/>
<text text-anchor="start" x="65.8401" y="-173.8" font-family="consolas" font-size="14.00" fill="#d3d3d3">C(C(B₁, B₂), C(B₃, B₄))</text>
</g>
<!-- node2 -->
<g id="node2" class="node">
<title>node2</title>
<path fill="none" stroke="#d3d3d3" d="M129.8317,-124C129.8317,-124 72.1683,-124 72.1683,-124 66.1683,-124 60.1683,-118 60.1683,-112 60.1683,-112 60.1683,-100 60.1683,-100 60.1683,-94 66.1683,-88 72.1683,-88 72.1683,-88 129.8317,-88 129.8317,-88 135.8317,-88 141.8317,-94 141.8317,-100 141.8317,-100 141.8317,-112 141.8317,-112 141.8317,-118 135.8317,-124 129.8317,-124"/>
<text text-anchor="start" x="68.3345" y="-101.8" font-family="consolas" font-size="14.00" fill="#d3d3d3">C(B₁, B₂)</text>
</g>
<!-- node1&#45;&gt;node2 -->
<g id="edge1" class="edge">
<title>node1-&gt;node2</title>
<path fill="none" stroke="#000000" d="M133.1493,-159.8314C128.2977,-151.7079 122.4783,-141.9637 117.132,-133.0118"/>
<polygon fill="#000000" stroke="#000000" points="120.1292,-131.2041 111.9968,-124.4133 114.1194,-134.7933 120.1292,-131.2041"/>
</g>
<!-- node3 -->
<g id="node3" class="node">
<title>node3</title>
<path fill="none" stroke="#d3d3d3" d="M228.8317,-124C228.8317,-124 171.1683,-124 171.1683,-124 165.1683,-124 159.1683,-118 159.1683,-112 159.1683,-112 159.1683,-100 159.1683,-100 159.1683,-94 165.1683,-88 171.1683,-88 171.1683,-88 228.8317,-88 228.8317,-88 234.8317,-88 240.8317,-94 240.8317,-100 240.8317,-100 240.8317,-112 240.8317,-112 240.8317,-118 234.8317,-124 228.8317,-124"/>
<text text-anchor="start" x="167.3345" y="-101.8" font-family="consolas" font-size="14.00" fill="#d3d3d3">C(B₃, B₄)</text>
</g>
<!-- node1&#45;&gt;node3 -->
<g id="edge2" class="edge">
<title>node1-&gt;node3</title>
<path fill="none" stroke="#000000" d="M158.1312,-159.8314C164.5811,-151.5386 172.3445,-141.557 179.4252,-132.4533"/>
<polygon fill="#000000" stroke="#000000" points="182.3019,-134.4556 185.6786,-124.4133 176.7764,-130.158 182.3019,-134.4556"/>
</g>
<!-- node4 -->
<g id="node4" class="node">
<title>node4</title>
<path fill="none" stroke="#d3d3d3" d="M58,-52C58,-52 28,-52 28,-52 22,-52 16,-46 16,-40 16,-40 16,-28 16,-28 16,-22 22,-16 28,-16 28,-16 58,-16 58,-16 64,-16 70,-22 70,-28 70,-28 70,-40 70,-40 70,-46 64,-52 58,-52"/>
<text text-anchor="start" x="33.0817" y="-29.8" font-family="consolas" font-size="14.00" fill="#d3d3d3">B₁</text>
</g>
<!-- node2&#45;&gt;node4 -->
<g id="edge3" class="edge">
<title>node2-&gt;node4</title>
<path fill="none" stroke="#000000" d="M86.3642,-87.8314C79.6839,-79.5386 71.6432,-69.557 64.3096,-60.4533"/>
<polygon fill="#000000" stroke="#000000" points="66.8319,-58.0052 57.8329,-52.4133 61.3806,-62.3965 66.8319,-58.0052"/>
</g>
<!-- node5 -->
<g id="node5" class="node">
<title>node5</title>
<path fill="none" stroke="#d3d3d3" d="M130,-52C130,-52 100,-52 100,-52 94,-52 88,-46 88,-40 88,-40 88,-28 88,-28 88,-22 94,-16 100,-16 100,-16 130,-16 130,-16 136,-16 142,-22 142,-28 142,-28 142,-40 142,-40 142,-46 136,-52 130,-52"/>
<text text-anchor="start" x="105.0817" y="-29.8" font-family="consolas" font-size="14.00" fill="#d3d3d3">B₂</text>
</g>
<!-- node2&#45;&gt;node5 -->
<g id="edge4" class="edge">
<title>node2-&gt;node5</title>
<path fill="none" stroke="#000000" d="M104.5328,-87.8314C106.0301,-80.131 107.8105,-70.9743 109.4745,-62.4166"/>
<polygon fill="#000000" stroke="#000000" points="112.9465,-62.8975 111.4196,-52.4133 106.0752,-61.5614 112.9465,-62.8975"/>
</g>
<!-- node6 -->
<g id="node6" class="node">
<title>node6</title>
<path fill="none" stroke="#d3d3d3" d="M202,-52C202,-52 172,-52 172,-52 166,-52 160,-46 160,-40 160,-40 160,-28 160,-28 160,-22 166,-16 172,-16 172,-16 202,-16 202,-16 208,-16 214,-22 214,-28 214,-28 214,-40 214,-40 214,-46 208,-52 202,-52"/>
<text text-anchor="start" x="177.0817" y="-29.8" font-family="consolas" font-size="14.00" fill="#d3d3d3">B₃</text>
</g>
<!-- node3&#45;&gt;node6 -->
<g id="edge5" class="edge">
<title>node3-&gt;node6</title>
<path fill="none" stroke="#000000" d="M196.7196,-87.8314C195.3292,-80.131 193.6759,-70.9743 192.1308,-62.4166"/>
<polygon fill="#000000" stroke="#000000" points="195.5458,-61.6322 190.3246,-52.4133 188.6572,-62.8761 195.5458,-61.6322"/>
</g>
<!-- node7 -->
<g id="node7" class="node">
<title>node7</title>
<path fill="none" stroke="#d3d3d3" d="M274,-52C274,-52 244,-52 244,-52 238,-52 232,-46 232,-40 232,-40 232,-28 232,-28 232,-22 238,-16 244,-16 244,-16 274,-16 274,-16 280,-16 286,-22 286,-28 286,-28 286,-40 286,-40 286,-46 280,-52 274,-52"/>
<text text-anchor="start" x="249.0817" y="-29.8" font-family="consolas" font-size="14.00" fill="#d3d3d3">B₄</text>
</g>
<!-- node3&#45;&gt;node7 -->
<g id="edge6" class="edge">
<title>node3-&gt;node7</title>
<path fill="none" stroke="#000000" d="M214.8882,-87.8314C221.753,-79.454 230.0301,-69.3531 237.5511,-60.1749"/>
<polygon fill="#000000" stroke="#000000" points="240.2803,-62.3665 243.9114,-52.4133 234.8659,-57.9297 240.2803,-62.3665"/>
</g>
<!-- node8 -->
<g id="node8" class="node">
<title>node8</title>
<path fill="none" stroke="#d3d3d3" d="M512.3201,-196C512.3201,-196 363.6799,-196 363.6799,-196 357.6799,-196 351.6799,-190 351.6799,-184 351.6799,-184 351.6799,-172 351.6799,-172 351.6799,-166 357.6799,-160 363.6799,-160 363.6799,-160 512.3201,-160 512.3201,-160 518.3201,-160 524.3201,-166 524.3201,-172 524.3201,-172 524.3201,-184 524.3201,-184 524.3201,-190 518.3201,-196 512.3201,-196"/>
<text text-anchor="start" x="359.8401" y="-173.8" font-family="consolas" font-size="14.00" fill="#d3d3d3">C(C(B₁, B₂), C(B₃, B₄))</text>
</g>
<!-- node9 -->
<g id="node9" class="node">
<title>node9</title>
<path fill="none" stroke="#d3d3d3" d="M423.8317,-124C423.8317,-124 366.1683,-124 366.1683,-124 360.1683,-124 354.1683,-118 354.1683,-112 354.1683,-112 354.1683,-100 354.1683,-100 354.1683,-94 360.1683,-88 366.1683,-88 366.1683,-88 423.8317,-88 423.8317,-88 429.8317,-88 435.8317,-94 435.8317,-100 435.8317,-100 435.8317,-112 435.8317,-112 435.8317,-118 429.8317,-124 423.8317,-124"/>
<text text-anchor="start" x="362.3345" y="-101.8" font-family="consolas" font-size="14.00" fill="#d3d3d3">C(B₁, B₂)</text>
</g>
<!-- node8&#45;&gt;node9 -->
<g id="edge7" class="edge">
<title>node8-&gt;node9</title>
<path fill="none" stroke="#000000" d="M427.1493,-159.8314C422.2977,-151.7079 416.4783,-141.9637 411.132,-133.0118"/>
<polygon fill="#000000" stroke="#000000" points="414.1292,-131.2041 405.9968,-124.4133 408.1194,-134.7933 414.1292,-131.2041"/>
</g>
<!-- node10 -->
<g id="node10" class="node">
<title>node10</title>
<path fill="none" stroke="#d3d3d3" d="M522.8317,-124C522.8317,-124 465.1683,-124 465.1683,-124 459.1683,-124 453.1683,-118 453.1683,-112 453.1683,-112 453.1683,-100 453.1683,-100 453.1683,-94 459.1683,-88 465.1683,-88 465.1683,-88 522.8317,-88 522.8317,-88 528.8317,-88 534.8317,-94 534.8317,-100 534.8317,-100 534.8317,-112 534.8317,-112 534.8317,-118 528.8317,-124 522.8317,-124"/>
<text text-anchor="start" x="461.3345" y="-101.8" font-family="consolas" font-size="14.00" fill="#d3d3d3">C(B₃, B₄)</text>
</g>
<!-- node8&#45;&gt;node10 -->
<g id="edge8" class="edge">
<title>node8-&gt;node10</title>
<path fill="none" stroke="#000000" d="M452.1312,-159.8314C458.5811,-151.5386 466.3445,-141.557 473.4252,-132.4533"/>
<polygon fill="#000000" stroke="#000000" points="476.3019,-134.4556 479.6786,-124.4133 470.7764,-130.158 476.3019,-134.4556"/>
</g>
<!-- node11 -->
<g id="node11" class="node">
<title>node11</title>
<path fill="none" stroke="#d3d3d3" d="M352,-52C352,-52 322,-52 322,-52 316,-52 310,-46 310,-40 310,-40 310,-28 310,-28 310,-22 316,-16 322,-16 322,-16 352,-16 352,-16 358,-16 364,-22 364,-28 364,-28 364,-40 364,-40 364,-46 358,-52 352,-52"/>
<text text-anchor="start" x="327.0817" y="-29.8" font-family="consolas" font-size="14.00" fill="#d3d3d3">B₂</text>
</g>
<!-- node9&#45;&gt;node11 -->
<g id="edge9" class="edge">
<title>node9-&gt;node11</title>
<path fill="none" stroke="#0000ff" stroke-width="2" d="M380.3642,-87.8314C373.6839,-79.5386 365.6432,-69.557 358.3096,-60.4533"/>
<polygon fill="#0000ff" stroke="#0000ff" stroke-width="2" points="360.8319,-58.0052 351.8329,-52.4133 355.3806,-62.3965 360.8319,-58.0052"/>
</g>
<!-- node12 -->
<g id="node12" class="node">
<title>node12</title>
<path fill="none" stroke="#d3d3d3" d="M424,-52C424,-52 394,-52 394,-52 388,-52 382,-46 382,-40 382,-40 382,-28 382,-28 382,-22 388,-16 394,-16 394,-16 424,-16 424,-16 430,-16 436,-22 436,-28 436,-28 436,-40 436,-40 436,-46 430,-52 424,-52"/>
<text text-anchor="start" x="399.0817" y="-29.8" font-family="consolas" font-size="14.00" fill="#d3d3d3">B₁</text>
</g>
<!-- node9&#45;&gt;node12 -->
<g id="edge10" class="edge">
<title>node9-&gt;node12</title>
<path fill="none" stroke="#0000ff" stroke-width="2" d="M398.5328,-87.8314C400.0301,-80.131 401.8105,-70.9743 403.4745,-62.4166"/>
<polygon fill="#0000ff" stroke="#0000ff" stroke-width="2" points="406.9465,-62.8975 405.4196,-52.4133 400.0752,-61.5614 406.9465,-62.8975"/>
</g>
<!-- node13 -->
<g id="node13" class="node">
<title>node13</title>
<path fill="none" stroke="#d3d3d3" d="M496,-52C496,-52 466,-52 466,-52 460,-52 454,-46 454,-40 454,-40 454,-28 454,-28 454,-22 460,-16 466,-16 466,-16 496,-16 496,-16 502,-16 508,-22 508,-28 508,-28 508,-40 508,-40 508,-46 502,-52 496,-52"/>
<text text-anchor="start" x="471.0817" y="-29.8" font-family="consolas" font-size="14.00" fill="#d3d3d3">B₃</text>
</g>
<!-- node10&#45;&gt;node13 -->
<g id="edge11" class="edge">
<title>node10-&gt;node13</title>
<path fill="none" stroke="#000000" d="M490.7196,-87.8314C489.3292,-80.131 487.6759,-70.9743 486.1308,-62.4166"/>
<polygon fill="#000000" stroke="#000000" points="489.5458,-61.6322 484.3246,-52.4133 482.6572,-62.8761 489.5458,-61.6322"/>
</g>
<!-- node14 -->
<g id="node14" class="node">
<title>node14</title>
<path fill="none" stroke="#d3d3d3" d="M568,-52C568,-52 538,-52 538,-52 532,-52 526,-46 526,-40 526,-40 526,-28 526,-28 526,-22 532,-16 538,-16 538,-16 568,-16 568,-16 574,-16 580,-22 580,-28 580,-28 580,-40 580,-40 580,-46 574,-52 568,-52"/>
<text text-anchor="start" x="543.0817" y="-29.8" font-family="consolas" font-size="14.00" fill="#d3d3d3">B₄</text>
</g>
<!-- node10&#45;&gt;node14 -->
<g id="edge12" class="edge">
<title>node10-&gt;node14</title>
<path fill="none" stroke="#000000" d="M508.8882,-87.8314C515.753,-79.454 524.0301,-69.3531 531.5511,-60.1749"/>
<polygon fill="#000000" stroke="#000000" points="534.2803,-62.3665 537.9114,-52.4133 528.8659,-57.9297 534.2803,-62.3665"/>
</g>
<!-- node15 -->
<g id="node15" class="node">
<title>node15</title>
<path fill="none" stroke="#d3d3d3" d="M806.3201,-196C806.3201,-196 657.6799,-196 657.6799,-196 651.6799,-196 645.6799,-190 645.6799,-184 645.6799,-184 645.6799,-172 645.6799,-172 645.6799,-166 651.6799,-160 657.6799,-160 657.6799,-160 806.3201,-160 806.3201,-160 812.3201,-160 818.3201,-166 818.3201,-172 818.3201,-172 818.3201,-184 818.3201,-184 818.3201,-190 812.3201,-196 806.3201,-196"/>
<text text-anchor="start" x="653.8401" y="-173.8" font-family="consolas" font-size="14.00" fill="#d3d3d3">C(C(B₁, B₂), C(B₃, B₄))</text>
</g>
<!-- node16 -->
<g id="node16" class="node">
<title>node16</title>
<path fill="none" stroke="#d3d3d3" d="M717.8317,-124C717.8317,-124 660.1683,-124 660.1683,-124 654.1683,-124 648.1683,-118 648.1683,-112 648.1683,-112 648.1683,-100 648.1683,-100 648.1683,-94 654.1683,-88 660.1683,-88 660.1683,-88 717.8317,-88 717.8317,-88 723.8317,-88 729.8317,-94 729.8317,-100 729.8317,-100 729.8317,-112 729.8317,-112 729.8317,-118 723.8317,-124 717.8317,-124"/>
<text text-anchor="start" x="656.3345" y="-101.8" font-family="consolas" font-size="14.00" fill="#d3d3d3">C(B₁, B₂)</text>
</g>
<!-- node15&#45;&gt;node16 -->
<g id="edge13" class="edge">
<title>node15-&gt;node16</title>
<path fill="none" stroke="#000000" d="M721.1493,-159.8314C716.2977,-151.7079 710.4783,-141.9637 705.132,-133.0118"/>
<polygon fill="#000000" stroke="#000000" points="708.1292,-131.2041 699.9968,-124.4133 702.1194,-134.7933 708.1292,-131.2041"/>
</g>
<!-- node17 -->
<g id="node17" class="node">
<title>node17</title>
<path fill="none" stroke="#d3d3d3" d="M816.8317,-124C816.8317,-124 759.1683,-124 759.1683,-124 753.1683,-124 747.1683,-118 747.1683,-112 747.1683,-112 747.1683,-100 747.1683,-100 747.1683,-94 753.1683,-88 759.1683,-88 759.1683,-88 816.8317,-88 816.8317,-88 822.8317,-88 828.8317,-94 828.8317,-100 828.8317,-100 828.8317,-112 828.8317,-112 828.8317,-118 822.8317,-124 816.8317,-124"/>
<text text-anchor="start" x="755.3345" y="-101.8" font-family="consolas" font-size="14.00" fill="#d3d3d3">C(B₃, B₄)</text>
</g>
<!-- node15&#45;&gt;node17 -->
<g id="edge14" class="edge">
<title>node15-&gt;node17</title>
<path fill="none" stroke="#000000" d="M746.1312,-159.8314C752.5811,-151.5386 760.3445,-141.557 767.4252,-132.4533"/>
<polygon fill="#000000" stroke="#000000" points="770.3019,-134.4556 773.6786,-124.4133 764.7764,-130.158 770.3019,-134.4556"/>
</g>
<!-- node18 -->
<g id="node18" class="node">
<title>node18</title>
<path fill="none" stroke="#d3d3d3" d="M646,-52C646,-52 616,-52 616,-52 610,-52 604,-46 604,-40 604,-40 604,-28 604,-28 604,-22 610,-16 616,-16 616,-16 646,-16 646,-16 652,-16 658,-22 658,-28 658,-28 658,-40 658,-40 658,-46 652,-52 646,-52"/>
<text text-anchor="start" x="621.0817" y="-29.8" font-family="consolas" font-size="14.00" fill="#d3d3d3">B₁</text>
</g>
<!-- node16&#45;&gt;node18 -->
<g id="edge15" class="edge">
<title>node16-&gt;node18</title>
<path fill="none" stroke="#000000" d="M674.3642,-87.8314C667.6839,-79.5386 659.6432,-69.557 652.3096,-60.4533"/>
<polygon fill="#000000" stroke="#000000" points="654.8319,-58.0052 645.8329,-52.4133 649.3806,-62.3965 654.8319,-58.0052"/>
</g>
<!-- node19 -->
<g id="node19" class="node">
<title>node19</title>
<path fill="none" stroke="#d3d3d3" d="M718,-52C718,-52 688,-52 688,-52 682,-52 676,-46 676,-40 676,-40 676,-28 676,-28 676,-22 682,-16 688,-16 688,-16 718,-16 718,-16 724,-16 730,-22 730,-28 730,-28 730,-40 730,-40 730,-46 724,-52 718,-52"/>
<text text-anchor="start" x="693.0817" y="-29.8" font-family="consolas" font-size="14.00" fill="#d3d3d3">B₂</text>
</g>
<!-- node16&#45;&gt;node19 -->
<g id="edge16" class="edge">
<title>node16-&gt;node19</title>
<path fill="none" stroke="#000000" d="M692.5328,-87.8314C694.0301,-80.131 695.8105,-70.9743 697.4745,-62.4166"/>
<polygon fill="#000000" stroke="#000000" points="700.9465,-62.8975 699.4196,-52.4133 694.0752,-61.5614 700.9465,-62.8975"/>
</g>
<!-- node20 -->
<g id="node20" class="node">
<title>node20</title>
<path fill="none" stroke="#d3d3d3" d="M790,-52C790,-52 760,-52 760,-52 754,-52 748,-46 748,-40 748,-40 748,-28 748,-28 748,-22 754,-16 760,-16 760,-16 790,-16 790,-16 796,-16 802,-22 802,-28 802,-28 802,-40 802,-40 802,-46 796,-52 790,-52"/>
<text text-anchor="start" x="765.0817" y="-29.8" font-family="consolas" font-size="14.00" fill="#d3d3d3">B₄</text>
</g>
<!-- node17&#45;&gt;node20 -->
<g id="edge17" class="edge">
<title>node17-&gt;node20</title>
<path fill="none" stroke="#0000ff" stroke-width="2" d="M784.7196,-87.8314C783.3292,-80.131 781.6759,-70.9743 780.1308,-62.4166"/>
<polygon fill="#0000ff" stroke="#0000ff" stroke-width="2" points="783.5458,-61.6322 778.3246,-52.4133 776.6572,-62.8761 783.5458,-61.6322"/>
</g>
<!-- node21 -->
<g id="node21" class="node">
<title>node21</title>
<path fill="none" stroke="#d3d3d3" d="M862,-52C862,-52 832,-52 832,-52 826,-52 820,-46 820,-40 820,-40 820,-28 820,-28 820,-22 826,-16 832,-16 832,-16 862,-16 862,-16 868,-16 874,-22 874,-28 874,-28 874,-40 874,-40 874,-46 868,-52 862,-52"/>
<text text-anchor="start" x="837.0817" y="-29.8" font-family="consolas" font-size="14.00" fill="#d3d3d3">B₃</text>
</g>
<!-- node17&#45;&gt;node21 -->
<g id="edge18" class="edge">
<title>node17-&gt;node21</title>
<path fill="none" stroke="#0000ff" stroke-width="2" d="M802.8882,-87.8314C809.753,-79.454 818.0301,-69.3531 825.5511,-60.1749"/>
<polygon fill="#0000ff" stroke="#0000ff" stroke-width="2" points="828.2803,-62.3665 831.9114,-52.4133 822.8659,-57.9297 828.2803,-62.3665"/>
</g>
<!-- node22 -->
<g id="node22" class="node">
<title>node22</title>
<path fill="none" stroke="#d3d3d3" d="M1100.3201,-196C1100.3201,-196 951.6799,-196 951.6799,-196 945.6799,-196 939.6799,-190 939.6799,-184 939.6799,-184 939.6799,-172 939.6799,-172 939.6799,-166 945.6799,-160 951.6799,-160 951.6799,-160 1100.3201,-160 1100.3201,-160 1106.3201,-160 1112.3201,-166 1112.3201,-172 1112.3201,-172 1112.3201,-184 1112.3201,-184 1112.3201,-190 1106.3201,-196 1100.3201,-196"/>
<text text-anchor="start" x="947.8401" y="-173.8" font-family="consolas" font-size="14.00" fill="#d3d3d3">C(C(B₁, B₂), C(B₃, B₄))</text>
</g>
<!-- node23 -->
<g id="node23" class="node">
<title>node23</title>
<path fill="none" stroke="#d3d3d3" d="M1011.8317,-124C1011.8317,-124 954.1683,-124 954.1683,-124 948.1683,-124 942.1683,-118 942.1683,-112 942.1683,-112 942.1683,-100 942.1683,-100 942.1683,-94 948.1683,-88 954.1683,-88 954.1683,-88 1011.8317,-88 1011.8317,-88 1017.8317,-88 1023.8317,-94 1023.8317,-100 1023.8317,-100 1023.8317,-112 1023.8317,-112 1023.8317,-118 1017.8317,-124 1011.8317,-124"/>
<text text-anchor="start" x="950.3345" y="-101.8" font-family="consolas" font-size="14.00" fill="#d3d3d3">C(B₁, B₂)</text>
</g>
<!-- node22&#45;&gt;node23 -->
<g id="edge19" class="edge">
<title>node22-&gt;node23</title>
<path fill="none" stroke="#000000" d="M1015.1493,-159.8314C1010.2977,-151.7079 1004.4783,-141.9637 999.132,-133.0118"/>
<polygon fill="#000000" stroke="#000000" points="1002.1292,-131.2041 993.9968,-124.4133 996.1194,-134.7933 1002.1292,-131.2041"/>
</g>
<!-- node24 -->
<g id="node24" class="node">
<title>node24</title>
<path fill="none" stroke="#d3d3d3" d="M1110.8317,-124C1110.8317,-124 1053.1683,-124 1053.1683,-124 1047.1683,-124 1041.1683,-118 1041.1683,-112 1041.1683,-112 1041.1683,-100 1041.1683,-100 1041.1683,-94 1047.1683,-88 1053.1683,-88 1053.1683,-88 1110.8317,-88 1110.8317,-88 1116.8317,-88 1122.8317,-94 1122.8317,-100 1122.8317,-100 1122.8317,-112 1122.8317,-112 1122.8317,-118 1116.8317,-124 1110.8317,-124"/>
<text text-anchor="start" x="1049.3345" y="-101.8" font-family="consolas" font-size="14.00" fill="#d3d3d3">C(B₃, B₄)</text>
</g>
<!-- node22&#45;&gt;node24 -->
<g id="edge20" class="edge">
<title>node22-&gt;node24</title>
<path fill="none" stroke="#000000" d="M1040.1312,-159.8314C1046.5811,-151.5386 1054.3445,-141.557 1061.4252,-132.4533"/>
<polygon fill="#000000" stroke="#000000" points="1064.3019,-134.4556 1067.6786,-124.4133 1058.7764,-130.158 1064.3019,-134.4556"/>
</g>
<!-- node25 -->
<g id="node25" class="node">
<title>node25</title>
<path fill="none" stroke="#d3d3d3" d="M940,-52C940,-52 910,-52 910,-52 904,-52 898,-46 898,-40 898,-40 898,-28 898,-28 898,-22 904,-16 910,-16 910,-16 940,-16 940,-16 946,-16 952,-22 952,-28 952,-28 952,-40 952,-40 952,-46 946,-52 940,-52"/>
<text text-anchor="start" x="915.0817" y="-29.8" font-family="consolas" font-size="14.00" fill="#d3d3d3">B₂</text>
</g>
<!-- node23&#45;&gt;node25 -->
<g id="edge21" class="edge">
<title>node23-&gt;node25</title>
<path fill="none" stroke="#0000ff" stroke-width="2" d="M968.3642,-87.8314C961.6839,-79.5386 953.6432,-69.557 946.3096,-60.4533"/>
<polygon fill="#0000ff" stroke="#0000ff" stroke-width="2" points="948.8319,-58.0052 939.8329,-52.4133 943.3806,-62.3965 948.8319,-58.0052"/>
</g>
<!-- node26 -->
<g id="node26" class="node">
<title>node26</title>
<path fill="none" stroke="#d3d3d3" d="M1012,-52C1012,-52 982,-52 982,-52 976,-52 970,-46 970,-40 970,-40 970,-28 970,-28 970,-22 976,-16 982,-16 982,-16 1012,-16 1012,-16 1018,-16 1024,-22 1024,-28 1024,-28 1024,-40 1024,-40 1024,-46 1018,-52 1012,-52"/>
<text text-anchor="start" x="987.0817" y="-29.8" font-family="consolas" font-size="14.00" fill="#d3d3d3">B₁</text>
</g>
<!-- node23&#45;&gt;node26 -->
<g id="edge22" class="edge">
<title>node23-&gt;node26</title>
<path fill="none" stroke="#0000ff" stroke-width="2" d="M986.5328,-87.8314C988.0301,-80.131 989.8105,-70.9743 991.4745,-62.4166"/>
<polygon fill="#0000ff" stroke="#0000ff" stroke-width="2" points="994.9465,-62.8975 993.4196,-52.4133 988.0752,-61.5614 994.9465,-62.8975"/>
</g>
<!-- node27 -->
<g id="node27" class="node">
<title>node27</title>
<path fill="none" stroke="#d3d3d3" d="M1084,-52C1084,-52 1054,-52 1054,-52 1048,-52 1042,-46 1042,-40 1042,-40 1042,-28 1042,-28 1042,-22 1048,-16 1054,-16 1054,-16 1084,-16 1084,-16 1090,-16 1096,-22 1096,-28 1096,-28 1096,-40 1096,-40 1096,-46 1090,-52 1084,-52"/>
<text text-anchor="start" x="1059.0817" y="-29.8" font-family="consolas" font-size="14.00" fill="#d3d3d3">B₄</text>
</g>
<!-- node24&#45;&gt;node27 -->
<g id="edge23" class="edge">
<title>node24-&gt;node27</title>
<path fill="none" stroke="#0000ff" stroke-width="2" d="M1078.7196,-87.8314C1077.3292,-80.131 1075.6759,-70.9743 1074.1308,-62.4166"/>
<polygon fill="#0000ff" stroke="#0000ff" stroke-width="2" points="1077.5458,-61.6322 1072.3246,-52.4133 1070.6572,-62.8761 1077.5458,-61.6322"/>
</g>
<!-- node28 -->
<g id="node28" class="node">
<title>node28</title>
<path fill="none" stroke="#d3d3d3" d="M1156,-52C1156,-52 1126,-52 1126,-52 1120,-52 1114,-46 1114,-40 1114,-40 1114,-28 1114,-28 1114,-22 1120,-16 1126,-16 1126,-16 1156,-16 1156,-16 1162,-16 1168,-22 1168,-28 1168,-28 1168,-40 1168,-40 1168,-46 1162,-52 1156,-52"/>
<text text-anchor="start" x="1131.0817" y="-29.8" font-family="consolas" font-size="14.00" fill="#d3d3d3">B₃</text>
</g>
<!-- node24&#45;&gt;node28 -->
<g id="edge24" class="edge">
<title>node24-&gt;node28</title>
<path fill="none" stroke="#0000ff" stroke-width="2" d="M1096.8882,-87.8314C1103.753,-79.454 1112.0301,-69.3531 1119.5511,-60.1749"/>
<polygon fill="#0000ff" stroke="#0000ff" stroke-width="2" points="1122.2803,-62.3665 1125.9114,-52.4133 1116.8659,-57.9297 1122.2803,-62.3665"/>
</g>
</g>
</svg>