<?xml version="1.0" encoding="UTF-8" standalone="no"?><!DOCTYPE svg PUBLIC "-//W3C//DTD SVG 1.1//EN" "http://www.w3.org/Graphics/SVG/1.1/DTD/svg11.dtd"><!-- Generated by graphviz version 2.40.1 (20161225.0304)
 --><!-- Title: R Pages: 1 --><svg xmlns="http://www.w3.org/2000/svg" xmlns:xlink="http://www.w3.org/1999/xlink" width="310pt" height="245pt" viewBox="0.00 0.00 310.00 244.80">
<g id="graph0" class="graph" transform="scale(1 1) rotate(0) translate(4 240.8)">
<title>R</title>
<g id="clust1" class="cluster">
<title>cluster_0</title>
<polygon fill="transparent" stroke="transparent" points="8,-8 8,-228.8 294,-228.8 294,-8 8,-8"/>
<text text-anchor="middle" x="151" y="-212.2" font-family="consolas" font-size="14.00" fill="#d3d3d3">H(B₁)&lt;H(B₂) | H(B₃)&lt;H(B₄)</text>
</g>
<!-- node1 -->
<g id="node1" class="node">
<title>node1</title>
<path fill="none" stroke="#d3d3d3" d="M213.8201,-196C213.8201,-196 72.1799,-196 72.1799,-196 66.1799,-196 60.1799,-190 60.1799,-184 60.1799,-184 60.1799,-172 60.1799,-172 60.1799,-166 66.1799,-160 72.1799,-160 72.1799,-160 213.8201,-160 213.8201,-160 219.8201,-160 225.8201,-166 225.8201,-172 225.8201,-172 225.8201,-184 225.8201,-184 225.8201,-190 219.8201,-196 213.8201,-196"/>
<text text-anchor="start" x="68.3401" y="-173.8" font-family="consolas" font-size="14.00" fill="#d3d3d3">C(C(B₁,B₂),C(B₃, B₄))</text>
</g>
<!-- node2 -->
<g id="node2" class="node">
<title>node2</title>
<path fill="none" stroke="#d3d3d3" d="M129.8312,-124C129.8312,-124 76.1688,-124 76.1688,-124 70.1688,-124 64.1688,-118 64.1688,-112 64.1688,-112 64.1688,-100 64.1688,-100 64.1688,-94 70.1688,-88 76.1688,-88 76.1688,-88 129.8312,-88 129.8312,-88 135.8312,-88 141.8312,-94 141.8312,-100 141.8312,-100 141.8312,-112 141.8312,-112 141.8312,-118 135.8312,-124 129.8312,-124"/>
<text text-anchor="start" x="72.0845" y="-101.8" font-family="consolas" font-size="14.00" fill="#d3d3d3">C(B₁,B₂)</text>
</g>
<!-- node1&#45;&gt;node2 -->
<g id="edge1" class="edge">
<title>node1-&gt;node2</title>
<path fill="none" stroke="#d3d3d3" d="M132.9063,-159.8314C128.4403,-151.7925 123.0925,-142.1666 118.1621,-133.2918"/>
<polygon fill="#d3d3d3" stroke="#d3d3d3" points="121.1456,-131.4551 113.2296,-124.4133 115.0265,-134.8546 121.1456,-131.4551"/>
</g>
<!-- node3 -->
<g id="node3" class="node">
<title>node3</title>
<path fill="none" stroke="#d3d3d3" d="M225.8312,-124C225.8312,-124 172.1688,-124 172.1688,-124 166.1688,-124 160.1688,-118 160.1688,-112 160.1688,-112 160.1688,-100 160.1688,-100 160.1688,-94 166.1688,-88 172.1688,-88 172.1688,-88 225.8312,-88 225.8312,-88 231.8312,-88 237.8312,-94 237.8312,-100 237.8312,-100 237.8312,-112 237.8312,-112 237.8312,-118 231.8312,-124 225.8312,-124"/>
<text text-anchor="start" x="168.0845" y="-101.8" font-family="consolas" font-size="14.00" fill="#d3d3d3">C(B₃,B₄)</text>
</g>
<!-- node1&#45;&gt;node3 -->
<g id="edge2" class="edge">
<title>node1-&gt;node3</title>
<path fill="none" stroke="#d3d3d3" d="M157.1312,-159.8314C163.5811,-151.5386 171.3445,-141.557 178.4252,-132.4533"/>
<polygon fill="#d3d3d3" stroke="#d3d3d3" points="181.3019,-134.4556 184.6786,-124.4133 175.7764,-130.158 181.3019,-134.4556"/>
</g>
<!-- node4 -->
<g id="node4" class="node">
<title>node4</title>
<path fill="none" stroke="#d3d3d3" d="M58,-52C58,-52 28,-52 28,-52 22,-52 16,-46 16,-40 16,-40 16,-28 16,-28 16,-22 22,-16 28,-16 28,-16 58,-16 58,-16 64,-16 70,-22 70,-28 70,-28 70,-40 70,-40 70,-46 64,-52 58,-52"/>
<text text-anchor="start" x="33.0817" y="-29.8" font-family="consolas" font-size="14.00" fill="#d3d3d3">B₁</text>
</g>
<!-- node2&#45;&gt;node4 -->
<g id="edge3" class="edge">
<title>node2-&gt;node4</title>
<path fill="none" stroke="#d3d3d3" d="M87.8595,-87.8314C80.8783,-79.454 72.4609,-69.3531 64.8124,-60.1749"/>
<polygon fill="#d3d3d3" stroke="#d3d3d3" points="67.4351,-57.8548 58.3444,-52.4133 62.0575,-62.3362 67.4351,-57.8548"/>
</g>
<!-- node5 -->
<g id="node5" class="node">
<title>node5</title>
<path fill="none" stroke="#d3d3d3" d="M130,-52C130,-52 100,-52 100,-52 94,-52 88,-46 88,-40 88,-40 88,-28 88,-28 88,-22 94,-16 100,-16 100,-16 130,-16 130,-16 136,-16 142,-22 142,-28 142,-28 142,-40 142,-40 142,-46 136,-52 130,-52"/>
<text text-anchor="start" x="105.0817" y="-29.8" font-family="consolas" font-size="14.00" fill="#d3d3d3">B₂</text>
</g>
<!-- node2&#45;&gt;node5 -->
<g id="edge4" class="edge">
<title>node2-&gt;node5</title>
<path fill="none" stroke="#d3d3d3" d="M106.0281,-87.8314C107.3115,-80.131 108.8376,-70.9743 110.2639,-62.4166"/>
<polygon fill="#d3d3d3" stroke="#d3d3d3" points="113.7394,-62.8526 111.9311,-52.4133 106.8347,-61.7018 113.7394,-62.8526"/>
</g>
<!-- node6 -->
<g id="node6" class="node">
<title>node6</title>
<path fill="none" stroke="#d3d3d3" d="M202,-52C202,-52 172,-52 172,-52 166,-52 160,-46 160,-40 160,-40 160,-28 160,-28 160,-22 166,-16 172,-16 172,-16 202,-16 202,-16 208,-16 214,-22 214,-28 214,-28 214,-40 214,-40 214,-46 208,-52 202,-52"/>
<text text-anchor="start" x="177.0817" y="-29.8" font-family="consolas" font-size="14.00" fill="#d3d3d3">B₃</text>
</g>
<!-- node3&#45;&gt;node6 -->
<g id="edge5" class="edge">
<title>node3-&gt;node6</title>
<path fill="none" stroke="#d3d3d3" d="M195.9719,-87.8314C194.6885,-80.131 193.1624,-70.9743 191.7361,-62.4166"/>
<polygon fill="#d3d3d3" stroke="#d3d3d3" points="195.1653,-61.7018 190.0689,-52.4133 188.2606,-62.8526 195.1653,-61.7018"/>
</g>
<!-- node7 -->
<g id="node7" class="node">
<title>node7</title>
<path fill="none" stroke="#d3d3d3" d="M274,-52C274,-52 244,-52 244,-52 238,-52 232,-46 232,-40 232,-40 232,-28 232,-28 232,-22 238,-16 244,-16 244,-16 274,-16 274,-16 280,-16 286,-22 286,-28 286,-28 286,-40 286,-40 286,-46 280,-52 274,-52"/>
<text text-anchor="start" x="249.0817" y="-29.8" font-family="consolas" font-size="14.00" fill="#d3d3d3">B₄</text>
</g>
<!-- node3&#45;&gt;node7 -->
<g id="edge6" class="edge">
<title>node3-&gt;node7</title>
<path fill="none" stroke="#d3d3d3" d="M214.1405,-87.8314C221.1217,-79.454 229.5391,-69.3531 237.1876,-60.1749"/>
<polygon fill="#d3d3d3" stroke="#d3d3d3" points="239.9425,-62.3362 243.6556,-52.4133 234.5649,-57.8548 239.9425,-62.3362"/>
</g>
</g>
</svg>