<?xml version="1.0" encoding="UTF-8" standalone="no"?><!DOCTYPE svg PUBLIC "-//W3C//DTD SVG 1.1//EN" "http://www.w3.org/Graphics/SVG/1.1/DTD/svg11.dtd"><!-- Generated by graphviz version 2.40.1 (20161225.0304)
 --><!-- Title: R Pages: 1 --><svg xmlns="http://www.w3.org/2000/svg" xmlns:xlink="http://www.w3.org/1999/xlink" width="310pt" height="245pt" viewBox="0.00 0.00 310.00 244.80">
<g id="graph0" class="graph" transform="scale(1 1) rotate(0) translate(4 240.8)">
<title>R</title>
<g id="clust1" class="cluster">
<title>cluster_2</title>
<polygon fill="transparent" stroke="transparent" points="8,-8 8,-228.8 294,-228.8 294,-8 8,-8"/>
<text text-anchor="middle" x="151" y="-212.2" font-family="consolas" font-size="14.00" fill="#d3d3d3">H(B₁)&lt;H(B₂) | H(B₃)&gt;H(B₄)</text>
</g>
<!-- node15 -->
<g id="node1" class="node">
<title>node15</title>
<path fill="none" stroke="#d3d3d3" d="M210.8199,-196C210.8199,-196 73.1801,-196 73.1801,-196 67.1801,-196 61.1801,-190 61.1801,-184 61.1801,-184 61.1801,-172 61.1801,-172 61.1801,-166 67.1801,-160 73.1801,-160 73.1801,-160 210.8199,-160 210.8199,-160 216.8199,-160 222.8199,-166 222.8199,-172 222.8199,-172 222.8199,-184 222.8199,-184 222.8199,-190 216.8199,-196 210.8199,-196"/>
<text text-anchor="start" x="69.0901" y="-173.8" font-family="consolas" font-size="14.00" fill="#d3d3d3">C(C(B₁,B₂),C(B₃,B₄))</text>
</g>
<!-- node16 -->
<g id="node2" class="node">
<title>node16</title>
<path fill="none" stroke="#d3d3d3" d="M129.8312,-124C129.8312,-124 76.1688,-124 76.1688,-124 70.1688,-124 64.1688,-118 64.1688,-112 64.1688,-112 64.1688,-100 64.1688,-100 64.1688,-94 70.1688,-88 76.1688,-88 76.1688,-88 129.8312,-88 129.8312,-88 135.8312,-88 141.8312,-94 141.8312,-100 141.8312,-100 141.8312,-112 141.8312,-112 141.8312,-118 135.8312,-124 129.8312,-124"/>
<text text-anchor="start" x="72.0845" y="-101.8" font-family="consolas" font-size="14.00" fill="#d3d3d3">C(B₁,B₂)</text>
</g>
<!-- node15&#45;&gt;node16 -->
<g id="edge1" class="edge">
<title>node15-&gt;node16</title>
<path fill="none" stroke="#d3d3d3" d="M132.1587,-159.8314C127.8043,-151.7925 122.5902,-142.1666 117.7831,-133.2918"/>
<polygon fill="#d3d3d3" stroke="#d3d3d3" points="120.8143,-131.5392 112.9739,-124.4133 114.6592,-134.8732 120.8143,-131.5392"/>
</g>
<!-- node17 -->
<g id="node3" class="node">
<title>node17</title>
<path fill="none" stroke="#d3d3d3" d="M225.8312,-124C225.8312,-124 172.1688,-124 172.1688,-124 166.1688,-124 160.1688,-118 160.1688,-112 160.1688,-112 160.1688,-100 160.1688,-100 160.1688,-94 166.1688,-88 172.1688,-88 172.1688,-88 225.8312,-88 225.8312,-88 231.8312,-88 237.8312,-94 237.8312,-100 237.8312,-100 237.8312,-112 237.8312,-112 237.8312,-118 231.8312,-124 225.8312,-124"/>
<text text-anchor="start" x="168.0845" y="-101.8" font-family="consolas" font-size="14.00" fill="#d3d3d3">C(B₃,B₄)</text>
</g>
<!-- node15&#45;&gt;node17 -->
<g id="edge2" class="edge">
<title>node15-&gt;node17</title>
<path fill="none" stroke="#d3d3d3" d="M156.3835,-159.8314C162.9486,-151.5386 170.8507,-141.557 178.0578,-132.4533"/>
<polygon fill="#d3d3d3" stroke="#d3d3d3" points="180.9599,-134.4262 184.4228,-124.4133 175.4716,-130.0813 180.9599,-134.4262"/>
</g>
<!-- node18 -->
<g id="node4" class="node">
<title>node18</title>
<path fill="none" stroke="#d3d3d3" d="M58,-52C58,-52 28,-52 28,-52 22,-52 16,-46 16,-40 16,-40 16,-28 16,-28 16,-22 22,-16 28,-16 28,-16 58,-16 58,-16 64,-16 70,-22 70,-28 70,-28 70,-40 70,-40 70,-46 64,-52 58,-52"/>
<text text-anchor="start" x="33.0817" y="-29.8" font-family="consolas" font-size="14.00" fill="#d3d3d3">B₁</text>
</g>
<!-- node16&#45;&gt;node18 -->
<g id="edge3" class="edge">
<title>node16-&gt;node18</title>
<path fill="none" stroke="#d3d3d3" d="M87.8595,-87.8314C80.8783,-79.454 72.4609,-69.3531 64.8124,-60.1749"/>
<polygon fill="#d3d3d3" stroke="#d3d3d3" points="67.4351,-57.8548 58.3444,-52.4133 62.0575,-62.3362 67.4351,-57.8548"/>
</g>
<!-- node19 -->
<g id="node5" class="node">
<title>node19</title>
<path fill="none" stroke="#d3d3d3" d="M130,-52C130,-52 100,-52 100,-52 94,-52 88,-46 88,-40 88,-40 88,-28 88,-28 88,-22 94,-16 100,-16 100,-16 130,-16 130,-16 136,-16 142,-22 142,-28 142,-28 142,-40 142,-40 142,-46 136,-52 130,-52"/>
<text text-anchor="start" x="105.0817" y="-29.8" font-family="consolas" font-size="14.00" fill="#d3d3d3">B₂</text>
</g>
<!-- node16&#45;&gt;node19 -->
<g id="edge4" class="edge">
<title>node16-&gt;node19</title>
<path fill="none" stroke="#d3d3d3" d="M106.0281,-87.8314C107.3115,-80.131 108.8376,-70.9743 110.2639,-62.4166"/>
<polygon fill="#d3d3d3" stroke="#d3d3d3" points="113.7394,-62.8526 111.9311,-52.4133 106.8347,-61.7018 113.7394,-62.8526"/>
</g>
<!-- node20 -->
<g id="node6" class="node">
<title>node20</title>
<path fill="none" stroke="#d3d3d3" d="M202,-52C202,-52 172,-52 172,-52 166,-52 160,-46 160,-40 160,-40 160,-28 160,-28 160,-22 166,-16 172,-16 172,-16 202,-16 202,-16 208,-16 214,-22 214,-28 214,-28 214,-40 214,-40 214,-46 208,-52 202,-52"/>
<text text-anchor="start" x="177.0817" y="-29.8" font-family="consolas" font-size="14.00" fill="#d3d3d3">B₄</text>
</g>
<!-- node17&#45;&gt;node20 -->
<g id="edge5" class="edge">
<title>node17-&gt;node20</title>
<path fill="none" stroke="#0000ff" stroke-width="2" d="M195.9719,-87.8314C194.6885,-80.131 193.1624,-70.9743 191.7361,-62.4166"/>
<polygon fill="#0000ff" stroke="#0000ff" stroke-width="2" points="195.1653,-61.7018 190.0689,-52.4133 188.2606,-62.8526 195.1653,-61.7018"/>
</g>
<!-- node21 -->
<g id="node7" class="node">
<title>node21</title>
<path fill="none" stroke="#d3d3d3" d="M274,-52C274,-52 244,-52 244,-52 238,-52 232,-46 232,-40 232,-40 232,-28 232,-28 232,-22 238,-16 244,-16 244,-16 274,-16 274,-16 280,-16 286,-22 286,-28 286,-28 286,-40 286,-40 286,-46 280,-52 274,-52"/>
<text text-anchor="start" x="249.0817" y="-29.8" font-family="consolas" font-size="14.00" fill="#d3d3d3">B₃</text>
</g>
<!-- node17&#45;&gt;node21 -->
<g id="edge6" class="edge">
<title>node17-&gt;node21</title>
<path fill="none" stroke="#0000ff" stroke-width="2" d="M214.1405,-87.8314C221.1217,-79.454 229.5391,-69.3531 237.1876,-60.1749"/>
<polygon fill="#0000ff" stroke="#0000ff" stroke-width="2" points="239.9425,-62.3362 243.6556,-52.4133 234.5649,-57.8548 239.9425,-62.3362"/>
</g>
</g>
</svg>