<?xml version="1.0" encoding="UTF-8" standalone="no"?><!DOCTYPE svg PUBLIC "-//W3C//DTD SVG 1.1//EN" "http://www.w3.org/Graphics/SVG/1.1/DTD/svg11.dtd"><!-- Generated by graphviz version 2.40.1 (20161225.0304)
 --><!-- Title: R Pages: 1 --><svg xmlns="http://www.w3.org/2000/svg" xmlns:xlink="http://www.w3.org/1999/xlink" width="166pt" height="173pt" viewBox="0.00 0.00 166.00 172.80">
<g id="graph0" class="graph" transform="scale(1 1) rotate(0) translate(4 168.8)">
<title>R</title>
<g id="clust1" class="cluster">
<title>cluster_3</title>
<polygon fill="transparent" stroke="transparent" points="8,-8 8,-156.8 150,-156.8 150,-8 8,-8"/>
<text text-anchor="middle" x="79" y="-140.2" font-family="consolas" font-size="14.00" fill="#d3d3d3">H(B₁)&lt;H(B₂)</text>
</g>
<!-- node23 -->
<g id="node1" class="node">
<title>node23</title>
<path fill="none" stroke="#d3d3d3" d="M105.8312,-124C105.8312,-124 52.1688,-124 52.1688,-124 46.1688,-124 40.1688,-118 40.1688,-112 40.1688,-112 40.1688,-100 40.1688,-100 40.1688,-94 46.1688,-88 52.1688,-88 52.1688,-88 105.8312,-88 105.8312,-88 111.8312,-88 117.8312,-94 117.8312,-100 117.8312,-100 117.8312,-112 117.8312,-112 117.8312,-118 111.8312,-124 105.8312,-124"/>
<text text-anchor="start" x="48.0845" y="-101.8" font-family="consolas" font-size="14.00" fill="#d3d3d3">C(B₁,B₂)</text>
</g>
<!-- node25 -->
<g id="node2" class="node">
<title>node25</title>
<path fill="none" stroke="#d3d3d3" d="M58,-52C58,-52 28,-52 28,-52 22,-52 16,-46 16,-40 16,-40 16,-28 16,-28 16,-22 22,-16 28,-16 28,-16 58,-16 58,-16 64,-16 70,-22 70,-28 70,-28 70,-40 70,-40 70,-46 64,-52 58,-52"/>
<text text-anchor="start" x="33.0817" y="-29.8" font-family="consolas" font-size="14.00" fill="#d3d3d3">B₁</text>
</g>
<!-- node23&#45;&gt;node25 -->
<g id="edge1" class="edge">
<title>node23-&gt;node25</title>
<path fill="none" stroke="#0000ff" stroke-width="2" d="M69.9157,-87.8314C65.9385,-79.8771 61.1845,-70.369 56.7861,-61.5723"/>
<polygon fill="#0000ff" stroke="#0000ff" stroke-width="2" points="59.8093,-59.7923 52.2066,-52.4133 53.5483,-62.9228 59.8093,-59.7923"/>
</g>
<!-- node26 -->
<g id="node3" class="node">
<title>node26</title>
<path fill="none" stroke="#d3d3d3" d="M130,-52C130,-52 100,-52 100,-52 94,-52 88,-46 88,-40 88,-40 88,-28 88,-28 88,-22 94,-16 100,-16 100,-16 130,-16 130,-16 136,-16 142,-22 142,-28 142,-28 142,-40 142,-40 142,-46 136,-52 130,-52"/>
<text text-anchor="start" x="105.0817" y="-29.8" font-family="consolas" font-size="14.00" fill="#d3d3d3">B₂</text>
</g>
<!-- node23&#45;&gt;node26 -->
<g id="edge2" class="edge">
<title>node23-&gt;node26</title>
<path fill="none" stroke="#0000ff" stroke-width="2" d="M88.0843,-87.8314C92.0615,-79.8771 96.8155,-70.369 101.2139,-61.5723"/>
<polygon fill="#0000ff" stroke="#0000ff" stroke-width="2" points="104.4517,-62.9228 105.7934,-52.4133 98.1907,-59.7923 104.4517,-62.9228"/>
</g>
</g>
</svg>