<?xml version="1.0" encoding="UTF-8" standalone="no"?><!DOCTYPE svg PUBLIC "-//W3C//DTD SVG 1.1//EN" "http://www.w3.org/Graphics/SVG/1.1/DTD/svg11.dtd"><!-- Generated by graphviz version 2.40.1 (20161225.0304)
 --><!-- Title: R Pages: 1 --><svg xmlns="http://www.w3.org/2000/svg" xmlns:xlink="http://www.w3.org/1999/xlink" width="1192pt" height="245pt" viewBox="0.00 0.00 1192.00 244.80">
<g id="graph0" class="graph" transform="scale(1 1) rotate(0) translate(4 240.8)">
<title>R</title>
<g id="clust1" class="cluster">
<title>cluster_0</title>
<polygon fill="transparent" stroke="transparent" points="8,-8 8,-228.8 294,-228.8 294,-8 8,-8"/>
<text text-anchor="middle" x="151" y="-212.2" font-family="consolas" font-size="14.00" fill="#d3d3d3">H(B₁)&lt;H(B₂) | H(B₃)&lt;H(B₄)</text>
</g>
<g id="clust2" class="cluster">
<title>cluster_1</title>
<polygon fill="transparent" stroke="transparent" points="302,-8 302,-228.8 588,-228.8 588,-8 302,-8"/>
<text text-anchor="middle" x="445" y="-212.2" font-family="consolas" font-size="14.00" fill="#d3d3d3">H(B₁)&gt;H(B₂) | H(B₃)&lt;H(B₄)</text>
</g>
<g id="clust3" class="cluster">
<title>cluster_2</title>
<polygon fill="transparent" stroke="transparent" points="596,-8 596,-228.8 882,-228.8 882,-8 596,-8"/>
<text text-anchor="middle" x="739" y="-212.2" font-family="consolas" font-size="14.00" fill="#d3d3d3">H(B₁)&lt;H(B₂) | H(B₃)&gt;H(B₄)</text>
</g>
<g id="clust4" class="cluster">
<title>cluster_3</title>
<polygon fill="transparent" stroke="transparent" points="890,-8 890,-228.8 1176,-228.8 1176,-8 890,-8"/>
<text text-anchor="middle" x="1033" y="-212.2" font-family="consolas" font-size="14.00" fill="#d3d3d3">H(B₁)&gt;H(B₂) | H(B₃)&gt;H(B₄)</text>
</g>
<!-- node1 -->
<g id="node1" class="node">
<title>node1</title>
<path fill="none" stroke="#d3d3d3" d="M215.3199,-196C215.3199,-196 70.6801,-196 70.6801,-196 64.6801,-196 58.6801,-190 58.6801,-184 58.6801,-184 58.6801,-172 58.6801,-172 58.6801,-166 64.6801,-160 70.6801,-160 70.6801,-160 215.3199,-160 215.3199,-160 221.3199,-160 227.3199,-166 227.3199,-172 227.3199,-172 227.3199,-184 227.3199,-184 227.3199,-190 221.3199,-196 215.3199,-196"/>
<text text-anchor="start" x="66.5901" y="-173.8" font-family="consolas" font-size="14.00" fill="#d3d3d3">C(C(B₁, B₂),C(B₃, B₄))</text>
</g>
<!-- node2 -->
<g id="node2" class="node">
<title>node2</title>
<path fill="none" stroke="#d3d3d3" d="M129.8312,-124C129.8312,-124 76.1688,-124 76.1688,-124 70.1688,-124 64.1688,-118 64.1688,-112 64.1688,-112 64.1688,-100 64.1688,-100 64.1688,-94 70.1688,-88 76.1688,-88 76.1688,-88 129.8312,-88 129.8312,-88 135.8312,-88 141.8312,-94 141.8312,-100 141.8312,-100 141.8312,-112 141.8312,-112 141.8312,-118 135.8312,-124 129.8312,-124"/>
<text text-anchor="start" x="72.0845" y="-101.8" font-family="consolas" font-size="14.00" fill="#d3d3d3">C(B₁,B₂)</text>
</g>
<!-- node1&#45;&gt;node2 -->
<g id="edge1" class="edge">
<title>node1-&gt;node2</title>
<path fill="none" stroke="#d3d3d3" d="M132.9063,-159.8314C128.4403,-151.7925 123.0925,-142.1666 118.1621,-133.2918"/>
<polygon fill="#d3d3d3" stroke="#d3d3d3" points="121.1456,-131.4551 113.2296,-124.4133 115.0265,-134.8546 121.1456,-131.4551"/>
</g>
<!-- node3 -->
<g id="node3" class="node">
<title>node3</title>
<path fill="none" stroke="#d3d3d3" d="M225.8312,-124C225.8312,-124 172.1688,-124 172.1688,-124 166.1688,-124 160.1688,-118 160.1688,-112 160.1688,-112 160.1688,-100 160.1688,-100 160.1688,-94 166.1688,-88 172.1688,-88 172.1688,-88 225.8312,-88 225.8312,-88 231.8312,-88 237.8312,-94 237.8312,-100 237.8312,-100 237.8312,-112 237.8312,-112 237.8312,-118 231.8312,-124 225.8312,-124"/>
<text text-anchor="start" x="168.0845" y="-101.8" font-family="consolas" font-size="14.00" fill="#d3d3d3">C(B₃,B₄)</text>
</g>
<!-- node1&#45;&gt;node3 -->
<g id="edge2" class="edge">
<title>node1-&gt;node3</title>
<path fill="none" stroke="#d3d3d3" d="M157.1312,-159.8314C163.5811,-151.5386 171.3445,-141.557 178.4252,-132.4533"/>
<polygon fill="#d3d3d3" stroke="#d3d3d3" points="181.3019,-134.4556 184.6786,-124.4133 175.7764,-130.158 181.3019,-134.4556"/>
</g>
<!-- node4 -->
<g id="node4" class="node">
<title>node4</title>
<path fill="none" stroke="#d3d3d3" d="M58,-52C58,-52 28,-52 28,-52 22,-52 16,-46 16,-40 16,-40 16,-28 16,-28 16,-22 22,-16 28,-16 28,-16 58,-16 58,-16 64,-16 70,-22 70,-28 70,-28 70,-40 70,-40 70,-46 64,-52 58,-52"/>
<text text-anchor="start" x="33.0817" y="-29.8" font-family="consolas" font-size="14.00" fill="#d3d3d3">B₁</text>
</g>
<!-- node2&#45;&gt;node4 -->
<g id="edge3" class="edge">
<title>node2-&gt;node4</title>
<path fill="none" stroke="#d3d3d3" d="M87.8595,-87.8314C80.8783,-79.454 72.4609,-69.3531 64.8124,-60.1749"/>
<polygon fill="#d3d3d3" stroke="#d3d3d3" points="67.4351,-57.8548 58.3444,-52.4133 62.0575,-62.3362 67.4351,-57.8548"/>
</g>
<!-- node5 -->
<g id="node5" class="node">
<title>node5</title>
<path fill="none" stroke="#d3d3d3" d="M130,-52C130,-52 100,-52 100,-52 94,-52 88,-46 88,-40 88,-40 88,-28 88,-28 88,-22 94,-16 100,-16 100,-16 130,-16 130,-16 136,-16 142,-22 142,-28 142,-28 142,-40 142,-40 142,-46 136,-52 130,-52"/>
<text text-anchor="start" x="105.0817" y="-29.8" font-family="consolas" font-size="14.00" fill="#d3d3d3">B₂</text>
</g>
<!-- node2&#45;&gt;node5 -->
<g id="edge4" class="edge">
<title>node2-&gt;node5</title>
<path fill="none" stroke="#d3d3d3" d="M106.0281,-87.8314C107.3115,-80.131 108.8376,-70.9743 110.2639,-62.4166"/>
<polygon fill="#d3d3d3" stroke="#d3d3d3" points="113.7394,-62.8526 111.9311,-52.4133 106.8347,-61.7018 113.7394,-62.8526"/>
</g>
<!-- node6 -->
<g id="node6" class="node">
<title>node6</title>
<path fill="none" stroke="#d3d3d3" d="M202,-52C202,-52 172,-52 172,-52 166,-52 160,-46 160,-40 160,-40 160,-28 160,-28 160,-22 166,-16 172,-16 172,-16 202,-16 202,-16 208,-16 214,-22 214,-28 214,-28 214,-40 214,-40 214,-46 208,-52 202,-52"/>
<text text-anchor="start" x="177.0817" y="-29.8" font-family="consolas" font-size="14.00" fill="#d3d3d3">B₃</text>
</g>
<!-- node3&#45;&gt;node6 -->
<g id="edge5" class="edge">
<title>node3-&gt;node6</title>
<path fill="none" stroke="#d3d3d3" d="M195.9719,-87.8314C194.6885,-80.131 193.1624,-70.9743 191.7361,-62.4166"/>
<polygon fill="#d3d3d3" stroke="#d3d3d3" points="195.1653,-61.7018 190.0689,-52.4133 188.2606,-62.8526 195.1653,-61.7018"/>
</g>
<!-- node7 -->
<g id="node7" class="node">
<title>node7</title>
<path fill="none" stroke="#d3d3d3" d="M274,-52C274,-52 244,-52 244,-52 238,-52 232,-46 232,-40 232,-40 232,-28 232,-28 232,-22 238,-16 244,-16 244,-16 274,-16 274,-16 280,-16 286,-22 286,-28 286,-28 286,-40 286,-40 286,-46 280,-52 274,-52"/>
<text text-anchor="start" x="249.0817" y="-29.8" font-family="consolas" font-size="14.00" fill="#d3d3d3">B₄</text>
</g>
<!-- node3&#45;&gt;node7 -->
<g id="edge6" class="edge">
<title>node3-&gt;node7</title>
<path fill="none" stroke="#d3d3d3" d="M214.1405,-87.8314C221.1217,-79.454 229.5391,-69.3531 237.1876,-60.1749"/>
<polygon fill="#d3d3d3" stroke="#d3d3d3" points="239.9425,-62.3362 243.6556,-52.4133 234.5649,-57.8548 239.9425,-62.3362"/>
</g>
<!-- node8 -->
<g id="node8" class="node">
<title>node8</title>
<path fill="none" stroke="#d3d3d3" d="M504.8199,-196C504.8199,-196 367.1801,-196 367.1801,-196 361.1801,-196 355.1801,-190 355.1801,-184 355.1801,-184 355.1801,-172 355.1801,-172 355.1801,-166 361.1801,-160 367.1801,-160 367.1801,-160 504.8199,-160 504.8199,-160 510.8199,-160 516.8199,-166 516.8199,-172 516.8199,-172 516.8199,-184 516.8199,-184 516.8199,-190 510.8199,-196 504.8199,-196"/>
<text text-anchor="start" x="363.0901" y="-173.8" font-family="consolas" font-size="14.00" fill="#d3d3d3">C(C(B₁,B₂),C(B₃,B₄))</text>
</g>
<!-- node9 -->
<g id="node9" class="node">
<title>node9</title>
<path fill="none" stroke="#d3d3d3" d="M423.8312,-124C423.8312,-124 370.1688,-124 370.1688,-124 364.1688,-124 358.1688,-118 358.1688,-112 358.1688,-112 358.1688,-100 358.1688,-100 358.1688,-94 364.1688,-88 370.1688,-88 370.1688,-88 423.8312,-88 423.8312,-88 429.8312,-88 435.8312,-94 435.8312,-100 435.8312,-100 435.8312,-112 435.8312,-112 435.8312,-118 429.8312,-124 423.8312,-124"/>
<text text-anchor="start" x="366.0845" y="-101.8" font-family="consolas" font-size="14.00" fill="#d3d3d3">C(B₁,B₂)</text>
</g>
<!-- node8&#45;&gt;node9 -->
<g id="edge7" class="edge">
<title>node8-&gt;node9</title>
<path fill="none" stroke="#d3d3d3" d="M426.1587,-159.8314C421.8043,-151.7925 416.5902,-142.1666 411.7831,-133.2918"/>
<polygon fill="#d3d3d3" stroke="#d3d3d3" points="414.8143,-131.5392 406.9739,-124.4133 408.6592,-134.8732 414.8143,-131.5392"/>
</g>
<!-- node10 -->
<g id="node10" class="node">
<title>node10</title>
<path fill="none" stroke="#d3d3d3" d="M519.8312,-124C519.8312,-124 466.1688,-124 466.1688,-124 460.1688,-124 454.1688,-118 454.1688,-112 454.1688,-112 454.1688,-100 454.1688,-100 454.1688,-94 460.1688,-88 466.1688,-88 466.1688,-88 519.8312,-88 519.8312,-88 525.8312,-88 531.8312,-94 531.8312,-100 531.8312,-100 531.8312,-112 531.8312,-112 531.8312,-118 525.8312,-124 519.8312,-124"/>
<text text-anchor="start" x="462.0845" y="-101.8" font-family="consolas" font-size="14.00" fill="#d3d3d3">C(B₃,B₄)</text>
</g>
<!-- node8&#45;&gt;node10 -->
<g id="edge8" class="edge">
<title>node8-&gt;node10</title>
<path fill="none" stroke="#d3d3d3" d="M450.3835,-159.8314C456.9486,-151.5386 464.8507,-141.557 472.0578,-132.4533"/>
<polygon fill="#d3d3d3" stroke="#d3d3d3" points="474.9599,-134.4262 478.4228,-124.4133 469.4716,-130.0813 474.9599,-134.4262"/>
</g>
<!-- node11 -->
<g id="node11" class="node">
<title>node11</title>
<path fill="none" stroke="#d3d3d3" d="M352,-52C352,-52 322,-52 322,-52 316,-52 310,-46 310,-40 310,-40 310,-28 310,-28 310,-22 316,-16 322,-16 322,-16 352,-16 352,-16 358,-16 364,-22 364,-28 364,-28 364,-40 364,-40 364,-46 358,-52 352,-52"/>
<text text-anchor="start" x="327.0817" y="-29.8" font-family="consolas" font-size="14.00" fill="#d3d3d3">B₂</text>
</g>
<!-- node9&#45;&gt;node11 -->
<g id="edge9" class="edge">
<title>node9-&gt;node11</title>
<path fill="none" stroke="#0000ff" stroke-width="2" d="M381.8595,-87.8314C374.8783,-79.454 366.4609,-69.3531 358.8124,-60.1749"/>
<polygon fill="#0000ff" stroke="#0000ff" stroke-width="2" points="361.4351,-57.8548 352.3444,-52.4133 356.0575,-62.3362 361.4351,-57.8548"/>
</g>
<!-- node12 -->
<g id="node12" class="node">
<title>node12</title>
<path fill="none" stroke="#d3d3d3" d="M424,-52C424,-52 394,-52 394,-52 388,-52 382,-46 382,-40 382,-40 382,-28 382,-28 382,-22 388,-16 394,-16 394,-16 424,-16 424,-16 430,-16 436,-22 436,-28 436,-28 436,-40 436,-40 436,-46 430,-52 424,-52"/>
<text text-anchor="start" x="399.0817" y="-29.8" font-family="consolas" font-size="14.00" fill="#d3d3d3">B₁</text>
</g>
<!-- node9&#45;&gt;node12 -->
<g id="edge10" class="edge">
<title>node9-&gt;node12</title>
<path fill="none" stroke="#0000ff" stroke-width="2" d="M400.0281,-87.8314C401.3115,-80.131 402.8376,-70.9743 404.2639,-62.4166"/>
<polygon fill="#0000ff" stroke="#0000ff" stroke-width="2" points="407.7394,-62.8526 405.9311,-52.4133 400.8347,-61.7018 407.7394,-62.8526"/>
</g>
<!-- node13 -->
<g id="node13" class="node">
<title>node13</title>
<path fill="none" stroke="#d3d3d3" d="M496,-52C496,-52 466,-52 466,-52 460,-52 454,-46 454,-40 454,-40 454,-28 454,-28 454,-22 460,-16 466,-16 466,-16 496,-16 496,-16 502,-16 508,-22 508,-28 508,-28 508,-40 508,-40 508,-46 502,-52 496,-52"/>
<text text-anchor="start" x="471.0817" y="-29.8" font-family="consolas" font-size="14.00" fill="#d3d3d3">B₃</text>
</g>
<!-- node10&#45;&gt;node13 -->
<g id="edge11" class="edge">
<title>node10-&gt;node13</title>
<path fill="none" stroke="#d3d3d3" d="M489.9719,-87.8314C488.6885,-80.131 487.1624,-70.9743 485.7361,-62.4166"/>
<polygon fill="#d3d3d3" stroke="#d3d3d3" points="489.1653,-61.7018 484.0689,-52.4133 482.2606,-62.8526 489.1653,-61.7018"/>
</g>
<!-- node14 -->
<g id="node14" class="node">
<title>node14</title>
<path fill="none" stroke="#d3d3d3" d="M568,-52C568,-52 538,-52 538,-52 532,-52 526,-46 526,-40 526,-40 526,-28 526,-28 526,-22 532,-16 538,-16 538,-16 568,-16 568,-16 574,-16 580,-22 580,-28 580,-28 580,-40 580,-40 580,-46 574,-52 568,-52"/>
<text text-anchor="start" x="543.0817" y="-29.8" font-family="consolas" font-size="14.00" fill="#d3d3d3">B₄</text>
</g>
<!-- node10&#45;&gt;node14 -->
<g id="edge12" class="edge">
<title>node10-&gt;node14</title>
<path fill="none" stroke="#d3d3d3" d="M508.1405,-87.8314C515.1217,-79.454 523.5391,-69.3531 531.1876,-60.1749"/>
<polygon fill="#d3d3d3" stroke="#d3d3d3" points="533.9425,-62.3362 537.6556,-52.4133 528.5649,-57.8548 533.9425,-62.3362"/>
</g>
<!-- node15 -->
<g id="node15" class="node">
<title>node15</title>
<path fill="none" stroke="#d3d3d3" d="M798.8199,-196C798.8199,-196 661.1801,-196 661.1801,-196 655.1801,-196 649.1801,-190 649.1801,-184 649.1801,-184 649.1801,-172 649.1801,-172 649.1801,-166 655.1801,-160 661.1801,-160 661.1801,-160 798.8199,-160 798.8199,-160 804.8199,-160 810.8199,-166 810.8199,-172 810.8199,-172 810.8199,-184 810.8199,-184 810.8199,-190 804.8199,-196 798.8199,-196"/>
<text text-anchor="start" x="657.0901" y="-173.8" font-family="consolas" font-size="14.00" fill="#d3d3d3">C(C(B₁,B₂),C(B₃,B₄))</text>
</g>
<!-- node16 -->
<g id="node16" class="node">
<title>node16</title>
<path fill="none" stroke="#d3d3d3" d="M717.8312,-124C717.8312,-124 664.1688,-124 664.1688,-124 658.1688,-124 652.1688,-118 652.1688,-112 652.1688,-112 652.1688,-100 652.1688,-100 652.1688,-94 658.1688,-88 664.1688,-88 664.1688,-88 717.8312,-88 717.8312,-88 723.8312,-88 729.8312,-94 729.8312,-100 729.8312,-100 729.8312,-112 729.8312,-112 729.8312,-118 723.8312,-124 717.8312,-124"/>
<text text-anchor="start" x="660.0845" y="-101.8" font-family="consolas" font-size="14.00" fill="#d3d3d3">C(B₁,B₂)</text>
</g>
<!-- node15&#45;&gt;node16 -->
<g id="edge13" class="edge">
<title>node15-&gt;node16</title>
<path fill="none" stroke="#d3d3d3" d="M720.1587,-159.8314C715.8043,-151.7925 710.5902,-142.1666 705.7831,-133.2918"/>
<polygon fill="#d3d3d3" stroke="#d3d3d3" points="708.8143,-131.5392 700.9739,-124.4133 702.6592,-134.8732 708.8143,-131.5392"/>
</g>
<!-- node17 -->
<g id="node17" class="node">
<title>node17</title>
<path fill="none" stroke="#d3d3d3" d="M813.8312,-124C813.8312,-124 760.1688,-124 760.1688,-124 754.1688,-124 748.1688,-118 748.1688,-112 748.1688,-112 748.1688,-100 748.1688,-100 748.1688,-94 754.1688,-88 760.1688,-88 760.1688,-88 813.8312,-88 813.8312,-88 819.8312,-88 825.8312,-94 825.8312,-100 825.8312,-100 825.8312,-112 825.8312,-112 825.8312,-118 819.8312,-124 813.8312,-124"/>
<text text-anchor="start" x="756.0845" y="-101.8" font-family="consolas" font-size="14.00" fill="#d3d3d3">C(B₃,B₄)</text>
</g>
<!-- node15&#45;&gt;node17 -->
<g id="edge14" class="edge">
<title>node15-&gt;node17</title>
<path fill="none" stroke="#d3d3d3" d="M744.3835,-159.8314C750.9486,-151.5386 758.8507,-141.557 766.0578,-132.4533"/>
<polygon fill="#d3d3d3" stroke="#d3d3d3" points="768.9599,-134.4262 772.4228,-124.4133 763.4716,-130.0813 768.9599,-134.4262"/>
</g>
<!-- node18 -->
<g id="node18" class="node">
<title>node18</title>
<path fill="none" stroke="#d3d3d3" d="M646,-52C646,-52 616,-52 616,-52 610,-52 604,-46 604,-40 604,-40 604,-28 604,-28 604,-22 610,-16 616,-16 616,-16 646,-16 646,-16 652,-16 658,-22 658,-28 658,-28 658,-40 658,-40 658,-46 652,-52 646,-52"/>
<text text-anchor="start" x="621.0817" y="-29.8" font-family="consolas" font-size="14.00" fill="#d3d3d3">B₁</text>
</g>
<!-- node16&#45;&gt;node18 -->
<g id="edge15" class="edge">
<title>node16-&gt;node18</title>
<path fill="none" stroke="#d3d3d3" d="M675.8595,-87.8314C668.8783,-79.454 660.4609,-69.3531 652.8124,-60.1749"/>
<polygon fill="#d3d3d3" stroke="#d3d3d3" points="655.4351,-57.8548 646.3444,-52.4133 650.0575,-62.3362 655.4351,-57.8548"/>
</g>
<!-- node19 -->
<g id="node19" class="node">
<title>node19</title>
<path fill="none" stroke="#d3d3d3" d="M718,-52C718,-52 688,-52 688,-52 682,-52 676,-46 676,-40 676,-40 676,-28 676,-28 676,-22 682,-16 688,-16 688,-16 718,-16 718,-16 724,-16 730,-22 730,-28 730,-28 730,-40 730,-40 730,-46 724,-52 718,-52"/>
<text text-anchor="start" x="693.0817" y="-29.8" font-family="consolas" font-size="14.00" fill="#d3d3d3">B₂</text>
</g>
<!-- node16&#45;&gt;node19 -->
<g id="edge16" class="edge">
<title>node16-&gt;node19</title>
<path fill="none" stroke="#d3d3d3" d="M694.0281,-87.8314C695.3115,-80.131 696.8376,-70.9743 698.2639,-62.4166"/>
<polygon fill="#d3d3d3" stroke="#d3d3d3" points="701.7394,-62.8526 699.9311,-52.4133 694.8347,-61.7018 701.7394,-62.8526"/>
</g>
<!-- node20 -->
<g id="node20" class="node">
<title>node20</title>
<path fill="none" stroke="#d3d3d3" d="M790,-52C790,-52 760,-52 760,-52 754,-52 748,-46 748,-40 748,-40 748,-28 748,-28 748,-22 754,-16 760,-16 760,-16 790,-16 790,-16 796,-16 802,-22 802,-28 802,-28 802,-40 802,-40 802,-46 796,-52 790,-52"/>
<text text-anchor="start" x="765.0817" y="-29.8" font-family="consolas" font-size="14.00" fill="#d3d3d3">B₄</text>
</g>
<!-- node17&#45;&gt;node20 -->
<g id="edge17" class="edge">
<title>node17-&gt;node20</title>
<path fill="none" stroke="#0000ff" stroke-width="2" d="M783.9719,-87.8314C782.6885,-80.131 781.1624,-70.9743 779.7361,-62.4166"/>
<polygon fill="#0000ff" stroke="#0000ff" stroke-width="2" points="783.1653,-61.7018 778.0689,-52.4133 776.2606,-62.8526 783.1653,-61.7018"/>
</g>
<!-- node21 -->
<g id="node21" class="node">
<title>node21</title>
<path fill="none" stroke="#d3d3d3" d="M862,-52C862,-52 832,-52 832,-52 826,-52 820,-46 820,-40 820,-40 820,-28 820,-28 820,-22 826,-16 832,-16 832,-16 862,-16 862,-16 868,-16 874,-22 874,-28 874,-28 874,-40 874,-40 874,-46 868,-52 862,-52"/>
<text text-anchor="start" x="837.0817" y="-29.8" font-family="consolas" font-size="14.00" fill="#d3d3d3">B₃</text>
</g>
<!-- node17&#45;&gt;node21 -->
<g id="edge18" class="edge">
<title>node17-&gt;node21</title>
<path fill="none" stroke="#0000ff" stroke-width="2" d="M802.1405,-87.8314C809.1217,-79.454 817.5391,-69.3531 825.1876,-60.1749"/>
<polygon fill="#0000ff" stroke="#0000ff" stroke-width="2" points="827.9425,-62.3362 831.6556,-52.4133 822.5649,-57.8548 827.9425,-62.3362"/>
</g>
<!-- node22 -->
<g id="node22" class="node">
<title>node22</title>
<path fill="none" stroke="#d3d3d3" d="M1092.8199,-196C1092.8199,-196 955.1801,-196 955.1801,-196 949.1801,-196 943.1801,-190 943.1801,-184 943.1801,-184 943.1801,-172 943.1801,-172 943.1801,-166 949.1801,-160 955.1801,-160 955.1801,-160 1092.8199,-160 1092.8199,-160 1098.8199,-160 1104.8199,-166 1104.8199,-172 1104.8199,-172 1104.8199,-184 1104.8199,-184 1104.8199,-190 1098.8199,-196 1092.8199,-196"/>
<text text-anchor="start" x="951.0901" y="-173.8" font-family="consolas" font-size="14.00" fill="#d3d3d3">C(C(B₁,B₂),C(B₃,B₄))</text>
</g>
<!-- node23 -->
<g id="node23" class="node">
<title>node23</title>
<path fill="none" stroke="#d3d3d3" d="M1011.8312,-124C1011.8312,-124 958.1688,-124 958.1688,-124 952.1688,-124 946.1688,-118 946.1688,-112 946.1688,-112 946.1688,-100 946.1688,-100 946.1688,-94 952.1688,-88 958.1688,-88 958.1688,-88 1011.8312,-88 1011.8312,-88 1017.8312,-88 1023.8312,-94 1023.8312,-100 1023.8312,-100 1023.8312,-112 1023.8312,-112 1023.8312,-118 1017.8312,-124 1011.8312,-124"/>
<text text-anchor="start" x="954.0845" y="-101.8" font-family="consolas" font-size="14.00" fill="#d3d3d3">C(B₁,B₂)</text>
</g>
<!-- node22&#45;&gt;node23 -->
<g id="edge19" class="edge">
<title>node22-&gt;node23</title>
<path fill="none" stroke="#d3d3d3" d="M1014.1587,-159.8314C1009.8043,-151.7925 1004.5902,-142.1666 999.7831,-133.2918"/>
<polygon fill="#d3d3d3" stroke="#d3d3d3" points="1002.8143,-131.5392 994.9739,-124.4133 996.6592,-134.8732 1002.8143,-131.5392"/>
</g>
<!-- node24 -->
<g id="node24" class="node">
<title>node24</title>
<path fill="none" stroke="#d3d3d3" d="M1107.8312,-124C1107.8312,-124 1054.1688,-124 1054.1688,-124 1048.1688,-124 1042.1688,-118 1042.1688,-112 1042.1688,-112 1042.1688,-100 1042.1688,-100 1042.1688,-94 1048.1688,-88 1054.1688,-88 1054.1688,-88 1107.8312,-88 1107.8312,-88 1113.8312,-88 1119.8312,-94 1119.8312,-100 1119.8312,-100 1119.8312,-112 1119.8312,-112 1119.8312,-118 1113.8312,-124 1107.8312,-124"/>
<text text-anchor="start" x="1050.0845" y="-101.8" font-family="consolas" font-size="14.00" fill="#d3d3d3">C(B₃,B₄)</text>
</g>
<!-- node22&#45;&gt;node24 -->
<g id="edge20" class="edge">
<title>node22-&gt;node24</title>
<path fill="none" stroke="#d3d3d3" d="M1038.3835,-159.8314C1044.9486,-151.5386 1052.8507,-141.557 1060.0578,-132.4533"/>
<polygon fill="#d3d3d3" stroke="#d3d3d3" points="1062.9599,-134.4262 1066.4228,-124.4133 1057.4716,-130.0813 1062.9599,-134.4262"/>
</g>
<!-- node25 -->
<g id="node25" class="node">
<title>node25</title>
<path fill="none" stroke="#d3d3d3" d="M940,-52C940,-52 910,-52 910,-52 904,-52 898,-46 898,-40 898,-40 898,-28 898,-28 898,-22 904,-16 910,-16 910,-16 940,-16 940,-16 946,-16 952,-22 952,-28 952,-28 952,-40 952,-40 952,-46 946,-52 940,-52"/>
<text text-anchor="start" x="915.0817" y="-29.8" font-family="consolas" font-size="14.00" fill="#d3d3d3">B₂</text>
</g>
<!-- node23&#45;&gt;node25 -->
<g id="edge21" class="edge">
<title>node23-&gt;node25</title>
<path fill="none" stroke="#0000ff" stroke-width="2" d="M969.8595,-87.8314C962.8783,-79.454 954.4609,-69.3531 946.8124,-60.1749"/>
<polygon fill="#0000ff" stroke="#0000ff" stroke-width="2" points="949.4351,-57.8548 940.3444,-52.4133 944.0575,-62.3362 949.4351,-57.8548"/>
</g>
<!-- node26 -->
<g id="node26" class="node">
<title>node26</title>
<path fill="none" stroke="#d3d3d3" d="M1012,-52C1012,-52 982,-52 982,-52 976,-52 970,-46 970,-40 970,-40 970,-28 970,-28 970,-22 976,-16 982,-16 982,-16 1012,-16 1012,-16 1018,-16 1024,-22 1024,-28 1024,-28 1024,-40 1024,-40 1024,-46 1018,-52 1012,-52"/>
<text text-anchor="start" x="987.0817" y="-29.8" font-family="consolas" font-size="14.00" fill="#d3d3d3">B₁</text>
</g>
<!-- node23&#45;&gt;node26 -->
<g id="edge22" class="edge">
<title>node23-&gt;node26</title>
<path fill="none" stroke="#0000ff" stroke-width="2" d="M988.0281,-87.8314C989.3115,-80.131 990.8376,-70.9743 992.2639,-62.4166"/>
<polygon fill="#0000ff" stroke="#0000ff" stroke-width="2" points="995.7394,-62.8526 993.9311,-52.4133 988.8347,-61.7018 995.7394,-62.8526"/>
</g>
<!-- node27 -->
<g id="node27" class="node">
<title>node27</title>
<path fill="none" stroke="#d3d3d3" d="M1084,-52C1084,-52 1054,-52 1054,-52 1048,-52 1042,-46 1042,-40 1042,-40 1042,-28 1042,-28 1042,-22 1048,-16 1054,-16 1054,-16 1084,-16 1084,-16 1090,-16 1096,-22 1096,-28 1096,-28 1096,-40 1096,-40 1096,-46 1090,-52 1084,-52"/>
<text text-anchor="start" x="1059.0817" y="-29.8" font-family="consolas" font-size="14.00" fill="#d3d3d3">B₄</text>
</g>
<!-- node24&#45;&gt;node27 -->
<g id="edge23" class="edge">
<title>node24-&gt;node27</title>
<path fill="none" stroke="#0000ff" stroke-width="2" d="M1077.9719,-87.8314C1076.6885,-80.131 1075.1624,-70.9743 1073.7361,-62.4166"/>
<polygon fill="#0000ff" stroke="#0000ff" stroke-width="2" points="1077.1653,-61.7018 1072.0689,-52.4133 1070.2606,-62.8526 1077.1653,-61.7018"/>
</g>
<!-- node28 -->
<g id="node28" class="node">
<title>node28</title>
<path fill="none" stroke="#d3d3d3" d="M1156,-52C1156,-52 1126,-52 1126,-52 1120,-52 1114,-46 1114,-40 1114,-40 1114,-28 1114,-28 1114,-22 1120,-16 1126,-16 1126,-16 1156,-16 1156,-16 1162,-16 1168,-22 1168,-28 1168,-28 1168,-40 1168,-40 1168,-46 1162,-52 1156,-52"/>
<text text-anchor="start" x="1131.0817" y="-29.8" font-family="consolas" font-size="14.00" fill="#d3d3d3">B₃</text>
</g>
<!-- node24&#45;&gt;node28 -->
<g id="edge24" class="edge">
<title>node24-&gt;node28</title>
<path fill="none" stroke="#0000ff" stroke-width="2" d="M1096.1405,-87.8314C1103.1217,-79.454 1111.5391,-69.3531 1119.1876,-60.1749"/>
<polygon fill="#0000ff" stroke="#0000ff" stroke-width="2" points="1121.9425,-62.3362 1125.6556,-52.4133 1116.5649,-57.8548 1121.9425,-62.3362"/>
</g>
</g>
</svg>