<?xml version="1.0" encoding="UTF-8" standalone="no"?><!DOCTYPE svg PUBLIC "-//W3C//DTD SVG 1.1//EN" "http://www.w3.org/Graphics/SVG/1.1/DTD/svg11.dtd"><!-- Generated by graphviz version 2.40.1 (20161225.0304)
 --><!-- Title: R Pages: 1 --><svg xmlns="http://www.w3.org/2000/svg" xmlns:xlink="http://www.w3.org/1999/xlink" width="1192pt" height="245pt" viewBox="0.00 0.00 1192.00 244.80">
<g id="graph0" class="graph" transform="scale(1 1) rotate(0) translate(4 240.8)">
<title>R</title>
<polygon fill="#ffffff" stroke="transparent" points="-4,4 -4,-240.8 1188,-240.8 1188,4 -4,4"/>
<g id="clust1" class="cluster">
<title>cluster_0</title>
<text text-anchor="middle" x="151" y="-212.2" font-family="Times,serif" font-size="14.00" fill="#000000">H(B1) &lt; H(B2) | H(B3) &lt; H(B4)</text>
</g>
<g id="clust2" class="cluster">
<title>cluster_1</title>
<text text-anchor="middle" x="445" y="-212.2" font-family="Times,serif" font-size="14.00" fill="#000000">H(B1) &gt; H(B2)| H(B3) &lt; H(B4)</text>
</g>
<g id="clust3" class="cluster">
<title>cluster_2</title>
<text text-anchor="middle" x="739" y="-212.2" font-family="Times,serif" font-size="14.00" fill="#000000">H(B1) &lt; H(B2)| H(B3) &gt; H(B4)</text>
</g>
<g id="clust4" class="cluster">
<title>cluster_3</title>
<text text-anchor="middle" x="1033" y="-212.2" font-family="Times,serif" font-size="14.00" fill="#000000">H(B1) &gt; H(B2)| H(B3) &gt; H(B4)</text>
</g>
<!-- node1 -->
<g id="node1" class="node">
<title>node1</title>
<path fill="none" stroke="#000000" d="M217.3201,-196C217.3201,-196 82.6799,-196 82.6799,-196 76.6799,-196 70.6799,-190 70.6799,-184 70.6799,-184 70.6799,-172 70.6799,-172 70.6799,-166 76.6799,-160 82.6799,-160 82.6799,-160 217.3201,-160 217.3201,-160 223.3201,-160 229.3201,-166 229.3201,-172 229.3201,-172 229.3201,-184 229.3201,-184 229.3201,-190 223.3201,-196 217.3201,-196"/>
<text text-anchor="middle" x="150" y="-173.8" font-family="Times,serif" font-size="14.00" fill="#000000">C(C(B1, B2), C(B3, B4))</text>
</g>
<!-- node2 -->
<g id="node2" class="node">
<title>node2</title>
<path fill="none" stroke="#000000" d="M130.3317,-124C130.3317,-124 79.6683,-124 79.6683,-124 73.6683,-124 67.6683,-118 67.6683,-112 67.6683,-112 67.6683,-100 67.6683,-100 67.6683,-94 73.6683,-88 79.6683,-88 79.6683,-88 130.3317,-88 130.3317,-88 136.3317,-88 142.3317,-94 142.3317,-100 142.3317,-100 142.3317,-112 142.3317,-112 142.3317,-118 136.3317,-124 130.3317,-124"/>
<text text-anchor="middle" x="105" y="-101.8" font-family="Times,serif" font-size="14.00" fill="#000000">C(B1, B2)</text>
</g>
<!-- node1&#45;&gt;node2 -->
<g id="edge1" class="edge">
<title>node1-&gt;node2</title>
<path fill="none" stroke="#000000" d="M138.6446,-159.8314C133.5674,-151.7079 127.4773,-141.9637 121.8824,-133.0118"/>
<polygon fill="#000000" stroke="#000000" points="124.7763,-131.0383 116.5083,-124.4133 118.8403,-134.7483 124.7763,-131.0383"/>
</g>
<!-- node3 -->
<g id="node3" class="node">
<title>node3</title>
<path fill="none" stroke="#000000" d="M219.3312,-124C219.3312,-124 172.6688,-124 172.6688,-124 166.6688,-124 160.6688,-118 160.6688,-112 160.6688,-112 160.6688,-100 160.6688,-100 160.6688,-94 166.6688,-88 172.6688,-88 172.6688,-88 219.3312,-88 219.3312,-88 225.3312,-88 231.3312,-94 231.3312,-100 231.3312,-100 231.3312,-112 231.3312,-112 231.3312,-118 225.3312,-124 219.3312,-124"/>
<text text-anchor="middle" x="196" y="-101.8" font-family="Times,serif" font-size="14.00" fill="#000000">C(B3,B4)</text>
</g>
<!-- node1&#45;&gt;node3 -->
<g id="edge2" class="edge">
<title>node1-&gt;node3</title>
<path fill="none" stroke="#000000" d="M161.6077,-159.8314C166.7978,-151.7079 173.0232,-141.9637 178.7425,-133.0118"/>
<polygon fill="#000000" stroke="#000000" points="181.8015,-134.7246 184.236,-124.4133 175.9026,-130.9559 181.8015,-134.7246"/>
</g>
<!-- node4 -->
<g id="node4" class="node">
<title>node4</title>
<path fill="none" stroke="#000000" d="M58,-52C58,-52 28,-52 28,-52 22,-52 16,-46 16,-40 16,-40 16,-28 16,-28 16,-22 22,-16 28,-16 28,-16 58,-16 58,-16 64,-16 70,-22 70,-28 70,-28 70,-40 70,-40 70,-46 64,-52 58,-52"/>
<text text-anchor="middle" x="43" y="-29.8" font-family="Times,serif" font-size="14.00" fill="#000000">B1</text>
</g>
<!-- node2&#45;&gt;node4 -->
<g id="edge3" class="edge">
<title>node2-&gt;node4</title>
<path fill="none" stroke="#000000" d="M89.3548,-87.8314C82.1409,-79.454 73.443,-69.3531 65.5395,-60.1749"/>
<polygon fill="#000000" stroke="#000000" points="68.0333,-57.7071 58.8559,-52.4133 62.7289,-62.2748 68.0333,-57.7071"/>
</g>
<!-- node5 -->
<g id="node5" class="node">
<title>node5</title>
<path fill="none" stroke="#000000" d="M130,-52C130,-52 100,-52 100,-52 94,-52 88,-46 88,-40 88,-40 88,-28 88,-28 88,-22 94,-16 100,-16 100,-16 130,-16 130,-16 136,-16 142,-22 142,-28 142,-28 142,-40 142,-40 142,-46 136,-52 130,-52"/>
<text text-anchor="middle" x="115" y="-29.8" font-family="Times,serif" font-size="14.00" fill="#000000">B2</text>
</g>
<!-- node2&#45;&gt;node5 -->
<g id="edge4" class="edge">
<title>node2-&gt;node5</title>
<path fill="none" stroke="#000000" d="M107.5234,-87.8314C108.5929,-80.131 109.8647,-70.9743 111.0532,-62.4166"/>
<polygon fill="#000000" stroke="#000000" points="114.5336,-62.7997 112.4426,-52.4133 107.6001,-61.8367 114.5336,-62.7997"/>
</g>
<!-- node6 -->
<g id="node6" class="node">
<title>node6</title>
<path fill="none" stroke="#000000" d="M202,-52C202,-52 172,-52 172,-52 166,-52 160,-46 160,-40 160,-40 160,-28 160,-28 160,-22 166,-16 172,-16 172,-16 202,-16 202,-16 208,-16 214,-22 214,-28 214,-28 214,-40 214,-40 214,-46 208,-52 202,-52"/>
<text text-anchor="middle" x="187" y="-29.8" font-family="Times,serif" font-size="14.00" fill="#000000">B3</text>
</g>
<!-- node3&#45;&gt;node6 -->
<g id="edge5" class="edge">
<title>node3-&gt;node6</title>
<path fill="none" stroke="#000000" d="M193.7289,-87.8314C192.7664,-80.131 191.6218,-70.9743 190.5521,-62.4166"/>
<polygon fill="#000000" stroke="#000000" points="194.0151,-61.9019 189.3017,-52.4133 187.0691,-62.7702 194.0151,-61.9019"/>
</g>
<!-- node7 -->
<g id="node7" class="node">
<title>node7</title>
<path fill="none" stroke="#000000" d="M274,-52C274,-52 244,-52 244,-52 238,-52 232,-46 232,-40 232,-40 232,-28 232,-28 232,-22 238,-16 244,-16 244,-16 274,-16 274,-16 280,-16 286,-22 286,-28 286,-28 286,-40 286,-40 286,-46 280,-52 274,-52"/>
<text text-anchor="middle" x="259" y="-29.8" font-family="Times,serif" font-size="14.00" fill="#000000">B4</text>
</g>
<!-- node3&#45;&gt;node7 -->
<g id="edge6" class="edge">
<title>node3-&gt;node7</title>
<path fill="none" stroke="#000000" d="M211.8976,-87.8314C219.2278,-79.454 228.066,-69.3531 236.0969,-60.1749"/>
<polygon fill="#000000" stroke="#000000" points="238.9373,-62.2438 242.8884,-52.4133 233.6693,-57.6343 238.9373,-62.2438"/>
</g>
<!-- node8 -->
<g id="node8" class="node">
<title>node8</title>
<path fill="none" stroke="#000000" d="M511.3201,-196C511.3201,-196 376.6799,-196 376.6799,-196 370.6799,-196 364.6799,-190 364.6799,-184 364.6799,-184 364.6799,-172 364.6799,-172 364.6799,-166 370.6799,-160 376.6799,-160 376.6799,-160 511.3201,-160 511.3201,-160 517.3201,-160 523.3201,-166 523.3201,-172 523.3201,-172 523.3201,-184 523.3201,-184 523.3201,-190 517.3201,-196 511.3201,-196"/>
<text text-anchor="middle" x="444" y="-173.8" font-family="Times,serif" font-size="14.00" fill="#000000">C(C(B1, B2), C(B3, B4))</text>
</g>
<!-- node9 -->
<g id="node9" class="node">
<title>node9</title>
<path fill="none" stroke="#000000" d="M424.3317,-124C424.3317,-124 373.6683,-124 373.6683,-124 367.6683,-124 361.6683,-118 361.6683,-112 361.6683,-112 361.6683,-100 361.6683,-100 361.6683,-94 367.6683,-88 373.6683,-88 373.6683,-88 424.3317,-88 424.3317,-88 430.3317,-88 436.3317,-94 436.3317,-100 436.3317,-100 436.3317,-112 436.3317,-112 436.3317,-118 430.3317,-124 424.3317,-124"/>
<text text-anchor="middle" x="399" y="-101.8" font-family="Times,serif" font-size="14.00" fill="#000000">C(B1, B2)</text>
</g>
<!-- node8&#45;&gt;node9 -->
<g id="edge7" class="edge">
<title>node8-&gt;node9</title>
<path fill="none" stroke="#000000" d="M432.6446,-159.8314C427.5674,-151.7079 421.4773,-141.9637 415.8824,-133.0118"/>
<polygon fill="#000000" stroke="#000000" points="418.7763,-131.0383 410.5083,-124.4133 412.8403,-134.7483 418.7763,-131.0383"/>
</g>
<!-- node10 -->
<g id="node10" class="node">
<title>node10</title>
<path fill="none" stroke="#000000" d="M513.3312,-124C513.3312,-124 466.6688,-124 466.6688,-124 460.6688,-124 454.6688,-118 454.6688,-112 454.6688,-112 454.6688,-100 454.6688,-100 454.6688,-94 460.6688,-88 466.6688,-88 466.6688,-88 513.3312,-88 513.3312,-88 519.3312,-88 525.3312,-94 525.3312,-100 525.3312,-100 525.3312,-112 525.3312,-112 525.3312,-118 519.3312,-124 513.3312,-124"/>
<text text-anchor="middle" x="490" y="-101.8" font-family="Times,serif" font-size="14.00" fill="#000000">C(B3,B4)</text>
</g>
<!-- node8&#45;&gt;node10 -->
<g id="edge8" class="edge">
<title>node8-&gt;node10</title>
<path fill="none" stroke="#000000" d="M455.6077,-159.8314C460.7978,-151.7079 467.0232,-141.9637 472.7425,-133.0118"/>
<polygon fill="#000000" stroke="#000000" points="475.8015,-134.7246 478.236,-124.4133 469.9026,-130.9559 475.8015,-134.7246"/>
</g>
<!-- node11 -->
<g id="node11" class="node">
<title>node11</title>
<path fill="none" stroke="#000000" d="M352,-52C352,-52 322,-52 322,-52 316,-52 310,-46 310,-40 310,-40 310,-28 310,-28 310,-22 316,-16 322,-16 322,-16 352,-16 352,-16 358,-16 364,-22 364,-28 364,-28 364,-40 364,-40 364,-46 358,-52 352,-52"/>
<text text-anchor="middle" x="337" y="-29.8" font-family="Times,serif" font-size="14.00" fill="#000000">B2</text>
</g>
<!-- node9&#45;&gt;node11 -->
<g id="edge9" class="edge">
<title>node9-&gt;node11</title>
<path fill="none" stroke="#0000ff" stroke-width="2" d="M383.3548,-87.8314C376.1409,-79.454 367.443,-69.3531 359.5395,-60.1749"/>
<polygon fill="#0000ff" stroke="#0000ff" stroke-width="2" points="362.0333,-57.7071 352.8559,-52.4133 356.7289,-62.2748 362.0333,-57.7071"/>
</g>
<!-- node12 -->
<g id="node12" class="node">
<title>node12</title>
<path fill="none" stroke="#000000" d="M424,-52C424,-52 394,-52 394,-52 388,-52 382,-46 382,-40 382,-40 382,-28 382,-28 382,-22 388,-16 394,-16 394,-16 424,-16 424,-16 430,-16 436,-22 436,-28 436,-28 436,-40 436,-40 436,-46 430,-52 424,-52"/>
<text text-anchor="middle" x="409" y="-29.8" font-family="Times,serif" font-size="14.00" fill="#000000">B1</text>
</g>
<!-- node9&#45;&gt;node12 -->
<g id="edge10" class="edge">
<title>node9-&gt;node12</title>
<path fill="none" stroke="#0000ff" stroke-width="2" d="M401.5234,-87.8314C402.5929,-80.131 403.8647,-70.9743 405.0532,-62.4166"/>
<polygon fill="#0000ff" stroke="#0000ff" stroke-width="2" points="408.5336,-62.7997 406.4426,-52.4133 401.6001,-61.8367 408.5336,-62.7997"/>
</g>
<!-- node13 -->
<g id="node13" class="node">
<title>node13</title>
<path fill="none" stroke="#000000" d="M496,-52C496,-52 466,-52 466,-52 460,-52 454,-46 454,-40 454,-40 454,-28 454,-28 454,-22 460,-16 466,-16 466,-16 496,-16 496,-16 502,-16 508,-22 508,-28 508,-28 508,-40 508,-40 508,-46 502,-52 496,-52"/>
<text text-anchor="middle" x="481" y="-29.8" font-family="Times,serif" font-size="14.00" fill="#000000">B3</text>
</g>
<!-- node10&#45;&gt;node13 -->
<g id="edge11" class="edge">
<title>node10-&gt;node13</title>
<path fill="none" stroke="#000000" d="M487.7289,-87.8314C486.7664,-80.131 485.6218,-70.9743 484.5521,-62.4166"/>
<polygon fill="#000000" stroke="#000000" points="488.0151,-61.9019 483.3017,-52.4133 481.0691,-62.7702 488.0151,-61.9019"/>
</g>
<!-- node14 -->
<g id="node14" class="node">
<title>node14</title>
<path fill="none" stroke="#000000" d="M568,-52C568,-52 538,-52 538,-52 532,-52 526,-46 526,-40 526,-40 526,-28 526,-28 526,-22 532,-16 538,-16 538,-16 568,-16 568,-16 574,-16 580,-22 580,-28 580,-28 580,-40 580,-40 580,-46 574,-52 568,-52"/>
<text text-anchor="middle" x="553" y="-29.8" font-family="Times,serif" font-size="14.00" fill="#000000">B4</text>
</g>
<!-- node10&#45;&gt;node14 -->
<g id="edge12" class="edge">
<title>node10-&gt;node14</title>
<path fill="none" stroke="#000000" d="M505.8976,-87.8314C513.2278,-79.454 522.066,-69.3531 530.0969,-60.1749"/>
<polygon fill="#000000" stroke="#000000" points="532.9373,-62.2438 536.8884,-52.4133 527.6693,-57.6343 532.9373,-62.2438"/>
</g>
<!-- node15 -->
<g id="node15" class="node">
<title>node15</title>
<path fill="none" stroke="#000000" d="M805.3201,-196C805.3201,-196 670.6799,-196 670.6799,-196 664.6799,-196 658.6799,-190 658.6799,-184 658.6799,-184 658.6799,-172 658.6799,-172 658.6799,-166 664.6799,-160 670.6799,-160 670.6799,-160 805.3201,-160 805.3201,-160 811.3201,-160 817.3201,-166 817.3201,-172 817.3201,-172 817.3201,-184 817.3201,-184 817.3201,-190 811.3201,-196 805.3201,-196"/>
<text text-anchor="middle" x="738" y="-173.8" font-family="Times,serif" font-size="14.00" fill="#000000">C(C(B1, B2), C(B3, B4))</text>
</g>
<!-- node16 -->
<g id="node16" class="node">
<title>node16</title>
<path fill="none" stroke="#000000" d="M718.3317,-124C718.3317,-124 667.6683,-124 667.6683,-124 661.6683,-124 655.6683,-118 655.6683,-112 655.6683,-112 655.6683,-100 655.6683,-100 655.6683,-94 661.6683,-88 667.6683,-88 667.6683,-88 718.3317,-88 718.3317,-88 724.3317,-88 730.3317,-94 730.3317,-100 730.3317,-100 730.3317,-112 730.3317,-112 730.3317,-118 724.3317,-124 718.3317,-124"/>
<text text-anchor="middle" x="693" y="-101.8" font-family="Times,serif" font-size="14.00" fill="#000000">C(B1, B2)</text>
</g>
<!-- node15&#45;&gt;node16 -->
<g id="edge13" class="edge">
<title>node15-&gt;node16</title>
<path fill="none" stroke="#000000" d="M726.6446,-159.8314C721.5674,-151.7079 715.4773,-141.9637 709.8824,-133.0118"/>
<polygon fill="#000000" stroke="#000000" points="712.7763,-131.0383 704.5083,-124.4133 706.8403,-134.7483 712.7763,-131.0383"/>
</g>
<!-- node17 -->
<g id="node17" class="node">
<title>node17</title>
<path fill="none" stroke="#000000" d="M807.3312,-124C807.3312,-124 760.6688,-124 760.6688,-124 754.6688,-124 748.6688,-118 748.6688,-112 748.6688,-112 748.6688,-100 748.6688,-100 748.6688,-94 754.6688,-88 760.6688,-88 760.6688,-88 807.3312,-88 807.3312,-88 813.3312,-88 819.3312,-94 819.3312,-100 819.3312,-100 819.3312,-112 819.3312,-112 819.3312,-118 813.3312,-124 807.3312,-124"/>
<text text-anchor="middle" x="784" y="-101.8" font-family="Times,serif" font-size="14.00" fill="#000000">C(B3,B4)</text>
</g>
<!-- node15&#45;&gt;node17 -->
<g id="edge14" class="edge">
<title>node15-&gt;node17</title>
<path fill="none" stroke="#000000" d="M749.6077,-159.8314C754.7978,-151.7079 761.0232,-141.9637 766.7425,-133.0118"/>
<polygon fill="#000000" stroke="#000000" points="769.8015,-134.7246 772.236,-124.4133 763.9026,-130.9559 769.8015,-134.7246"/>
</g>
<!-- node18 -->
<g id="node18" class="node">
<title>node18</title>
<path fill="none" stroke="#000000" d="M646,-52C646,-52 616,-52 616,-52 610,-52 604,-46 604,-40 604,-40 604,-28 604,-28 604,-22 610,-16 616,-16 616,-16 646,-16 646,-16 652,-16 658,-22 658,-28 658,-28 658,-40 658,-40 658,-46 652,-52 646,-52"/>
<text text-anchor="middle" x="631" y="-29.8" font-family="Times,serif" font-size="14.00" fill="#000000">B1</text>
</g>
<!-- node16&#45;&gt;node18 -->
<g id="edge15" class="edge">
<title>node16-&gt;node18</title>
<path fill="none" stroke="#000000" d="M677.3548,-87.8314C670.1409,-79.454 661.443,-69.3531 653.5395,-60.1749"/>
<polygon fill="#000000" stroke="#000000" points="656.0333,-57.7071 646.8559,-52.4133 650.7289,-62.2748 656.0333,-57.7071"/>
</g>
<!-- node19 -->
<g id="node19" class="node">
<title>node19</title>
<path fill="none" stroke="#000000" d="M718,-52C718,-52 688,-52 688,-52 682,-52 676,-46 676,-40 676,-40 676,-28 676,-28 676,-22 682,-16 688,-16 688,-16 718,-16 718,-16 724,-16 730,-22 730,-28 730,-28 730,-40 730,-40 730,-46 724,-52 718,-52"/>
<text text-anchor="middle" x="703" y="-29.8" font-family="Times,serif" font-size="14.00" fill="#000000">B2</text>
</g>
<!-- node16&#45;&gt;node19 -->
<g id="edge16" class="edge">
<title>node16-&gt;node19</title>
<path fill="none" stroke="#000000" d="M695.5234,-87.8314C696.5929,-80.131 697.8647,-70.9743 699.0532,-62.4166"/>
<polygon fill="#000000" stroke="#000000" points="702.5336,-62.7997 700.4426,-52.4133 695.6001,-61.8367 702.5336,-62.7997"/>
</g>
<!-- node20 -->
<g id="node20" class="node">
<title>node20</title>
<path fill="none" stroke="#000000" d="M790,-52C790,-52 760,-52 760,-52 754,-52 748,-46 748,-40 748,-40 748,-28 748,-28 748,-22 754,-16 760,-16 760,-16 790,-16 790,-16 796,-16 802,-22 802,-28 802,-28 802,-40 802,-40 802,-46 796,-52 790,-52"/>
<text text-anchor="middle" x="775" y="-29.8" font-family="Times,serif" font-size="14.00" fill="#000000">B4</text>
</g>
<!-- node17&#45;&gt;node20 -->
<g id="edge17" class="edge">
<title>node17-&gt;node20</title>
<path fill="none" stroke="#0000ff" stroke-width="2" d="M781.7289,-87.8314C780.7664,-80.131 779.6218,-70.9743 778.5521,-62.4166"/>
<polygon fill="#0000ff" stroke="#0000ff" stroke-width="2" points="782.0151,-61.9019 777.3017,-52.4133 775.0691,-62.7702 782.0151,-61.9019"/>
</g>
<!-- node21 -->
<g id="node21" class="node">
<title>node21</title>
<path fill="none" stroke="#000000" d="M862,-52C862,-52 832,-52 832,-52 826,-52 820,-46 820,-40 820,-40 820,-28 820,-28 820,-22 826,-16 832,-16 832,-16 862,-16 862,-16 868,-16 874,-22 874,-28 874,-28 874,-40 874,-40 874,-46 868,-52 862,-52"/>
<text text-anchor="middle" x="847" y="-29.8" font-family="Times,serif" font-size="14.00" fill="#000000">B3</text>
</g>
<!-- node17&#45;&gt;node21 -->
<g id="edge18" class="edge">
<title>node17-&gt;node21</title>
<path fill="none" stroke="#0000ff" stroke-width="2" d="M799.8976,-87.8314C807.2278,-79.454 816.066,-69.3531 824.0969,-60.1749"/>
<polygon fill="#0000ff" stroke="#0000ff" stroke-width="2" points="826.9373,-62.2438 830.8884,-52.4133 821.6693,-57.6343 826.9373,-62.2438"/>
</g>
<!-- node22 -->
<g id="node22" class="node">
<title>node22</title>
<path fill="none" stroke="#000000" d="M1099.3201,-196C1099.3201,-196 964.6799,-196 964.6799,-196 958.6799,-196 952.6799,-190 952.6799,-184 952.6799,-184 952.6799,-172 952.6799,-172 952.6799,-166 958.6799,-160 964.6799,-160 964.6799,-160 1099.3201,-160 1099.3201,-160 1105.3201,-160 1111.3201,-166 1111.3201,-172 1111.3201,-172 1111.3201,-184 1111.3201,-184 1111.3201,-190 1105.3201,-196 1099.3201,-196"/>
<text text-anchor="middle" x="1032" y="-173.8" font-family="Times,serif" font-size="14.00" fill="#000000">C(C(B1, B2), C(B3, B4))</text>
</g>
<!-- node23 -->
<g id="node23" class="node">
<title>node23</title>
<path fill="none" stroke="#000000" d="M1012.3317,-124C1012.3317,-124 961.6683,-124 961.6683,-124 955.6683,-124 949.6683,-118 949.6683,-112 949.6683,-112 949.6683,-100 949.6683,-100 949.6683,-94 955.6683,-88 961.6683,-88 961.6683,-88 1012.3317,-88 1012.3317,-88 1018.3317,-88 1024.3317,-94 1024.3317,-100 1024.3317,-100 1024.3317,-112 1024.3317,-112 1024.3317,-118 1018.3317,-124 1012.3317,-124"/>
<text text-anchor="middle" x="987" y="-101.8" font-family="Times,serif" font-size="14.00" fill="#000000">C(B1, B2)</text>
</g>
<!-- node22&#45;&gt;node23 -->
<g id="edge19" class="edge">
<title>node22-&gt;node23</title>
<path fill="none" stroke="#000000" d="M1020.6446,-159.8314C1015.5674,-151.7079 1009.4773,-141.9637 1003.8824,-133.0118"/>
<polygon fill="#000000" stroke="#000000" points="1006.7763,-131.0383 998.5083,-124.4133 1000.8403,-134.7483 1006.7763,-131.0383"/>
</g>
<!-- node24 -->
<g id="node24" class="node">
<title>node24</title>
<path fill="none" stroke="#000000" d="M1101.3312,-124C1101.3312,-124 1054.6688,-124 1054.6688,-124 1048.6688,-124 1042.6688,-118 1042.6688,-112 1042.6688,-112 1042.6688,-100 1042.6688,-100 1042.6688,-94 1048.6688,-88 1054.6688,-88 1054.6688,-88 1101.3312,-88 1101.3312,-88 1107.3312,-88 1113.3312,-94 1113.3312,-100 1113.3312,-100 1113.3312,-112 1113.3312,-112 1113.3312,-118 1107.3312,-124 1101.3312,-124"/>
<text text-anchor="middle" x="1078" y="-101.8" font-family="Times,serif" font-size="14.00" fill="#000000">C(B3,B4)</text>
</g>
<!-- node22&#45;&gt;node24 -->
<g id="edge20" class="edge">
<title>node22-&gt;node24</title>
<path fill="none" stroke="#000000" d="M1043.6077,-159.8314C1048.7978,-151.7079 1055.0232,-141.9637 1060.7425,-133.0118"/>
<polygon fill="#000000" stroke="#000000" points="1063.8015,-134.7246 1066.236,-124.4133 1057.9026,-130.9559 1063.8015,-134.7246"/>
</g>
<!-- node25 -->
<g id="node25" class="node">
<title>node25</title>
<path fill="none" stroke="#000000" d="M940,-52C940,-52 910,-52 910,-52 904,-52 898,-46 898,-40 898,-40 898,-28 898,-28 898,-22 904,-16 910,-16 910,-16 940,-16 940,-16 946,-16 952,-22 952,-28 952,-28 952,-40 952,-40 952,-46 946,-52 940,-52"/>
<text text-anchor="middle" x="925" y="-29.8" font-family="Times,serif" font-size="14.00" fill="#000000">B2</text>
</g>
<!-- node23&#45;&gt;node25 -->
<g id="edge21" class="edge">
<title>node23-&gt;node25</title>
<path fill="none" stroke="#0000ff" stroke-width="2" d="M971.3548,-87.8314C964.1409,-79.454 955.443,-69.3531 947.5395,-60.1749"/>
<polygon fill="#0000ff" stroke="#0000ff" stroke-width="2" points="950.0333,-57.7071 940.8559,-52.4133 944.7289,-62.2748 950.0333,-57.7071"/>
</g>
<!-- node26 -->
<g id="node26" class="node">
<title>node26</title>
<path fill="none" stroke="#000000" d="M1012,-52C1012,-52 982,-52 982,-52 976,-52 970,-46 970,-40 970,-40 970,-28 970,-28 970,-22 976,-16 982,-16 982,-16 1012,-16 1012,-16 1018,-16 1024,-22 1024,-28 1024,-28 1024,-40 1024,-40 1024,-46 1018,-52 1012,-52"/>
<text text-anchor="middle" x="997" y="-29.8" font-family="Times,serif" font-size="14.00" fill="#000000">B1</text>
</g>
<!-- node23&#45;&gt;node26 -->
<g id="edge22" class="edge">
<title>node23-&gt;node26</title>
<path fill="none" stroke="#0000ff" stroke-width="2" d="M989.5234,-87.8314C990.5929,-80.131 991.8647,-70.9743 993.0532,-62.4166"/>
<polygon fill="#0000ff" stroke="#0000ff" stroke-width="2" points="996.5336,-62.7997 994.4426,-52.4133 989.6001,-61.8367 996.5336,-62.7997"/>
</g>
<!-- node27 -->
<g id="node27" class="node">
<title>node27</title>
<path fill="none" stroke="#000000" d="M1084,-52C1084,-52 1054,-52 1054,-52 1048,-52 1042,-46 1042,-40 1042,-40 1042,-28 1042,-28 1042,-22 1048,-16 1054,-16 1054,-16 1084,-16 1084,-16 1090,-16 1096,-22 1096,-28 1096,-28 1096,-40 1096,-40 1096,-46 1090,-52 1084,-52"/>
<text text-anchor="middle" x="1069" y="-29.8" font-family="Times,serif" font-size="14.00" fill="#000000">B4</text>
</g>
<!-- node24&#45;&gt;node27 -->
<g id="edge23" class="edge">
<title>node24-&gt;node27</title>
<path fill="none" stroke="#0000ff" stroke-width="2" d="M1075.7289,-87.8314C1074.7664,-80.131 1073.6218,-70.9743 1072.5521,-62.4166"/>
<polygon fill="#0000ff" stroke="#0000ff" stroke-width="2" points="1076.0151,-61.9019 1071.3017,-52.4133 1069.0691,-62.7702 1076.0151,-61.9019"/>
</g>
<!-- node28 -->
<g id="node28" class="node">
<title>node28</title>
<path fill="none" stroke="#000000" d="M1156,-52C1156,-52 1126,-52 1126,-52 1120,-52 1114,-46 1114,-40 1114,-40 1114,-28 1114,-28 1114,-22 1120,-16 1126,-16 1126,-16 1156,-16 1156,-16 1162,-16 1168,-22 1168,-28 1168,-28 1168,-40 1168,-40 1168,-46 1162,-52 1156,-52"/>
<text text-anchor="middle" x="1141" y="-29.8" font-family="Times,serif" font-size="14.00" fill="#000000">B3</text>
</g>
<!-- node24&#45;&gt;node28 -->
<g id="edge24" class="edge">
<title>node24-&gt;node28</title>
<path fill="none" stroke="#0000ff" stroke-width="2" d="M1093.8976,-87.8314C1101.2278,-79.454 1110.066,-69.3531 1118.0969,-60.1749"/>
<polygon fill="#0000ff" stroke="#0000ff" stroke-width="2" points="1120.9373,-62.2438 1124.8884,-52.4133 1115.6693,-57.6343 1120.9373,-62.2438"/>
</g>
</g>
</svg>