<svg xmlns="http://www.w3.org/2000/svg" xmlns:xlink="http://www.w3.org/1999/xlink" width="678.891" height="253.859" viewBox="0 0 509.168 190.394"><path d="M-.002 190.397V0h509.175v190.397zM509.173 0" fill="#231f20"/><path d="M142.67 18.463h56.694V4.29H142.67z" fill="#231f20"/><symbol id="a"><path d="M.197.605c0 .036.003.047.082.047h.026v.031C.27.68.191.68.153.68.114.68.035.68 0 .683V.652h.026C.105.652.108.641.108.605V.078C.108.042.105.031.026.031H0V0c.035.003.114.003.152.003C.191.003.27.003.305 0v.031H.279C.2.031.197.042.197.078v.527z"/></symbol><symbol id="b"><path d="M.078.344V.076C.078.031.067.031 0 .031V0l.113.003L.225 0v.031c-.067 0-.078 0-.078.045V.26c0 .104.071.16.135.16C.345.42.356.366.356.309V.076C.356.031.345.031.278.031V0l.113.003L.503 0v.031c-.052 0-.077 0-.078.03v.191c0 .086 0 .117-.031.153C.38.422.347.442.289.442.216.442.169.399.141.337v.105L0 .431V.4C.07.4.078.393.078.344z"/></symbol><symbol id="c"><path d="M.175.205C.197.201.279.185.279.113.279.062.244.022.166.022c-.084 0-.12.057-.139.142C.024.177.023.181.013.181 0 .181 0 .174 0 .156V.024C0 .007 0 0 .011 0c.005 0 .006.001.025.02.002.002.002.004.02.023A.15.15 0 0 1 .166 0c.115 0 .161.067.161.139 0 .053-.03.083-.042.095C.252.266.213.274.171.282.115.293.048.306.048.364.048.399.074.44.16.44.27.44.275.35.277.319.278.31.287.31.289.31c.013 0 .013.005.013.024v.101c0 .017 0 .024-.011.024-.005 0-.007 0-.02-.012A.129.129 0 0 0 .254.431C.216.459.175.459.16.459.038.459 0 .392 0 .336 0 .301.016.273.043.251.075.225.103.219.175.205z"/></symbol><symbol id="d"><path d="M.154.411h.143v.031H.154v.184H.129C.128.544.098.437 0 .433V.411h.085V.135C.085.012.178 0 .214 0c.071 0 .099.071.099.135v.057H.288V.137C.288.063.258.025.221.025.154.025.154.116.154.133v.278z"/></symbol><symbol id="e"><path d="M.291.087C.295.047.322.005.369.005.39.005.451.019.451.1v.056H.426V.1C.426.042.401.036.39.036c-.033 0-.037.045-.037.05v.2c0 .042 0 .081-.036.118A.191.191 0 0 1 .18.459C.098.459.029.412.029.346c0-.03.02-.047.046-.047.028 0 .046.02.046.046C.121.357.116.39.07.391c.027.035.076.046.108.046.049 0 .106-.039.106-.128V.272C.233.269.163.266.1.236.025.202 0 .15 0 .106 0 .025.097 0 .16 0c.066 0 .112.04.131.087M.284.251v-.1C.284.056.212.022.167.022c-.049 0-.09.035-.09.085 0 .055.042.138.207.144z"/></symbol><symbol id="f"><path d="M.083.229c0 .163.082.205.135.205C.227.434.29.433.325.397.284.394.278.364.278.351c0-.026.018-.046.046-.046C.35.305.37.322.37.352.37.42.294.459.217.459.092.459 0 .351 0 .227 0 .099.099 0 .215 0c.134 0 .166.12.166.13 0 .01-.01.01-.013.01C.359.14.357.136.355.13.326.037.261.025.224.025.171.025.083.068.083.229z"/></symbol><symbol id="g"><path d="M.084.263c.006.149.09.174.124.174.103 0 .113-.135.113-.174H.084M.083.242h.279c.022 0 .025 0 .025.021 0 .099-.054.196-.179.196C.092.459 0 .356 0 .231 0 .097.105 0 .22 0a.17.17 0 0 1 .167.13c0 .01-.008.012-.013.012C.365.142.363.136.361.128.326.025.236.025.226.025c-.05 0-.09.03-.113.067-.03.048-.03.114-.03.15z"/></symbol><use xlink:href="#a" transform="matrix(9.9626 0 0 -9.9626 149.682 14.779)" fill="#fff"/><use xlink:href="#b" transform="matrix(9.9626 0 0 -9.9626 153.318 14.779)" fill="#fff"/><use xlink:href="#c" transform="matrix(9.9626 0 0 -9.9626 158.867 14.889)" fill="#fff"/><use xlink:href="#d" transform="matrix(9.9626 0 0 -9.9626 162.653 14.889)" fill="#fff"/><use xlink:href="#e" transform="matrix(9.9626 0 0 -9.9626 166.758 14.889)" fill="#fff"/><use xlink:href="#b" transform="matrix(9.9626 0 0 -9.9626 171.64 14.779)" fill="#fff"/><use xlink:href="#f" transform="matrix(9.9626 0 0 -9.9626 177.199 14.889)" fill="#fff"/><use xlink:href="#g" transform="matrix(9.9626 0 0 -9.9626 181.562 14.889)" fill="#fff"/><use xlink:href="#a" transform="matrix(9.9626 0 0 -9.9626 189.303 14.779)" fill="#fff"/><path d="M284.404 18.463h56.694V4.29h-56.694z" fill="#231f20"/><use xlink:href="#a" transform="matrix(9.9626 0 0 -9.9626 289.477 14.779)" fill="#fff"/><use xlink:href="#b" transform="matrix(9.9626 0 0 -9.9626 293.113 14.779)" fill="#fff"/><use xlink:href="#c" transform="matrix(9.9626 0 0 -9.9626 298.662 14.889)" fill="#fff"/><use xlink:href="#d" transform="matrix(9.9626 0 0 -9.9626 302.448 14.889)" fill="#fff"/><use xlink:href="#e" transform="matrix(9.9626 0 0 -9.9626 306.553 14.889)" fill="#fff"/><use xlink:href="#b" transform="matrix(9.9626 0 0 -9.9626 311.435 14.779)" fill="#fff"/><use xlink:href="#f" transform="matrix(9.9626 0 0 -9.9626 316.994 14.889)" fill="#fff"/><use xlink:href="#g" transform="matrix(9.9626 0 0 -9.9626 321.357 14.889)" fill="#fff"/><use xlink:href="#a" transform="matrix(9.9626 0 0 -9.9626 329.098 14.779)" fill="#fff"/><use xlink:href="#a" transform="matrix(9.9626 0 0 -9.9626 332.974 14.779)" fill="#fff"/><path stroke-width=".399" stroke-miterlimit="10" fill="none" stroke="#ffe4e1" d="M177.145 32.637h129.479"/><path stroke-width=".319" stroke-linecap="round" stroke-linejoin="round" fill="none" stroke="#ffe4e1" d="M178.34 34.23c-.1-.597-1.195-1.494-1.494-1.593.299-.1 1.394-.997 1.494-1.595M305.428 31.042c.1.598 1.195 1.495 1.494 1.595-.299.1-1.394.996-1.494 1.594"/><symbol id="h"><path d="M.697.676H.021L0 .446h.034C.048.619.077.64.231.64L.29.639C.312.635.312.624.312.601V.082c0-.033 0-.046-.104-.046H.166V0C.215.004.308.004.36.004.412.004.504.004.553 0v.036H.511C.407.036.407.049.407.082v.519c0 .023 0 .034.022.038L.488.64C.544.64.587.64.622.62.667.593.674.529.675.524L.684.446h.034l-.021.23z"/></symbol><symbol id="i"><path d="M.334.43c0 .017 0 .026-.014.026-.005 0-.007 0-.02-.012L.282.429a.182.182 0 0 1-.105.027C.034.456 0 .381 0 .331 0 .299.014.273.038.253.076.22.114.213.176.203.226.194.307.18.307.113.307.074.28.028.184.028S.053.091.035.159C.032.172.031.176.017.176 0 .176 0 .169 0 .149V.026C0 .009 0 0 .014 0c.009 0 .028.021.048.043A.174.174 0 0 1 .184 0c.13 0 .178.07.178.141a.122.122 0 0 1-.043.092A.219.219 0 0 1 .2.282C.12.296.055.308.055.361c0 .032.027.071.122.071C.293.432.298.351.3.322.301.311.313.311.317.311c.017 0 .017.007.017.026V.43z"/></symbol><symbol id="j"><path d="M.401.238c.021 0 .028 0 .028.022C.429.348.38.456.231.456A.228.228 0 0 1 0 .229C0 .102.111 0 .244 0c.135 0 .185.108.185.13 0 .004-.002.014-.017.014C.399.144.397.138.394.128A.15.15 0 0 0 .251.032a.155.155 0 0 0-.122.059C.092.138.091.199.091.238h.31M.092.264c.011.141.101.164.139.164.123 0 .127-.139.128-.164H.092z"/></symbol><symbol id="k"><path d="M.343.409A.046.046 0 0 1 .315.365c0-.027.019-.047.047-.047.027 0 .048.017.048.049C.41.456.271.456.243.456A.234.234 0 0 1 0 .226C0 .1.107 0 .238 0c.149 0 .184.118.184.13 0 .012-.013.012-.017.012C.392.142.391.139.386.125A.137.137 0 0 0 .25.032C.181.032.091.083.091.227c0 .127.062.197.155.197.013 0 .061 0 .097-.015z"/></symbol><symbol id="l"><path d="M.49.223a.24.24 0 0 1-.245.233A.24.24 0 0 1 0 .223C0 .099.11 0 .245 0S.49.099.49.223M.245.032a.147.147 0 0 0-.124.061.25.25 0 0 0-.03.139c0 .043.001.102.036.145a.155.155 0 0 0 .118.051.148.148 0 0 0 .123-.059C.396.33.399.28.399.232.399.184.396.131.367.09A.147.147 0 0 0 .245.032z"/></symbol><symbol id="m"><path d="M.461.303c0 .087-.043.138-.15.138A.179.179 0 0 1 .148.344H.147v.097L0 .43V.394C.067.394.075.387.075.338V.079C.075.036.065.036 0 .036V0c.002 0 .072.004.114.004C.151.004.22.001.229 0v.036c-.065 0-.075 0-.075.043v.18c0 .105.083.154.149.154.07 0 .079-.055.079-.106V.079C.382.036.372.036.307.036V0c.002 0 .072.004.114.004C.458.004.527.001.536 0v.036c-.065 0-.075 0-.075.043v.224z"/></symbol><symbol id="n"><path d="M.31.693V.657C.377.657.385.65.385.601V.394a.197.197 0 0 1-.14.057C.112.451 0 .351 0 .225A.23.23 0 0 1 .233 0c.082 0 .131.044.148.062V0l.154.01v.036C.468.046.46.053.46.102v.602L.31.693M.381.115A.164.164 0 0 0 .239.028.142.142 0 0 0 .123.09a.231.231 0 0 0-.032.134c0 .023 0 .098.041.145.04.045.089.054.118.054A.15.15 0 0 0 .369.365C.381.349.381.348.381.329V.115z"/></symbol><use xlink:href="#h" transform="matrix(6.9738 0 0 -6.9738 224.948 29.116)" fill="#fff"/><use xlink:href="#i" transform="matrix(6.9738 0 0 -6.9738 233.302 29.186)" fill="#fff"/><use xlink:href="#j" transform="matrix(6.9738 0 0 -6.9738 236.42 29.186)" fill="#fff"/><use xlink:href="#k" transform="matrix(6.9738 0 0 -6.9738 240.011 29.186)" fill="#fff"/><use xlink:href="#l" transform="matrix(6.9738 0 0 -6.9738 243.505 29.186)" fill="#fff"/><use xlink:href="#m" transform="matrix(6.9738 0 0 -6.9738 247.585 29.116)" fill="#fff"/><use xlink:href="#n" transform="matrix(6.9738 0 0 -6.9738 251.93 29.186)" fill="#fff"/><use xlink:href="#i" transform="matrix(6.9738 0 0 -6.9738 256.323 29.186)" fill="#fff"/><path d="M81.602 75.157h85.859V60.983H81.6z" fill="#231f20"/><path stroke-width=".399" stroke-miterlimit="10" fill="none" stroke="#ffe4e1" d="M81.602 75.157h85.859V60.983H81.6z"/><symbol id="o"><path d="M.366.696C.361.709.359.716.343.716S.324.71.319.696L.112.098C.094.047.054.032 0 .031V0c.023.001.066.003.102.003L.217 0v.031c-.05 0-.075.025-.075.051l.002.015.046.131h.247L.49.075.493.061c0-.03-.056-.03-.083-.03V0a2.274 2.274 0 0 0 .275 0v.031H.667c-.06 0-.074.007-.085.04L.366.696M.313.584.426.259H.201l.112.325z"/></symbol><symbol id="p"><path d="M.346.066V0l.147.011v.031c-.07 0-.078.007-.078.056v.607L.271.694V.663c.07 0 .078-.007.078-.056V.391a.16.16 0 0 1-.126.062A.226.226 0 0 1 0 .226C0 .099.098 0 .212 0c.064 0 .109.034.134.066m0 .268V.129c0-.018 0-.02-.011-.037a.14.14 0 0 0-.118-.07C.172.022.136.048.112.086a.269.269 0 0 0-.029.139c0 .037.002.097.031.142a.137.137 0 0 0 .113.064.13.13 0 0 0 .108-.06C.346.354.346.352.346.334z"/></symbol><symbol id="q"><path d="M.549.68H0V.649h.024C.101.649.103.638.103.602V.078C.103.042.101.031.024.031H0V0c.035.003.113.003.152.003C.193.003.284.003.32 0v.031H.287C.192.031.192.044.192.079v.246h.086C.374.325.384.293.384.208h.025v.265H.384C.384.389.374.356.278.356H.192v.253c0 .033.002.04.049.04h.12c.15 0 .175-.056.191-.194h.025L.549.68z"/></symbol><symbol id="r"><path d="M.549.258H.524C.513.156.499.031.323.031H.241c-.047 0-.049.007-.049.04v.533c0 .034 0 .048.095.048H.32v.031C.284.68.193.68.152.68.113.68.035.68 0 .683V.652h.024C.101.652.103.641.103.605V.078C.103.042.101.031.024.031H0V0h.521l.028.258z"/></symbol><symbol id="s"><path d="M.537.085C.55.063.59.023.601.023.61.023.61.031.61.046V.22c0 .039.004.044.069.044v.031L.557.292c-.04 0-.125 0-.161.003V.264h.032c.09 0 .093-.011.093-.048V.152C.521.04.394.031.366.031.301.031.103.066.103.364.103.663.3.696.36.696c.107 0 .198-.09.218-.237C.58.445.58.442.594.442.61.442.61.445.61.466v.237C.61.72.61.727.599.727c-.004 0-.008 0-.016-.012L.533.641C.501.673.447.727.348.727A.357.357 0 0 1 0 .364C0 .159.16 0 .35 0c.073 0 .153.026.187.085z"/></symbol><symbol id="t"><path d="M.144.442.004.431V.4C.069.4.078.394.078.345V.076C.078.031.067.031 0 .031V0l.11.003C.145.003.18.001.214 0v.031c-.066 0-.07.005-.07.044v.367m.004.174a.052.052 0 0 1-.053.053.054.054 0 0 1-.053-.053c0-.027.022-.053.053-.053.028 0 .053.021.053.053z"/></symbol><symbol id="u"><path d="M0 .683V.652h.024C.101.652.103.641.103.605V.078C.103.042.101.031.024.031H0V0h.366c.168 0 .306.148.306.336 0 .19-.135.347-.306.347H0M.238.031c-.047 0-.049.007-.049.04v.541c0 .033.002.04.049.04h.1A.216.216 0 0 0 .52.559C.563.5.572.414.572.336.572.225.553.165.517.116A.22.22 0 0 0 .339.031H.238z"/></symbol><symbol id="v"><path d="M.186.366v.246c0 .033.002.04.049.04h.124C.456.652.491.567.491.514a.15.15 0 0 0-.16-.148H.186M.422.357C.519.376.588.44.588.514c0 .087-.092.169-.222.169H0V.652h.024C.101.652.103.641.103.605V.078C.103.042.101.031.024.031H0V0h.392c.133 0 .223.089.223.183C.615.27.533.345.422.357M.36.031H.235c-.047 0-.049.007-.049.04v.273h.188c.099 0 .141-.093.141-.16A.151.151 0 0 0 .36.031z"/></symbol><use xlink:href="#o" transform="matrix(9.9626 0 0 -9.9626 85.242 71.528)" fill="#fff"/><use xlink:href="#p" transform="matrix(9.9626 0 0 -9.9626 92.734 71.638)" fill="#fff"/><use xlink:href="#p" transform="matrix(9.9626 0 0 -9.9626 98.273 71.638)" fill="#fff"/><use xlink:href="#q" transform="matrix(9.9626 0 0 -9.9626 107.12 71.528)" fill="#fff"/><use xlink:href="#r" transform="matrix(9.9626 0 0 -9.9626 113.625 71.528)" fill="#fff"/><use xlink:href="#o" transform="matrix(9.9626 0 0 -9.9626 119.842 71.528)" fill="#fff"/><use xlink:href="#s" transform="matrix(9.9626 0 0 -9.9626 127.274 71.747)" fill="#fff"/><use xlink:href="#t" transform="matrix(9.9626 0 0 -9.9626 138.193 71.528)" fill="#fff"/><use xlink:href="#b" transform="matrix(9.9626 0 0 -9.9626 140.953 71.528)" fill="#fff"/><use xlink:href="#u" transform="matrix(9.9626 0 0 -9.9626 149.84 71.528)" fill="#fff"/><use xlink:href="#v" transform="matrix(9.9626 0 0 -9.9626 157.46 71.528)" fill="#fff"/><path d="M315.62 75.157h85.859V60.983h-85.86z" fill="#231f20"/><path stroke-width=".399" stroke-miterlimit="10" fill="none" stroke="#ffe4e1" d="M315.62 75.157h85.859V60.983h-85.86z"/><use xlink:href="#o" transform="matrix(9.9626 0 0 -9.9626 319.257 71.528)" fill="#fff"/><use xlink:href="#p" transform="matrix(9.9626 0 0 -9.9626 326.749 71.638)" fill="#fff"/><use xlink:href="#p" transform="matrix(9.9626 0 0 -9.9626 332.288 71.638)" fill="#fff"/><use xlink:href="#q" transform="matrix(9.9626 0 0 -9.9626 341.135 71.528)" fill="#fff"/><use xlink:href="#r" transform="matrix(9.9626 0 0 -9.9626 347.64 71.528)" fill="#fff"/><use xlink:href="#o" transform="matrix(9.9626 0 0 -9.9626 353.857 71.528)" fill="#fff"/><use xlink:href="#s" transform="matrix(9.9626 0 0 -9.9626 361.289 71.747)" fill="#fff"/><use xlink:href="#t" transform="matrix(9.9626 0 0 -9.9626 372.208 71.528)" fill="#fff"/><use xlink:href="#b" transform="matrix(9.9626 0 0 -9.9626 374.968 71.528)" fill="#fff"/><use xlink:href="#u" transform="matrix(9.9626 0 0 -9.9626 383.854 71.528)" fill="#fff"/><use xlink:href="#v" transform="matrix(9.9626 0 0 -9.9626 391.476 71.528)" fill="#fff"/><path stroke-width=".399" stroke-miterlimit="10" fill="none" stroke="#ffe4e1" d="M177.145 68.07h129.479"/><path stroke-width=".319" stroke-linecap="round" stroke-linejoin="round" fill="none" stroke="#ffe4e1" d="M178.34 69.664c-.1-.598-1.195-1.494-1.494-1.594.299-.1 1.394-.996 1.494-1.594M305.428 66.476c.1.598 1.195 1.494 1.494 1.594-.299.1-1.394.996-1.494 1.594"/><symbol id="w"><path d="M.393.344h.306c.013 0 .037 0 .037.024 0 .025-.023.025-.037.025H.393V.7c0 .013 0 .037-.024.037C.344.737.344.714.344.7V.393H.037C.024.393 0 .393 0 .369 0 .344.023.344.037.344h.307V.037C.344.024.344 0 .368 0c.025 0 .025.023.025.037v.307z"/></symbol><symbol id="x"><path d="M.442.182H.408C.405.16.395.101.382.091.374.085.297.085.283.085H.099a3.5 3.5 0 0 0 .2.168c.074.059.143.121.143.216C.442.59.336.664.208.664.084.664 0 .577 0 .485 0 .434.043.429.053.429c.024 0 .053.017.053.053C.106.5.099.535.047.535a.157.157 0 0 0 .146.093c.1 0 .152-.078.152-.159C.345.382.283.313.251.277L.01.039C0 .03 0 .028 0 0h.412l.03.182z"/></symbol><use xlink:href="#h" transform="matrix(6.9738 0 0 -6.9738 219.904 63.718)" fill="#fff"/><use xlink:href="#w" transform="matrix(6.9738 0 0 -6.9738 225.748 64.54)" fill="#fff"/><use xlink:href="#x" transform="matrix(6.9738 0 0 -6.9738 231.815 63.718)" fill="#fff"/><use xlink:href="#i" transform="matrix(6.9738 0 0 -6.9738 238.35 63.788)" fill="#fff"/><use xlink:href="#j" transform="matrix(6.9738 0 0 -6.9738 241.467 63.788)" fill="#fff"/><use xlink:href="#k" transform="matrix(6.9738 0 0 -6.9738 245.058 63.788)" fill="#fff"/><use xlink:href="#l" transform="matrix(6.9738 0 0 -6.9738 248.552 63.788)" fill="#fff"/><use xlink:href="#m" transform="matrix(6.9738 0 0 -6.9738 252.632 63.718)" fill="#fff"/><use xlink:href="#n" transform="matrix(6.9738 0 0 -6.9738 256.976 63.788)" fill="#fff"/><use xlink:href="#i" transform="matrix(6.9738 0 0 -6.9738 261.37 63.788)" fill="#fff"/><path d="M26.552 125.05H167.46V96.13H26.55z" fill="#231f20"/><path stroke-width=".399" stroke-miterlimit="10" fill="none" stroke="#ffe4e1" d="M26.552 125.05H167.46V96.13H26.55z"/><symbol id="y"><path d="M.144.694 0 .683V.652C.07.652.078.645.078.596v-.52C.078.031.067.031 0 .031V0l.111.003L.222 0v.031c-.067 0-.078 0-.078.045v.618z"/></symbol><symbol id="z"><path d="M.232.01c0 .003 0 .005-.017.022C.09.158.058.347.058.5c0 .174.038.348.161.473.013.012.013.014.013.017 0 .007-.004.01-.01.01-.01 0-.1-.068-.159-.195A.727.727 0 0 1 0 .5C0 .422.011.301.066.188A.432.432 0 0 1 .222 0c.006 0 .01.003.01.01z"/></symbol><symbol id="A"><path d="M.12.194c0 .06-.024.105-.067.105C.018.299 0 .272 0 .246S.017.193.053.193c.02 0 .034.01.04.016l.003.003C.098.212.098.198.098.194a.232.232 0 0 0-.07-.166C.016.016.016.014.016.011.016.004.021 0 .026 0 .037 0 .12.076.12.194m.194 0c0 .06-.024.105-.067.105C.212.299.194.272.194.246S.211.193.247.193c.02 0 .034.01.04.016L.29.212C.292.212.292.198.292.194a.232.232 0 0 0-.07-.166C.21.016.21.014.21.011.21.004.215 0 .22 0c.011 0 .094.076.094.194z"/></symbol><symbol id="B"><path d="M.356.4V.076C.356.031.345.031.278.031V0l.111.003L.5 0v.031c-.067 0-.078 0-.078.045v.618L.386.688C.382.688.381.689.377.691.345.705.304.705.293.705.188.705.079.649.079.545V.431H0V.4h.079V.076C.079.031.068.031.001.031V0l.111.003L.223 0v.031c-.067 0-.078 0-.078.045V.4h.211m0 .031H.142v.113c0 .093.076.139.15.139.009 0 .036 0 .064-.009a.04.04 0 0 1-.025-.04c0-.018.008-.033.025-.039V.431z"/></symbol><symbol id="C"><path d="M.194.378c-.087 0-.087.1-.087.123 0 .027.001.059.016.084.008.012.031.04.071.04.087 0 .087-.1.087-.123A.164.164 0 0 0 .265.418a.086.086 0 0 0-.071-.04M.078.339c0 .004 0 .027.017.047A.17.17 0 0 1 .194.355c.093 0 .162.069.162.146a.135.135 0 0 1-.041.097.131.131 0 0 0 .09.039l.01-.001C.404.632.399.621.399.609.399.592.412.58.428.58c.01 0 .029.007.029.03a.049.049 0 0 1-.051.049A.154.154 0 0 1 .3.612a.167.167 0 0 1-.106.036C.101.648.032.579.032.502.032.458.054.42.079.399A.138.138 0 0 1 .048.316c0-.031.013-.069.044-.089C.032.21 0 .167 0 .127 0 .055.099 0 .221 0c.118 0 .222.051.222.129a.128.128 0 0 1-.065.114C.325.271.267.271.206.271L.131.272C.099.276.078.307.078.339M.222.023c-.101 0-.17.051-.17.104 0 .046.038.083.082.086h.059c.086 0 .198 0 .198-.086C.391.073.32.023.222.023z"/></symbol><symbol id="D"><path d="M.117.194c0 .064-.024.105-.064.105C.018.299 0 .272 0 .246S.017.193.053.193c.016 0 .028.006.038.014l.002.002C.094.209.095.208.095.194A.255.255 0 0 0 .023.022C.017.016.016.015.016.011.016.004.021 0 .026 0c.012 0 .091.079.091.194z"/></symbol><symbol id="E"><path d="M.266.165V.078C.266.042.264.031.19.031H.169V0C.21.003.262.003.304.003.346.003.399.003.44 0v.031H.419C.345.031.343.042.343.078v.087h.1v.031h-.1v.455c0 .02 0 .026-.016.026-.009 0-.012 0-.02-.012L0 .196V.165h.266m.006.031H.028l.244.373V.196z"/></symbol><symbol id="F"><path d="M.205.64c0 .024 0 .026-.023.026C.12.602.032.602 0 .602V.571a.3.3 0 0 1 .131.026V.079C.131.043.128.031.038.031H.006V0c.035.003.122.003.162.003.04 0 .127 0 .162-.003v.031H.298c-.09 0-.093.011-.093.048V.64z"/></symbol><symbol id="G"><path d="M.421.342c0 .08-.005.16-.04.234A.185.185 0 0 1 .037.569.535.535 0 0 1 0 .342C0 .267.004.177.045.101A.183.183 0 0 1 .21 0c.054 0 .13.021.174.116a.533.533 0 0 1 .037.226M.21.022C.171.022.112.047.094.143.083.203.083.295.083.354c0 .064 0 .13.008.184C.11.657.185.666.21.666.243.666.309.648.328.549c.01-.056.01-.132.01-.195 0-.075 0-.143-.011-.207C.312.052.255.022.21.022z"/></symbol><symbol id="H"><path d="M.232.5a.729.729 0 0 1-.066.312A.432.432 0 0 1 .01 1C.004 1 0 .996 0 .99 0 .987 0 .985.019.967.117.868.174.709.174.5.174.329.137.153.013.027 0 .015 0 .013 0 .01 0 .004.004 0 .01 0c.01 0 .1.068.159.195C.22.305.232.416.232.5z"/></symbol><use xlink:href="#u" transform="matrix(9.9626 0 0 -9.9626 48.442 106.921)" fill="#fff"/><use xlink:href="#g" transform="matrix(9.9626 0 0 -9.9626 55.983 107.03)" fill="#fff"/><use xlink:href="#y" transform="matrix(9.9626 0 0 -9.9626 60.457 106.921)" fill="#fff"/><use xlink:href="#g" transform="matrix(9.9626 0 0 -9.9626 63.176 107.03)" fill="#fff"/><use xlink:href="#d" transform="matrix(9.9626 0 0 -9.9626 67.51 107.03)" fill="#fff"/><use xlink:href="#g" transform="matrix(9.9626 0 0 -9.9626 71.475 107.03)" fill="#fff"/><use xlink:href="#z" transform="matrix(9.9626 0 0 -9.9626 76.606 109.412)" fill="#fff"/><use xlink:href="#A" transform="matrix(9.9626 0 0 -9.9626 79.824 102.986)" fill="#fff"/><use xlink:href="#B" transform="matrix(9.9626 0 0 -9.9626 84.745 106.921)" fill="#fff"/><use xlink:href="#e" transform="matrix(9.9626 0 0 -9.9626 90.434 107.03)" fill="#fff"/><use xlink:href="#C" transform="matrix(9.9626 0 0 -9.9626 95.276 108.973)" fill="#fff"/><use xlink:href="#A" transform="matrix(9.9626 0 0 -9.9626 100.307 102.986)" fill="#fff"/><use xlink:href="#D" transform="matrix(9.9626 0 0 -9.9626 105.816 108.844)" fill="#fff"/><use xlink:href="#E" transform="matrix(9.9626 0 0 -9.9626 111.326 106.921)" fill="#fff"/><use xlink:href="#F" transform="matrix(9.9626 0 0 -9.9626 116.915 106.921)" fill="#fff"/><use xlink:href="#D" transform="matrix(9.9626 0 0 -9.9626 121.866 108.844)" fill="#fff"/><use xlink:href="#F" transform="matrix(9.9626 0 0 -9.9626 127.993 106.921)" fill="#fff"/><use xlink:href="#G" transform="matrix(9.9626 0 0 -9.9626 132.476 107.14)" fill="#fff"/><use xlink:href="#G" transform="matrix(9.9626 0 0 -9.9626 137.457 107.14)" fill="#fff"/><use xlink:href="#H" transform="matrix(9.9626 0 0 -9.9626 142.618 109.412)" fill="#fff"/><symbol id="I"><path d="M.476.694c0 .001 0 .011-.013.011C.448.705.353.696.336.694.328.693.322.688.322.675c0-.012.009-.012.024-.012.048 0 .05-.007.05-.017L.393.626.333.389C.315.426.286.453.241.453.124.453 0 .306 0 .16 0 .066.055 0 .133 0c.02 0 .07.004.13.075A.09.09 0 0 1 .354 0c.035 0 .058.023.074.055.017.036.03.097.03.099 0 .01-.009.01-.012.01C.436.164.435.16.432.146.415.081.397.022.356.022c-.027 0-.03.026-.03.046 0 .024.002.031.006.048l.144.578M.268.13C.263.112.263.11.248.093.204.038.163.022.135.022c-.05 0-.064.055-.064.094 0 .05.032.173.055.219.031.059.076.096.116.096.065 0 .079-.082.079-.088C.321.337.319.331.318.326L.268.13z"/></symbol><symbol id="J"><path d="M.192.694c0 .001 0 .011-.013.011C.156.705.083.697.057.695.049.694.038.693.038.675c0-.012.009-.012.024-.012.048 0 .05-.007.05-.017C.112.639.103.605.098.584L.016.258C.004.208 0 .192 0 .157 0 .062.053 0 .127 0c.118 0 .241.149.241.293 0 .091-.053.16-.133.16C.189.453.148.424.118.393l.074.301M.098.316C.104.338.104.34.113.351c.049.065.094.08.12.08.036 0 .063-.03.063-.094A.71.71 0 0 0 .245.125C.212.058.166.022.127.022.093.022.06.049.06.123c0 .019 0 .038.016.101l.022.092z"/></symbol><use xlink:href="#I" transform="matrix(9.9626 0 0 -9.9626 30.272 118.986)" fill="#fff"/><use xlink:href="#J" transform="matrix(9.9626 0 0 -9.9626 35.532 118.986)" fill="#fff"/><symbol id="K"><path d="M.334.599h.098c.02 0 .033 0 .033.022 0 .014-.013.014-.031.014H.341C.364.762.372.808.38.837.385.859.407.88.431.88.432.88.459.88.478.868A.06.06 0 0 1 .434.813c0-.022.017-.037.04-.037a.06.06 0 0 1 .057.061c0 .046-.049.071-.1.071a.139.139 0 0 1-.12-.075C.291.796.283.751.262.635H.183C.163.635.15.635.15.613.15.599.163.599.181.599h.074A18.16 18.16 0 0 0 .167.126C.162.104.145.028.097.028c-.001 0-.025 0-.044.012a.06.06 0 0 1 .044.055c0 .022-.017.037-.04.037A.06.06 0 0 1 0 .071C0 .026.047 0 .097 0c.064 0 .108.066.12.088A.85.85 0 0 1 .278.29l.056.309z"/></symbol><symbol id="L"><path d="M.22.674A.124.124 0 0 1 .224.69C.224.695.22.704.208.704.188.704.105.696.08.694.073.693.059.692.059.671c0-.014.014-.014.025-.014C.132.657.132.65.132.642.132.635.13.629.128.62L.004.126A.11.11 0 0 1 0 .095C0 .031.057 0 .105 0c.024 0 .054.008.08.053a.39.39 0 0 1 .035.1C.22.166.207.166.204.166.19.166.188.16.184.142.171.092.152.028.109.028.082.028.075.053.075.077c0 .011.003.03.006.041L.22.674z"/></symbol><symbol id="M"><path d="M.361.392a.12.12 0 0 1-.103.059C.13.451 0 .31 0 .166 0 .069.065 0 .151 0c.054 0 .102.031.142.07C.312.01.37 0 .396 0c.036 0 .061.022.079.053a.376.376 0 0 1 .035.1C.51.166.497.166.494.166.48.166.479.162.472.135.46.087.441.028.399.028.373.028.366.05.366.077c0 .017.008.053.015.079l.022.09.02.076C.429.348.441.395.441.4c0 .022-.018.032-.034.032a.048.048 0 0 1-.046-.04M.297.135C.29.107.268.087.246.068a.158.158 0 0 0-.092-.04C.117.028.081.054.081.125c0 .053.029.163.052.203.046.08.097.095.125.095.07 0 .089-.076.089-.087A.058.058 0 0 0 .344.322L.297.135z"/></symbol><symbol id="N"><path d="M.489.573c.004.015.004.02.004.021 0 .022-.018.032-.034.032A.05.05 0 0 1 .413.588.12.12 0 0 1 .31.645C.185.645.054.511.054.368c0-.103.07-.164.152-.164.046 0 .09.023.125.054L.309.168C.298.126.291.099.253.065.209.028.166.028.141.028.095.028.082.031.064.035a.056.056 0 0 1 .032.05c0 .024-.019.037-.039.037A.059.059 0 0 1 0 .061C0 .001.086 0 .142 0 .299 0 .366.08.38.137l.109.436M.351.337C.347.322.347.32.33.3.295.258.247.232.209.232.158.232.134.275.134.327c0 .044.027.156.053.2.042.07.089.09.123.09.07 0 .089-.075.089-.085L.396.517.351.337z"/></symbol><use xlink:href="#K" transform="matrix(6.9738 0 0 -6.9738 39.843 121.794)" fill="#fff"/><use xlink:href="#L" transform="matrix(6.9738 0 0 -6.9738 44.432 120.44)" fill="#fff"/><use xlink:href="#M" transform="matrix(6.9738 0 0 -6.9738 46.984 120.44)" fill="#fff"/><use xlink:href="#N" transform="matrix(6.9738 0 0 -6.9738 51.182 121.794)" fill="#fff"/><symbol id="O"><path d="M.106.378a.053.053 0 0 1-.053.053A.053.053 0 0 1 0 .378C0 .349.024.325.053.325c.029 0 .053.024.053.053m0-.325a.053.053 0 0 1-.053.053A.053.053 0 0 1 0 .053C0 .024.024 0 .053 0c.029 0 .053.024.053.053z"/></symbol><symbol id="P"><path d="M.631.194c.015 0 .034 0 .034.02s-.019.02-.033.02H.033C.019.234 0 .234 0 .214s.019-.02.034-.02h.597M.632 0c.014 0 .033 0 .033.02S.646.04.631.04H.034C.019.04 0 .04 0 .02S.019 0 .033 0h.599z"/></symbol><use xlink:href="#O" transform="matrix(9.9626 0 0 -9.9626 59.142 118.876)" fill="#fff"/><use xlink:href="#P" transform="matrix(9.9626 0 0 -9.9626 61.613 117.551)" fill="#fff"/><symbol id="Q"><path d="M.211.385C.011.277 0 .148 0 .124 0 .048.074 0 .169 0 .336 0 .47.158.47.179.47.185.465.186.46.186A.115.115 0 0 1 .387.142C.366.113.324.055.235.055c-.071 0-.15.037-.15.112 0 .049.056.197.214.203.047.002.082.037.082.048 0 .006-.005.007-.01.007C.23.431.202.5.202.54c0 .023.015.132.155.132.019 0 .095-.003.095-.055A.069.069 0 0 0 .44.581C.438.578.435.573.435.57c0-.007.007-.007.01-.007.03 0 .092.039.092.096 0 .059-.069.068-.114.068C.287.727.117.619.117.497c0-.059.045-.095.094-.112z"/></symbol><use xlink:href="#Q" transform="matrix(9.9626 0 0 -9.9626 71.847 119.095)" fill="#fff"/><use xlink:href="#z" transform="matrix(9.9626 0 0 -9.9626 78.703 121.367)" fill="#fff"/><symbol id="R"><path d="M.403.607C.41.635.414.641.426.644c.009.002.042.002.063.002C.59.646.635.642.635.564A.739.739 0 0 0 .624.465c0-.006.003-.013.012-.013.011 0 .013.008.015.023l.027.174A.111.111 0 0 1 .68.666C.68.677.67.677.653.677H.098C.074.677.073.676.066.657L.006.481A.127.127 0 0 1 0 .463C0 .457.005.452.012.452c.01 0 .011.005.017.021.054.155.08.173.228.173h.039C.324.646.324.642.324.634A.098.098 0 0 0 .32.613L.186.079C.177.042.174.031.067.031c-.036 0-.042 0-.042-.019C.025 0 .036 0 .042 0l.082.002.085.001.083-.001L.379 0c.01 0 .022 0 .022.02 0 .011-.008.011-.034.011-.025 0-.038 0-.064.002C.274.036.266.039.266.055c0 .001 0 .006.004.021l.133.531z"/></symbol><use xlink:href="#R" transform="matrix(9.9626 0 0 -9.9626 81.831 118.876)" fill="#fff"/><symbol id="S"><path d="M.353.313h.279c.014 0 .033 0 .033.02s-.019.02-.033.02H.353v.28c0 .014 0 .033-.02.033S.313.647.313.633v-.28h-.28C.019.353 0 .353 0 .333s.019-.02.033-.02h.28v-.28c0-.014 0-.033.02-.033s.02.019.02.033v.28z"/></symbol><symbol id="T"><path d="M.077.077.183.18c.156.138.216.192.216.292 0 .114-.09.194-.212.194A.185.185 0 0 1 0 .485C0 .429.05.429.053.429c.017 0 .052.012.052.053a.05.05 0 0 1-.053.052L.039.533a.144.144 0 0 0 .135.102C.265.635.308.554.308.472c0-.08-.05-.159-.105-.221L.011.037C0 .026 0 .024 0 0h.371l.028.174H.374C.369.144.362.1.352.085.345.077.279.077.257.077h-.18z"/></symbol><use xlink:href="#S" transform="matrix(9.9626 0 0 -9.9626 91.569 119.703)" fill="#fff"/><use xlink:href="#T" transform="matrix(9.9626 0 0 -9.9626 101.472 118.876)" fill="#fff"/><symbol id="U"><path d="M.117.194C.117.26.092.299.053.299A.051.051 0 0 1 0 .246C0 .219.02.193.053.193c.012 0 .025.004.035.013l.005.003C.094.209.095.208.095.194A.242.242 0 0 0 .027.027C.016.016.016.014.016.011.016.004.021 0 .026 0c.011 0 .091.077.091.194z"/></symbol><use xlink:href="#U" transform="matrix(9.9626 0 0 -9.9626 106.812 120.799)" fill="#fff"/><use xlink:href="#E" transform="matrix(9.9626 0 0 -9.9626 110.662 118.876)" fill="#fff"/><use xlink:href="#F" transform="matrix(9.9626 0 0 -9.9626 116.251 118.876)" fill="#fff"/><use xlink:href="#H" transform="matrix(9.9626 0 0 -9.9626 120.913 121.367)" fill="#fff"/><symbol id="V"><path d="M.667.333A.334.334 0 1 1 0 .332a.334.334 0 0 1 .667.001M.025.346a.31.31 0 0 0 .296.295V.346H.025m.321.295A.31.31 0 0 0 .642.346H.346v.295M.321.025a.309.309 0 0 0-.296.296h.296V.025m.321.296A.31.31 0 0 0 .346.025v.296h.296z"/></symbol><use xlink:href="#V" transform="matrix(9.9626 0 0 -9.9626 126.982 119.703)" fill="#fff"/><use xlink:href="#q" transform="matrix(9.9626 0 0 -9.9626 136.725 118.876)" fill="#fff"/><use xlink:href="#r" transform="matrix(9.9626 0 0 -9.9626 143.23 118.876)" fill="#fff"/><use xlink:href="#o" transform="matrix(9.9626 0 0 -9.9626 149.447 118.876)" fill="#fff"/><use xlink:href="#s" transform="matrix(9.9626 0 0 -9.9626 156.88 119.095)" fill="#fff"/><path d="M315.62 125.05h189.064V96.13H315.619z" fill="#231f20"/><path stroke-width=".399" stroke-miterlimit="10" fill="none" stroke="#ffe4e1" d="M315.62 125.05h189.064V96.13H315.619z"/><use xlink:href="#u" transform="matrix(9.9626 0 0 -9.9626 366.565 106.921)" fill="#fff"/><use xlink:href="#g" transform="matrix(9.9626 0 0 -9.9626 374.106 107.03)" fill="#fff"/><use xlink:href="#y" transform="matrix(9.9626 0 0 -9.9626 378.58 106.921)" fill="#fff"/><use xlink:href="#g" transform="matrix(9.9626 0 0 -9.9626 381.3 107.03)" fill="#fff"/><use xlink:href="#d" transform="matrix(9.9626 0 0 -9.9626 385.633 107.03)" fill="#fff"/><use xlink:href="#g" transform="matrix(9.9626 0 0 -9.9626 389.598 107.03)" fill="#fff"/><use xlink:href="#z" transform="matrix(9.9626 0 0 -9.9626 394.729 109.412)" fill="#fff"/><use xlink:href="#A" transform="matrix(9.9626 0 0 -9.9626 397.947 102.986)" fill="#fff"/><use xlink:href="#B" transform="matrix(9.9626 0 0 -9.9626 402.868 106.921)" fill="#fff"/><use xlink:href="#e" transform="matrix(9.9626 0 0 -9.9626 408.557 107.03)" fill="#fff"/><use xlink:href="#C" transform="matrix(9.9626 0 0 -9.9626 413.399 108.973)" fill="#fff"/><use xlink:href="#A" transform="matrix(9.9626 0 0 -9.9626 418.43 102.986)" fill="#fff"/><use xlink:href="#D" transform="matrix(9.9626 0 0 -9.9626 423.94 108.844)" fill="#fff"/><use xlink:href="#G" transform="matrix(9.9626 0 0 -9.9626 429.558 107.14)" fill="#fff"/><use xlink:href="#D" transform="matrix(9.9626 0 0 -9.9626 435.008 108.844)" fill="#fff"/><use xlink:href="#E" transform="matrix(9.9626 0 0 -9.9626 440.527 106.921)" fill="#fff"/><use xlink:href="#F" transform="matrix(9.9626 0 0 -9.9626 446.116 106.921)" fill="#fff"/><use xlink:href="#H" transform="matrix(9.9626 0 0 -9.9626 450.779 109.412)" fill="#fff"/><use xlink:href="#I" transform="matrix(9.9626 0 0 -9.9626 319.337 118.986)" fill="#fff"/><use xlink:href="#J" transform="matrix(9.9626 0 0 -9.9626 324.597 118.986)" fill="#fff"/><use xlink:href="#K" transform="matrix(6.9738 0 0 -6.9738 328.908 121.794)" fill="#fff"/><use xlink:href="#L" transform="matrix(6.9738 0 0 -6.9738 333.497 120.44)" fill="#fff"/><use xlink:href="#M" transform="matrix(6.9738 0 0 -6.9738 336.05 120.44)" fill="#fff"/><use xlink:href="#N" transform="matrix(6.9738 0 0 -6.9738 340.247 121.794)" fill="#fff"/><use xlink:href="#O" transform="matrix(9.9626 0 0 -9.9626 348.206 118.876)" fill="#fff"/><use xlink:href="#P" transform="matrix(9.9626 0 0 -9.9626 350.676 117.551)" fill="#fff"/><use xlink:href="#Q" transform="matrix(9.9626 0 0 -9.9626 360.911 119.095)" fill="#fff"/><use xlink:href="#z" transform="matrix(9.9626 0 0 -9.9626 367.768 121.367)" fill="#fff"/><use xlink:href="#R" transform="matrix(9.9626 0 0 -9.9626 370.895 118.876)" fill="#fff"/><use xlink:href="#S" transform="matrix(9.9626 0 0 -9.9626 380.633 119.703)" fill="#fff"/><use xlink:href="#T" transform="matrix(9.9626 0 0 -9.9626 390.536 118.876)" fill="#fff"/><use xlink:href="#U" transform="matrix(9.9626 0 0 -9.9626 395.876 120.799)" fill="#fff"/><use xlink:href="#E" transform="matrix(9.9626 0 0 -9.9626 399.726 118.876)" fill="#fff"/><use xlink:href="#F" transform="matrix(9.9626 0 0 -9.9626 405.315 118.876)" fill="#fff"/><use xlink:href="#H" transform="matrix(9.9626 0 0 -9.9626 409.977 121.367)" fill="#fff"/><use xlink:href="#V" transform="matrix(9.9626 0 0 -9.9626 416.046 119.703)" fill="#fff"/><use xlink:href="#A" transform="matrix(9.9626 0 0 -9.9626 425.79 114.94)" fill="#fff"/><use xlink:href="#A" transform="matrix(9.9626 0 0 -9.9626 430.771 114.94)" fill="#fff"/><use xlink:href="#P" transform="matrix(9.9626 0 0 -9.9626 438.751 117.551)" fill="#fff"/><use xlink:href="#Q" transform="matrix(9.9626 0 0 -9.9626 448.986 119.095)" fill="#fff"/><use xlink:href="#z" transform="matrix(9.9626 0 0 -9.9626 455.842 121.367)" fill="#fff"/><use xlink:href="#R" transform="matrix(9.9626 0 0 -9.9626 458.97 118.876)" fill="#fff"/><use xlink:href="#S" transform="matrix(9.9626 0 0 -9.9626 468.708 119.703)" fill="#fff"/><use xlink:href="#T" transform="matrix(9.9626 0 0 -9.9626 478.61 118.876)" fill="#fff"/><use xlink:href="#U" transform="matrix(9.9626 0 0 -9.9626 483.95 120.799)" fill="#fff"/><use xlink:href="#E" transform="matrix(9.9626 0 0 -9.9626 487.801 118.876)" fill="#fff"/><use xlink:href="#F" transform="matrix(9.9626 0 0 -9.9626 493.39 118.876)" fill="#fff"/><use xlink:href="#H" transform="matrix(9.9626 0 0 -9.9626 498.052 121.367)" fill="#fff"/><path stroke-width=".399" stroke-miterlimit="10" fill="none" stroke="#ffe4e1" d="M177.145 110.59h129.479"/><path stroke-width=".319" stroke-linecap="round" stroke-linejoin="round" fill="none" stroke="#ffe4e1" d="M178.34 112.184c-.1-.598-1.195-1.494-1.494-1.594.299-.1 1.394-.996 1.494-1.594M305.428 108.996c.1.598 1.195 1.495 1.494 1.594-.299.1-1.394.996-1.494 1.594"/><symbol id="W"><path d="M.49.164V.2H.379v.446c0 .021 0 .028-.022.028-.012 0-.016 0-.026-.014L0 .2V.164h.294V.082c0-.034 0-.046-.081-.046H.186V0l.15.004L.487 0v.036H.46C.379.036.379.048.379.082v.082H.49M.301.566V.2H.037l.264.366z"/></symbol><use xlink:href="#h" transform="matrix(6.9738 0 0 -6.9738 219.904 106.238)" fill="#fff"/><use xlink:href="#w" transform="matrix(6.9738 0 0 -6.9738 225.748 107.06)" fill="#fff"/><use xlink:href="#W" transform="matrix(6.9738 0 0 -6.9738 231.648 106.238)" fill="#fff"/><use xlink:href="#i" transform="matrix(6.9738 0 0 -6.9738 238.35 106.308)" fill="#fff"/><use xlink:href="#j" transform="matrix(6.9738 0 0 -6.9738 241.467 106.308)" fill="#fff"/><use xlink:href="#k" transform="matrix(6.9738 0 0 -6.9738 245.058 106.308)" fill="#fff"/><use xlink:href="#l" transform="matrix(6.9738 0 0 -6.9738 248.552 106.308)" fill="#fff"/><use xlink:href="#m" transform="matrix(6.9738 0 0 -6.9738 252.632 106.238)" fill="#fff"/><use xlink:href="#n" transform="matrix(6.9738 0 0 -6.9738 256.976 106.308)" fill="#fff"/><use xlink:href="#i" transform="matrix(6.9738 0 0 -6.9738 261.37 106.308)" fill="#fff"/><path d="M4.487 181.743h162.974v-28.919H4.487z" fill="#231f20"/><path stroke-width=".399" stroke-miterlimit="10" fill="none" stroke="#ffe4e1" d="M4.487 181.743h162.974v-28.919H4.487z"/><use xlink:href="#u" transform="matrix(9.9626 0 0 -9.9626 37.41 163.614)" fill="#fff"/><use xlink:href="#g" transform="matrix(9.9626 0 0 -9.9626 44.951 163.724)" fill="#fff"/><use xlink:href="#y" transform="matrix(9.9626 0 0 -9.9626 49.425 163.614)" fill="#fff"/><use xlink:href="#g" transform="matrix(9.9626 0 0 -9.9626 52.144 163.724)" fill="#fff"/><use xlink:href="#d" transform="matrix(9.9626 0 0 -9.9626 56.478 163.724)" fill="#fff"/><use xlink:href="#g" transform="matrix(9.9626 0 0 -9.9626 60.443 163.724)" fill="#fff"/><use xlink:href="#z" transform="matrix(9.9626 0 0 -9.9626 65.574 166.105)" fill="#fff"/><use xlink:href="#A" transform="matrix(9.9626 0 0 -9.9626 68.792 159.679)" fill="#fff"/><use xlink:href="#B" transform="matrix(9.9626 0 0 -9.9626 73.713 163.614)" fill="#fff"/><use xlink:href="#e" transform="matrix(9.9626 0 0 -9.9626 79.402 163.724)" fill="#fff"/><use xlink:href="#C" transform="matrix(9.9626 0 0 -9.9626 84.244 165.666)" fill="#fff"/><use xlink:href="#A" transform="matrix(9.9626 0 0 -9.9626 89.275 159.679)" fill="#fff"/><use xlink:href="#D" transform="matrix(9.9626 0 0 -9.9626 94.784 165.537)" fill="#fff"/><use xlink:href="#E" transform="matrix(9.9626 0 0 -9.9626 100.294 163.614)" fill="#fff"/><use xlink:href="#F" transform="matrix(9.9626 0 0 -9.9626 105.883 163.614)" fill="#fff"/><use xlink:href="#D" transform="matrix(9.9626 0 0 -9.9626 110.834 165.537)" fill="#fff"/><use xlink:href="#F" transform="matrix(9.9626 0 0 -9.9626 116.961 163.614)" fill="#fff"/><use xlink:href="#G" transform="matrix(9.9626 0 0 -9.9626 121.444 163.833)" fill="#fff"/><use xlink:href="#G" transform="matrix(9.9626 0 0 -9.9626 126.426 163.833)" fill="#fff"/><use xlink:href="#H" transform="matrix(9.9626 0 0 -9.9626 131.586 166.105)" fill="#fff"/><symbol id="X"><path d="M.355.391c-.016 0-.03 0-.044-.014A.054.054 0 0 1 .293.338C.293.314.311.303.33.303c.029 0 .056.024.056.064 0 .049-.047.086-.118.086C.133.453 0 .31 0 .169 0 .079.058 0 .162 0c.143 0 .227.106.227.118 0 .006-.006.013-.012.013C.372.131.37.129.364.121.285.022.176.022.164.022c-.063 0-.09.049-.09.109 0 .041.02.138.054.2.031.057.086.1.141.1.034 0 .072-.013.086-.04z"/></symbol><use xlink:href="#X" transform="matrix(9.9626 0 0 -9.9626 8.217 175.679)" fill="#fff"/><symbol id="Y"><path d="M.226.636c0 .027-.002.028-.03.028C.132.601.041.6 0 .6V.564c.024 0 .09 0 .145.028v-.51c0-.033 0-.046-.1-.046H.007V0l.178.004L.364 0v.036H.326c-.1 0-.1.013-.1.046v.554z"/></symbol><use xlink:href="#Y" transform="matrix(6.9738 0 0 -6.9738 12.881 177.064)" fill="#fff"/><use xlink:href="#P" transform="matrix(9.9626 0 0 -9.9626 19.915 174.244)" fill="#fff"/><use xlink:href="#I" transform="matrix(9.9626 0 0 -9.9626 30.272 175.679)" fill="#fff"/><use xlink:href="#J" transform="matrix(9.9626 0 0 -9.9626 35.532 175.679)" fill="#fff"/><use xlink:href="#K" transform="matrix(6.9738 0 0 -6.9738 39.843 178.487)" fill="#fff"/><use xlink:href="#L" transform="matrix(6.9738 0 0 -6.9738 44.432 177.134)" fill="#fff"/><use xlink:href="#M" transform="matrix(6.9738 0 0 -6.9738 46.984 177.134)" fill="#fff"/><use xlink:href="#N" transform="matrix(6.9738 0 0 -6.9738 51.182 178.487)" fill="#fff"/><use xlink:href="#O" transform="matrix(9.9626 0 0 -9.9626 59.142 175.569)" fill="#fff"/><use xlink:href="#P" transform="matrix(9.9626 0 0 -9.9626 61.613 174.244)" fill="#fff"/><use xlink:href="#Q" transform="matrix(9.9626 0 0 -9.9626 71.847 175.788)" fill="#fff"/><use xlink:href="#z" transform="matrix(9.9626 0 0 -9.9626 78.703 178.06)" fill="#fff"/><use xlink:href="#R" transform="matrix(9.9626 0 0 -9.9626 81.831 175.569)" fill="#fff"/><use xlink:href="#S" transform="matrix(9.9626 0 0 -9.9626 91.569 176.396)" fill="#fff"/><use xlink:href="#E" transform="matrix(9.9626 0 0 -9.9626 101.253 175.569)" fill="#fff"/><use xlink:href="#U" transform="matrix(9.9626 0 0 -9.9626 106.812 177.492)" fill="#fff"/><use xlink:href="#E" transform="matrix(9.9626 0 0 -9.9626 110.662 175.569)" fill="#fff"/><use xlink:href="#F" transform="matrix(9.9626 0 0 -9.9626 116.251 175.569)" fill="#fff"/><use xlink:href="#H" transform="matrix(9.9626 0 0 -9.9626 120.913 178.06)" fill="#fff"/><use xlink:href="#V" transform="matrix(9.9626 0 0 -9.9626 126.982 176.396)" fill="#fff"/><use xlink:href="#q" transform="matrix(9.9626 0 0 -9.9626 136.725 175.569)" fill="#fff"/><use xlink:href="#r" transform="matrix(9.9626 0 0 -9.9626 143.23 175.569)" fill="#fff"/><use xlink:href="#o" transform="matrix(9.9626 0 0 -9.9626 149.447 175.569)" fill="#fff"/><use xlink:href="#s" transform="matrix(9.9626 0 0 -9.9626 156.88 175.788)" fill="#fff"/><path d="M315.62 181.743h186.704v-28.919H315.619z" fill="#231f20"/><path stroke-width=".399" stroke-miterlimit="10" fill="none" stroke="#ffe4e1" d="M315.62 181.743h186.704v-28.919H315.619z"/><symbol id="Z"><path d="M.139.332v.11L0 .431V.4C.07.4.078.393.078.344V.076C.078.031.067.031 0 .031V0l.114.003c.04 0 .087 0 .127-.003v.031H.22C.146.031.144.042.144.078v.154c0 .099.042.188.118.188L.273.419A.043.043 0 0 1 .25.38C.25.352.271.337.293.337c.018 0 .043.012.043.044S.305.442.262.442C.189.442.153.375.139.332z"/></symbol><symbol id="aa"><path d="M.106.053a.053.053 0 0 1-.053.053A.053.053 0 0 1 0 .053C0 .024.024 0 .053 0c.029 0 .053.024.053.053z"/></symbol><use xlink:href="#a" transform="matrix(9.9626 0 0 -9.9626 352.335 163.614)" fill="#fff"/><use xlink:href="#b" transform="matrix(9.9626 0 0 -9.9626 355.971 163.614)" fill="#fff"/><use xlink:href="#c" transform="matrix(9.9626 0 0 -9.9626 361.52 163.724)" fill="#fff"/><use xlink:href="#g" transform="matrix(9.9626 0 0 -9.9626 365.396 163.724)" fill="#fff"/><use xlink:href="#Z" transform="matrix(9.9626 0 0 -9.9626 369.82 163.614)" fill="#fff"/><use xlink:href="#d" transform="matrix(9.9626 0 0 -9.9626 373.635 163.724)" fill="#fff"/><use xlink:href="#z" transform="matrix(9.9626 0 0 -9.9626 378.307 166.105)" fill="#fff"/><use xlink:href="#A" transform="matrix(9.9626 0 0 -9.9626 381.525 159.679)" fill="#fff"/><use xlink:href="#B" transform="matrix(9.9626 0 0 -9.9626 386.447 163.614)" fill="#fff"/><use xlink:href="#e" transform="matrix(9.9626 0 0 -9.9626 392.136 163.724)" fill="#fff"/><use xlink:href="#C" transform="matrix(9.9626 0 0 -9.9626 396.977 165.666)" fill="#fff"/><use xlink:href="#A" transform="matrix(9.9626 0 0 -9.9626 402.008 159.679)" fill="#fff"/><use xlink:href="#D" transform="matrix(9.9626 0 0 -9.9626 407.518 165.537)" fill="#fff"/><use xlink:href="#G" transform="matrix(9.9626 0 0 -9.9626 413.137 163.833)" fill="#fff"/><use xlink:href="#D" transform="matrix(9.9626 0 0 -9.9626 418.586 165.537)" fill="#fff"/><use xlink:href="#A" transform="matrix(9.9626 0 0 -9.9626 424.155 159.679)" fill="#fff"/><use xlink:href="#e" transform="matrix(9.9626 0 0 -9.9626 429.226 163.724)" fill="#fff"/><use xlink:href="#e" transform="matrix(9.9626 0 0 -9.9626 434.208 163.724)" fill="#fff"/><use xlink:href="#aa" transform="matrix(9.9626 0 0 -9.9626 439.627 163.614)" fill="#fff"/><use xlink:href="#aa" transform="matrix(9.9626 0 0 -9.9626 442.397 163.614)" fill="#fff"/><use xlink:href="#aa" transform="matrix(9.9626 0 0 -9.9626 445.166 163.614)" fill="#fff"/><use xlink:href="#e" transform="matrix(9.9626 0 0 -9.9626 447.498 163.724)" fill="#fff"/><use xlink:href="#e" transform="matrix(9.9626 0 0 -9.9626 452.479 163.724)" fill="#fff"/><use xlink:href="#A" transform="matrix(9.9626 0 0 -9.9626 457.37 159.679)" fill="#fff"/><use xlink:href="#H" transform="matrix(9.9626 0 0 -9.9626 462.591 166.105)" fill="#fff"/><use xlink:href="#X" transform="matrix(9.9626 0 0 -9.9626 319.346 175.679)" fill="#fff"/><use xlink:href="#x" transform="matrix(6.9738 0 0 -6.9738 323.688 177.064)" fill="#fff"/><use xlink:href="#P" transform="matrix(9.9626 0 0 -9.9626 331.044 174.244)" fill="#fff"/><use xlink:href="#I" transform="matrix(9.9626 0 0 -9.9626 341.4 175.679)" fill="#fff"/><use xlink:href="#J" transform="matrix(9.9626 0 0 -9.9626 346.66 175.679)" fill="#fff"/><use xlink:href="#K" transform="matrix(6.9738 0 0 -6.9738 350.972 178.487)" fill="#fff"/><use xlink:href="#L" transform="matrix(6.9738 0 0 -6.9738 355.56 177.134)" fill="#fff"/><use xlink:href="#M" transform="matrix(6.9738 0 0 -6.9738 358.113 177.134)" fill="#fff"/><use xlink:href="#N" transform="matrix(6.9738 0 0 -6.9738 362.311 178.487)" fill="#fff"/><use xlink:href="#O" transform="matrix(9.9626 0 0 -9.9626 370.27 175.569)" fill="#fff"/><use xlink:href="#P" transform="matrix(9.9626 0 0 -9.9626 372.74 174.244)" fill="#fff"/><use xlink:href="#Q" transform="matrix(9.9626 0 0 -9.9626 382.976 175.788)" fill="#fff"/><use xlink:href="#z" transform="matrix(9.9626 0 0 -9.9626 389.832 178.06)" fill="#fff"/><use xlink:href="#R" transform="matrix(9.9626 0 0 -9.9626 392.96 175.569)" fill="#fff"/><use xlink:href="#S" transform="matrix(9.9626 0 0 -9.9626 402.698 176.396)" fill="#fff"/><use xlink:href="#E" transform="matrix(9.9626 0 0 -9.9626 412.382 175.569)" fill="#fff"/><use xlink:href="#U" transform="matrix(9.9626 0 0 -9.9626 417.94 177.492)" fill="#fff"/><use xlink:href="#E" transform="matrix(9.9626 0 0 -9.9626 421.79 175.569)" fill="#fff"/><use xlink:href="#F" transform="matrix(9.9626 0 0 -9.9626 427.379 175.569)" fill="#fff"/><use xlink:href="#H" transform="matrix(9.9626 0 0 -9.9626 432.041 178.06)" fill="#fff"/><use xlink:href="#V" transform="matrix(9.9626 0 0 -9.9626 438.11 176.396)" fill="#fff"/><use xlink:href="#A" transform="matrix(9.9626 0 0 -9.9626 447.854 171.634)" fill="#fff"/><use xlink:href="#e" transform="matrix(9.9626 0 0 -9.9626 452.925 175.679)" fill="#fff"/><use xlink:href="#e" transform="matrix(9.9626 0 0 -9.9626 461.224 175.679)" fill="#fff"/><symbol id="ab"><path d="M.106.053a.053.053 0 0 1-.053.053A.053.053 0 0 1 0 .053C0 .024.024 0 .053 0c.029 0 .053.024.053.053z"/></symbol><use xlink:href="#ab" transform="matrix(9.9626 0 0 -9.9626 468.307 173.606)" fill="#fff"/><use xlink:href="#ab" transform="matrix(9.9626 0 0 -9.9626 472.74 173.606)" fill="#fff"/><use xlink:href="#ab" transform="matrix(9.9626 0 0 -9.9626 477.163 173.606)" fill="#fff"/><use xlink:href="#e" transform="matrix(9.9626 0 0 -9.9626 481.152 175.679)" fill="#fff"/><use xlink:href="#e" transform="matrix(9.9626 0 0 -9.9626 489.451 175.679)" fill="#fff"/><use xlink:href="#A" transform="matrix(9.9626 0 0 -9.9626 494.343 171.634)" fill="#fff"/><path stroke-width=".399" stroke-miterlimit="10" fill="none" stroke="#ffe4e1" d="M177.145 167.284h129.479"/><path stroke-width=".319" stroke-linecap="round" stroke-linejoin="round" fill="none" stroke="#ffe4e1" d="M178.34 168.878c-.1-.598-1.195-1.495-1.494-1.594.299-.1 1.394-.996 1.494-1.594M305.428 165.69c.1.598 1.195 1.494 1.494 1.594-.299.1-1.394.996-1.494 1.594"/><symbol id="ac"><path d="M.096.347c0 .082.007.156.045.217a.181.181 0 0 0 .152.091c.03 0 .07-.008.09-.035C.358.618.337.601.337.572c0-.025.017-.047.047-.047s.048.02.048.049c0 .058-.042.11-.141.11C.147.684 0 .552 0 .337 0 .078.122 0 .232 0 .354 0 .46.093.46.224a.219.219 0 0 1-.218.221C.162.445.118.392.096.347M.232.032a.12.12 0 0 0-.11.073.338.338 0 0 0-.023.14c0 .097.058.172.138.172A.113.113 0 0 0 .339.362C.363.324.364.282.364.224c0-.057 0-.099-.027-.138A.117.117 0 0 0 .232.032z"/></symbol><use xlink:href="#h" transform="matrix(6.9738 0 0 -6.9738 219.904 162.931)" fill="#fff"/><use xlink:href="#w" transform="matrix(6.9738 0 0 -6.9738 225.748 163.754)" fill="#fff"/><use xlink:href="#ac" transform="matrix(6.9738 0 0 -6.9738 231.752 163.07)" fill="#fff"/><use xlink:href="#i" transform="matrix(6.9738 0 0 -6.9738 238.35 163)" fill="#fff"/><use xlink:href="#j" transform="matrix(6.9738 0 0 -6.9738 241.467 163)" fill="#fff"/><use xlink:href="#k" transform="matrix(6.9738 0 0 -6.9738 245.058 163)" fill="#fff"/><use xlink:href="#l" transform="matrix(6.9738 0 0 -6.9738 248.552 163)" fill="#fff"/><use xlink:href="#m" transform="matrix(6.9738 0 0 -6.9738 252.632 162.931)" fill="#fff"/><use xlink:href="#n" transform="matrix(6.9738 0 0 -6.9738 256.976 163)" fill="#fff"/><use xlink:href="#i" transform="matrix(6.9738 0 0 -6.9738 261.37 163)" fill="#fff"/><path stroke-width=".797" stroke-miterlimit="10" fill="none" stroke="#ffe4e1" d="M171.017 18.463V185.71M312.751 18.463V185.71"/></svg>
