<svg xmlns="http://www.w3.org/2000/svg" xmlns:xlink="http://www.w3.org/1999/xlink" width="560.532" height="221.401" viewBox="0 0 420.399 166.051"><path d="M-.002 166.053V-.001h420.405v166.054zM420.403-.001" fill="#231f20"/><path d="M75.553 19.63h56.694V4.688H75.553z" fill="#3b3b46"/><path stroke-width=".797" stroke-miterlimit="10" fill="none" stroke="#ffe4e1" d="M75.553 19.63h56.694V4.688H75.553z"/><symbol id="a"><path d="M.71.717a.01.01 0 0 1-.011.01C.696.727.695.726.684.715L.614.638C.605.652.559.727.448.727A.48.48 0 0 1 0 .274C0 .109.118 0 .271 0c.087 0 .163.04.216.086a.33.33 0 0 1 .11.176c0 .01-.01.01-.012.01C.579.272.574.27.572.262A.325.325 0 0 0 .471.104.289.289 0 0 0 .287.031c-.09 0-.196.052-.196.208a.57.57 0 0 0 .121.336.34.34 0 0 0 .244.121C.558.696.617.619.617.503.617.463.614.462.614.452c0-.01.011-.01.015-.01.013 0 .013.002.018.02L.71.717z"/></symbol><symbol id="b"><path d="M.118.078C.108.039.106.031.027.031.01.031 0 .031 0 .011 0 0 .009 0 .027 0h.357C.542 0 .66.118.66.216c0 .072-.058.13-.155.141.104.019.209.093.209.188 0 .074-.066.138-.186.138H.192c-.019 0-.029 0-.029-.02 0-.011.009-.011.028-.011.002 0 .021 0 .038-.002C.247.648.256.647.256.634L.252.615.118.078m.151.288.062.248C.34.649.342.652.385.652h.129C.602.652.623.593.623.549.623.461.537.366.415.366H.269M.224.031a.11.11 0 0 0-.022.001C.192.033.189.034.189.042c0 .003 0 .005.005.023l.069.279h.189C.548.344.567.27.567.227A.205.205 0 0 0 .36.031H.224z"/></symbol><use xlink:href="#a" transform="matrix(9.9626 0 0 -9.9626 94.22 15.035)" fill="#fff"/><use xlink:href="#b" transform="matrix(9.9626 0 0 -9.9626 101.98 14.816)" fill="#fff"/><symbol id="c"><path d="M.464.339c0 .11-.013.189-.059.259a.208.208 0 0 1-.173.086C0 .684 0 .411 0 .339 0 .267 0 0 .232 0s.232.267.232.339M.232.028C.186.028.125.055.105.137.091.196.091.278.091.352c0 .073 0 .149.015.204.021.079.085.1.126.1A.129.129 0 0 0 .356.565.813.813 0 0 0 .373.352c0-.074 0-.148-.013-.211C.34.05.272.028.232.028z"/></symbol><use xlink:href="#c" transform="matrix(6.9738 0 0 -6.9738 109.974 16.45)" fill="#fff"/><path d="M217.287 19.63h56.694V4.688h-56.694z" fill="#3b3b46"/><path stroke-width=".797" stroke-miterlimit="10" fill="none" stroke="#ffe4e1" d="M217.287 19.63h56.694V4.688h-56.694z"/><use xlink:href="#a" transform="matrix(9.9626 0 0 -9.9626 235.951 15.035)" fill="#fff"/><use xlink:href="#b" transform="matrix(9.9626 0 0 -9.9626 243.712 14.816)" fill="#fff"/><symbol id="d"><path d="M.226.636c0 .027-.002.028-.03.028C.132.601.041.6 0 .6V.564c.024 0 .09 0 .145.028v-.51c0-.033 0-.046-.1-.046H.007V0l.178.004L.364 0v.036H.326c-.1 0-.1.013-.1.046v.554z"/></symbol><use xlink:href="#d" transform="matrix(6.9738 0 0 -6.9738 252.103 16.31)" fill="#fff"/><path d="M359.021 19.63h56.694V4.688H359.02z" fill="#3b3b46"/><path stroke-width=".797" stroke-miterlimit="10" fill="none" stroke="#ffe4e1" d="M359.021 19.63h56.694V4.688H359.02z"/><use xlink:href="#a" transform="matrix(9.9626 0 0 -9.9626 377.683 15.035)" fill="#fff"/><use xlink:href="#b" transform="matrix(9.9626 0 0 -9.9626 385.444 14.816)" fill="#fff"/><symbol id="e"><path d="M.442.182H.408C.405.16.395.101.382.091.374.085.297.085.283.085H.099a3.5 3.5 0 0 0 .2.168c.074.059.143.121.143.216C.442.59.336.664.208.664.084.664 0 .577 0 .485 0 .434.043.429.053.429c.024 0 .053.017.053.053C.106.5.099.535.047.535a.157.157 0 0 0 .146.093c.1 0 .152-.078.152-.159C.345.382.283.313.251.277L.01.039C0 .03 0 .028 0 0h.412l.03.182z"/></symbol><use xlink:href="#e" transform="matrix(6.9738 0 0 -6.9738 393.514 16.31)" fill="#fff"/><path d="M18.86 61.404h28.346v-13.45H18.86z" fill="#3b3b46"/><path stroke-width=".797" stroke-miterlimit="10" fill="none" stroke="#ffe4e1" d="M18.86 61.404h28.346v-13.45H18.86z"/><symbol id="f"><path d="M.166.66C.155.442.064.178.005.022L0 .007C0 0 .008 0 .01 0c.018 0 .054.019.07.038.005.007.135.334.165.588.005.04.007.081.007.085 0 .012 0 .016-.011.016A.244.244 0 0 1 .18.702C.134.679.096.66.096.642c0-.006.007-.006.011-.006.009 0 .011 0 .059.024M.697.149c0 .001 0 .009-.012.009a.048.048 0 0 1-.03-.012C.643.138.641.135.636.119.609.043.511.043.509.043.412.043.271.357.271.447c0 .016.003.026.038.062.074.073.251.175.298.175.021 0 .036-.016.036-.042L.641.626C.641.62.644.615.653.615c.002 0 .05.003.05.052 0 .034-.021.06-.058.06C.577.727.439.647.36.591.318.56.211.484.211.422.211.336.312.12.384.047.419.013.44 0 .47 0a.27.27 0 0 1 .197.089c.026.032.03.057.03.06z"/></symbol><use xlink:href="#f" transform="matrix(9.9626 0 0 -9.9626 29.466 58.302)" fill="#fff"/><path d="M162.011 61.404h28.347v-13.45H162.01z" fill="#3b3b46"/><path stroke-width=".797" stroke-miterlimit="10" fill="none" stroke="#ffe4e1" d="M162.011 61.404h28.347v-13.45H162.01z"/><use xlink:href="#f" transform="matrix(9.9626 0 0 -9.9626 172.616 58.302)" fill="#fff"/><path d="M302.328 61.404h28.346v-13.45h-28.346z" fill="#3b3b46"/><path stroke-width=".797" stroke-miterlimit="10" fill="none" stroke="#ffe4e1" d="M302.328 61.404h28.346v-13.45h-28.346z"/><use xlink:href="#f" transform="matrix(9.9626 0 0 -9.9626 312.93 58.302)" fill="#fff"/><path d="M75.553 62.981h56.694V46.377H75.553z" fill="#3b3b46"/><path stroke-width=".797" stroke-miterlimit="10" fill="none" stroke="#ffe4e1" d="M75.553 62.981h56.694V46.377H75.553z"/><symbol id="g"><path d="M.211.385C.011.277 0 .148 0 .124 0 .048.074 0 .169 0 .336 0 .47.158.47.179.47.185.465.186.46.186A.115.115 0 0 1 .387.142C.366.113.324.055.235.055c-.071 0-.15.037-.15.112 0 .049.056.197.214.203.047.002.082.037.082.048 0 .006-.005.007-.01.007C.23.431.202.5.202.54c0 .023.015.132.155.132.019 0 .095-.003.095-.055A.069.069 0 0 0 .44.581C.438.578.435.573.435.57c0-.007.007-.007.01-.007.03 0 .092.039.092.096 0 .059-.069.068-.114.068C.287.727.117.619.117.497c0-.059.045-.095.094-.112z"/></symbol><use xlink:href="#g" transform="matrix(9.9626 0 0 -9.9626 87.051 57.39)" fill="#fff"/><symbol id="h"><path d="M.232.01c0 .003 0 .005-.017.022C.09.158.058.347.058.5c0 .174.038.348.161.473.013.012.013.014.013.017 0 .007-.004.01-.01.01-.01 0-.1-.068-.159-.195A.727.727 0 0 1 0 .5C0 .422.011.301.066.188A.432.432 0 0 1 .222 0c.006 0 .01.003.01.01z"/></symbol><use xlink:href="#h" transform="matrix(9.9626 0 0 -9.9626 93.907 59.66)" fill="#fff"/><use xlink:href="#a" transform="matrix(9.9626 0 0 -9.9626 97.294 57.39)" fill="#fff"/><use xlink:href="#b" transform="matrix(9.9626 0 0 -9.9626 105.055 57.17)" fill="#fff"/><use xlink:href="#c" transform="matrix(6.9738 0 0 -6.9738 113.048 58.803)" fill="#fff"/><symbol id="i"><path d="M.232.5a.729.729 0 0 1-.066.312A.432.432 0 0 1 .01 1C.004 1 0 .996 0 .99 0 .987 0 .985.019.967.117.868.174.709.174.5.174.329.137.153.013.027 0 .015 0 .013 0 .01 0 .004.004 0 .01 0c.01 0 .1.068.159.195C.22.305.232.416.232.5z"/></symbol><use xlink:href="#i" transform="matrix(9.9626 0 0 -9.9626 117.723 59.66)" fill="#fff"/><path d="M217.287 62.981h56.694V46.377h-56.694z" fill="#3b3b46"/><path stroke-width=".797" stroke-miterlimit="10" fill="none" stroke="#ffe4e1" d="M217.287 62.981h56.694V46.377h-56.694z"/><use xlink:href="#g" transform="matrix(9.9626 0 0 -9.9626 228.783 57.39)" fill="#fff"/><use xlink:href="#h" transform="matrix(9.9626 0 0 -9.9626 235.64 59.66)" fill="#fff"/><use xlink:href="#a" transform="matrix(9.9626 0 0 -9.9626 239.026 57.39)" fill="#fff"/><use xlink:href="#b" transform="matrix(9.9626 0 0 -9.9626 246.787 57.17)" fill="#fff"/><use xlink:href="#d" transform="matrix(6.9738 0 0 -6.9738 255.177 58.664)" fill="#fff"/><use xlink:href="#i" transform="matrix(9.9626 0 0 -9.9626 259.455 59.66)" fill="#fff"/><path d="M359.021 62.981h56.694V46.377H359.02z" fill="#3b3b46"/><path stroke-width=".797" stroke-miterlimit="10" fill="none" stroke="#ffe4e1" d="M359.021 62.981h56.694V46.377H359.02z"/><use xlink:href="#g" transform="matrix(9.9626 0 0 -9.9626 370.515 57.39)" fill="#fff"/><use xlink:href="#h" transform="matrix(9.9626 0 0 -9.9626 377.372 59.66)" fill="#fff"/><use xlink:href="#a" transform="matrix(9.9626 0 0 -9.9626 380.758 57.39)" fill="#fff"/><use xlink:href="#b" transform="matrix(9.9626 0 0 -9.9626 388.519 57.17)" fill="#fff"/><use xlink:href="#e" transform="matrix(6.9738 0 0 -6.9738 396.59 58.664)" fill="#fff"/><use xlink:href="#i" transform="matrix(9.9626 0 0 -9.9626 401.187 59.66)" fill="#fff"/><path d="M108.596 97.2a4.696 4.696 0 1 0-9.392 0 4.696 4.696 0 0 0 9.392 0zm-4.696 0" fill="#231f20"/><path stroke-width=".797" stroke-miterlimit="10" fill="none" stroke="#ffe9e7" d="M108.596 97.2a4.696 4.696 0 1 0-9.392 0 4.696 4.696 0 0 0 9.392 0zM103.9 92.902v8.595M108.198 97.2h-8.596"/><path d="M250.33 97.2a4.696 4.696 0 1 0-9.392 0 4.696 4.696 0 0 0 9.392 0zm-4.696 0" fill="#231f20"/><path stroke-width=".797" stroke-miterlimit="10" fill="none" stroke="#ffe9e7" d="M250.33 97.2a4.696 4.696 0 1 0-9.392 0 4.696 4.696 0 0 0 9.392 0zM245.634 92.902v8.595M249.932 97.2h-8.596"/><path d="M392.064 97.2a4.696 4.696 0 1 0-9.392 0 4.696 4.696 0 0 0 9.392 0zm-4.696 0" fill="#231f20"/><path stroke-width=".797" stroke-miterlimit="10" fill="none" stroke="#ffe9e7" d="M392.064 97.2a4.696 4.696 0 1 0-9.392 0 4.696 4.696 0 0 0 9.392 0zM387.368 92.902v8.595M391.666 97.2h-8.596"/><path d="M4.686 104.671H61.38V89.728H4.686z" fill="#3b3b46"/><path stroke-width=".797" stroke-miterlimit="10" fill="none" stroke="#ffe4e1" d="M4.686 104.671H61.38V89.728H4.686z"/><symbol id="j"><path d="M.263.316h.17c.142 0 .281.104.281.216 0 .077-.066.151-.197.151H.193c-.019 0-.03 0-.03-.019 0-.012.009-.012.029-.012A.59.59 0 0 0 .235.65C.251.648.257.645.257.634L.253.615.119.078C.109.039.107.031.028.031.011.031 0 .031 0 .012 0 0 .012 0 .015 0l.127.003.064-.001L.271 0c.007 0 .02 0 .02.02 0 .011-.009.011-.028.011-.037 0-.065 0-.065.018C.198.055.2.06.201.066l.062.25m.072.298c.009.035.011.038.054.038h.096C.568.652.621.625.621.556.621.517.601.431.562.395A.224.224 0 0 0 .408.342H.267l.068.272z"/></symbol><use xlink:href="#j" transform="matrix(9.9626 0 0 -9.9626 28 99.855)" fill="#fff"/><use xlink:href="#c" transform="matrix(6.9738 0 0 -6.9738 34.36 101.49)" fill="#fff"/><path d="M146.42 104.671h56.694V89.728H146.42z" fill="#3b3b46"/><path stroke-width=".797" stroke-miterlimit="10" fill="none" stroke="#ffe4e1" d="M146.42 104.671h56.694V89.728H146.42z"/><use xlink:href="#j" transform="matrix(9.9626 0 0 -9.9626 169.732 99.855)" fill="#fff"/><use xlink:href="#d" transform="matrix(6.9738 0 0 -6.9738 176.49 101.35)" fill="#fff"/><path d="M288.154 104.671h56.694V89.728h-56.694z" fill="#3b3b46"/><path stroke-width=".797" stroke-miterlimit="10" fill="none" stroke="#ffe4e1" d="M288.154 104.671h56.694V89.728h-56.694z"/><use xlink:href="#j" transform="matrix(9.9626 0 0 -9.9626 311.464 99.855)" fill="#fff"/><use xlink:href="#e" transform="matrix(6.9738 0 0 -6.9738 317.901 101.35)" fill="#fff"/><path d="M75.553 161.365h56.694V146.42H75.553z" fill="#4e4e56"/><path stroke-width=".797" stroke-miterlimit="10" fill="none" stroke="#ffe9e7" d="M75.553 161.365h56.694V146.42H75.553z"/><use xlink:href="#a" transform="matrix(9.9626 0 0 -9.9626 98.604 156.767)" fill="#fff"/><use xlink:href="#c" transform="matrix(6.9738 0 0 -6.9738 105.589 158.181)" fill="#fff"/><path d="M217.287 161.365h56.694V146.42h-56.694z" fill="#4e4e56"/><path stroke-width=".797" stroke-miterlimit="10" fill="none" stroke="#ffe9e7" d="M217.287 161.365h56.694V146.42h-56.694z"/><use xlink:href="#a" transform="matrix(9.9626 0 0 -9.9626 240.336 156.767)" fill="#fff"/><use xlink:href="#d" transform="matrix(6.9738 0 0 -6.9738 247.718 158.042)" fill="#fff"/><path d="M359.021 161.365h56.694V146.42H359.02z" fill="#4e4e56"/><path stroke-width=".797" stroke-miterlimit="10" fill="none" stroke="#ffe9e7" d="M359.021 161.365h56.694V146.42H359.02z"/><use xlink:href="#a" transform="matrix(9.9626 0 0 -9.9626 382.068 156.767)" fill="#fff"/><use xlink:href="#e" transform="matrix(6.9738 0 0 -6.9738 389.13 158.042)" fill="#fff"/><path stroke-width=".797" stroke-miterlimit="10" fill="none" stroke="#ffe4e1" d="M103.9 20.03V45.27"/><path stroke-width=".638" stroke-linecap="round" stroke-linejoin="round" fill="none" stroke="#ffe4e1" d="M105.972 43.717c-.777.13-1.942 1.554-2.072 1.943-.13-.389-1.295-1.813-2.072-1.943"/><path stroke-width=".797" stroke-miterlimit="10" fill="none" stroke="#ffe4e1" d="M245.634 20.03V45.27"/><path stroke-width=".638" stroke-linecap="round" stroke-linejoin="round" fill="none" stroke="#ffe4e1" d="M247.706 43.717c-.777.13-1.942 1.554-2.072 1.943-.13-.389-1.295-1.813-2.072-1.943"/><path stroke-width=".797" stroke-miterlimit="10" fill="none" stroke="#ffe4e1" d="M387.368 20.03V45.27"/><path stroke-width=".638" stroke-linecap="round" stroke-linejoin="round" fill="none" stroke="#ffe4e1" d="M389.44 43.717c-.777.13-1.942 1.554-2.072 1.943-.13-.389-1.295-1.813-2.072-1.943"/><path stroke-width=".797" stroke-miterlimit="10" fill="none" stroke="#ffe4e1" d="M47.605 54.68h26.842"/><path stroke-width=".638" stroke-linecap="round" stroke-linejoin="round" fill="none" stroke="#ffe4e1" d="M72.893 52.607c.13.777 1.554 1.943 1.943 2.072-.389.13-1.813 1.295-1.943 2.072"/><path stroke-width=".797" stroke-miterlimit="10" fill="none" stroke="#ffe4e1" d="M190.756 54.68h25.425"/><path stroke-width=".638" stroke-linecap="round" stroke-linejoin="round" fill="none" stroke="#ffe4e1" d="M214.627 52.607c.13.777 1.554 1.943 1.943 2.072-.389.13-1.813 1.295-1.943 2.072"/><path stroke-width=".797" stroke-miterlimit="10" fill="none" stroke="#ffe4e1" d="M331.073 54.68h26.842"/><path stroke-width=".638" stroke-linecap="round" stroke-linejoin="round" fill="none" stroke="#ffe4e1" d="M356.361 52.607c.13.777 1.554 1.943 1.943 2.072-.389.13-1.813 1.295-1.943 2.072"/><path stroke-width=".797" stroke-miterlimit="10" fill="none" stroke="#ffe4e1" d="M103.9 63.38v28.017"/><path stroke-width=".638" stroke-linecap="round" stroke-linejoin="round" fill="none" stroke="#ffe4e1" d="M105.972 89.843c-.777.13-1.942 1.554-2.072 1.943-.13-.389-1.295-1.813-2.072-1.943"/><path stroke-width=".797" stroke-miterlimit="10" fill="none" stroke="#ffe4e1" d="M245.634 63.38v28.017"/><path stroke-width=".638" stroke-linecap="round" stroke-linejoin="round" fill="none" stroke="#ffe4e1" d="M247.706 89.843c-.777.13-1.942 1.554-2.072 1.943-.13-.389-1.295-1.813-2.072-1.943"/><path stroke-width=".797" stroke-miterlimit="10" fill="none" stroke="#ffe4e1" d="M387.368 63.38v28.017"/><path stroke-width=".638" stroke-linecap="round" stroke-linejoin="round" fill="none" stroke="#ffe4e1" d="M389.44 89.843c-.777.13-1.942 1.554-2.072 1.943-.13-.389-1.295-1.813-2.072-1.943"/><path stroke-width=".797" stroke-miterlimit="10" fill="none" stroke="#ffe4e1" d="M61.778 97.2h36.32"/><path stroke-width=".638" stroke-linecap="round" stroke-linejoin="round" fill="none" stroke="#ffe4e1" d="M96.544 95.127c.13.777 1.554 1.943 1.942 2.072-.388.13-1.813 1.296-1.942 2.073"/><path stroke-width=".797" stroke-miterlimit="10" fill="none" stroke="#ffe4e1" d="M203.512 97.2h36.32"/><path stroke-width=".638" stroke-linecap="round" stroke-linejoin="round" fill="none" stroke="#ffe4e1" d="M238.278 95.127c.13.777 1.554 1.943 1.942 2.072-.388.13-1.813 1.296-1.942 2.073"/><path stroke-width=".797" stroke-miterlimit="10" fill="none" stroke="#ffe4e1" d="M345.246 97.2h36.32"/><path stroke-width=".638" stroke-linecap="round" stroke-linejoin="round" fill="none" stroke="#ffe4e1" d="M380.012 95.127c.13.777 1.554 1.943 1.942 2.072-.388.13-1.813 1.296-1.942 2.073"/><path stroke-width=".797" stroke-miterlimit="10" fill="none" stroke="#ffe4e1" d="M103.9 102.294v43.021"/><path stroke-width=".638" stroke-linecap="round" stroke-linejoin="round" fill="none" stroke="#ffe4e1" d="M105.972 143.761c-.777.13-1.942 1.554-2.072 1.943-.13-.389-1.295-1.813-2.072-1.943"/><path stroke-width=".797" stroke-miterlimit="10" fill="none" stroke="#ffe4e1" d="M245.634 102.294v43.021"/><path stroke-width=".638" stroke-linecap="round" stroke-linejoin="round" fill="none" stroke="#ffe4e1" d="M247.706 143.761c-.777.13-1.942 1.554-2.072 1.943-.13-.389-1.295-1.813-2.072-1.943"/><path stroke-width=".797" stroke-miterlimit="10" fill="none" stroke="#ffe4e1" d="M387.368 102.294v43.021"/><path stroke-width=".638" stroke-linecap="round" stroke-linejoin="round" fill="none" stroke="#ffe4e1" d="M389.44 143.761c-.777.13-1.942 1.554-2.072 1.943-.13-.389-1.295-1.813-2.072-1.943"/></svg>