<svg version="1.1" viewBox="0.0 0.0 960.0 540.0" fill="none" stroke="none" stroke-linecap="square" stroke-miterlimit="10" xmlns:xlink="http://www.w3.org/1999/xlink" xmlns="http://www.w3.org/2000/svg"><clipPath id="g2ba135da63f_0_0.0"><path d="m0 0l960.0 0l0 540.0l-960.0 0l0 -540.0z" clip-rule="nonzero"/></clipPath><g clip-path="url(#g2ba135da63f_0_0.0)"><path fill="#000000" fill-opacity="0.0" d="m0 0l960.0 0l0 540.0l-960.0 0z" fill-rule="evenodd"/><path fill="#000000" fill-opacity="0.0" d="m66.342224 199.73454l0 0c0 -4.3371887 3.5159836 -7.85318 7.8531723 -7.85318l42.90783 0c2.0827866 0 4.0802765 0.8273926 5.553032 2.3001404c1.4727554 1.4727631 2.3001404 3.4702454 2.3001404 5.5530396l0 31.411758c0 4.3371887 -3.5159836 7.85318 -7.8531723 7.85318l-42.90783 0l0 0c-4.3371887 0 -7.8531723 -3.5159912 -7.8531723 -7.85318z" fill-rule="evenodd"/><path stroke="#ffffff" stroke-width="2.0" stroke-linejoin="round" stroke-linecap="butt" d="m66.342224 199.73454l0 0c0 -4.3371887 3.5159836 -7.85318 7.8531723 -7.85318l42.90783 0c2.0827866 0 4.0802765 0.8273926 5.553032 2.3001404c1.4727554 1.4727631 2.3001404 3.4702454 2.3001404 5.5530396l0 31.411758c0 4.3371887 -3.5159836 7.85318 -7.8531723 7.85318l-42.90783 0l0 0c-4.3371887 0 -7.8531723 -3.5159912 -7.8531723 -7.85318z" fill-rule="evenodd"/><path fill="#ffffff" d="m86.266495 219.3473q0 -0.328125 0.21875 -0.53125q0.234375 -0.203125 0.578125 -0.203125q0.375 0 0.671875 0.4375q0.390625 0.59375 0.703125 0.796875q0.671875 0.4375 1.9375 0.4375q1.203125 0 2.25 -0.515625q1.328125 -0.671875 1.328125 -1.875q0 -0.984375 -1.125 -1.546875q-0.9375 -0.5 -2.328125 -0.53125q-1.234375 -0.046875 -2.109375 -0.546875q-1.109375 -0.625 -1.109375 -1.8125q0 -1.390625 1.578125 -2.53125q1.515625 -1.09375 3.125 -1.09375q0.75 0 1.703125 0.265625q1.265625 0.328125 1.265625 0.859375q0 0.6875 -0.703125 0.6875q-0.3125 0 -1.09375 -0.171875q-0.78125 -0.171875 -1.203125 -0.15625q-1.21875 0.015625 -2.078125 0.59375q-0.875 0.609375 -0.875 1.46875q0 0.640625 1.15625 0.90625q0.4375 0.109375 1.671875 0.1875q1.78125 0.140625 2.796875 1.125q0.921875 0.90625 0.921875 2.21875q0 1.859375 -1.71875 2.96875q-1.5 0.96875 -3.46875 0.96875q-1.421875 0 -2.609375 -0.5625q-1.453125 -0.671875 -1.484375 -1.84375zm19.0625 -8.25l-0.703125 0.828125q-1.015625 1.1875 -1.875 2.875l-1.421875 3.109375q-0.140625 0.34375 -0.65625 1.8125q-0.40625 1.15625 -0.75 1.734375q-0.21875 0.359375 -0.625 0.359375q-0.3125 0 -0.5625 -0.21875q-0.234375 -0.21875 -0.234375 -0.53125q0 -0.296875 0.5 -1.515625l1.765625 -4.3125q1.15625 -2.546875 2.390625 -3.9375l0.140625 -0.15625l-3.921875 -0.078125l-1.75 -0.046875q-0.765625 -0.078125 -0.765625 -0.75q0 -0.328125 0.21875 -0.53125q0.21875 -0.21875 0.546875 -0.21875q0.984375 0 2.953125 0.0625q1.984375 0.0625 2.96875 0.0625l1.421875 0q0.828125 0 0.828125 0.484375q0 0.375 -0.46875 0.96875z" fill-rule="nonzero"/><path fill="#000000" fill-opacity="0.0" d="m166.14307 199.73454l0 0c0 -4.3371887 3.5159912 -7.85318 7.85318 -7.85318l42.90782 0c2.0827942 0 4.0802765 0.8273926 5.5530396 2.3001404c1.4727478 1.4727631 2.3001404 3.4702454 2.3001404 5.5530396l0 31.411758c0 4.3371887 -3.5159912 7.85318 -7.85318 7.85318l-42.90782 0l0 0c-4.3371887 0 -7.85318 -3.5159912 -7.85318 -7.85318z" fill-rule="evenodd"/><path stroke="#ffffff" stroke-width="2.0" stroke-linejoin="round" stroke-linecap="butt" d="m166.14307 199.73454l0 0c0 -4.3371887 3.5159912 -7.85318 7.85318 -7.85318l42.90782 0c2.0827942 0 4.0802765 0.8273926 5.5530396 2.3001404c1.4727478 1.4727631 2.3001404 3.4702454 2.3001404 5.5530396l0 31.411758c0 4.3371887 -3.5159912 7.85318 -7.85318 7.85318l-42.90782 0l0 0c-4.3371887 0 -7.85318 -3.5159912 -7.85318 -7.85318z" fill-rule="evenodd"/><path fill="#ffffff" d="m186.06734 219.3473q0 -0.328125 0.21875 -0.53125q0.234375 -0.203125 0.578125 -0.203125q0.375 0 0.671875 0.4375q0.390625 0.59375 0.703125 0.796875q0.671875 0.4375 1.9375 0.4375q1.203125 0 2.25 -0.515625q1.328125 -0.671875 1.328125 -1.875q0 -0.984375 -1.125 -1.546875q-0.9375 -0.5 -2.328125 -0.53125q-1.234375 -0.046875 -2.109375 -0.546875q-1.109375 -0.625 -1.109375 -1.8125q0 -1.390625 1.578125 -2.53125q1.515625 -1.09375 3.125 -1.09375q0.75 0 1.703125 0.265625q1.265625 0.328125 1.265625 0.859375q0 0.6875 -0.703125 0.6875q-0.3125 0 -1.09375 -0.171875q-0.78125 -0.171875 -1.203125 -0.15625q-1.21875 0.015625 -2.078125 0.59375q-0.875 0.609375 -0.875 1.46875q0 0.640625 1.15625 0.90625q0.4375 0.109375 1.671875 0.1875q1.78125 0.140625 2.796875 1.125q0.921875 0.90625 0.921875 2.21875q0 1.859375 -1.71875 2.96875q-1.5 0.96875 -3.46875 0.96875q-1.421875 0 -2.609375 -0.5625q-1.453125 -0.671875 -1.484375 -1.84375zm14.71875 2.515625q-2.046875 0 -3.0 -1.5q-0.796875 -1.21875 -0.796875 -3.265625q0 -3.859375 3.125 -6.703125l0.734375 -0.734375q0.546875 -0.515625 0.8125 -0.515625q0.3125 0 0.546875 0.21875q0.234375 0.21875 0.25 0.53125q0.015625 0.28125 -0.796875 1.078125l-1.59375 1.5625q-0.640625 0.640625 -1.09375 1.9375q0.6875 -0.3125 1.1875 -0.46875q0.515625 -0.15625 0.84375 -0.15625q1.828125 0 2.796875 0.984375q0.984375 0.96875 0.984375 2.75q0 1.875 -1.0625 3.046875q-1.09375 1.234375 -2.9375 1.234375zm0 -6.421875q-0.671875 0 -1.203125 0.234375q-0.203125 0.09375 -1.03125 0.609375q-0.046875 0.40625 -0.046875 0.8125q0 1.390625 0.46875 2.28125q0.59375 1.125 1.859375 1.125q1.171875 0 1.828125 -0.84375q0.59375 -0.78125 0.59375 -2.078125q0 -1.0625 -0.625 -1.59375q-0.609375 -0.546875 -1.84375 -0.546875z" fill-rule="nonzero"/><path fill="#000000" fill-opacity="0.0" d="m265.9439 199.73454l0 0c0 -4.3371887 3.5159912 -7.85318 7.85318 -7.85318l42.907837 0c2.0827942 0 4.080261 0.8273926 5.553009 2.3001404c1.4727783 1.4727631 2.3001404 3.4702454 2.3001404 5.5530396l0 31.411758c0 4.3371887 -3.5159607 7.85318 -7.8531494 7.85318l-42.907837 0l0 0c-4.3371887 0 -7.85318 -3.5159912 -7.85318 -7.85318z" fill-rule="evenodd"/><path stroke="#ffffff" stroke-width="2.0" stroke-linejoin="round" stroke-linecap="butt" d="m265.9439 199.73454l0 0c0 -4.3371887 3.5159912 -7.85318 7.85318 -7.85318l42.907837 0c2.0827942 0 4.080261 0.8273926 5.553009 2.3001404c1.4727783 1.4727631 2.3001404 3.4702454 2.3001404 5.5530396l0 31.411758c0 4.3371887 -3.5159607 7.85318 -7.8531494 7.85318l-42.907837 0l0 0c-4.3371887 0 -7.85318 -3.5159912 -7.85318 -7.85318z" fill-rule="evenodd"/><path fill="#ffffff" d="m285.8682 219.3473q0 -0.328125 0.21875 -0.53125q0.234375 -0.203125 0.578125 -0.203125q0.375 0 0.671875 0.4375q0.390625 0.59375 0.703125 0.796875q0.671875 0.4375 1.9375 0.4375q1.203125 0 2.25 -0.515625q1.328125 -0.671875 1.328125 -1.875q0 -0.984375 -1.125 -1.546875q-0.9375 -0.5 -2.328125 -0.53125q-1.234375 -0.046875 -2.109375 -0.546875q-1.109375 -0.625 -1.109375 -1.8125q0 -1.390625 1.578125 -2.53125q1.515625 -1.09375 3.125 -1.09375q0.75 0 1.703125 0.265625q1.265625 0.328125 1.265625 0.859375q0 0.6875 -0.703125 0.6875q-0.3125 0 -1.09375 -0.171875q-0.78125 -0.171875 -1.203125 -0.15625q-1.21875 0.015625 -2.078125 0.59375q-0.875 0.609375 -0.875 1.46875q0 0.640625 1.15625 0.90625q0.4375 0.109375 1.671875 0.1875q1.78125 0.140625 2.796875 1.125q0.921875 0.90625 0.921875 2.21875q0 1.859375 -1.71875 2.96875q-1.5 0.96875 -3.46875 0.96875q-1.421875 0 -2.609375 -0.5625q-1.453125 -0.671875 -1.484375 -1.84375zm14.4375 2.453125q-2.21875 0 -3.265625 -1.65625q-0.140625 -0.21875 -0.140625 -0.4375q0 -0.296875 0.234375 -0.515625q0.25 -0.234375 0.5625 -0.234375q0.3125 0 0.609375 0.34375q0.40625 0.5 0.625 0.640625q0.5 0.34375 1.375 0.34375q1.359375 0 2.25 -1.03125q0.84375 -0.984375 0.84375 -2.359375q0 -1.140625 -0.375 -1.859375q-0.484375 -0.890625 -1.484375 -0.890625q-0.84375 0 -1.375 0.21875q-0.421875 0.1875 -0.84375 0.625l-0.859375 0.921875q-0.34375 0.359375 -0.703125 0.359375q-0.3125 0 -0.53125 -0.21875q-0.21875 -0.234375 -0.21875 -0.546875q0 -0.15625 0.125 -1.390625q0.265625 -2.453125 0.265625 -3.234375q0 -0.265625 -0.140625 -0.59375q-0.125 -0.328125 -0.125 -0.484375q0 -0.46875 0.8125 -0.46875q0.15625 0 0.46875 0.03125q0.328125 0.015625 0.484375 0.015625q0.453125 0 1.359375 -0.03125q0.90625 -0.03125 1.359375 -0.03125q0.203125 0 0.625 0.015625q0.4375 0.015625 0.65625 0.015625q0.140625 0 0.421875 -0.046875q0.28125 -0.0625 0.421875 -0.0625q0.3125 0 0.546875 0.234375q0.234375 0.21875 0.234375 0.515625q0 0.875 -1.859375 0.875q-0.234375 0 -0.609375 -0.015625q-0.359375 -0.015625 -0.4375 -0.015625l-1.328125 0.015625l-1.3125 0.046875q0 0.34375 -0.296875 2.59375q1.078125 -0.84375 2.859375 -0.84375q1.71875 0 2.625 1.34375q0.765625 1.140625 0.765625 2.90625q0 2.109375 -1.234375 3.46875q-1.28125 1.4375 -3.390625 1.4375z" fill-rule="nonzero"/><path fill="#000000" fill-opacity="0.0" d="m365.74475 199.73454l0 0c0 -4.3371887 3.5159912 -7.85318 7.85318 -7.85318l42.907837 0c2.0827942 0 4.080261 0.8273926 5.5530396 2.3001404c1.4727478 1.4727631 2.3001404 3.4702454 2.3001404 5.5530396l0 31.411758c0 4.3371887 -3.5159912 7.85318 -7.85318 7.85318l-42.907837 0l0 0c-4.3371887 0 -7.85318 -3.5159912 -7.85318 -7.85318z" fill-rule="evenodd"/><path stroke="#ffffff" stroke-width="2.0" stroke-linejoin="round" stroke-linecap="butt" d="m365.74475 199.73454l0 0c0 -4.3371887 3.5159912 -7.85318 7.85318 -7.85318l42.907837 0c2.0827942 0 4.080261 0.8273926 5.5530396 2.3001404c1.4727478 1.4727631 2.3001404 3.4702454 2.3001404 5.5530396l0 31.411758c0 4.3371887 -3.5159912 7.85318 -7.85318 7.85318l-42.907837 0l0 0c-4.3371887 0 -7.85318 -3.5159912 -7.85318 -7.85318z" fill-rule="evenodd"/><path fill="#ffffff" d="m385.66904 219.3473q0 -0.328125 0.21875 -0.53125q0.234375 -0.203125 0.578125 -0.203125q0.375 0 0.671875 0.4375q0.390625 0.59375 0.703125 0.796875q0.671875 0.4375 1.9375 0.4375q1.203125 0 2.25 -0.515625q1.328125 -0.671875 1.328125 -1.875q0 -0.984375 -1.125 -1.546875q-0.9375 -0.5 -2.328125 -0.53125q-1.234375 -0.046875 -2.109375 -0.546875q-1.109375 -0.625 -1.109375 -1.8125q0 -1.390625 1.578125 -2.53125q1.515625 -1.09375 3.125 -1.09375q0.75 0 1.703125 0.265625q1.265625 0.328125 1.265625 0.859375q0 0.6875 -0.703125 0.6875q-0.3125 0 -1.09375 -0.171875q-0.78125 -0.171875 -1.203125 -0.15625q-1.21875 0.015625 -2.078125 0.59375q-0.875 0.609375 -0.875 1.46875q0 0.640625 1.15625 0.90625q0.4375 0.109375 1.671875 0.1875q1.78125 0.140625 2.796875 1.125q0.921875 0.90625 0.921875 2.21875q0 1.859375 -1.71875 2.96875q-1.5 0.96875 -3.46875 0.96875q-1.421875 0 -2.609375 -0.5625q-1.453125 -0.671875 -1.484375 -1.84375zm17.578125 -1.46875l0 2.890625q0 0.734375 -0.703125 0.734375q-0.828125 0 -0.828125 -1.140625q0 -0.140625 0.015625 -0.390625q0.015625 -0.265625 0.015625 -0.359375l-0.015625 -1.765625l-3.4375 -0.09375q-1.078125 0 -1.484375 -0.0625q-0.71875 -0.125 -0.71875 -0.5625q0 -0.34375 0.4375 -0.890625l0.671875 -0.796875l3.84375 -5.609375q0.515625 -0.71875 1.328125 -0.71875q0.875 0 0.875 0.765625l0 6.484375q0.140625 0 0.328125 0q1.4375 0 1.4375 0.765625q0 0.5625 -0.59375 0.71875q-0.265625 0.0625 -1.171875 0.03125zm-1.515625 -6.609375q-2.078125 3.328125 -3.25 4.984375l3.25 0.078125l0 -5.0625z" fill-rule="nonzero"/><path fill="#000000" fill-opacity="0.0" d="m465.5456 199.73454l0 0c0 -4.3371887 3.5159912 -7.85318 7.85318 -7.85318l42.907806 0c2.0828247 0 4.0803223 0.8273926 5.5530396 2.3001404c1.4727783 1.4727631 2.300171 3.4702454 2.300171 5.5530396l0 31.411758c0 4.3371887 -3.5159912 7.85318 -7.8532104 7.85318l-42.907806 0l0 0c-4.3371887 0 -7.85318 -3.5159912 -7.85318 -7.85318z" fill-rule="evenodd"/><path stroke="#ffffff" stroke-width="2.0" stroke-linejoin="round" stroke-linecap="butt" d="m465.5456 199.73454l0 0c0 -4.3371887 3.5159912 -7.85318 7.85318 -7.85318l42.907806 0c2.0828247 0 4.0803223 0.8273926 5.5530396 2.3001404c1.4727783 1.4727631 2.300171 3.4702454 2.300171 5.5530396l0 31.411758c0 4.3371887 -3.5159912 7.85318 -7.8532104 7.85318l-42.907806 0l0 0c-4.3371887 0 -7.85318 -3.5159912 -7.85318 -7.85318z" fill-rule="evenodd"/><path fill="#ffffff" d="m485.46988 219.3473q0 -0.328125 0.21875 -0.53125q0.234375 -0.203125 0.578125 -0.203125q0.375 0 0.671875 0.4375q0.390625 0.59375 0.703125 0.796875q0.671875 0.4375 1.9375 0.4375q1.203125 0 2.25 -0.515625q1.328125 -0.671875 1.328125 -1.875q0 -0.984375 -1.125 -1.546875q-0.9375 -0.5 -2.328125 -0.53125q-1.234375 -0.046875 -2.109375 -0.546875q-1.109375 -0.625 -1.109375 -1.8125q0 -1.390625 1.578125 -2.53125q1.515625 -1.09375 3.125 -1.09375q0.75 0 1.703125 0.265625q1.265625 0.328125 1.265625 0.859375q0 0.6875 -0.703125 0.6875q-0.3125 0 -1.09375 -0.171875q-0.78125 -0.171875 -1.203125 -0.15625q-1.21875 0.015625 -2.078125 0.59375q-0.875 0.609375 -0.875 1.46875q0 0.640625 1.15625 0.90625q0.4375 0.109375 1.671875 0.1875q1.78125 0.140625 2.796875 1.125q0.921875 0.90625 0.921875 2.21875q0 1.859375 -1.71875 2.96875q-1.5 0.96875 -3.46875 0.96875q-1.421875 0 -2.609375 -0.5625q-1.453125 -0.671875 -1.484375 -1.84375zm14.78125 2.3125q-1.1875 0 -2.125 -0.5q-1.046875 -0.5625 -1.421875 -1.59375q-0.046875 -0.140625 -0.046875 -0.28125q0 -0.3125 0.234375 -0.515625q0.25 -0.203125 0.5625 -0.203125q0.3125 0 0.53125 0.28125l0.359375 0.546875q0.28125 0.375 0.75 0.578125q0.484375 0.1875 1.15625 0.1875q0.84375 0 1.484375 -0.53125q0.6875 -0.5625 0.6875 -1.375q0 -1.1875 -0.875 -1.890625q-0.765625 -0.609375 -2.03125 -0.734375q-0.859375 -0.09375 -0.859375 -0.703125q0 -0.46875 0.671875 -0.703125l1.875 -0.46875q0.53125 -0.1875 0.796875 -0.515625q0.28125 -0.34375 0.296875 -0.8125q0.015625 -0.6875 -0.53125 -1.109375q-0.578125 -0.4375 -1.609375 -0.4375q-0.53125 0 -1.03125 0.25l-0.875 0.5625q-0.265625 0.15625 -0.421875 0.15625q-0.3125 0 -0.53125 -0.234375q-0.21875 -0.234375 -0.21875 -0.546875q0 -0.609375 1.1875 -1.1875q1.046875 -0.5 1.71875 -0.5q1.671875 0 2.65625 0.734375q1.0625 0.796875 1.0625 2.28125q0 1.828125 -1.484375 2.421875q-0.140625 0.046875 -0.3125 0.109375q1.046875 0.375 1.5625 1.140625q0.515625 0.765625 0.515625 1.90625q0 1.53125 -1.09375 2.609375q-1.078125 1.078125 -2.640625 1.078125z" fill-rule="nonzero"/><path fill="#000000" fill-opacity="0.0" d="m565.34644 199.73454l0 0c0 -4.3371887 3.5159912 -7.85318 7.8532104 -7.85318l42.907776 0c2.0828247 0 4.0803223 0.8273926 5.5530396 2.3001404c1.4727783 1.4727631 2.300171 3.4702454 2.300171 5.5530396l0 31.411758c0 4.3371887 -3.5159912 7.85318 -7.8532104 7.85318l-42.907776 0l0 0c-4.337219 0 -7.8532104 -3.5159912 -7.8532104 -7.85318z" fill-rule="evenodd"/><path stroke="#ffffff" stroke-width="2.0" stroke-linejoin="round" stroke-linecap="butt" d="m565.34644 199.73454l0 0c0 -4.3371887 3.5159912 -7.85318 7.8532104 -7.85318l42.907776 0c2.0828247 0 4.0803223 0.8273926 5.5530396 2.3001404c1.4727783 1.4727631 2.300171 3.4702454 2.300171 5.5530396l0 31.411758c0 4.3371887 -3.5159912 7.85318 -7.8532104 7.85318l-42.907776 0l0 0c-4.337219 0 -7.8532104 -3.5159912 -7.8532104 -7.85318z" fill-rule="evenodd"/><path fill="#ffffff" d="m585.27075 219.3473q0 -0.328125 0.21875 -0.53125q0.234375 -0.203125 0.578125 -0.203125q0.375 0 0.671875 0.4375q0.390625 0.59375 0.703125 0.796875q0.671875 0.4375 1.9375 0.4375q1.203125 0 2.25 -0.515625q1.328125 -0.671875 1.328125 -1.875q0 -0.984375 -1.125 -1.546875q-0.9375 -0.5 -2.328125 -0.53125q-1.234375 -0.046875 -2.109375 -0.546875q-1.109375 -0.625 -1.109375 -1.8125q0 -1.390625 1.578125 -2.53125q1.515625 -1.09375 3.125 -1.09375q0.75 0 1.703125 0.265625q1.265625 0.328125 1.265625 0.859375q0 0.6875 -0.703125 0.6875q-0.3125 0 -1.09375 -0.171875q-0.78125 -0.171875 -1.203125 -0.15625q-1.21875 0.015625 -2.078125 0.59375q-0.875 0.609375 -0.875 1.46875q0 0.640625 1.15625 0.90625q0.4375 0.109375 1.671875 0.1875q1.78125 0.140625 2.796875 1.125q0.921875 0.90625 0.921875 2.21875q0 1.859375 -1.71875 2.96875q-1.5 0.96875 -3.46875 0.96875q-1.421875 0 -2.609375 -0.5625q-1.453125 -0.671875 -1.484375 -1.84375zm17.921875 1.96875q-0.1875 0 -0.546875 -0.125q-0.359375 -0.125 -0.546875 -0.125q-0.390625 0 -1.1875 0.046875q-0.796875 0.046875 -1.203125 0.046875q-0.3125 0 -0.90625 0.09375q-0.59375 0.078125 -0.90625 0.078125q-0.078125 0 -0.25 -0.03125q-0.15625 -0.046875 -0.25 -0.046875q-0.53125 0 -0.703125 -0.515625q-0.09375 -0.28125 -0.09375 -0.9375q0 -1.828125 1.0 -2.9375q0.453125 -0.5 2.4375 -1.875q1.125 -0.765625 1.5 -1.1875q0.671875 -0.75 0.671875 -1.765625q0 -0.5 -0.65625 -0.890625q-0.5625 -0.34375 -1.109375 -0.34375q-0.71875 0 -1.375 0.40625l-1.109375 0.875q-0.34375 0.265625 -0.546875 0.265625q-0.796875 0 -0.796875 -0.640625q0 -0.359375 0.296875 -0.625q0.90625 -0.859375 1.578125 -1.25q0.953125 -0.53125 1.953125 -0.53125q1.265625 0 2.25 0.6875q1.109375 0.765625 1.109375 1.984375q0 0.796875 -0.234375 1.46875q-0.21875 0.671875 -0.671875 1.21875q-0.59375 0.703125 -1.984375 1.578125q-1.46875 0.921875 -1.9375 1.390625q-0.859375 0.90625 -0.84375 2.1875l1.609375 -0.15625q1.65625 -0.09375 2.359375 -0.09375q0.59375 0 1.125 0.203125q0.703125 0.28125 0.703125 0.765625q0 0.296875 -0.21875 0.546875q-0.203125 0.234375 -0.515625 0.234375z" fill-rule="nonzero"/><path fill="#000000" fill-opacity="0.0" d="m665.1473 199.73454l0 0c0 -4.3371887 3.5159912 -7.85318 7.8532104 -7.85318l42.907837 0c2.0827637 0 4.080261 0.8273926 5.5529785 2.3001404c1.4727783 1.4727631 2.300171 3.4702454 2.300171 5.5530396l0 31.411758c0 4.3371887 -3.5159912 7.85318 -7.8531494 7.85318l-42.907837 0l0 0c-4.337219 0 -7.8532104 -3.5159912 -7.8532104 -7.85318z" fill-rule="evenodd"/><path stroke="#ffffff" stroke-width="2.0" stroke-linejoin="round" stroke-linecap="butt" d="m665.1473 199.73454l0 0c0 -4.3371887 3.5159912 -7.85318 7.8532104 -7.85318l42.907837 0c2.0827637 0 4.080261 0.8273926 5.5529785 2.3001404c1.4727783 1.4727631 2.300171 3.4702454 2.300171 5.5530396l0 31.411758c0 4.3371887 -3.5159912 7.85318 -7.8531494 7.85318l-42.907837 0l0 0c-4.337219 0 -7.8532104 -3.5159912 -7.8532104 -7.85318z" fill-rule="evenodd"/><path fill="#ffffff" d="m686.35284 219.3473q0 -0.328125 0.21875 -0.53125q0.234375 -0.203125 0.578125 -0.203125q0.375 0 0.671875 0.4375q0.390625 0.59375 0.703125 0.796875q0.671875 0.4375 1.9375 0.4375q1.203125 0 2.25 -0.515625q1.328125 -0.671875 1.328125 -1.875q0 -0.984375 -1.125 -1.546875q-0.9375 -0.5 -2.328125 -0.53125q-1.234375 -0.046875 -2.109375 -0.546875q-1.109375 -0.625 -1.109375 -1.8125q0 -1.390625 1.578125 -2.53125q1.515625 -1.09375 3.125 -1.09375q0.75 0 1.703125 0.265625q1.265625 0.328125 1.265625 0.859375q0 0.6875 -0.703125 0.6875q-0.3125 0 -1.09375 -0.171875q-0.78125 -0.171875 -1.203125 -0.15625q-1.21875 0.015625 -2.078125 0.59375q-0.875 0.609375 -0.875 1.46875q0 0.640625 1.15625 0.90625q0.4375 0.109375 1.671875 0.1875q1.78125 0.140625 2.796875 1.125q0.921875 0.90625 0.921875 2.21875q0 1.859375 -1.71875 2.96875q-1.5 0.96875 -3.46875 0.96875q-1.421875 0 -2.609375 -0.5625q-1.453125 -0.671875 -1.484375 -1.84375zm15.546875 1.96875l-1.546875 0l-1.546875 -0.015625q-0.546875 0 -0.765625 -0.078125q-0.40625 -0.140625 -0.40625 -0.59375q0 -0.78125 1.234375 -0.78125l0.375 0l0.3125 0.015625q0 -0.375 -0.0625 -1.109375q-0.0625 -0.734375 -0.0625 -1.09375q0 -1.0 0.171875 -3.015625q0.171875 -2.0 0.171875 -3.03125q-1.046875 0.8125 -1.34375 0.8125q-0.3125 0 -0.546875 -0.234375q-0.21875 -0.234375 -0.21875 -0.53125q0 -0.375 0.671875 -0.890625q0.421875 -0.296875 1.1875 -0.953125q0.6875 -0.703125 1.3125 -0.703125q0.53125 0 0.53125 0.609375q0 0.171875 -0.046875 0.53125q-0.046875 0.359375 -0.046875 0.53125q0 0.265625 0.015625 0.796875q0.03125 0.515625 0.03125 0.765625q0 0.890625 -0.1875 2.65625q-0.1875 1.765625 -0.1875 2.65625q0 0.453125 0.0625 1.109375q0.0625 0.640625 0.078125 1.046875l0.8125 -0.015625q0.328125 0 0.546875 0.21875q0.21875 0.21875 0.21875 0.53125q0 0.328125 -0.21875 0.546875q-0.21875 0.21875 -0.546875 0.21875z" fill-rule="nonzero"/><path fill="#000000" fill-opacity="0.0" d="m764.9481 199.73454l0 0c0 -4.3371887 3.5159912 -7.85318 7.8532104 -7.85318l42.907837 0c2.0827637 0 4.080261 0.8273926 5.5529785 2.3001404c1.4727783 1.4727631 2.300171 3.4702454 2.300171 5.5530396l0 31.411758c0 4.3371887 -3.5159912 7.85318 -7.8531494 7.85318l-42.907837 0l0 0c-4.337219 0 -7.8532104 -3.5159912 -7.8532104 -7.85318z" fill-rule="evenodd"/><path stroke="#ffffff" stroke-width="2.0" stroke-linejoin="round" stroke-linecap="butt" d="m764.9481 199.73454l0 0c0 -4.3371887 3.5159912 -7.85318 7.8532104 -7.85318l42.907837 0c2.0827637 0 4.080261 0.8273926 5.5529785 2.3001404c1.4727783 1.4727631 2.300171 3.4702454 2.300171 5.5530396l0 31.411758c0 4.3371887 -3.5159912 7.85318 -7.8531494 7.85318l-42.907837 0l0 0c-4.337219 0 -7.8532104 -3.5159912 -7.8532104 -7.85318z" fill-rule="evenodd"/><path fill="#ffffff" d="m784.87244 219.3473q0 -0.328125 0.21875 -0.53125q0.234375 -0.203125 0.578125 -0.203125q0.375 0 0.671875 0.4375q0.390625 0.59375 0.703125 0.796875q0.671875 0.4375 1.9375 0.4375q1.203125 0 2.25 -0.515625q1.328125 -0.671875 1.328125 -1.875q0 -0.984375 -1.125 -1.546875q-0.9375 -0.5 -2.328125 -0.53125q-1.234375 -0.046875 -2.109375 -0.546875q-1.109375 -0.625 -1.109375 -1.8125q0 -1.390625 1.578125 -2.53125q1.515625 -1.09375 3.125 -1.09375q0.75 0 1.703125 0.265625q1.265625 0.328125 1.265625 0.859375q0 0.6875 -0.703125 0.6875q-0.3125 0 -1.09375 -0.171875q-0.78125 -0.171875 -1.203125 -0.15625q-1.21875 0.015625 -2.078125 0.59375q-0.875 0.609375 -0.875 1.46875q0 0.640625 1.15625 0.90625q0.4375 0.109375 1.671875 0.1875q1.78125 0.140625 2.796875 1.125q0.921875 0.90625 0.921875 2.21875q0 1.859375 -1.71875 2.96875q-1.5 0.96875 -3.46875 0.96875q-1.421875 0 -2.609375 -0.5625q-1.453125 -0.671875 -1.484375 -1.84375zm14.828125 2.265625q-2.375 0 -3.46875 -2.1875q-0.828125 -1.671875 -0.828125 -4.34375q0 -2.265625 1.078125 -3.953125q1.265625 -1.984375 3.453125 -1.984375q2.0625 0 3.203125 1.75q1.0 1.515625 1.0 3.703125q0 3.5 -1.109375 5.265625q-1.109375 1.75 -3.328125 1.75zm0.234375 -10.953125q-1.453125 0 -2.3125 1.46875q-0.703125 1.234375 -0.703125 2.828125q0 2.5625 0.6875 3.859375q0.703125 1.28125 2.09375 1.28125q1.65625 0 2.375 -1.890625q0.5 -1.3125 0.5 -3.328125q0 -2.109375 -0.671875 -3.15625q-0.65625 -1.0625 -1.96875 -1.0625z" fill-rule="nonzero"/><path fill="#000000" fill-opacity="0.0" d="m124.9564 215.44043l41.196846 0" fill-rule="evenodd"/><path stroke="#ffffff" stroke-width="2.0" stroke-linejoin="round" stroke-linecap="butt" d="m124.9564 215.44043l29.196846 0" fill-rule="evenodd"/><path fill="#ffffff" stroke="#ffffff" stroke-width="2.0" stroke-linecap="butt" d="m154.15324 218.7439l9.076202 -3.3034668l-9.076202 -3.3034668z" fill-rule="evenodd"/><path fill="#000000" fill-opacity="0.0" d="m224.75725 215.44043l41.196854 0" fill-rule="evenodd"/><path stroke="#ffffff" stroke-width="2.0" stroke-linejoin="round" stroke-linecap="butt" d="m224.75723 215.44043l29.196854 0" fill-rule="evenodd"/><path fill="#ffffff" stroke="#ffffff" stroke-width="2.0" stroke-linecap="butt" d="m253.95409 218.7439l9.076187 -3.3034668l-9.076187 -3.3034668z" fill-rule="evenodd"/><path fill="#000000" fill-opacity="0.0" d="m324.55807 215.44043l41.19687 0" fill-rule="evenodd"/><path stroke="#ffffff" stroke-width="2.0" stroke-linejoin="round" stroke-linecap="butt" d="m324.5581 215.44043l29.196808 0" fill-rule="evenodd"/><path fill="#ffffff" stroke="#ffffff" stroke-width="2.0" stroke-linecap="butt" d="m353.7549 218.7439l9.076202 -3.3034668l-9.076202 -3.3034668z" fill-rule="evenodd"/><path fill="#000000" fill-opacity="0.0" d="m424.35895 215.44043l41.19684 0" fill-rule="evenodd"/><path stroke="#ffffff" stroke-width="2.0" stroke-linejoin="round" stroke-linecap="butt" d="m424.35892 215.44043l29.196869 0" fill-rule="evenodd"/><path fill="#ffffff" stroke="#ffffff" stroke-width="2.0" stroke-linecap="butt" d="m453.5558 218.7439l9.076172 -3.3034668l-9.076172 -3.3034668z" fill-rule="evenodd"/><path fill="#000000" fill-opacity="0.0" d="m524.1598 215.44043l41.19684 0" fill-rule="evenodd"/><path stroke="#ffffff" stroke-width="2.0" stroke-linejoin="round" stroke-linecap="butt" d="m524.1598 215.44043l29.196838 0" fill-rule="evenodd"/><path fill="#ffffff" stroke="#ffffff" stroke-width="2.0" stroke-linecap="butt" d="m553.3566 218.7439l9.076172 -3.3034668l-9.076172 -3.3034668z" fill-rule="evenodd"/><path fill="#000000" fill-opacity="0.0" d="m623.96063 215.44043l41.19684 0" fill-rule="evenodd"/><path stroke="#ffffff" stroke-width="2.0" stroke-linejoin="round" stroke-linecap="butt" d="m623.96063 215.44043l29.196838 0" fill-rule="evenodd"/><path fill="#ffffff" stroke="#ffffff" stroke-width="2.0" stroke-linecap="butt" d="m653.1575 218.7439l9.076233 -3.3034668l-9.076233 -3.3034668z" fill-rule="evenodd"/><path fill="#000000" fill-opacity="0.0" d="m723.7615 215.44043l41.19684 0" fill-rule="evenodd"/><path stroke="#ffffff" stroke-width="2.0" stroke-linejoin="round" stroke-linecap="butt" d="m723.7615 215.44043l29.196838 0" fill-rule="evenodd"/><path fill="#ffffff" stroke="#ffffff" stroke-width="2.0" stroke-linecap="butt" d="m752.9583 218.7439l9.076233 -3.3034668l-9.076233 -3.3034668z" fill-rule="evenodd"/><path fill="#000000" fill-opacity="0.0" d="m823.57684 215.04457l79.590576 0.7873993" fill-rule="evenodd"/><path stroke="#ffffff" stroke-width="2.0" stroke-linejoin="round" stroke-linecap="butt" d="m823.57684 215.04457l67.591125 0.6687012" fill-rule="evenodd"/><path fill="#ffffff" stroke="#ffffff" stroke-width="2.0" stroke-linecap="butt" d="m891.1353 219.01657l9.108398 -3.2135162l-9.04303 -3.393097z" fill-rule="evenodd"/><path fill="#000000" fill-opacity="0.0" d="m228.23146 143.95541l0 0c0 -10.323822 7.6710815 -18.692917 17.13385 -18.692917l0 0c4.5441895 0 8.902252 1.969429 12.115463 5.4750214c3.2132263 3.5056 5.018402 8.260223 5.018402 13.2178955l0 0c0 10.323807 -7.671097 18.692917 -17.133865 18.692917l0 0c-9.462769 0 -17.13385 -8.36911 -17.13385 -18.692917z" fill-rule="evenodd"/><path fill="#000000" fill-opacity="0.0" d="m245.36531 125.2625l0 37.385834m-17.13385 -18.692917l34.267715 0" fill-rule="evenodd"/><path fill="#000000" fill-opacity="0.0" d="m228.23146 143.95541l0 0c0 -10.323822 7.6710815 -18.692917 17.13385 -18.692917l0 0c4.5441895 0 8.902252 1.969429 12.115463 5.4750214c3.2132263 3.5056 5.018402 8.260223 5.018402 13.2178955l0 0c0 10.323807 -7.671097 18.692917 -17.133865 18.692917l0 0c-9.462769 0 -17.13385 -8.36911 -17.13385 -18.692917z" fill-rule="evenodd"/><path stroke="#ffffff" stroke-width="2.0" stroke-linejoin="round" stroke-linecap="butt" d="m245.36531 125.2625l0 37.385834m-17.13385 -18.692917l34.267715 0" fill-rule="evenodd"/><path stroke="#ffffff" stroke-width="2.0" stroke-linejoin="round" stroke-linecap="butt" d="m228.23146 143.95541l0 0c0 -10.323822 7.6710815 -18.692917 17.13385 -18.692917l0 0c4.5441895 0 8.902252 1.969429 12.115463 5.4750214c3.2132263 3.5056 5.018402 8.260223 5.018402 13.2178955l0 0c0 10.323807 -7.671097 18.692917 -17.133865 18.692917l0 0c-9.462769 0 -17.13385 -8.36911 -17.13385 -18.692917z" fill-rule="evenodd"/><path fill="#000000" fill-opacity="0.0" d="m328.0323 143.95541l0 0c0 -10.323822 7.671112 -18.692917 17.13388 -18.692917l0 0c4.544159 0 8.902222 1.969429 12.115448 5.4750214c3.2132263 3.5056 5.018402 8.260223 5.018402 13.2178955l0 0c0 10.323807 -7.6710815 18.692917 -17.13385 18.692917l0 0c-9.462769 0 -17.13388 -8.36911 -17.13388 -18.692917z" fill-rule="evenodd"/><path fill="#000000" fill-opacity="0.0" d="m345.16617 125.2625l0 37.385834m-17.13388 -18.692917l34.26773 0" fill-rule="evenodd"/><path fill="#000000" fill-opacity="0.0" d="m328.0323 143.95541l0 0c0 -10.323822 7.671112 -18.692917 17.13388 -18.692917l0 0c4.544159 0 8.902222 1.969429 12.115448 5.4750214c3.2132263 3.5056 5.018402 8.260223 5.018402 13.2178955l0 0c0 10.323807 -7.6710815 18.692917 -17.13385 18.692917l0 0c-9.462769 0 -17.13388 -8.36911 -17.13388 -18.692917z" fill-rule="evenodd"/><path stroke="#ffffff" stroke-width="2.0" stroke-linejoin="round" stroke-linecap="butt" d="m345.16617 125.2625l0 37.385834m-17.13388 -18.692917l34.26773 0" fill-rule="evenodd"/><path stroke="#ffffff" stroke-width="2.0" stroke-linejoin="round" stroke-linecap="butt" d="m328.0323 143.95541l0 0c0 -10.323822 7.671112 -18.692917 17.13388 -18.692917l0 0c4.544159 0 8.902222 1.969429 12.115448 5.4750214c3.2132263 3.5056 5.018402 8.260223 5.018402 13.2178955l0 0c0 10.323807 -7.6710815 18.692917 -17.13385 18.692917l0 0c-9.462769 0 -17.13388 -8.36911 -17.13388 -18.692917z" fill-rule="evenodd"/><path fill="#000000" fill-opacity="0.0" d="m427.83316 143.95541l0 0c0 -10.323822 7.6710815 -18.692917 17.13385 -18.692917l0 0c4.5441895 0 8.902252 1.969429 12.115448 5.4750214c3.2132263 3.5056 5.018402 8.260223 5.018402 13.2178955l0 0c0 10.323807 -7.6710815 18.692917 -17.13385 18.692917l0 0c-9.462769 0 -17.13385 -8.36911 -17.13385 -18.692917z" fill-rule="evenodd"/><path fill="#000000" fill-opacity="0.0" d="m444.967 125.2625l0 37.385834m-17.13385 -18.692917l34.2677 0" fill-rule="evenodd"/><path fill="#000000" fill-opacity="0.0" d="m427.83316 143.95541l0 0c0 -10.323822 7.6710815 -18.692917 17.13385 -18.692917l0 0c4.5441895 0 8.902252 1.969429 12.115448 5.4750214c3.2132263 3.5056 5.018402 8.260223 5.018402 13.2178955l0 0c0 10.323807 -7.6710815 18.692917 -17.13385 18.692917l0 0c-9.462769 0 -17.13385 -8.36911 -17.13385 -18.692917z" fill-rule="evenodd"/><path stroke="#ffffff" stroke-width="2.0" stroke-linejoin="round" stroke-linecap="butt" d="m444.967 125.2625l0 37.385834m-17.13385 -18.692917l34.2677 0" fill-rule="evenodd"/><path stroke="#ffffff" stroke-width="2.0" stroke-linejoin="round" stroke-linecap="butt" d="m427.83316 143.95541l0 0c0 -10.323822 7.6710815 -18.692917 17.13385 -18.692917l0 0c4.5441895 0 8.902252 1.969429 12.115448 5.4750214c3.2132263 3.5056 5.018402 8.260223 5.018402 13.2178955l0 0c0 10.323807 -7.6710815 18.692917 -17.13385 18.692917l0 0c-9.462769 0 -17.13385 -8.36911 -17.13385 -18.692917z" fill-rule="evenodd"/><path fill="#000000" fill-opacity="0.0" d="m427.83316 143.95541l-65.543335 0" fill-rule="evenodd"/><path stroke="#ffffff" stroke-width="2.0" stroke-linejoin="round" stroke-linecap="butt" d="m427.83313 143.95541l-53.543304 0" fill-rule="evenodd"/><path fill="#ffffff" stroke="#ffffff" stroke-width="2.0" stroke-linecap="butt" d="m374.28983 140.65195l-9.076202 3.3034668l9.076202 3.3034668z" fill-rule="evenodd"/><path fill="#000000" fill-opacity="0.0" d="m328.0323 143.95541l-65.543304 0" fill-rule="evenodd"/><path stroke="#ffffff" stroke-width="2.0" stroke-linejoin="round" stroke-linecap="butt" d="m328.0323 143.95541l-53.543304 0" fill-rule="evenodd"/><path fill="#ffffff" stroke="#ffffff" stroke-width="2.0" stroke-linecap="butt" d="m274.48898 140.65195l-9.076202 3.3034668l9.076202 3.3034668z" fill-rule="evenodd"/><path fill="#000000" fill-opacity="0.0" d="m462.10086 143.95541l410.228 0l0 70.92912l0.008239746 0" fill-rule="evenodd"/><path stroke="#ffffff" stroke-width="2.0" stroke-linejoin="round" stroke-linecap="butt" d="m474.10083 143.95541l398.2281 0l0 70.92912l0.008178711 0" fill-rule="evenodd"/><path fill="#ffffff" stroke="#ffffff" stroke-width="2.0" stroke-linecap="butt" d="m474.10083 140.65195l-9.076172 3.3034668l9.076172 3.3034668z" fill-rule="evenodd"/><path fill="#000000" fill-opacity="0.0" d="m228.23146 143.95541l-191.40714 0l0 71.49606l29.51736 0" fill-rule="evenodd"/><path stroke="#ffffff" stroke-width="2.0" stroke-linejoin="round" stroke-linecap="butt" d="m228.23146 143.95541l-191.40714 0l0 71.49605l17.51736 0" fill-rule="evenodd"/><path fill="#ffffff" stroke="#ffffff" stroke-width="2.0" stroke-linecap="butt" d="m54.34169 218.75493l9.076195 -3.3034668l-9.076195 -3.3034668z" fill-rule="evenodd"/><path fill="#000000" fill-opacity="0.0" d="m245.6679 162.54207l-0.4094391 53.259857" fill-rule="evenodd"/><path stroke="#ffffff" stroke-width="2.0" stroke-linejoin="round" stroke-linecap="butt" d="m245.57564 174.54173l-0.31718445 41.260193" fill-rule="evenodd"/><path fill="#ffffff" stroke="#ffffff" stroke-width="2.0" stroke-linecap="butt" d="m248.87901 174.56712l-3.2335968 -9.101334l-3.3731384 9.050537z" fill-rule="evenodd"/><path fill="#000000" fill-opacity="0.0" d="m345.14008 162.62796l-0.94488525 53.16536" fill-rule="evenodd"/><path stroke="#ffffff" stroke-width="2.0" stroke-linejoin="round" stroke-linecap="butt" d="m344.92685 174.62607l-0.7316284 41.167236" fill-rule="evenodd"/><path fill="#ffffff" stroke="#ffffff" stroke-width="2.0" stroke-linecap="butt" d="m348.2298 174.68477l-3.1416626 -9.133469l-3.4642334 9.0160675z" fill-rule="evenodd"/><path fill="#000000" fill-opacity="0.0" d="m444.4945 163.34653l-0.28344727 51.40158" fill-rule="evenodd"/><path stroke="#ffffff" stroke-width="2.0" stroke-linejoin="round" stroke-linecap="butt" d="m444.4283 175.34636l-0.21728516 39.401733" fill-rule="evenodd"/><path fill="#ffffff" stroke="#ffffff" stroke-width="2.0" stroke-linecap="butt" d="m447.73175 175.36456l-3.253357 -9.094269l-3.353485 9.057831z" fill-rule="evenodd"/><path fill="#000000" fill-opacity="0.0" d="m16.860893 230.57742l49.480316 0l0 27.370087l-49.480316 0z" fill-rule="evenodd"/><path fill="#ffffff" d="m32.267143 257.51306l-1.8125 0l-1.796875 -0.015625q-0.640625 0 -0.890625 -0.078125q-0.46875 -0.171875 -0.46875 -0.703125q0 -0.90626526 1.4375 -0.90626526l0.4375 0l0.375 0.015625q0 -0.4375 -0.078125 -1.28125q-0.078125 -0.859375 -0.078125 -1.296875q0 -1.15625 0.203125 -3.515625q0.203125 -2.3125 0.1875 -3.515625q-1.21875 0.9375 -1.546875 0.9375q-0.375 0 -0.640625 -0.265625q-0.265625 -0.28125 -0.265625 -0.625q0 -0.4375 0.78125 -1.046875q0.484375 -0.34375 1.390625 -1.109375q0.8125 -0.8125 1.53125 -0.8125q0.609375 0 0.609375 0.703125q0 0.203125 -0.0625 0.625q-0.046875 0.40625 -0.046875 0.625q0 0.296875 0.03125 0.90625q0.03125 0.609375 0.03125 0.90625q0 1.046875 -0.21875 3.109375q-0.21875 2.046875 -0.21875 3.078125q0 0.53125 0.078125 1.296875q0.078125 0.75 0.078125 1.234375l0.953125 -0.015625q0.390625 0 0.640625 0.25001526q0.25 0.25 0.25 0.625q0 0.375 -0.25 0.625q-0.25 0.25 -0.640625 0.25zm11.633331 -7.8281403l-1.328125 1.25l-1.625 1.609375l2.96875 3.8750153q0.234375 0.296875 0.234375 0.578125q0 0.359375 -0.28125 0.625q-0.265625 0.28125 -0.625 0.28125q-0.34375 0 -0.625 -0.34375q-0.828125 -0.96875 -2.953125 -3.7500153l-1.765625 1.828125q-0.546875 0.48439026 -1.578125 1.5000153q-0.28125 0.328125 -0.625 0.328125q-0.34375 0 -0.609375 -0.265625q-0.265625 -0.28125 -0.265625 -0.625q0 -0.296875 0.21875 -0.57814026q0.25 -0.34375 0.796875 -0.8125q0.625 -0.5625 0.828125 -0.765625l1.9375 -2.03125l-1.1875 -1.71875q-0.71875 -1.03125 -1.265625 -1.5q-0.34375 -0.3125 -0.34375 -0.6875q0 -0.359375 0.25 -0.640625q0.265625 -0.28125 0.609375 -0.28125q0.53125 0 1.625 1.40625l1.578125 2.171875l1.78125 -1.640625q1.109375 -1.046875 1.5 -1.640625q0.296875 -0.421875 0.6875 -0.421875q0.359375 0 0.625 0.265625q0.28125 0.265625 0.28125 0.609375q0 0.5 -0.84375 1.375z" fill-rule="nonzero"/><path fill="#ffffff" d="m49.007607 250.82555q-1.28125 0 -2.078125 -0.5625q-0.890625 -0.625 -0.921875 -1.84375q-0.015625 -1.96875 1.390625 -2.671875q-1.09375 -0.65625 -1.09375 -1.875q0 -1.140625 0.84375 -1.90625q0.796875 -0.71875 1.921875 -0.734375q2.5625 -0.03125 2.5625 2.515625q0 0.734375 -0.296875 1.125q-0.234375 0.328125 -0.921875 0.671875q0.90625 0.453125 1.265625 0.984375q0.4375 0.625 0.4375 1.703125q0 1.25 -0.921875 1.953125q-0.84375 0.640625 -2.1875 0.640625zm0.046875 -8.515625q-0.78125 0 -1.1875 0.453125q-0.375 0.40625 -0.375 1.109375q0.015625 0.859375 1.40625 1.21875q0.71875 -0.21875 1.046875 -0.4375q0.5 -0.328125 0.5 -0.90625q0 -0.828125 -0.375 -1.15625q-0.3125 -0.28125 -1.015625 -0.28125zm-0.109375 3.84375q-0.96875 0.453125 -1.28125 0.78125q-0.515625 0.5 -0.484375 1.421875q0.03125 0.765625 0.703125 1.140625q0.5 0.265625 1.125 0.265625q1.0625 0 1.484375 -0.5q0.34375 -0.40625 0.34375 -1.21875q0 -0.796875 -0.625 -1.28125q-0.40625 -0.328125 -1.265625 -0.609375z" fill-rule="nonzero"/><path fill="#000000" fill-opacity="0.0" d="m120.8294 230.57742l49.48031 0l0 27.370087l-49.48031 0z" fill-rule="evenodd"/><path fill="#ffffff" d="m135.39189 257.8568q-2.765625 0 -4.046875 -2.5312653q-0.953125 -1.953125 -0.953125 -5.078125q0 -2.640625 1.25 -4.609375q1.484375 -2.3125 4.03125 -2.3125q2.40625 0 3.734375 2.046875q1.15625 1.765625 1.15625 4.3125q0 4.078125 -1.296875 6.125q-1.28125 2.0468903 -3.875 2.0468903zm0.28125 -12.76564q-1.703125 0 -2.6875 1.71875q-0.828125 1.4375 -0.828125 3.296875q0 2.984375 0.796875 4.5q0.8125 1.5000153 2.4375 1.5000153q1.9375 0 2.765625 -2.2031403q0.59375 -1.53125 0.59375 -3.890625q0 -2.46875 -0.78125 -3.6875q-0.765625 -1.234375 -2.296875 -1.234375zm15.183746 4.59375l-1.328125 1.25l-1.625 1.609375l2.96875 3.8750153q0.234375 0.296875 0.234375 0.578125q0 0.359375 -0.28125 0.625q-0.265625 0.28125 -0.625 0.28125q-0.34375 0 -0.625 -0.34375q-0.828125 -0.96875 -2.953125 -3.7500153l-1.765625 1.828125q-0.546875 0.48439026 -1.578125 1.5000153q-0.28125 0.328125 -0.625 0.328125q-0.34375 0 -0.609375 -0.265625q-0.265625 -0.28125 -0.265625 -0.625q0 -0.296875 0.21875 -0.57814026q0.25 -0.34375 0.796875 -0.8125q0.625 -0.5625 0.828125 -0.765625l1.9375 -2.03125l-1.1875 -1.71875q-0.71875 -1.03125 -1.265625 -1.5q-0.34375 -0.3125 -0.34375 -0.6875q0 -0.359375 0.25 -0.640625q0.265625 -0.28125 0.609375 -0.28125q0.53125 0 1.625 1.40625l1.578125 2.171875l1.78125 -1.640625q1.109375 -1.046875 1.5 -1.640625q0.296875 -0.421875 0.6875 -0.421875q0.359375 0 0.625 0.265625q0.28125 0.265625 0.28125 0.609375q0 0.5 -0.84375 1.375z" fill-rule="nonzero"/><path fill="#ffffff" d="m159.24527 242.55992l-0.5625 0.65625q-0.78125 0.921875 -1.453125 2.234375l-1.09375 2.421875q-0.125 0.265625 -0.515625 1.390625q-0.3125 0.90625 -0.59375 1.34375q-0.171875 0.296875 -0.484375 0.296875q-0.234375 0 -0.421875 -0.171875q-0.1875 -0.171875 -0.1875 -0.40625q0 -0.234375 0.390625 -1.1875l1.359375 -3.34375q0.90625 -1.984375 1.859375 -3.0625l0.109375 -0.125l-3.046875 -0.0625l-1.359375 -0.03125q-0.59375 -0.0625 -0.59375 -0.59375q0 -0.25 0.171875 -0.40625q0.171875 -0.171875 0.421875 -0.171875q0.765625 0 2.296875 0.046875q1.546875 0.046875 2.3125 0.046875l1.109375 0q0.640625 0 0.640625 0.390625q0 0.28125 -0.359375 0.734375z" fill-rule="nonzero"/><path fill="#000000" fill-opacity="0.0" d="m220.61023 230.57742l49.480316 0l0 27.370087l-49.480316 0z" fill-rule="evenodd"/><path fill="#ffffff" d="m236.01648 257.51306l-1.8125 0l-1.796875 -0.015625q-0.640625 0 -0.890625 -0.078125q-0.46875 -0.171875 -0.46875 -0.703125q0 -0.90626526 1.4375 -0.90626526l0.4375 0l0.375 0.015625q0 -0.4375 -0.078125 -1.28125q-0.078125 -0.859375 -0.078125 -1.296875q0 -1.15625 0.203125 -3.515625q0.203125 -2.3125 0.1875 -3.515625q-1.21875 0.9375 -1.546875 0.9375q-0.375 0 -0.640625 -0.265625q-0.265625 -0.28125 -0.265625 -0.625q0 -0.4375 0.78125 -1.046875q0.484375 -0.34375 1.390625 -1.109375q0.8125 -0.8125 1.53125 -0.8125q0.609375 0 0.609375 0.703125q0 0.203125 -0.0625 0.625q-0.046875 0.40625 -0.046875 0.625q0 0.296875 0.03125 0.90625q0.03125 0.609375 0.03125 0.90625q0 1.046875 -0.21875 3.109375q-0.21875 2.046875 -0.21875 3.078125q0 0.53125 0.078125 1.296875q0.078125 0.75 0.078125 1.234375l0.953125 -0.015625q0.390625 0 0.640625 0.25001526q0.25 0.25 0.25 0.625q0 0.375 -0.25 0.625q-0.25 0.25 -0.640625 0.25zm11.633331 -7.8281403l-1.328125 1.25l-1.625 1.609375l2.96875 3.8750153q0.234375 0.296875 0.234375 0.578125q0 0.359375 -0.28125 0.625q-0.265625 0.28125 -0.625 0.28125q-0.34375 0 -0.625 -0.34375q-0.828125 -0.96875 -2.953125 -3.7500153l-1.765625 1.828125q-0.546875 0.48439026 -1.578125 1.5000153q-0.28125 0.328125 -0.625 0.328125q-0.34375 0 -0.609375 -0.265625q-0.265625 -0.28125 -0.265625 -0.625q0 -0.296875 0.21875 -0.57814026q0.25 -0.34375 0.796875 -0.8125q0.625 -0.5625 0.828125 -0.765625l1.9375 -2.03125l-1.1875 -1.71875q-0.71875 -1.03125 -1.265625 -1.5q-0.34375 -0.3125 -0.34375 -0.6875q0 -0.359375 0.25 -0.640625q0.265625 -0.28125 0.609375 -0.28125q0.53125 0 1.625 1.40625l1.578125 2.171875l1.78125 -1.640625q1.109375 -1.046875 1.5 -1.640625q0.296875 -0.421875 0.6875 -0.421875q0.359375 0 0.625 0.265625q0.28125 0.265625 0.28125 0.609375q0 0.5 -0.84375 1.375z" fill-rule="nonzero"/><path fill="#ffffff" d="m252.64757 250.93492q-1.578125 0 -2.328125 -1.15625q-0.625 -0.953125 -0.625 -2.546875q0 -3.0 2.4375 -5.203125l0.578125 -0.578125q0.40625 -0.40625 0.625 -0.40625q0.25 0 0.421875 0.171875q0.1875 0.171875 0.1875 0.421875q0.015625 0.21875 -0.609375 0.84375l-1.25 1.203125q-0.484375 0.5 -0.84375 1.5q0.53125 -0.234375 0.921875 -0.34375q0.40625 -0.125 0.65625 -0.125q1.421875 0 2.171875 0.765625q0.765625 0.75 0.765625 2.125q0 1.453125 -0.8125 2.375q-0.859375 0.953125 -2.296875 0.953125zm0 -4.984375q-0.515625 0 -0.9375 0.1875q-0.15625 0.0625 -0.796875 0.453125q-0.03125 0.328125 -0.03125 0.640625q0 1.078125 0.359375 1.765625q0.46875 0.875 1.4375 0.875q0.921875 0 1.421875 -0.65625q0.46875 -0.59375 0.46875 -1.609375q0 -0.828125 -0.484375 -1.234375q-0.46875 -0.421875 -1.4375 -0.421875z" fill-rule="nonzero"/><path fill="#000000" fill-opacity="0.0" d="m320.41077 230.57742l49.480316 0l0 27.370087l-49.480316 0z" fill-rule="evenodd"/><path fill="#ffffff" d="m335.81702 257.51306l-1.8125 0l-1.796875 -0.015625q-0.640625 0 -0.890625 -0.078125q-0.46875 -0.171875 -0.46875 -0.703125q0 -0.90626526 1.4375 -0.90626526l0.4375 0l0.375 0.015625q0 -0.4375 -0.078125 -1.28125q-0.078125 -0.859375 -0.078125 -1.296875q0 -1.15625 0.203125 -3.515625q0.203125 -2.3125 0.1875 -3.515625q-1.21875 0.9375 -1.546875 0.9375q-0.375 0 -0.640625 -0.265625q-0.265625 -0.28125 -0.265625 -0.625q0 -0.4375 0.78125 -1.046875q0.484375 -0.34375 1.390625 -1.109375q0.8125 -0.8125 1.53125 -0.8125q0.609375 0 0.609375 0.703125q0 0.203125 -0.0625 0.625q-0.046875 0.40625 -0.046875 0.625q0 0.296875 0.03125 0.90625q0.03125 0.609375 0.03125 0.90625q0 1.046875 -0.21875 3.109375q-0.21875 2.046875 -0.21875 3.078125q0 0.53125 0.078125 1.296875q0.078125 0.75 0.078125 1.234375l0.953125 -0.015625q0.390625 0 0.640625 0.25001526q0.25 0.25 0.25 0.625q0 0.375 -0.25 0.625q-0.25 0.25 -0.640625 0.25zm11.633331 -7.8281403l-1.328125 1.25l-1.625 1.609375l2.96875 3.8750153q0.234375 0.296875 0.234375 0.578125q0 0.359375 -0.28125 0.625q-0.265625 0.28125 -0.625 0.28125q-0.34375 0 -0.625 -0.34375q-0.828125 -0.96875 -2.953125 -3.7500153l-1.765625 1.828125q-0.546875 0.48439026 -1.578125 1.5000153q-0.28125 0.328125 -0.625 0.328125q-0.34375 0 -0.609375 -0.265625q-0.265625 -0.28125 -0.265625 -0.625q0 -0.296875 0.21875 -0.57814026q0.25 -0.34375 0.796875 -0.8125q0.625 -0.5625 0.828125 -0.765625l1.9375 -2.03125l-1.1875 -1.71875q-0.71875 -1.03125 -1.265625 -1.5q-0.34375 -0.3125 -0.34375 -0.6875q0 -0.359375 0.25 -0.640625q0.265625 -0.28125 0.609375 -0.28125q0.53125 0 1.625 1.40625l1.578125 2.171875l1.78125 -1.640625q1.109375 -1.046875 1.5 -1.640625q0.296875 -0.421875 0.6875 -0.421875q0.359375 0 0.625 0.265625q0.28125 0.265625 0.28125 0.609375q0 0.5 -0.84375 1.375z" fill-rule="nonzero"/><path fill="#ffffff" d="m352.22934 250.87242q-1.71875 0 -2.53125 -1.265625q-0.109375 -0.171875 -0.109375 -0.34375q0 -0.234375 0.1875 -0.40625q0.1875 -0.171875 0.421875 -0.171875q0.25 0 0.484375 0.265625q0.3125 0.390625 0.484375 0.5q0.390625 0.265625 1.0625 0.265625q1.0625 0 1.75 -0.796875q0.65625 -0.765625 0.65625 -1.84375q0 -0.890625 -0.28125 -1.4375q-0.375 -0.703125 -1.171875 -0.703125q-0.640625 0 -1.0625 0.171875q-0.328125 0.140625 -0.65625 0.484375l-0.65625 0.71875q-0.265625 0.28125 -0.546875 0.28125q-0.25 0 -0.421875 -0.171875q-0.171875 -0.171875 -0.171875 -0.421875q0 -0.125 0.109375 -1.078125q0.203125 -1.921875 0.203125 -2.515625q0 -0.21875 -0.109375 -0.46875q-0.109375 -0.25 -0.109375 -0.375q0 -0.359375 0.640625 -0.359375q0.125 0 0.359375 0.015625q0.25 0.015625 0.375 0.015625q0.359375 0 1.0625 -0.015625q0.703125 -0.03125 1.046875 -0.03125q0.171875 0 0.5 0.015625q0.34375 0.015625 0.5 0.015625q0.109375 0 0.328125 -0.046875q0.21875 -0.046875 0.328125 -0.046875q0.25 0 0.421875 0.171875q0.1875 0.171875 0.1875 0.40625q0 0.6875 -1.4375 0.6875q-0.1875 0 -0.484375 -0.015625q-0.28125 -0.015625 -0.34375 -0.015625l-1.015625 0.015625l-1.03125 0.03125q0 0.28125 -0.21875 2.03125q0.828125 -0.671875 2.203125 -0.671875q1.34375 0 2.046875 1.046875q0.59375 0.890625 0.59375 2.265625q0 1.640625 -0.953125 2.703125q-1.0 1.09375 -2.640625 1.09375z" fill-rule="nonzero"/><path fill="#000000" fill-opacity="0.0" d="m420.21127 230.57742l49.480316 0l0 27.370087l-49.480316 0z" fill-rule="evenodd"/><path fill="#ffffff" d="m435.61752 257.51306l-1.8125 0l-1.796875 -0.015625q-0.640625 0 -0.890625 -0.078125q-0.46875 -0.171875 -0.46875 -0.703125q0 -0.90626526 1.4375 -0.90626526l0.4375 0l0.375 0.015625q0 -0.4375 -0.078125 -1.28125q-0.078125 -0.859375 -0.078125 -1.296875q0 -1.15625 0.203125 -3.515625q0.203125 -2.3125 0.1875 -3.515625q-1.21875 0.9375 -1.546875 0.9375q-0.375 0 -0.640625 -0.265625q-0.265625 -0.28125 -0.265625 -0.625q0 -0.4375 0.78125 -1.046875q0.484375 -0.34375 1.390625 -1.109375q0.8125 -0.8125 1.53125 -0.8125q0.609375 0 0.609375 0.703125q0 0.203125 -0.0625 0.625q-0.046875 0.40625 -0.046875 0.625q0 0.296875 0.03125 0.90625q0.03125 0.609375 0.03125 0.90625q0 1.046875 -0.21875 3.109375q-0.21875 2.046875 -0.21875 3.078125q0 0.53125 0.078125 1.296875q0.078125 0.75 0.078125 1.234375l0.953125 -0.015625q0.390625 0 0.640625 0.25001526q0.25 0.25 0.25 0.625q0 0.375 -0.25 0.625q-0.25 0.25 -0.640625 0.25zm11.633331 -7.8281403l-1.328125 1.25l-1.625 1.609375l2.96875 3.8750153q0.234375 0.296875 0.234375 0.578125q0 0.359375 -0.28125 0.625q-0.265625 0.28125 -0.625 0.28125q-0.34375 0 -0.625 -0.34375q-0.828125 -0.96875 -2.953125 -3.7500153l-1.765625 1.828125q-0.546875 0.48439026 -1.578125 1.5000153q-0.28125 0.328125 -0.625 0.328125q-0.34375 0 -0.609375 -0.265625q-0.265625 -0.28125 -0.265625 -0.625q0 -0.296875 0.21875 -0.57814026q0.25 -0.34375 0.796875 -0.8125q0.625 -0.5625 0.828125 -0.765625l1.9375 -2.03125l-1.1875 -1.71875q-0.71875 -1.03125 -1.265625 -1.5q-0.34375 -0.3125 -0.34375 -0.6875q0 -0.359375 0.25 -0.640625q0.265625 -0.28125 0.609375 -0.28125q0.53125 0 1.625 1.40625l1.578125 2.171875l1.78125 -1.640625q1.109375 -1.046875 1.5 -1.640625q0.296875 -0.421875 0.6875 -0.421875q0.359375 0 0.625 0.265625q0.28125 0.265625 0.28125 0.609375q0 0.5 -0.84375 1.375z" fill-rule="nonzero"/><path fill="#ffffff" d="m454.483 247.84117l0 2.25q0 0.5625 -0.5625 0.5625q-0.640625 0 -0.640625 -0.875q0 -0.109375 0.015625 -0.3125q0.015625 -0.203125 0.015625 -0.28125l-0.015625 -1.375l-2.671875 -0.0625q-0.828125 0 -1.15625 -0.0625q-0.546875 -0.078125 -0.546875 -0.421875q0 -0.28125 0.328125 -0.6875l0.515625 -0.625l3.0 -4.359375q0.40625 -0.5625 1.03125 -0.5625q0.6875 0 0.6875 0.59375l0 5.046875q0.09375 -0.015625 0.25 -0.015625q1.109375 0 1.109375 0.609375q0 0.4375 -0.453125 0.546875q-0.21875 0.0625 -0.90625 0.03125zm-1.1875 -5.140625q-1.609375 2.59375 -2.53125 3.875l2.53125 0.0625l0 -3.9375z" fill-rule="nonzero"/><path fill="#000000" fill-opacity="0.0" d="m520.01184 230.57742l49.480286 0l0 27.370087l-49.480286 0z" fill-rule="evenodd"/><path fill="#ffffff" d="m534.57434 257.8568q-2.765625 0 -4.046875 -2.5312653q-0.953125 -1.953125 -0.953125 -5.078125q0 -2.640625 1.25 -4.609375q1.484375 -2.3125 4.03125 -2.3125q2.40625 0 3.734375 2.046875q1.15625 1.765625 1.15625 4.3125q0 4.078125 -1.296875 6.125q-1.28125 2.0468903 -3.875 2.0468903zm0.28125 -12.76564q-1.703125 0 -2.6875 1.71875q-0.828125 1.4375 -0.828125 3.296875q0 2.984375 0.796875 4.5q0.8125 1.5000153 2.4375 1.5000153q1.9375 0 2.765625 -2.2031403q0.59375 -1.53125 0.59375 -3.890625q0 -2.46875 -0.78125 -3.6875q-0.765625 -1.234375 -2.296875 -1.234375zm15.183716 4.59375l-1.328125 1.25l-1.625 1.609375l2.96875 3.8750153q0.234375 0.296875 0.234375 0.578125q0 0.359375 -0.28125 0.625q-0.265625 0.28125 -0.625 0.28125q-0.34375 0 -0.625 -0.34375q-0.828125 -0.96875 -2.953125 -3.7500153l-1.765625 1.828125q-0.546875 0.48439026 -1.578125 1.5000153q-0.28125 0.328125 -0.625 0.328125q-0.34375 0 -0.609375 -0.265625q-0.265625 -0.28125 -0.265625 -0.625q0 -0.296875 0.21875 -0.57814026q0.25 -0.34375 0.796875 -0.8125q0.625 -0.5625 0.828125 -0.765625l1.9375 -2.03125l-1.1875 -1.71875q-0.71875 -1.03125 -1.265625 -1.5q-0.34375 -0.3125 -0.34375 -0.6875q0 -0.359375 0.25 -0.640625q0.265625 -0.28125 0.609375 -0.28125q0.53125 0 1.625 1.40625l1.578125 2.171875l1.78125 -1.640625q1.109375 -1.046875 1.5 -1.640625q0.296875 -0.421875 0.6875 -0.421875q0.359375 0 0.625 0.265625q0.28125 0.265625 0.28125 0.609375q0 0.5 -0.84375 1.375z" fill-rule="nonzero"/><path fill="#ffffff" d="m555.0839 250.77867q-0.921875 0 -1.640625 -0.390625q-0.828125 -0.4375 -1.109375 -1.234375q-0.03125 -0.109375 -0.03125 -0.21875q0 -0.234375 0.171875 -0.390625q0.1875 -0.171875 0.4375 -0.171875q0.25 0 0.421875 0.21875l0.28125 0.421875q0.21875 0.296875 0.578125 0.453125q0.375 0.140625 0.890625 0.140625q0.671875 0 1.15625 -0.40625q0.53125 -0.4375 0.53125 -1.078125q0 -0.90625 -0.671875 -1.453125q-0.59375 -0.484375 -1.578125 -0.578125q-0.671875 -0.0625 -0.671875 -0.546875q0 -0.359375 0.53125 -0.546875l1.453125 -0.359375q0.40625 -0.15625 0.625 -0.40625q0.21875 -0.265625 0.21875 -0.640625q0.015625 -0.53125 -0.40625 -0.859375q-0.453125 -0.328125 -1.25 -0.328125q-0.421875 0 -0.796875 0.1875l-0.6875 0.4375q-0.203125 0.125 -0.328125 0.125q-0.234375 0 -0.421875 -0.1875q-0.171875 -0.1875 -0.171875 -0.421875q0 -0.46875 0.9375 -0.921875q0.8125 -0.390625 1.328125 -0.390625q1.296875 0 2.0625 0.578125q0.828125 0.609375 0.828125 1.765625q0 1.421875 -1.15625 1.875q-0.109375 0.046875 -0.234375 0.09375q0.8125 0.296875 1.203125 0.890625q0.40625 0.59375 0.40625 1.46875q0 1.203125 -0.84375 2.046875q-0.84375 0.828125 -2.0625 0.828125z" fill-rule="nonzero"/><path fill="#000000" fill-opacity="0.0" d="m619.8123 230.57742l49.480347 0l0 27.370087l-49.480347 0z" fill-rule="evenodd"/><path fill="#ffffff" d="m634.3748 257.8568q-2.765625 0 -4.046875 -2.5312653q-0.953125 -1.953125 -0.953125 -5.078125q0 -2.640625 1.25 -4.609375q1.484375 -2.3125 4.03125 -2.3125q2.40625 0 3.734375 2.046875q1.15625 1.765625 1.15625 4.3125q0 4.078125 -1.296875 6.125q-1.28125 2.0468903 -3.875 2.0468903zm0.28125 -12.76564q-1.703125 0 -2.6875 1.71875q-0.828125 1.4375 -0.828125 3.296875q0 2.984375 0.796875 4.5q0.8125 1.5000153 2.4375 1.5000153q1.9375 0 2.765625 -2.2031403q0.59375 -1.53125 0.59375 -3.890625q0 -2.46875 -0.78125 -3.6875q-0.765625 -1.234375 -2.296875 -1.234375zm15.183777 4.59375l-1.328125 1.25l-1.625 1.609375l2.96875 3.8750153q0.234375 0.296875 0.234375 0.578125q0 0.359375 -0.28125 0.625q-0.265625 0.28125 -0.625 0.28125q-0.34375 0 -0.625 -0.34375q-0.828125 -0.96875 -2.953125 -3.7500153l-1.765625 1.828125q-0.546875 0.48439026 -1.578125 1.5000153q-0.28125 0.328125 -0.625 0.328125q-0.34375 0 -0.609375 -0.265625q-0.265625 -0.28125 -0.265625 -0.625q0 -0.296875 0.21875 -0.57814026q0.25 -0.34375 0.796875 -0.8125q0.625 -0.5625 0.828125 -0.765625l1.9375 -2.03125l-1.1875 -1.71875q-0.71875 -1.03125 -1.265625 -1.5q-0.34375 -0.3125 -0.34375 -0.6875q0 -0.359375 0.25 -0.640625q0.265625 -0.28125 0.609375 -0.28125q0.53125 0 1.625 1.40625l1.578125 2.171875l1.78125 -1.640625q1.109375 -1.046875 1.5 -1.640625q0.296875 -0.421875 0.6875 -0.421875q0.359375 0 0.625 0.265625q0.28125 0.265625 0.28125 0.609375q0 0.5 -0.84375 1.375z" fill-rule="nonzero"/><path fill="#ffffff" d="m657.3376 250.51305q-0.15625 0 -0.4375 -0.09375q-0.265625 -0.09375 -0.421875 -0.09375q-0.296875 0 -0.921875 0.03125q-0.625 0.03125 -0.9375 0.03125q-0.234375 0 -0.703125 0.0625q-0.46875 0.0625 -0.703125 0.0625q-0.0625 0 -0.1875 -0.015625q-0.125 -0.03125 -0.203125 -0.03125q-0.40625 0 -0.546875 -0.40625q-0.0625 -0.21875 -0.0625 -0.734375q0 -1.40625 0.765625 -2.265625q0.359375 -0.40625 1.90625 -1.46875q0.859375 -0.59375 1.15625 -0.921875q0.515625 -0.578125 0.515625 -1.375q0 -0.375 -0.5 -0.6875q-0.4375 -0.265625 -0.859375 -0.265625q-0.5625 0 -1.0625 0.3125l-0.875 0.6875q-0.265625 0.203125 -0.421875 0.203125q-0.625 0 -0.625 -0.5q0 -0.28125 0.234375 -0.484375q0.703125 -0.671875 1.234375 -0.96875q0.734375 -0.421875 1.515625 -0.421875q0.984375 0 1.75 0.53125q0.859375 0.609375 0.859375 1.546875q0 0.625 -0.171875 1.140625q-0.171875 0.515625 -0.53125 0.953125q-0.46875 0.546875 -1.546875 1.21875q-1.140625 0.71875 -1.5 1.09375q-0.671875 0.6875 -0.65625 1.6875l1.25 -0.109375q1.28125 -0.078125 1.828125 -0.078125q0.46875 0 0.875 0.15625q0.546875 0.21875 0.546875 0.59375q0 0.234375 -0.171875 0.421875q-0.15625 0.1875 -0.390625 0.1875z" fill-rule="nonzero"/><path fill="#000000" fill-opacity="0.0" d="m719.61285 230.57742l49.480347 0l0 27.370087l-49.480347 0z" fill-rule="evenodd"/><path fill="#ffffff" d="m734.17535 257.8568q-2.765625 0 -4.046875 -2.5312653q-0.953125 -1.953125 -0.953125 -5.078125q0 -2.640625 1.25 -4.609375q1.484375 -2.3125 4.03125 -2.3125q2.40625 0 3.734375 2.046875q1.15625 1.765625 1.15625 4.3125q0 4.078125 -1.296875 6.125q-1.28125 2.0468903 -3.875 2.0468903zm0.28125 -12.76564q-1.703125 0 -2.6875 1.71875q-0.828125 1.4375 -0.828125 3.296875q0 2.984375 0.796875 4.5q0.8125 1.5000153 2.4375 1.5000153q1.9375 0 2.765625 -2.2031403q0.59375 -1.53125 0.59375 -3.890625q0 -2.46875 -0.78125 -3.6875q-0.765625 -1.234375 -2.296875 -1.234375zm15.183777 4.59375l-1.328125 1.25l-1.625 1.609375l2.96875 3.8750153q0.234375 0.296875 0.234375 0.578125q0 0.359375 -0.28125 0.625q-0.265625 0.28125 -0.625 0.28125q-0.34375 0 -0.625 -0.34375q-0.828125 -0.96875 -2.953125 -3.7500153l-1.765625 1.828125q-0.546875 0.48439026 -1.578125 1.5000153q-0.28125 0.328125 -0.625 0.328125q-0.34375 0 -0.609375 -0.265625q-0.265625 -0.28125 -0.265625 -0.625q0 -0.296875 0.21875 -0.57814026q0.25 -0.34375 0.796875 -0.8125q0.625 -0.5625 0.828125 -0.765625l1.9375 -2.03125l-1.1875 -1.71875q-0.71875 -1.03125 -1.265625 -1.5q-0.34375 -0.3125 -0.34375 -0.6875q0 -0.359375 0.25 -0.640625q0.265625 -0.28125 0.609375 -0.28125q0.53125 0 1.625 1.40625l1.578125 2.171875l1.78125 -1.640625q1.109375 -1.046875 1.5 -1.640625q0.296875 -0.421875 0.6875 -0.421875q0.359375 0 0.625 0.265625q0.28125 0.265625 0.28125 0.609375q0 0.5 -0.84375 1.375z" fill-rule="nonzero"/><path fill="#ffffff" d="m755.2944 250.49742l-1.21875 0l-1.203125 0q-0.421875 0 -0.59375 -0.046875q-0.3125 -0.109375 -0.3125 -0.46875q0 -0.609375 0.953125 -0.609375l0.296875 0l0.25 0.015625q0 -0.296875 -0.0625 -0.859375q-0.046875 -0.578125 -0.046875 -0.859375q0 -0.765625 0.140625 -2.34375q0.140625 -1.546875 0.140625 -2.359375q-0.828125 0.640625 -1.046875 0.640625q-0.234375 0 -0.421875 -0.171875q-0.171875 -0.1875 -0.171875 -0.4375q0 -0.28125 0.515625 -0.6875q0.328125 -0.234375 0.921875 -0.734375q0.546875 -0.546875 1.03125 -0.546875q0.40625 0 0.40625 0.46875q0 0.140625 -0.046875 0.421875q-0.03125 0.265625 -0.03125 0.40625q0 0.203125 0.015625 0.609375q0.03125 0.40625 0.03125 0.609375q0 0.6875 -0.15625 2.0625q-0.140625 1.375 -0.140625 2.0625q0 0.34375 0.046875 0.859375q0.046875 0.5 0.0625 0.828125l0.640625 -0.015625q0.25 0 0.40625 0.171875q0.171875 0.15625 0.171875 0.40625q0 0.25 -0.171875 0.421875q-0.15625 0.15625 -0.40625 0.15625z" fill-rule="nonzero"/><path fill="#000000" fill-opacity="0.0" d="m819.4134 230.57742l49.480286 0l0 27.370087l-49.480286 0z" fill-rule="evenodd"/><path fill="#ffffff" d="m834.81964 257.51306l-1.8125 0l-1.796875 -0.015625q-0.640625 0 -0.890625 -0.078125q-0.46875 -0.171875 -0.46875 -0.703125q0 -0.90626526 1.4375 -0.90626526l0.4375 0l0.375 0.015625q0 -0.4375 -0.078125 -1.28125q-0.078125 -0.859375 -0.078125 -1.296875q0 -1.15625 0.203125 -3.515625q0.203125 -2.3125 0.1875 -3.515625q-1.21875 0.9375 -1.546875 0.9375q-0.375 0 -0.640625 -0.265625q-0.265625 -0.28125 -0.265625 -0.625q0 -0.4375 0.78125 -1.046875q0.484375 -0.34375 1.390625 -1.109375q0.8125 -0.8125 1.53125 -0.8125q0.609375 0 0.609375 0.703125q0 0.203125 -0.0625 0.625q-0.046875 0.40625 -0.046875 0.625q0 0.296875 0.03125 0.90625q0.03125 0.609375 0.03125 0.90625q0 1.046875 -0.21875 3.109375q-0.21875 2.046875 -0.21875 3.078125q0 0.53125 0.078125 1.296875q0.078125 0.75 0.078125 1.234375l0.953125 -0.015625q0.390625 0 0.640625 0.25001526q0.25 0.25 0.25 0.625q0 0.375 -0.25 0.625q-0.25 0.25 -0.640625 0.25zm11.633301 -7.8281403l-1.328125 1.25l-1.625 1.609375l2.96875 3.8750153q0.234375 0.296875 0.234375 0.578125q0 0.359375 -0.28125 0.625q-0.265625 0.28125 -0.625 0.28125q-0.34375 0 -0.625 -0.34375q-0.828125 -0.96875 -2.953125 -3.7500153l-1.765625 1.828125q-0.546875 0.48439026 -1.578125 1.5000153q-0.28125 0.328125 -0.625 0.328125q-0.34375 0 -0.609375 -0.265625q-0.265625 -0.28125 -0.265625 -0.625q0 -0.296875 0.21875 -0.57814026q0.25 -0.34375 0.796875 -0.8125q0.625 -0.5625 0.828125 -0.765625l1.9375 -2.03125l-1.1875 -1.71875q-0.71875 -1.03125 -1.265625 -1.5q-0.34375 -0.3125 -0.34375 -0.6875q0 -0.359375 0.25 -0.640625q0.265625 -0.28125 0.609375 -0.28125q0.53125 0 1.625 1.40625l1.578125 2.171875l1.78125 -1.640625q1.109375 -1.046875 1.5 -1.640625q0.296875 -0.421875 0.6875 -0.421875q0.359375 0 0.625 0.265625q0.28125 0.265625 0.28125 0.609375q0 0.5 -0.84375 1.375z" fill-rule="nonzero"/><path fill="#ffffff" d="m851.5289 250.7318q-1.84375 0 -2.6875 -1.6875q-0.640625 -1.296875 -0.640625 -3.375q0 -1.765625 0.828125 -3.078125q1.0 -1.53125 2.703125 -1.53125q1.59375 0 2.484375 1.359375q0.765625 1.171875 0.765625 2.875q0 2.71875 -0.859375 4.078125q-0.859375 1.359375 -2.59375 1.359375zm0.1875 -8.5q-1.125 0 -1.796875 1.140625q-0.546875 0.953125 -0.546875 2.1875q0 2.0 0.53125 3.015625q0.546875 1.0 1.625 1.0q1.296875 0 1.859375 -1.484375q0.390625 -1.015625 0.390625 -2.578125q0 -1.640625 -0.515625 -2.453125q-0.515625 -0.828125 -1.546875 -0.828125z" fill-rule="nonzero"/><path fill="#000000" fill-opacity="0.0" d="m696.6406 104.703415l0 0c0 -7.558037 6.444275 -13.685036 14.393677 -13.685036l0 0c3.8174438 0 7.4785156 1.4418106 10.177856 4.008255c2.6993408 2.5664444 4.2158203 6.047287 4.2158203 9.676781l0 0c0 7.5580444 -6.444275 13.685043 -14.393677 13.685043l0 0c-7.949402 0 -14.393677 -6.126999 -14.393677 -13.685043z" fill-rule="evenodd"/><path fill="#000000" fill-opacity="0.0" d="m711.0343 91.01838l0 27.370079m-14.393677 -13.685043l28.787354 0" fill-rule="evenodd"/><path fill="#000000" fill-opacity="0.0" d="m696.6406 104.703415l0 0c0 -7.558037 6.444275 -13.685036 14.393677 -13.685036l0 0c3.8174438 0 7.4785156 1.4418106 10.177856 4.008255c2.6993408 2.5664444 4.2158203 6.047287 4.2158203 9.676781l0 0c0 7.5580444 -6.444275 13.685043 -14.393677 13.685043l0 0c-7.949402 0 -14.393677 -6.126999 -14.393677 -13.685043z" fill-rule="evenodd"/><path stroke="#ffffff" stroke-width="2.0" stroke-linejoin="round" stroke-linecap="butt" d="m711.0343 91.01838l0 27.370079m-14.393677 -13.685043l28.787354 0" fill-rule="evenodd"/><path stroke="#ffffff" stroke-width="2.0" stroke-linejoin="round" stroke-linecap="butt" d="m696.6406 104.703415l0 0c0 -7.558037 6.444275 -13.685036 14.393677 -13.685036l0 0c3.8174438 0 7.4785156 1.4418106 10.177856 4.008255c2.6993408 2.5664444 4.2158203 6.047287 4.2158203 9.676781l0 0c0 7.5580444 -6.444275 13.685043 -14.393677 13.685043l0 0c-7.949402 0 -14.393677 -6.126999 -14.393677 -13.685043z" fill-rule="evenodd"/><path fill="#000000" fill-opacity="0.0" d="m729.75854 81.144356l162.11023 0l0 47.11811l-162.11023 0z" fill-rule="evenodd"/><path fill="#ffffff" d="m749.7898 101.421234q-0.125 1.53125 -0.125 3.0625q0 3.46875 0.328125 5.25q0.015625 0.140625 0.015625 0.234375q0 0.421875 -0.296875 0.6875q-0.28125 0.265625 -0.65625 0.265625q-0.65625 0 -0.953125 -0.9375q-0.75 0.5625 -1.5625 0.84375q-0.796875 0.28125 -1.671875 0.28125q-2.15625 0 -3.578125 -1.4375q-1.453125 -1.46875 -1.453125 -3.78125q0 -2.78125 1.46875 -4.453125q1.46875 -1.671875 3.828125 -1.671875q1.203125 0 1.859375 0.375l0.984375 0.71875q0.140625 -4.390625 0.34375 -5.90625q0.140625 -0.921875 0.953125 -0.921875q0.9375 0 0.9375 1.0q0 1.453125 -0.421875 6.390625zm-4.609375 0.28125q-1.75 0 -2.625 1.03125q-0.875 1.03125 -0.875 3.125q0 1.34375 0.953125 2.3125q0.953125 0.96875 2.234375 0.96875q0.875 0 1.46875 -0.328125q0.359375 -0.1875 1.15625 -0.859375q0.15625 -0.140625 0.3125 -0.328125l-0.03125 -1.796875l0 -1.21875l0.03125 -1.21875q-0.40625 -0.84375 -1.0625 -1.265625q-0.65625 -0.421875 -1.5625 -0.421875zm12.418823 9.40625q-2.359375 0 -3.8125 -1.1875q-1.59375 -1.296875 -1.59375 -3.640625q0 -2.703125 1.3125 -4.546875q1.421875 -1.984375 3.8125 -1.984375q1.734375 0 2.828125 0.578125q1.34375 0.71875 1.34375 2.203125q0 1.046875 -1.1875 1.890625q-0.515625 0.375 -2.203125 1.171875l-3.984375 1.890625q0.59375 0.859375 1.453125 1.296875q0.875 0.4375 2.03125 0.4375q0.71875 0 1.6875 -0.265625q1.234375 -0.34375 1.578125 -0.90625q0.359375 -0.5625 0.765625 -0.5625q0.359375 0 0.640625 0.28125q0.296875 0.28125 0.296875 0.640625q0 1.15625 -1.859375 1.984375q-1.59375 0.71875 -3.109375 0.71875zm-0.28125 -9.5q-1.265625 0 -2.109375 0.984375q-0.84375 0.984375 -1.265625 2.96875l3.203125 -1.515625q1.875 -0.921875 2.6875 -1.59375q-0.90625 -0.84375 -2.515625 -0.84375zm15.090881 9.75q-0.890625 0 -1.015625 -0.96875l-0.28125 -2.28125q-0.15625 -1.21875 -0.15625 -2.28125q0 -0.296875 0.03125 -0.984375q0.046875 -0.703125 0.046875 -1.0q0 -2.25 -0.828125 -2.25q-1.171875 0 -2.234375 1.390625q-0.953125 1.25 -1.5 3.1875q-0.015625 0.40625 -0.09375 1.015625q-0.0625 0.515625 -0.0625 1.015625q0 0.3125 0.0625 0.9375q0.0625 0.625 0.0625 0.9375q0 0.46875 -0.296875 0.75q-0.28125 0.296875 -0.71875 0.296875q-0.46875 0 -0.75 -0.296875q-0.28125 -0.28125 -0.28125 -0.75q0 -0.3125 -0.0625 -0.9375q-0.0625 -0.625 -0.0625 -0.9375q0 -1.078125 0.140625 -2.96875q0.15625 -1.90625 0.15625 -2.984375q0 -0.328125 -0.046875 -0.984375q-0.03125 -0.65625 -0.03125 -1.0q0 -0.4375 0.296875 -0.71875q0.296875 -0.296875 0.734375 -0.296875q0.96875 0 1.0625 1.359375l0.03125 1.21875q1.75 -2.328125 3.59375 -2.328125q1.65625 0 2.3125 1.453125q0.453125 0.984375 0.5 2.90625l0 1.046875l-0.015625 0.96875q0 0.859375 0.21875 2.234375q0.234375 1.375 0.234375 2.21875q0 0.46875 -0.296875 0.75q-0.296875 0.28125 -0.75 0.28125zm7.0858154 -0.125q-1.75 0 -3.015625 -1.28125q-1.40625 -1.4375 -1.484375 -3.875q-0.0625 -2.34375 1.1875 -4.140625q1.46875 -2.109375 4.0625 -2.109375q2.09375 0 3.15625 1.90625q0.859375 1.53125 0.828125 3.703125q-0.03125 2.3125 -1.203125 3.953125q-1.34375 1.84375 -3.53125 1.84375zm0.625 -9.296875q-1.53125 -0.015625 -2.390625 1.453125q-0.671875 1.1875 -0.671875 2.6875q0 1.515625 0.8125 2.359375q0.6875 0.703125 1.625 0.703125q1.078125 0 1.859375 -0.796875q0.890625 -0.875 0.9375 -2.359375q0.140625 -4.03125 -2.171875 -4.046875zm13.653503 -0.1875q-0.21875 0 -0.515625 -0.015625q-0.296875 -0.03125 -0.515625 -0.03125q-0.25 0 -1.421875 0.15625l0.203125 6.15625l0 0.46875l0.015625 0.53125q0.046875 2.28125 -1.09375 2.28125q-0.421875 0 -0.734375 -0.28125q-0.296875 -0.265625 -0.296875 -0.671875q0 -0.390625 0.03125 -1.1875q0.03125 -0.796875 0.03125 -1.1875l-0.203125 -6.078125q-0.765625 -0.03125 -2.3125 -0.1875q-0.9375 -0.125 -0.9375 -1.03125q0 -0.453125 0.28125 -0.75q0.28125 -0.296875 0.71875 -0.296875l2.1875 0.171875q0 -0.53125 -0.046875 -1.421875q-0.046875 -0.890625 -0.046875 -1.28125q0 -0.4375 0.296875 -0.71875q0.3125 -0.296875 0.75 -0.296875q0.9375 0 1.09375 1.53125q0.03125 0.390625 0.03125 0.921875l-0.015625 0.609375l-0.015625 0.640625q1.296875 -0.15625 1.484375 -0.15625q1.078125 0 1.40625 0.09375q0.640625 0.21875 0.640625 0.984375q0 0.453125 -0.296875 0.75q-0.28125 0.296875 -0.71875 0.296875zm7.9403076 9.359375q-2.359375 0 -3.8125 -1.1875q-1.59375 -1.296875 -1.59375 -3.640625q0 -2.703125 1.3125 -4.546875q1.421875 -1.984375 3.8125 -1.984375q1.734375 0 2.828125 0.578125q1.34375 0.71875 1.34375 2.203125q0 1.046875 -1.1875 1.890625q-0.515625 0.375 -2.203125 1.171875l-3.984375 1.890625q0.59375 0.859375 1.453125 1.296875q0.875 0.4375 2.03125 0.4375q0.71875 0 1.6875 -0.265625q1.234375 -0.34375 1.578125 -0.90625q0.359375 -0.5625 0.765625 -0.5625q0.359375 0 0.640625 0.28125q0.296875 0.28125 0.296875 0.640625q0 1.15625 -1.859375 1.984375q-1.59375 0.71875 -3.109375 0.71875zm-0.28125 -9.5q-1.265625 0 -2.109375 0.984375q-0.84375 0.984375 -1.265625 2.96875l3.203125 -1.515625q1.875 -0.921875 2.6875 -1.59375q-0.90625 -0.84375 -2.515625 -0.84375zm14.137756 1.0q-0.578125 0 -0.8125 -0.390625q-0.15625 -0.265625 -0.265625 -1.125q-0.78125 0.203125 -2.40625 0.734375q-1.671875 0.65625 -1.6875 1.640625q0.3125 0.109375 0.609375 0.171875q2.40625 0.421875 3.5625 1.171875q1.703125 1.09375 1.703125 3.171875q0 1.6875 -1.46875 2.5625q-1.21875 0.703125 -3.078125 0.703125q-1.375 0 -2.609375 -0.453125q-1.609375 -0.59375 -1.609375 -1.625q0 -0.421875 0.328125 -0.734375q0.328125 -0.3125 0.75 -0.3125q0.328125 0 0.828125 0.5q0.25 0.234375 1.125 0.390625q0.703125 0.125 1.1875 0.125q0.875 0 1.53125 -0.203125q0.96875 -0.296875 0.96875 -0.953125q0 -1.421875 -1.96875 -1.921875l-1.09375 -0.234375q-1.375 -0.3125 -1.96875 -0.71875q-0.84375 -0.578125 -0.84375 -1.75q0 -2.1875 2.0625 -3.109375q0.625 -0.28125 2.0 -0.671875q1.375 -0.390625 1.96875 -0.65625q0.421875 -0.1875 0.921875 -0.1875q0.453125 0 0.734375 0.296875q0.28125 0.28125 0.28125 0.75q0 0.296875 0.125 0.890625q0.140625 0.578125 0.140625 0.875q0 0.46875 -0.296875 0.765625q-0.28125 0.296875 -0.71875 0.296875zm22.631348 -6.03125q-1.390625 1.6875 -2.140625 2.78125l-1.3125 1.90625q-0.75 1.09375 -1.421875 1.828125l2.296875 3.359375q1.359375 1.984375 2.421875 3.25q0.28125 0.34375 0.28125 0.71875q0 0.4375 -0.328125 0.75q-0.3125 0.328125 -0.75 0.328125q-0.390625 0 -0.734375 -0.328125q-0.765625 -0.71875 -1.609375 -1.96875l-1.390625 -2.15625l-1.625 -2.34375l-3.59375 4.15625l-1.90625 2.140625q-0.34375 0.34375 -0.765625 0.34375q-0.421875 0 -0.75 -0.328125q-0.328125 -0.3125 -0.328125 -0.75q0 -0.375 0.28125 -0.71875l1.875 -2.09375l3.90625 -4.53125q-1.15625 -1.53125 -2.4375 -3.0625l-1.21875 -1.640625q-0.71875 -0.96875 -1.34375 -1.5q-0.4375 -0.359375 -0.4375 -0.84375q0 -0.421875 0.296875 -0.75q0.296875 -0.34375 0.75 -0.34375q0.890625 0 2.265625 1.890625q0.421875 0.640625 1.296875 1.796875q1.1875 1.421875 2.265625 2.84375l2.375 -3.3125q2.296875 -3.21875 2.984375 -3.21875q0.4375 0 0.75 0.328125q0.328125 0.328125 0.328125 0.765625q0 0.359375 -0.28125 0.703125zm9.433716 14.6875q-2.9375 0 -4.984375 -1.765625q-2.171875 -1.875 -2.171875 -4.828125q0 -3.609375 2.140625 -6.546875q2.390625 -3.28125 5.953125 -3.28125q3.421875 0 5.078125 1.546875q1.75 1.609375 1.75 5.0625q0 3.59375 -1.96875 6.5q-2.25 3.3125 -5.796875 3.3125zm0.9375 -14.28125q-2.5625 0 -4.328125 2.546875q-1.640625 2.328125 -1.640625 5.140625q0 2.0 1.5 3.265625q1.421875 1.1875 3.53125 1.1875q2.515625 0 4.171875 -2.546875q1.46875 -2.28125 1.46875 -5.125q0 -2.484375 -1.125 -3.5q-1.0625 -0.96875 -3.578125 -0.96875zm19.448975 13.75q-0.390625 0 -0.734375 -0.328125q-3.4375 -3.40625 -7.65625 -4.578125l0.078125 2.03125l0.046875 2.0625q0 0.453125 -0.296875 0.75q-0.296875 0.3125 -0.734375 0.3125q-0.453125 0 -0.75 -0.3125q-0.296875 -0.296875 -0.296875 -0.75q0 -0.828125 -0.078125 -2.453125q-0.078125 -1.640625 -0.078125 -2.453125q0 -0.96875 0.203125 -2.859375q0.21875 -1.890625 0.21875 -2.84375q0 -0.53125 -0.109375 -1.5625q-0.09375 -1.046875 -0.09375 -1.578125q0 -0.59375 0.328125 -1.046875q0.40625 -0.546875 1.09375 -0.5l2.515625 0.203125q1.421875 0.171875 2.40625 0.703125q4.21875 2.234375 4.21875 5.453125q0 1.59375 -1.4375 2.8125q-1.15625 0.96875 -2.890625 1.484375q3.234375 1.734375 4.84375 3.671875q0.265625 0.328125 0.265625 0.703125q0 0.4375 -0.3125 0.765625q-0.3125 0.3125 -0.75 0.3125zm-6.625 -13.765625l-1.546875 -0.125l0.109375 1.265625q0.078125 0.765625 0.078125 1.265625q0 0.828125 -0.140625 2.0625l-0.21875 2.078125q0.140625 0 0.453125 0.015625q0.3125 0 0.46875 0q2.65625 0 3.96875 -0.703125q0.59375 -0.328125 1.09375 -0.84375q0.546875 -0.59375 0.546875 -1.0q0 -1.4375 -1.640625 -2.6875q-1.515625 -1.140625 -3.171875 -1.328125z" fill-rule="nonzero"/><path fill="#000000" fill-opacity="0.0" d="m16.860893 286.3176l507.30707 0l0 53.165344l-507.30707 0z" fill-rule="evenodd"/><path fill="#ffffff" d="m37.37652 302.11008q-0.1875 0 -0.390625 -0.078125q-1.296875 -0.484375 -3.421875 -0.484375q-0.6875 0 -1.609375 0.109375q-0.921875 0.09375 -2.0625 0.296875l-0.015625 4.5q2.0 -0.53125 3.015625 -0.53125q1.609375 0 3.328125 0.1875q0.96875 0.109375 0.96875 1.0625q0 0.46875 -0.3125 0.78125q-0.296875 0.296875 -0.734375 0.296875q-0.546875 0 -1.625 -0.09375q-1.078125 -0.09375 -1.625 -0.09375q-0.703125 0 -3.0625 0.609375l-0.09375 7.171875q0 0.4375 -0.296875 0.75q-0.28125 0.3125 -0.734375 0.3125q-0.453125 0 -0.75 -0.3125q-0.296875 -0.3125 -0.296875 -0.75q0 -2.0625 0.078125 -6.171875q0.078125 -4.109375 0.078125 -6.15625q0 -0.453125 -0.015625 -1.375q-0.015625 -0.921875 -0.015625 -1.375q0 -0.46875 0.28125 -0.78125q0.296875 -0.3125 0.75 -0.3125q0.34375 0 0.625 0.1875q1.28125 -0.21875 2.3125 -0.328125q1.03125 -0.109375 1.8125 -0.109375q1.203125 0 2.75 0.34375q2.078125 0.46875 2.078125 1.25q0 0.40625 -0.265625 0.734375q-0.296875 0.359375 -0.75 0.359375zm7.741638 14.171875q-2.359375 0 -3.8125 -1.1875q-1.59375 -1.296875 -1.59375 -3.640625q0 -2.703125 1.3125 -4.546875q1.421875 -1.984375 3.8125 -1.984375q1.734375 0 2.828125 0.578125q1.34375 0.71875 1.34375 2.203125q0 1.046875 -1.1875 1.890625q-0.515625 0.375 -2.203125 1.171875l-3.984375 1.890625q0.59375 0.859375 1.453125 1.296875q0.875 0.4375 2.03125 0.4375q0.71875 0 1.6875 -0.265625q1.234375 -0.34375 1.578125 -0.90625q0.359375 -0.5625 0.765625 -0.5625q0.359375 0 0.640625 0.28125q0.296875 0.28125 0.296875 0.640625q0 1.15625 -1.859375 1.984375q-1.59375 0.71875 -3.109375 0.71875zm-0.28125 -9.5q-1.265625 0 -2.109375 0.984375q-0.84375 0.984375 -1.265625 2.96875l3.203125 -1.515625q1.875 -0.921875 2.6875 -1.59375q-0.90625 -0.84375 -2.515625 -0.84375zm11.965897 9.5q-2.359375 0 -3.8125 -1.1875q-1.59375 -1.296875 -1.59375 -3.640625q0 -2.703125 1.3125 -4.546875q1.421875 -1.984375 3.8125 -1.984375q1.734375 0 2.828125 0.578125q1.34375 0.71875 1.34375 2.203125q0 1.046875 -1.1875 1.890625q-0.515625 0.375 -2.203125 1.171875l-3.984375 1.890625q0.59375 0.859375 1.453125 1.296875q0.875 0.4375 2.03125 0.4375q0.71875 0 1.6875 -0.265625q1.234375 -0.34375 1.578125 -0.90625q0.359375 -0.5625 0.765625 -0.5625q0.359375 0 0.640625 0.28125q0.296875 0.28125 0.296875 0.640625q0 1.15625 -1.859375 1.984375q-1.59375 0.71875 -3.109375 0.71875zm-0.28125 -9.5q-1.265625 0 -2.109375 0.984375q-0.84375 0.984375 -1.265625 2.96875l3.203125 -1.515625q1.875 -0.921875 2.6875 -1.59375q-0.90625 -0.84375 -2.515625 -0.84375zm16.684647 -0.1875q-0.125 1.53125 -0.125 3.0625q0 3.46875 0.328125 5.25q0.015625 0.140625 0.015625 0.234375q0 0.421875 -0.296875 0.6875q-0.28125 0.265625 -0.65625 0.265625q-0.65625 0 -0.953125 -0.9375q-0.75 0.5625 -1.5625 0.84375q-0.796875 0.28125 -1.671875 0.28125q-2.15625 0 -3.578125 -1.4375q-1.453125 -1.46875 -1.453125 -3.78125q0 -2.78125 1.46875 -4.453125q1.46875 -1.671875 3.828125 -1.671875q1.203125 0 1.859375 0.375l0.984375 0.71875q0.140625 -4.390625 0.34375 -5.90625q0.140625 -0.921875 0.953125 -0.921875q0.9375 0 0.9375 1.0q0 1.453125 -0.421875 6.390625zm-4.609375 0.28125q-1.75 0 -2.625 1.03125q-0.875 1.03125 -0.875 3.125q0 1.34375 0.953125 2.3125q0.953125 0.96875 2.234375 0.96875q0.875 0 1.46875 -0.328125q0.359375 -0.1875 1.15625 -0.859375q0.15625 -0.140625 0.3125 -0.328125l-0.03125 -1.796875l0 -1.21875l0.03125 -1.21875q-0.40625 -0.84375 -1.0625 -1.265625q-0.65625 -0.421875 -1.5625 -0.421875zm12.418823 9.359375q-1.59375 0 -2.890625 -0.625q-0.34375 0.5 -0.8125 0.5q-0.40625 0 -0.6875 -0.28125q-0.265625 -0.265625 -0.265625 -0.6875q0 -0.265625 0.015625 -0.796875q0.03125 -0.53125 0.03125 -0.8125q0 -1.09375 -0.0625 -3.296875q-0.046875 -2.203125 -0.046875 -3.3125q0 -0.765625 0 -2.875q0.015625 -2.125 0.015625 -2.890625q0 -0.625 0.265625 -1.125q0.34375 -0.640625 0.953125 -0.640625q0.78125 0 0.78125 0.90625q0 0.15625 -0.0625 0.4375q-0.046875 0.28125 -0.046875 0.421875l-0.03125 2.28125l-0.015625 2.65625q0.90625 -0.625 1.71875 -0.921875q0.8125 -0.3125 1.53125 -0.3125q2.25 0 3.640625 1.71875q1.3125 1.609375 1.3125 3.96875q0 2.375 -1.53125 4.03125q-1.53125 1.65625 -3.8125 1.65625zm0.390625 -9.40625q-0.84375 0 -1.75 0.484375q-0.4375 0.234375 -1.5 1.03125l-0.015625 1.796875l0.015625 1.625l0 1.703125q0.5 0.234375 1.40625 0.59375q0.65625 0.1875 1.453125 0.1875q1.515625 0 2.484375 -1.0625q0.96875 -1.0625 0.96875 -2.640625q0 -1.546875 -0.78125 -2.59375q-0.84375 -1.125 -2.28125 -1.125zm15.528168 9.65625q-0.1875 0 -0.71875 -0.453125q-0.46875 -0.4375 -0.6875 -0.765625q-1.0 0.546875 -1.765625 0.8125q-0.765625 0.28125 -1.265625 0.28125q-2.4375 0 -3.5625 -1.375q-1.046875 -1.296875 -1.046875 -3.953125q0 -2.53125 1.734375 -4.3125q1.734375 -1.796875 4.140625 -1.796875q0.90625 0 2.03125 0.46875q1.421875 0.578125 1.421875 1.40625q0 0.28125 -0.21875 0.5q-0.09375 0.390625 -0.15625 1.296875q-0.0625 0.90625 -0.0625 2.328125q-0.015625 1.296875 0.171875 2.046875q0.109375 0.453125 0.65625 1.828125q0.078125 0.1875 0.234375 0.546875l0.0625 0.1875q0 0.40625 -0.296875 0.671875q-0.28125 0.28125 -0.671875 0.28125zm-2.15625 -7.234375q0 -0.453125 0.046875 -0.96875q0.0625 -0.53125 0.171875 -1.125q-0.375 -0.203125 -0.65625 -0.296875q-0.28125 -0.09375 -0.4375 -0.09375q-1.625 0 -2.796875 1.328125q-1.171875 1.3125 -1.171875 3.03125q0 1.703125 0.609375 2.5625q0.609375 0.84375 1.8125 0.84375q1.0 0 1.703125 -0.359375q0.375 -0.203125 1.046875 -0.796875q-0.328125 -2.75 -0.328125 -4.125zm9.648376 7.203125q-2.140625 0 -3.5625 -1.296875q-1.5 -1.34375 -1.5 -3.5625q0 -2.125 1.40625 -4.375q1.5625 -2.484375 3.515625 -2.484375q1.03125 0 2.28125 0.46875q1.59375 0.609375 1.59375 1.5q0 0.390625 -0.265625 0.703125q-0.25 0.3125 -0.640625 0.3125q-0.296875 0 -0.53125 -0.1875q-0.21875 -0.1875 -0.421875 -0.359375q-0.609375 -0.484375 -2.015625 -0.484375q-1.0625 0 -2.09375 1.890625q-0.953125 1.734375 -0.953125 3.015625q0 1.375 0.9375 2.15625q0.875 0.75 2.25 0.75q0.625 0 1.328125 -0.34375l1.21875 -0.640625q0.3125 -0.171875 0.4375 -0.171875q0.390625 0 0.671875 0.3125q0.28125 0.3125 0.28125 0.703125q0 0.765625 -1.609375 1.46875q-1.40625 0.625 -2.328125 0.625zm14.924408 -0.234375q-0.578125 0 -0.890625 -0.59375q-0.53125 -1.0625 -1.625 -2.5l-1.84375 -2.5q-0.609375 0.46875 -1.875 1.34375q-0.125 1.609375 -0.125 3.140625q0 0.46875 -0.28125 0.75q-0.28125 0.296875 -0.734375 0.296875q-1.046875 0 -1.046875 -1.40625q0 -0.875 0.109375 -2.59375q0.125 -1.71875 0.125 -2.59375q0 -1.578125 0.046875 -3.609375q0.046875 -2.03125 0.046875 -3.59375q0 -0.46875 -0.046875 -1.109375q-0.046875 -0.640625 -0.046875 -1.109375q0 -0.46875 0.28125 -0.75q0.296875 -0.296875 0.734375 -0.296875q0.453125 0 0.734375 0.296875q0.296875 0.28125 0.296875 0.75q0 0.484375 0.046875 1.140625q0.046875 0.640625 0.046875 1.125l-0.0625 3.34375q-0.0625 1.8125 -0.03125 3.625q1.40625 -1.078125 2.71875 -2.375l2.296875 -2.359375q0.34375 -0.34375 0.734375 -0.34375q0.40625 0 0.734375 0.328125q0.328125 0.3125 0.328125 0.734375q0 0.359375 -0.296875 0.703125q-1.28125 1.5 -3.15625 3.21875l2.265625 3.09375q1.59375 2.171875 1.59375 2.828125q0 0.421875 -0.328125 0.71875q-0.328125 0.296875 -0.75 0.296875zm13.641457 -0.0625q-1.046875 0 -2.296875 -0.328125l-0.015625 4.984375q0 0.453125 -0.296875 0.734375q-0.28125 0.296875 -0.71875 0.296875q-0.453125 0 -0.75 -0.296875q-0.28125 -0.28125 -0.28125 -0.734375l0.03125 -4.171875l0 -4.15625q-0.03125 -2.28125 -0.15625 -4.15625l-0.15625 -2.109375q0 -0.75 0.28125 -1.25q0.3125 -0.609375 0.90625 -0.609375q0.40625 0 0.671875 0.28125q0.28125 0.28125 0.28125 0.703125q0 0.09375 -0.03125 0.34375q-0.046875 0.3125 -0.078125 0.59375q0.90625 -0.625 1.734375 -0.921875q0.828125 -0.3125 1.59375 -0.3125q2.140625 0 3.125 1.890625q0.78125 1.5 0.78125 3.96875q0 2.25 -1.203125 3.71875q-1.28125 1.53125 -3.421875 1.53125zm0.71875 -9.03125q-0.953125 0 -1.734375 0.4375q-0.546875 0.296875 -1.390625 1.09375q0.140625 2.375 0.140625 4.96875q1.125 0.4375 2.265625 0.4375q1.296875 0 1.984375 -0.96875q0.59375 -0.84375 0.59375 -2.1875q0 -1.890625 -0.46875 -2.828125q-0.453125 -0.953125 -1.390625 -0.953125zm10.169098 9.28125q-1.75 0 -3.015625 -1.28125q-1.40625 -1.4375 -1.484375 -3.875q-0.0625 -2.34375 1.1875 -4.140625q1.46875 -2.109375 4.0625 -2.109375q2.09375 0 3.15625 1.90625q0.859375 1.53125 0.828125 3.703125q-0.03125 2.3125 -1.203125 3.953125q-1.34375 1.84375 -3.53125 1.84375zm0.625 -9.296875q-1.53125 -0.015625 -2.390625 1.453125q-0.671875 1.1875 -0.671875 2.6875q0 1.515625 0.8125 2.359375q0.6875 0.703125 1.625 0.703125q1.078125 0 1.859375 -0.796875q0.890625 -0.875 0.9375 -2.359375q0.140625 -4.03125 -2.171875 -4.046875zm9.325394 0.5l-0.15625 5.171875q0 0.828125 -0.078125 2.421875q-0.109375 1.046875 -1.03125 1.046875q-1.015625 0 -1.015625 -1.0625q0 -1.265625 0.109375 -3.78125q0.125 -2.53125 0.125 -3.796875q0 -1.640625 0.046875 -3.75q0.046875 -2.125 0.046875 -3.78125q0 -1.03125 1.03125 -1.03125q1.03125 0 1.03125 1.03125q0 1.65625 -0.0625 3.78125q-0.046875 2.109375 -0.046875 3.75zm12.279831 -1.109375l-3.609375 7.796875q-1.328125 2.84375 -2.03125 4.765625l-0.6875 2.015625q-0.28125 0.75 -0.9375 0.75q-0.4375 0 -0.765625 -0.296875q-0.3125 -0.28125 -0.3125 -0.703125q0 -1.046875 2.25 -6.03125l-3.734375 -7.171875l-0.46875 -0.765625q-0.28125 -0.484375 -0.28125 -0.796875q0 -0.4375 0.328125 -0.75q0.328125 -0.328125 0.734375 -0.328125q0.484375 0 0.75 0.359375q1.765625 2.46875 3.796875 7.0l1.546875 -3.59375q0.828125 -1.859375 1.59375 -3.203125q0.34375 -0.578125 0.875 -0.578125q0.4375 0 0.765625 0.296875q0.328125 0.296875 0.328125 0.71875q0 0.234375 -0.140625 0.515625zm10.007706 10.03125q-0.890625 0 -1.015625 -0.96875l-0.28125 -2.28125q-0.15625 -1.21875 -0.15625 -2.28125q0 -0.296875 0.03125 -0.984375q0.046875 -0.703125 0.046875 -1.0q0 -2.25 -0.828125 -2.25q-1.171875 0 -2.234375 1.390625q-0.953125 1.25 -1.5 3.1875q-0.015625 0.40625 -0.09375 1.015625q-0.0625 0.515625 -0.0625 1.015625q0 0.3125 0.0625 0.9375q0.0625 0.625 0.0625 0.9375q0 0.46875 -0.296875 0.75q-0.28125 0.296875 -0.71875 0.296875q-0.46875 0 -0.75 -0.296875q-0.28125 -0.28125 -0.28125 -0.75q0 -0.3125 -0.0625 -0.9375q-0.0625 -0.625 -0.0625 -0.9375q0 -1.078125 0.140625 -2.96875q0.15625 -1.90625 0.15625 -2.984375q0 -0.328125 -0.046875 -0.984375q-0.03125 -0.65625 -0.03125 -1.0q0 -0.4375 0.296875 -0.71875q0.296875 -0.296875 0.734375 -0.296875q0.96875 0 1.0625 1.359375l0.03125 1.21875q1.75 -2.328125 3.59375 -2.328125q1.65625 0 2.3125 1.453125q0.453125 0.984375 0.5 2.90625l0 1.046875l-0.015625 0.96875q0 0.859375 0.21875 2.234375q0.234375 1.375 0.234375 2.21875q0 0.46875 -0.296875 0.75q-0.296875 0.28125 -0.75 0.28125zm7.0858154 -0.125q-1.75 0 -3.015625 -1.28125q-1.40625 -1.4375 -1.484375 -3.875q-0.0625 -2.34375 1.1875 -4.140625q1.46875 -2.109375 4.0625 -2.109375q2.09375 0 3.15625 1.90625q0.859375 1.53125 0.828125 3.703125q-0.03125 2.3125 -1.203125 3.953125q-1.34375 1.84375 -3.53125 1.84375zm0.625 -9.296875q-1.53125 -0.015625 -2.390625 1.453125q-0.671875 1.1875 -0.671875 2.6875q0 1.515625 0.8125 2.359375q0.6875 0.703125 1.625 0.703125q1.078125 0 1.859375 -0.796875q0.890625 -0.875 0.9375 -2.359375q0.140625 -4.03125 -2.171875 -4.046875zm19.903519 9.546875q-0.859375 0 -1.0 -0.90625q-0.1875 -1.140625 -0.375 -3.21875l-0.359375 -3.234375q-0.09375 -0.71875 -0.34375 -1.40625q-0.359375 -0.9375 -0.78125 -0.9375q-0.375 0 -1.421875 0.65625q-1.0 0.609375 -1.3125 0.96875q-0.015625 0.984375 0.046875 1.953125l0.3125 2.78125q0.203125 1.65625 0.203125 2.71875q0 0.46875 -0.296875 0.765625q-0.28125 0.296875 -0.734375 0.296875q-0.4375 0 -0.734375 -0.296875q-0.28125 -0.296875 -0.28125 -0.765625q0 -1.25 -0.265625 -3.71875q-0.25 -2.46875 -0.25 -3.71875q0 -1.109375 -0.3125 -1.71875q-0.71875 0.328125 -1.46875 1.078125l-1.234375 1.375q-0.171875 0.25 -0.53125 0.65625q0 0.625 -0.125 1.84375q-0.109375 1.21875 -0.109375 1.796875q0 0.3125 0.09375 0.875q0.109375 0.5625 0.109375 0.8125q0 0.4375 -0.328125 0.71875q-0.3125 0.296875 -0.734375 0.296875q-1.171875 0 -1.171875 -2.671875q0 -0.625 0.109375 -1.859375q0.109375 -1.25 0.109375 -1.875q0 -0.546875 -0.09375 -1.65625q-0.09375 -1.109375 -0.09375 -1.671875q0 -2.359375 1.0625 -2.359375q0.40625 0 0.734375 0.359375q0.34375 0.359375 0.34375 0.765625q0 0.203125 -0.0625 0.625q-0.046875 0.40625 -0.046875 0.625l0.03125 1.09375q0.53125 -1.109375 1.578125 -2.0q1.0625 -0.90625 1.796875 -0.90625q1.640625 0 2.25 1.609375q0.578125 -0.75 1.359375 -1.125q0.796875 -0.390625 1.8125 -0.390625q1.75 0 2.375 1.875q0.125 0.375 0.4375 2.921875q0.28125 1.796875 0.75 5.96875q0.03125 0.421875 -0.28125 0.703125q-0.3125 0.296875 -0.765625 0.296875zm5.334503 -14.046875q-0.5 0 -0.875 -0.34375q-0.359375 -0.359375 -0.359375 -0.859375q0 -0.5 0.359375 -0.84375q0.375 -0.359375 0.875 -0.359375q0.5 0 0.859375 0.359375q0.359375 0.34375 0.359375 0.84375q0 0.5 -0.359375 0.859375q-0.359375 0.34375 -0.859375 0.34375zm0.46875 8.453125q0 0.625 0.03125 1.875q0.046875 1.25 0.046875 1.875q0 0.453125 -0.28125 0.75q-0.28125 0.28125 -0.75 0.28125q-0.4375 0 -0.734375 -0.28125q-0.28125 -0.296875 -0.28125 -0.75q0 -0.625 -0.046875 -1.875q-0.03125 -1.25 -0.03125 -1.875q0 -0.96875 0.109375 -2.4375q0.109375 -1.46875 0.109375 -2.4375q0 -0.46875 0.28125 -0.765625q0.28125 -0.296875 0.734375 -0.296875q0.453125 0 0.734375 0.296875q0.28125 0.296875 0.28125 0.765625q0 0.96875 -0.109375 2.4375q-0.09375 1.46875 -0.09375 2.4375zm11.649582 5.421875q-0.1875 0 -0.71875 -0.453125q-0.46875 -0.4375 -0.6875 -0.765625q-1.0 0.546875 -1.765625 0.8125q-0.765625 0.28125 -1.265625 0.28125q-2.4375 0 -3.5625 -1.375q-1.046875 -1.296875 -1.046875 -3.953125q0 -2.53125 1.734375 -4.3125q1.734375 -1.796875 4.140625 -1.796875q0.90625 0 2.03125 0.46875q1.421875 0.578125 1.421875 1.40625q0 0.28125 -0.21875 0.5q-0.09375 0.390625 -0.15625 1.296875q-0.0625 0.90625 -0.0625 2.328125q-0.015625 1.296875 0.171875 2.046875q0.109375 0.453125 0.65625 1.828125q0.078125 0.1875 0.234375 0.546875l0.0625 0.1875q0 0.40625 -0.296875 0.671875q-0.28125 0.28125 -0.671875 0.28125zm-2.15625 -7.234375q0 -0.453125 0.046875 -0.96875q0.0625 -0.53125 0.171875 -1.125q-0.375 -0.203125 -0.65625 -0.296875q-0.28125 -0.09375 -0.4375 -0.09375q-1.625 0 -2.796875 1.328125q-1.171875 1.3125 -1.171875 3.03125q0 1.703125 0.609375 2.5625q0.609375 0.84375 1.8125 0.84375q1.0 0 1.703125 -0.359375q0.375 -0.203125 1.046875 -0.796875q-0.328125 -2.75 -0.328125 -4.125zm7.5858765 -1.640625l-0.15625 5.171875q0 0.828125 -0.078125 2.421875q-0.109375 1.046875 -1.03125 1.046875q-1.015625 0 -1.015625 -1.0625q0 -1.265625 0.109375 -3.78125q0.125 -2.53125 0.125 -3.796875q0 -1.640625 0.046875 -3.75q0.046875 -2.125 0.046875 -3.78125q0 -1.03125 1.03125 -1.03125q1.03125 0 1.03125 1.03125q0 1.65625 -0.0625 3.78125q-0.046875 2.109375 -0.046875 3.75zm15.20015 3.234375q-1.421875 0.15625 -5.046875 0.15625q-0.875 0 -0.875 -0.8125q0 -0.8125 0.875 -0.8125q0.828125 0 2.46875 -0.078125q1.640625 -0.078125 2.46875 -0.078125q0.921875 0 0.921875 0.8125q0 0.71875 -0.8125 0.8125zm9.477005 -1.953125q0 0.375 -0.390625 0.734375q-2.484375 2.3125 -5.203125 4.046875q-0.28125 0.1875 -0.546875 0.1875q-0.375 0 -0.65625 -0.296875q-0.265625 -0.296875 -0.265625 -0.671875q0 -0.421875 0.40625 -0.734375l4.03125 -3.078125q-0.921875 -0.609375 -2.28125 -1.890625q-1.671875 -1.5625 -1.671875 -2.171875q0 -0.375 0.28125 -0.65625q0.296875 -0.28125 0.671875 -0.28125q0.390625 0 0.703125 0.359375q2.375 2.65625 4.296875 3.65625q0.625 0.3125 0.625 0.796875zm20.536575 6.921875l-2.0625 0l-2.0625 -0.015625q-0.734375 0 -1.03125 -0.09375q-0.53125 -0.1875 -0.53125 -0.796875q0 -1.046875 1.640625 -1.046875l0.5 0.015625l0.421875 0.015625q0 -0.5 -0.09375 -1.46875q-0.078125 -0.984375 -0.078125 -1.484375q0 -1.3125 0.234375 -4.015625q0.234375 -2.65625 0.21875 -4.03125q-1.390625 1.09375 -1.78125 1.09375q-0.40625 0 -0.71875 -0.3125q-0.3125 -0.3125 -0.3125 -0.71875q0 -0.5 0.90625 -1.1875q0.5625 -0.40625 1.59375 -1.28125q0.90625 -0.921875 1.75 -0.921875q0.6875 0 0.6875 0.796875q0 0.25 -0.0625 0.71875q-0.0625 0.46875 -0.0625 0.71875q0 0.34375 0.03125 1.046875q0.046875 0.6875 0.046875 1.03125q0 1.1875 -0.25 3.546875q-0.25 2.34375 -0.25 3.515625q0 0.609375 0.078125 1.484375q0.09375 0.859375 0.09375 1.40625l1.09375 -0.015625q0.4375 0 0.71875 0.28125q0.296875 0.28125 0.296875 0.71875q0 0.4375 -0.296875 0.71875q-0.28125 0.28125 -0.71875 0.28125zm18.16278 -6.71875q0 0.390625 -0.265625 0.6875q-0.25 0.28125 -0.640625 0.28125q-0.125 0 -0.375 -0.046875q-0.25 -0.046875 -0.375 -0.046875l-1.046875 0.03125q-0.640625 0.015625 -1.046875 0l0 2.4375q0 0.9375 -0.921875 0.9375q-0.453125 0 -0.6875 -0.234375q-0.234375 -0.234375 -0.234375 -0.703125l-0.015625 -1.1875l-0.015625 -1.21875q-1.25 0.078125 -1.78125 0.078125q-1.609375 0 -1.609375 -0.953125q0 -0.6875 0.578125 -0.84375q0.1875 -0.0625 1.03125 -0.0625q0.53125 0 1.78125 -0.0625l0 -1.21875q0 -0.953125 0.09375 -1.3125q0.09375 -0.375 0.3125 -0.5625q0.21875 -0.1875 0.5625 -0.1875q0.40625 0 0.671875 0.25q0.28125 0.25 0.28125 0.65625q0 0.171875 -0.046875 0.5625q-0.03125 0.375 -0.03125 0.578125l0.015625 1.1875l0.78125 0.03125q0.203125 0 0.625 -0.015625q0.4375 -0.03125 0.640625 -0.03125q1.71875 0 1.71875 0.96875zm18.120941 -2.234375l-1.515625 1.421875l-1.859375 1.84375l3.390625 4.4375q0.265625 0.34375 0.265625 0.65625q0 0.40625 -0.3125 0.71875q-0.3125 0.3125 -0.703125 0.3125q-0.390625 0 -0.71875 -0.375q-0.953125 -1.125 -3.375 -4.296875l-2.03125 2.09375q-0.609375 0.546875 -1.796875 1.71875q-0.328125 0.375 -0.71875 0.375q-0.390625 0 -0.703125 -0.3125q-0.296875 -0.3125 -0.296875 -0.71875q0 -0.328125 0.25 -0.65625q0.296875 -0.390625 0.90625 -0.921875q0.71875 -0.640625 0.953125 -0.875l2.21875 -2.328125l-1.359375 -1.96875q-0.828125 -1.171875 -1.4375 -1.71875q-0.40625 -0.359375 -0.40625 -0.765625q0 -0.421875 0.296875 -0.734375q0.296875 -0.328125 0.6875 -0.328125q0.609375 0 1.859375 1.59375l1.796875 2.5l2.046875 -1.875q1.265625 -1.203125 1.71875 -1.875q0.328125 -0.484375 0.78125 -0.484375q0.40625 0 0.71875 0.296875q0.3125 0.296875 0.3125 0.6875q0 0.578125 -0.96875 1.578125z" fill-rule="nonzero"/><path fill="#ffffff" d="m316.375 304.76633l0 2.5625q0 0.65625 -0.625 0.65625q-0.734375 0 -0.734375 -1.015625q0 -0.125 0.015625 -0.34375q0.015625 -0.234375 0.015625 -0.328125l-0.015625 -1.5625l-3.0625 -0.078125q-0.953125 0 -1.3125 -0.0625q-0.640625 -0.109375 -0.640625 -0.5q0 -0.3125 0.390625 -0.78125l0.59375 -0.71875l3.421875 -4.984375q0.453125 -0.640625 1.171875 -0.640625q0.78125 0 0.78125 0.671875l0 5.78125q0.125 -0.015625 0.296875 -0.015625q1.265625 0 1.265625 0.6875q0 0.5 -0.515625 0.640625q-0.25 0.0625 -1.046875 0.03125zm-1.34375 -5.875q-1.84375 2.953125 -2.890625 4.421875l2.890625 0.078125l0 -4.5z" fill-rule="nonzero"/><path fill="#ffffff" d="m334.25485 309.09445q0 0.390625 -0.265625 0.6875q-0.25 0.28125 -0.640625 0.28125q-0.125 0 -0.375 -0.046875q-0.25 -0.046875 -0.375 -0.046875l-1.046875 0.03125q-0.640625 0.015625 -1.046875 0l0 2.4375q0 0.9375 -0.921875 0.9375q-0.453125 0 -0.6875 -0.234375q-0.234375 -0.234375 -0.234375 -0.703125l-0.015625 -1.1875l-0.015625 -1.21875q-1.25 0.078125 -1.78125 0.078125q-1.609375 0 -1.609375 -0.953125q0 -0.6875 0.578125 -0.84375q0.1875 -0.0625 1.03125 -0.0625q0.53125 0 1.78125 -0.0625l0 -1.21875q0 -0.953125 0.09375 -1.3125q0.09375 -0.375 0.3125 -0.5625q0.21875 -0.1875 0.5625 -0.1875q0.40625 0 0.671875 0.25q0.28125 0.25 0.28125 0.65625q0 0.171875 -0.046875 0.5625q-0.03125 0.375 -0.03125 0.578125l0.015625 1.1875l0.78125 0.03125q0.203125 0 0.625 -0.015625q0.4375 -0.03125 0.640625 -0.03125q1.71875 0 1.71875 0.96875zm18.120941 -2.234375l-1.515625 1.421875l-1.859375 1.84375l3.390625 4.4375q0.265625 0.34375 0.265625 0.65625q0 0.40625 -0.3125 0.71875q-0.3125 0.3125 -0.703125 0.3125q-0.390625 0 -0.71875 -0.375q-0.953125 -1.125 -3.375 -4.296875l-2.03125 2.09375q-0.609375 0.546875 -1.796875 1.71875q-0.328125 0.375 -0.71875 0.375q-0.390625 0 -0.703125 -0.3125q-0.296875 -0.3125 -0.296875 -0.71875q0 -0.328125 0.25 -0.65625q0.296875 -0.390625 0.90625 -0.921875q0.71875 -0.640625 0.953125 -0.875l2.21875 -2.328125l-1.359375 -1.96875q-0.828125 -1.171875 -1.4375 -1.71875q-0.40625 -0.359375 -0.40625 -0.765625q0 -0.421875 0.296875 -0.734375q0.296875 -0.328125 0.6875 -0.328125q0.609375 0 1.859375 1.59375l1.796875 2.5l2.046875 -1.875q1.265625 -1.203125 1.71875 -1.875q0.328125 -0.484375 0.78125 -0.484375q0.40625 0 0.71875 0.296875q0.3125 0.296875 0.3125 0.6875q0 0.578125 -0.96875 1.578125z" fill-rule="nonzero"/><path fill="#ffffff" d="m357.85712 308.23508q-1.96875 0 -2.90625 -1.453125q-0.125 -0.203125 -0.125 -0.390625q0 -0.28125 0.21875 -0.46875q0.21875 -0.203125 0.484375 -0.203125q0.28125 0 0.546875 0.3125q0.359375 0.4375 0.546875 0.5625q0.453125 0.3125 1.234375 0.3125q1.203125 0 1.984375 -0.921875q0.765625 -0.875 0.765625 -2.109375q0 -1.0 -0.34375 -1.640625q-0.421875 -0.796875 -1.328125 -0.796875q-0.734375 0 -1.203125 0.203125q-0.375 0.15625 -0.765625 0.546875l-0.75 0.828125q-0.3125 0.3125 -0.625 0.3125q-0.28125 0 -0.484375 -0.1875q-0.1875 -0.203125 -0.1875 -0.484375q0 -0.140625 0.109375 -1.234375q0.234375 -2.1875 0.234375 -2.875q0 -0.25 -0.125 -0.53125q-0.109375 -0.296875 -0.109375 -0.4375q0 -0.421875 0.734375 -0.421875q0.125 0 0.40625 0.03125q0.28125 0.015625 0.421875 0.015625q0.40625 0 1.203125 -0.015625q0.8125 -0.03125 1.21875 -0.03125q0.1875 0 0.5625 0.015625q0.390625 0.015625 0.578125 0.015625q0.125 0 0.375 -0.046875q0.25 -0.0625 0.375 -0.0625q0.28125 0 0.484375 0.203125q0.203125 0.203125 0.203125 0.46875q0 0.765625 -1.640625 0.765625q-0.21875 0 -0.546875 0q-0.328125 -0.015625 -0.390625 -0.015625l-1.171875 0.015625l-1.171875 0.03125q0 0.3125 -0.265625 2.3125q0.953125 -0.75 2.53125 -0.75q1.53125 0 2.34375 1.1875q0.671875 1.015625 0.671875 2.578125q0 1.875 -1.09375 3.09375q-1.140625 1.265625 -3.0 1.265625z" fill-rule="nonzero"/><path fill="#ffffff" d="m378.51822 309.09445q0 0.390625 -0.265625 0.6875q-0.25 0.28125 -0.640625 0.28125q-0.125 0 -0.375 -0.046875q-0.25 -0.046875 -0.375 -0.046875l-1.046875 0.03125q-0.640625 0.015625 -1.046875 0l0 2.4375q0 0.9375 -0.921875 0.9375q-0.453125 0 -0.6875 -0.234375q-0.234375 -0.234375 -0.234375 -0.703125l-0.015625 -1.1875l-0.015625 -1.21875q-1.25 0.078125 -1.78125 0.078125q-1.609375 0 -1.609375 -0.953125q0 -0.6875 0.578125 -0.84375q0.1875 -0.0625 1.03125 -0.0625q0.53125 0 1.78125 -0.0625l0 -1.21875q0 -0.953125 0.09375 -1.3125q0.09375 -0.375 0.3125 -0.5625q0.21875 -0.1875 0.5625 -0.1875q0.40625 0 0.671875 0.25q0.28125 0.25 0.28125 0.65625q0 0.171875 -0.046875 0.5625q-0.03125 0.375 -0.03125 0.578125l0.015625 1.1875l0.78125 0.03125q0.203125 0 0.625 -0.015625q0.4375 -0.03125 0.640625 -0.03125q1.71875 0 1.71875 0.96875zm18.120941 -2.234375l-1.515625 1.421875l-1.859375 1.84375l3.390625 4.4375q0.265625 0.34375 0.265625 0.65625q0 0.40625 -0.3125 0.71875q-0.3125 0.3125 -0.703125 0.3125q-0.390625 0 -0.71875 -0.375q-0.953125 -1.125 -3.375 -4.296875l-2.03125 2.09375q-0.609375 0.546875 -1.796875 1.71875q-0.328125 0.375 -0.71875 0.375q-0.390625 0 -0.703125 -0.3125q-0.296875 -0.3125 -0.296875 -0.71875q0 -0.328125 0.25 -0.65625q0.296875 -0.390625 0.90625 -0.921875q0.71875 -0.640625 0.953125 -0.875l2.21875 -2.328125l-1.359375 -1.96875q-0.828125 -1.171875 -1.4375 -1.71875q-0.40625 -0.359375 -0.40625 -0.765625q0 -0.421875 0.296875 -0.734375q0.296875 -0.328125 0.6875 -0.328125q0.609375 0 1.859375 1.59375l1.796875 2.5l2.046875 -1.875q1.265625 -1.203125 1.71875 -1.875q0.328125 -0.484375 0.78125 -0.484375q0.40625 0 0.71875 0.296875q0.3125 0.296875 0.3125 0.6875q0 0.578125 -0.96875 1.578125z" fill-rule="nonzero"/><path fill="#ffffff" d="m402.35486 308.29758q-1.8125 0 -2.65625 -1.328125q-0.71875 -1.09375 -0.71875 -2.90625q0 -3.4375 2.796875 -5.953125l0.640625 -0.65625q0.484375 -0.453125 0.71875 -0.453125q0.28125 0 0.484375 0.203125q0.21875 0.1875 0.21875 0.453125q0.015625 0.25 -0.703125 0.96875l-1.421875 1.375q-0.5625 0.578125 -0.953125 1.734375q0.59375 -0.28125 1.046875 -0.40625q0.453125 -0.140625 0.75 -0.140625q1.625 0 2.484375 0.875q0.875 0.859375 0.875 2.4375q0 1.65625 -0.9375 2.703125q-0.984375 1.09375 -2.625 1.09375zm0 -5.703125q-0.59375 0 -1.0625 0.21875q-0.1875 0.078125 -0.90625 0.53125q-0.046875 0.359375 -0.046875 0.71875q0 1.234375 0.421875 2.03125q0.515625 1.0 1.640625 1.0q1.046875 0 1.625 -0.75q0.53125 -0.703125 0.53125 -1.84375q0 -0.953125 -0.546875 -1.421875q-0.546875 -0.484375 -1.65625 -0.484375z" fill-rule="nonzero"/><path fill="#ffffff" d="m422.7816 309.09445q0 0.390625 -0.265625 0.6875q-0.25 0.28125 -0.640625 0.28125q-0.125 0 -0.375 -0.046875q-0.25 -0.046875 -0.375 -0.046875l-1.046875 0.03125q-0.640625 0.015625 -1.046875 0l0 2.4375q0 0.9375 -0.921875 0.9375q-0.453125 0 -0.6875 -0.234375q-0.234375 -0.234375 -0.234375 -0.703125l-0.015625 -1.1875l-0.015625 -1.21875q-1.25 0.078125 -1.78125 0.078125q-1.609375 0 -1.609375 -0.953125q0 -0.6875 0.578125 -0.84375q0.1875 -0.0625 1.03125 -0.0625q0.53125 0 1.78125 -0.0625l0 -1.21875q0 -0.953125 0.09375 -1.3125q0.09375 -0.375 0.3125 -0.5625q0.21875 -0.1875 0.5625 -0.1875q0.40625 0 0.671875 0.25q0.28125 0.25 0.28125 0.65625q0 0.171875 -0.046875 0.5625q-0.03125 0.375 -0.03125 0.578125l0.015625 1.1875l0.78125 0.03125q0.203125 0 0.625 -0.015625q0.4375 -0.03125 0.640625 -0.03125q1.71875 0 1.71875 0.96875zm18.120941 -2.234375l-1.515625 1.421875l-1.859375 1.84375l3.390625 4.4375q0.265625 0.34375 0.265625 0.65625q0 0.40625 -0.3125 0.71875q-0.3125 0.3125 -0.703125 0.3125q-0.390625 0 -0.71875 -0.375q-0.953125 -1.125 -3.375 -4.296875l-2.03125 2.09375q-0.609375 0.546875 -1.796875 1.71875q-0.328125 0.375 -0.71875 0.375q-0.390625 0 -0.703125 -0.3125q-0.296875 -0.3125 -0.296875 -0.71875q0 -0.328125 0.25 -0.65625q0.296875 -0.390625 0.90625 -0.921875q0.71875 -0.640625 0.953125 -0.875l2.21875 -2.328125l-1.359375 -1.96875q-0.828125 -1.171875 -1.4375 -1.71875q-0.40625 -0.359375 -0.40625 -0.765625q0 -0.421875 0.296875 -0.734375q0.296875 -0.328125 0.6875 -0.328125q0.609375 0 1.859375 1.59375l1.796875 2.5l2.046875 -1.875q1.265625 -1.203125 1.71875 -1.875q0.328125 -0.484375 0.78125 -0.484375q0.40625 0 0.71875 0.296875q0.3125 0.296875 0.3125 0.6875q0 0.578125 -0.96875 1.578125z" fill-rule="nonzero"/><path fill="#ffffff" d="m446.74323 308.17258q-1.46875 0 -2.375 -0.640625q-1.015625 -0.71875 -1.046875 -2.109375q-0.03125 -2.25 1.578125 -3.0625q-1.234375 -0.75 -1.234375 -2.125q0 -1.3125 0.953125 -2.1875q0.90625 -0.828125 2.203125 -0.84375q2.921875 -0.03125 2.921875 2.875q0 0.84375 -0.34375 1.296875q-0.265625 0.375 -1.046875 0.765625q1.046875 0.515625 1.453125 1.125q0.484375 0.703125 0.484375 1.953125q0 1.40625 -1.046875 2.21875q-0.96875 0.734375 -2.5 0.734375zm0.0625 -9.734375q-0.890625 0 -1.375 0.515625q-0.421875 0.46875 -0.40625 1.28125q0 0.96875 1.59375 1.375q0.828125 -0.234375 1.1875 -0.484375q0.578125 -0.390625 0.578125 -1.046875q0 -0.9375 -0.421875 -1.328125q-0.359375 -0.3125 -1.15625 -0.3125zm-0.125 4.40625q-1.109375 0.515625 -1.46875 0.890625q-0.578125 0.5625 -0.546875 1.625q0.03125 0.859375 0.796875 1.296875q0.5625 0.296875 1.28125 0.296875q1.21875 0 1.703125 -0.578125q0.390625 -0.453125 0.390625 -1.390625q0 -0.90625 -0.703125 -1.453125q-0.484375 -0.390625 -1.453125 -0.6875z" fill-rule="nonzero"/></g></svg>