<svg version="1.1" viewBox="0.0 0.0 960.0 540.0" fill="none" stroke="none" stroke-linecap="square" stroke-miterlimit="10" xmlns:xlink="http://www.w3.org/1999/xlink" xmlns="http://www.w3.org/2000/svg"><clipPath id="g269422e8e9f_0_27.0"><path d="m0 0l960.0 0l0 540.0l-960.0 0l0 -540.0z" clip-rule="nonzero"/></clipPath><g clip-path="url(#g269422e8e9f_0_27.0)"><path fill="#000000" fill-opacity="0.0" d="m0 0l960.0 0l0 540.0l-960.0 0z" fill-rule="evenodd"/><path fill="#000000" fill-opacity="0.0" d="m250.86351 169.63368l0 0c0 -31.366348 25.427444 -56.793785 56.793808 -56.793785l392.58566 0c15.062622 0 29.508362 5.983612 40.15924 16.634514c10.65094 10.650894 16.634521 25.096619 16.634521 40.15927l0 227.16832c0 31.366364 -25.42743 56.793793 -56.793762 56.793793l-392.58566 0c-31.366364 0 -56.793808 -25.42743 -56.793808 -56.793793z" fill-rule="evenodd"/><path stroke="#ffffff" stroke-width="3.0" stroke-linejoin="round" stroke-linecap="butt" d="m250.86351 169.63368l0 0c0 -31.366348 25.427444 -56.793785 56.793808 -56.793785l392.58566 0c15.062622 0 29.508362 5.983612 40.15924 16.634514c10.65094 10.650894 16.634521 25.096619 16.634521 40.15927l0 227.16832c0 31.366364 -25.42743 56.793793 -56.793762 56.793793l-392.58566 0c-31.366364 0 -56.793808 -25.42743 -56.793808 -56.793793z" fill-rule="evenodd"/><path fill="#000000" fill-opacity="0.0" d="m354.56693 164.27846l0 0c0 -6.589859 5.3421326 -11.932007 11.932007 -11.932007l193.42734 0c3.1645508 0 6.199524 1.2571259 8.437195 3.494812c2.237671 2.237671 3.494812 5.272629 3.494812 8.437195l0 47.726547c0 6.589859 -5.342163 11.932007 -11.932007 11.932007l-193.42734 0c-6.5898743 0 -11.932007 -5.342148 -11.932007 -11.932007z" fill-rule="evenodd"/><path stroke="#ffffff" stroke-width="2.0" stroke-linejoin="round" stroke-linecap="butt" d="m354.56693 164.27846l0 0c0 -6.589859 5.3421326 -11.932007 11.932007 -11.932007l193.42734 0c3.1645508 0 6.199524 1.2571259 8.437195 3.494812c2.237671 2.237671 3.494812 5.272629 3.494812 8.437195l0 47.726547c0 6.589859 -5.342163 11.932007 -11.932007 11.932007l-193.42734 0c-6.5898743 0 -11.932007 -5.342148 -11.932007 -11.932007z" fill-rule="evenodd"/><path fill="#ffffff" d="m387.6605 180.94986q-0.15625 0.4375 -0.15625 1.28125q0 0.3125 0.015625 0.9375q0.03125 0.609375 0.03125 0.921875q0 1.03125 -0.1875 3.09375q-0.171875 2.0625 -0.171875 3.109375q0 0.78125 0.109375 2.375q0.109375 1.578125 0.109375 2.375q0 0.4375 -0.28125 0.71875q-0.28125 0.296875 -0.71875 0.296875q-0.40625 0 -0.703125 -0.296875q-0.296875 -0.28125 -0.296875 -0.71875q0 -0.796875 -0.109375 -2.375q-0.109375 -1.59375 -0.109375 -2.375q0 -0.765625 0.046875 -1.546875q-1.78125 0.03125 -4.40625 0.53125l-4.375 0.859375q0 0.9375 -0.1875 2.65625q-0.1875 1.71875 -0.1875 2.671875q0 0.421875 -0.28125 0.71875q-0.28125 0.296875 -0.71875 0.296875q-0.421875 0 -0.71875 -0.296875q-0.28125 -0.296875 -0.28125 -0.71875q0 -1.109375 0.1875 -3.296875q0.1875 -2.1875 0.1875 -3.296875q0 -0.578125 -0.046875 -1.734375q-0.046875 -1.15625 -0.046875 -1.734375q0 -0.8125 0.109375 -2.46875q0.109375 -1.65625 0.109375 -2.46875q0 -0.4375 0.28125 -0.734375q0.28125 -0.296875 0.71875 -0.296875q0.421875 0 0.703125 0.296875q0.296875 0.296875 0.296875 0.734375q0 0.828125 -0.109375 2.5q-0.109375 1.65625 -0.109375 2.484375l0.0625 2.625l4.46875 -0.84375q2.671875 -0.5 4.5 -0.515625q0.109375 -1.484375 0.109375 -4.484375q0 -0.796875 0.265625 -1.609375q0.34375 -1.109375 0.96875 -1.109375q0.390625 0 0.703125 0.296875q0.3125 0.28125 0.3125 0.71875q0 0.15625 -0.09375 0.421875z" fill-rule="nonzero"/><path fill="#ffffff" d="m395.88565 187.63736q-0.171875 0 -0.5 -0.109375q-0.3125 -0.109375 -0.46875 -0.109375q-0.359375 0 -1.078125 0.046875q-0.703125 0.03125 -1.0625 0.03125q-0.265625 0 -0.796875 0.078125q-0.53125 0.0625 -0.796875 0.0625q-0.078125 0 -0.234375 -0.015625q-0.140625 -0.03125 -0.21875 -0.03125q-0.46875 0 -0.625 -0.46875q-0.078125 -0.25 -0.078125 -0.828125q0 -1.625 0.875 -2.609375q0.40625 -0.453125 2.171875 -1.671875q1.0 -0.671875 1.328125 -1.0625q0.59375 -0.65625 0.59375 -1.5625q0 -0.4375 -0.5625 -0.78125q-0.515625 -0.3125 -1.0 -0.3125q-0.640625 0 -1.21875 0.359375l-0.984375 0.78125q-0.296875 0.234375 -0.484375 0.234375q-0.71875 0 -0.71875 -0.5625q0 -0.328125 0.265625 -0.5625q0.8125 -0.765625 1.40625 -1.109375q0.84375 -0.484375 1.734375 -0.484375q1.125 0 2.0 0.625q1.0 0.6875 1.0 1.75q0 0.71875 -0.203125 1.3125q-0.203125 0.59375 -0.609375 1.09375q-0.53125 0.625 -1.765625 1.390625q-1.3125 0.828125 -1.71875 1.25q-0.765625 0.796875 -0.75 1.9375l1.421875 -0.140625q1.46875 -0.078125 2.109375 -0.078125q0.515625 0 1.0 0.171875q0.625 0.25 0.625 0.671875q0 0.28125 -0.1875 0.5q-0.1875 0.203125 -0.46875 0.203125zm5.584564 0.421875q-1.96875 0 -2.90625 -1.453125q-0.125 -0.203125 -0.125 -0.390625q0 -0.28125 0.21875 -0.46875q0.21875 -0.203125 0.484375 -0.203125q0.28125 0 0.546875 0.3125q0.359375 0.4375 0.546875 0.5625q0.453125 0.3125 1.234375 0.3125q1.203125 0 1.984375 -0.921875q0.765625 -0.875 0.765625 -2.109375q0 -1.0 -0.34375 -1.640625q-0.421875 -0.796875 -1.328125 -0.796875q-0.734375 0 -1.203125 0.203125q-0.375 0.15625 -0.765625 0.546875l-0.75 0.828125q-0.3125 0.3125 -0.625 0.3125q-0.28125 0 -0.484375 -0.1875q-0.1875 -0.203125 -0.1875 -0.484375q0 -0.140625 0.109375 -1.234375q0.234375 -2.1875 0.234375 -2.875q0 -0.25 -0.125 -0.53125q-0.109375 -0.296875 -0.109375 -0.4375q0 -0.421875 0.734375 -0.421875q0.125 0 0.40625 0.03125q0.28125 0.015625 0.421875 0.015625q0.40625 0 1.203125 -0.015625q0.8125 -0.03125 1.21875 -0.03125q0.1875 0 0.5625 0.015625q0.390625 0.015625 0.578125 0.015625q0.125 0 0.375 -0.046875q0.25 -0.0625 0.375 -0.0625q0.28125 0 0.484375 0.203125q0.203125 0.203125 0.203125 0.46875q0 0.765625 -1.640625 0.765625q-0.21875 0 -0.546875 0q-0.328125 -0.015625 -0.390625 -0.015625l-1.171875 0.015625l-1.171875 0.03125q0 0.3125 -0.265625 2.3125q0.953125 -0.75 2.53125 -0.75q1.53125 0 2.34375 1.1875q0.671875 1.015625 0.671875 2.578125q0 1.875 -1.09375 3.09375q-1.140625 1.265625 -3.0 1.265625zm8.912659 0.0625q-1.8125 0 -2.65625 -1.328125q-0.71875 -1.09375 -0.71875 -2.90625q0 -3.4375 2.796875 -5.953125l0.640625 -0.65625q0.484375 -0.453125 0.71875 -0.453125q0.28125 0 0.484375 0.203125q0.21875 0.1875 0.21875 0.453125q0.015625 0.25 -0.703125 0.96875l-1.421875 1.375q-0.5625 0.578125 -0.953125 1.734375q0.59375 -0.28125 1.046875 -0.40625q0.453125 -0.140625 0.75 -0.140625q1.625 0 2.484375 0.875q0.875 0.859375 0.875 2.4375q0 1.65625 -0.9375 2.703125q-0.984375 1.09375 -2.625 1.09375zm0 -5.703125q-0.59375 0 -1.0625 0.21875q-0.1875 0.078125 -0.90625 0.53125q-0.046875 0.359375 -0.046875 0.71875q0 1.234375 0.421875 2.03125q0.515625 1.0 1.640625 1.0q1.046875 0 1.625 -0.75q0.53125 -0.703125 0.53125 -1.84375q0 -0.953125 -0.546875 -1.421875q-0.546875 -0.484375 -1.65625 -0.484375zm9.256439 1.90625q-0.953125 0.09375 -3.359375 0.09375q-0.59375 0 -0.59375 -0.53125q0 -0.546875 0.59375 -0.546875q0.546875 0 1.640625 -0.046875q1.09375 -0.046875 1.640625 -0.046875q0.625 0 0.625 0.53125q0 0.484375 -0.546875 0.546875zm11.906433 1.75q0 0.34375 -0.109375 1.109375q-0.109375 0.703125 -0.75 0.703125q-0.375 0 -0.90625 -0.5q-2.828125 -2.671875 -6.484375 -7.703125l-0.03125 1.578125l-0.03125 1.578125q0 0.578125 0.015625 1.734375q0.03125 1.140625 0.03125 1.734375q0 1.859375 -0.71875 1.859375q-0.375 0 -0.59375 -0.234375q-0.203125 -0.21875 -0.203125 -0.515625q0 -0.296875 0.03125 -0.890625q0.046875 -0.59375 0.046875 -0.875q0 -0.4375 0.03125 -1.28125q0.03125 -0.859375 0.03125 -1.296875q0 -0.453125 -0.03125 -1.375q-0.015625 -0.9375 -0.015625 -1.390625q0 -0.4375 -0.078125 -1.296875q-0.078125 -0.875 -0.078125 -1.3125q0 -0.3125 0.265625 -0.578125q0.28125 -0.265625 0.625 -0.265625q0.375 0 0.90625 0.796875q1.734375 2.59375 3.109375 4.3125q1.65625 2.03125 3.609375 3.890625q0.03125 -0.296875 0 -0.890625l-0.015625 -0.875q0 -3.046875 -0.234375 -4.84375q-0.03125 -0.1875 -0.1875 -0.734375q-0.140625 -0.46875 -0.140625 -0.734375q0 -0.8125 0.734375 -0.8125q1.203125 0 1.203125 4.515625q0 0.765625 -0.015625 2.296875q-0.015625 1.53125 -0.015625 2.296875zm5.5178833 1.546875l-1.390625 0l-1.375 0q-0.484375 0 -0.671875 -0.0625q-0.359375 -0.125 -0.359375 -0.53125q0 -0.703125 1.09375 -0.703125l0.328125 0.015625l0.296875 0.015625q0 -0.34375 -0.0625 -0.984375q-0.0625 -0.65625 -0.0625 -0.984375q0 -0.875 0.15625 -2.6875q0.15625 -1.765625 0.15625 -2.6875q-0.9375 0.734375 -1.1875 0.734375q-0.28125 0 -0.484375 -0.203125q-0.203125 -0.21875 -0.203125 -0.484375q0 -0.328125 0.59375 -0.796875q0.375 -0.265625 1.0625 -0.84375q0.609375 -0.625 1.15625 -0.625q0.46875 0 0.46875 0.53125q0 0.171875 -0.046875 0.484375q-0.03125 0.3125 -0.03125 0.46875q0 0.234375 0.015625 0.703125q0.03125 0.46875 0.03125 0.6875q0 0.796875 -0.171875 2.375q-0.15625 1.5625 -0.15625 2.34375q0 0.40625 0.046875 0.984375q0.0625 0.5625 0.0625 0.9375l0.734375 -0.015625q0.28125 0 0.46875 0.203125q0.203125 0.1875 0.203125 0.46875q0 0.28125 -0.203125 0.46875q-0.1875 0.1875 -0.46875 0.1875z" fill-rule="nonzero"/><path fill="#ffffff" d="m445.82413 179.87173q0 0.359375 -0.640625 1.0625q-0.484375 0.46875 -0.953125 0.953125q-1.15625 1.3125 -1.8125 3.75q-0.578125 2.125 -0.578125 4.171875q0 5.296875 2.40625 7.765625q0.46875 0.375 0.96875 0.75q0.59375 0.46875 0.59375 0.9375q0 0.34375 -0.265625 0.59375q-0.265625 0.265625 -0.625 0.265625q-0.3125 0 -0.75 -0.234375q-4.40625 -2.46875 -4.40625 -10.3125q0 -2.828125 1.140625 -5.71875q1.265625 -3.21875 3.328125 -4.671875q0.421875 -0.28125 0.65625 -0.28125q0.375 0 0.65625 0.296875q0.28125 0.296875 0.28125 0.671875zm6.4355774 16.109375q-1.046875 0 -2.296875 -0.328125l-0.015625 4.984375q0 0.453125 -0.296875 0.734375q-0.28125 0.296875 -0.71875 0.296875q-0.453125 0 -0.75 -0.296875q-0.28125 -0.28125 -0.28125 -0.734375l0.03125 -4.171875l0 -4.15625q-0.03125 -2.28125 -0.15625 -4.15625l-0.15625 -2.109375q0 -0.75 0.28125 -1.25q0.3125 -0.609375 0.90625 -0.609375q0.40625 0 0.671875 0.28125q0.28125 0.28125 0.28125 0.703125q0 0.09375 -0.03125 0.34375q-0.046875 0.3125 -0.078125 0.59375q0.90625 -0.625 1.734375 -0.921875q0.828125 -0.3125 1.59375 -0.3125q2.140625 0 3.125 1.890625q0.78125 1.5 0.78125 3.96875q0 2.25 -1.203125 3.71875q-1.28125 1.53125 -3.421875 1.53125zm0.71875 -9.03125q-0.953125 0 -1.734375 0.4375q-0.546875 0.296875 -1.390625 1.09375q0.140625 2.375 0.140625 4.96875q1.125 0.4375 2.265625 0.4375q1.296875 0 1.984375 -0.96875q0.59375 -0.84375 0.59375 -2.1875q0 -1.890625 -0.46875 -2.828125q-0.453125 -0.953125 -1.390625 -0.953125zm14.356598 0.96875q-0.0625 1.3125 -1.03125 1.3125q-0.90625 0 -0.90625 -1.03125q0 -0.203125 -0.03125 -0.734375l-0.03125 -0.875q-1.640625 0.203125 -2.625 0.921875q-0.9375 0.6875 -1.546875 2.046875l0.015625 5.703125q0 1.0625 -1.03125 1.0625q-0.90625 0 -0.90625 -1.0625l0 -7.3125q0 -0.34375 0.015625 -1.03125q0.03125 -0.6875 0.03125 -1.03125q0 -1.046875 0.921875 -1.046875q1.015625 0 1.03125 1.734375q2.0 -1.921875 4.4375 -1.921875q0.84375 0 1.25 0.640625q0.421875 0.625 0.421875 1.90625q0 0.53125 -0.015625 0.71875zm4.1381226 -5.484375q-0.5 0 -0.875 -0.34375q-0.359375 -0.359375 -0.359375 -0.859375q0 -0.5 0.359375 -0.84375q0.375 -0.359375 0.875 -0.359375q0.5 0 0.859375 0.359375q0.359375 0.34375 0.359375 0.84375q0 0.5 -0.359375 0.859375q-0.359375 0.34375 -0.859375 0.34375zm0.46875 8.453125q0 0.625 0.03125 1.875q0.046875 1.25 0.046875 1.875q0 0.453125 -0.28125 0.75q-0.28125 0.28125 -0.75 0.28125q-0.4375 0 -0.734375 -0.28125q-0.28125 -0.296875 -0.28125 -0.75q0 -0.625 -0.046875 -1.875q-0.03125 -1.25 -0.03125 -1.875q0 -0.96875 0.109375 -2.4375q0.109375 -1.46875 0.109375 -2.4375q0 -0.46875 0.28125 -0.765625q0.28125 -0.296875 0.734375 -0.296875q0.453125 0 0.734375 0.296875q0.28125 0.296875 0.28125 0.765625q0 0.96875 -0.109375 2.4375q-0.09375 1.46875 -0.09375 2.4375zm8.321472 4.1875q-0.03125 0.96875 -0.953125 0.96875q-0.75 0 -1.09375 -0.90625l-1.59375 -4.21875l-1.859375 -4.78125q-0.109375 -0.28125 -0.109375 -0.484375q0 -0.421875 0.328125 -0.71875q0.328125 -0.3125 0.75 -0.3125q0.625 0 0.890625 0.640625l2.65625 7.28125q0.78125 -1.671875 1.96875 -4.84375q0.28125 -0.828125 0.875 -2.34375q0.328125 -0.671875 0.921875 -0.671875q0.421875 0 0.75 0.3125q0.328125 0.296875 0.328125 0.703125q0 0.40625 -1.71875 4.46875l-2.140625 4.90625zm13.700592 1.234375q-0.1875 0 -0.71875 -0.453125q-0.46875 -0.4375 -0.6875 -0.765625q-1.0 0.546875 -1.765625 0.8125q-0.765625 0.28125 -1.265625 0.28125q-2.4375 0 -3.5625 -1.375q-1.046875 -1.296875 -1.046875 -3.953125q0 -2.53125 1.734375 -4.3125q1.734375 -1.796875 4.140625 -1.796875q0.90625 0 2.03125 0.46875q1.421875 0.578125 1.421875 1.40625q0 0.28125 -0.21875 0.5q-0.09375 0.390625 -0.15625 1.296875q-0.0625 0.90625 -0.0625 2.328125q-0.015625 1.296875 0.171875 2.046875q0.109375 0.453125 0.65625 1.828125q0.078125 0.1875 0.234375 0.546875l0.0625 0.1875q0 0.40625 -0.296875 0.671875q-0.28125 0.28125 -0.671875 0.28125zm-2.15625 -7.234375q0 -0.453125 0.046875 -0.96875q0.0625 -0.53125 0.171875 -1.125q-0.375 -0.203125 -0.65625 -0.296875q-0.28125 -0.09375 -0.4375 -0.09375q-1.625 0 -2.796875 1.328125q-1.171875 1.3125 -1.171875 3.03125q0 1.703125 0.609375 2.5625q0.609375 0.84375 1.8125 0.84375q1.0 0 1.703125 -0.359375q0.375 -0.203125 1.046875 -0.796875q-0.328125 -2.75 -0.328125 -4.125zm11.914001 -2.328125q-0.21875 0 -0.515625 -0.015625q-0.296875 -0.03125 -0.515625 -0.03125q-0.25 0 -1.421875 0.15625l0.203125 6.15625l0 0.46875l0.015625 0.53125q0.046875 2.28125 -1.09375 2.28125q-0.421875 0 -0.734375 -0.28125q-0.296875 -0.265625 -0.296875 -0.671875q0 -0.390625 0.03125 -1.1875q0.03125 -0.796875 0.03125 -1.1875l-0.203125 -6.078125q-0.765625 -0.03125 -2.3125 -0.1875q-0.9375 -0.125 -0.9375 -1.03125q0 -0.453125 0.28125 -0.75q0.28125 -0.296875 0.71875 -0.296875l2.1875 0.171875q0 -0.53125 -0.046875 -1.421875q-0.046875 -0.890625 -0.046875 -1.28125q0 -0.4375 0.296875 -0.71875q0.3125 -0.296875 0.75 -0.296875q0.9375 0 1.09375 1.53125q0.03125 0.390625 0.03125 0.921875l-0.015625 0.609375l-0.015625 0.640625q1.296875 -0.15625 1.484375 -0.15625q1.078125 0 1.40625 0.09375q0.640625 0.21875 0.640625 0.984375q0 0.453125 -0.296875 0.75q-0.28125 0.296875 -0.71875 0.296875zm7.9402466 9.359375q-2.359375 0 -3.8125 -1.1875q-1.59375 -1.296875 -1.59375 -3.640625q0 -2.703125 1.3125 -4.546875q1.421875 -1.984375 3.8125 -1.984375q1.734375 0 2.828125 0.578125q1.34375 0.71875 1.34375 2.203125q0 1.046875 -1.1875 1.890625q-0.515625 0.375 -2.203125 1.171875l-3.984375 1.890625q0.59375 0.859375 1.453125 1.296875q0.875 0.4375 2.03125 0.4375q0.71875 0 1.6875 -0.265625q1.234375 -0.34375 1.578125 -0.90625q0.359375 -0.5625 0.765625 -0.5625q0.359375 0 0.640625 0.28125q0.296875 0.28125 0.296875 0.640625q0 1.15625 -1.859375 1.984375q-1.59375 0.71875 -3.109375 0.71875zm-0.28125 -9.5q-1.265625 0 -2.109375 0.984375q-0.84375 0.984375 -1.265625 2.96875l3.203125 -1.515625q1.875 -0.921875 2.6875 -1.59375q-0.90625 -0.84375 -2.515625 -0.84375zm10.231506 13.3125q-0.21875 0 -0.6875 0.015625q-0.46875 0.03125 -0.71875 0.03125q-1.34375 0 -1.34375 -1.21875q0 -1.90625 0.15625 -7.328125q0.15625 -5.421875 0.15625 -7.328125l-0.171875 -3.15625l-0.015625 -0.140625q-0.015625 -0.390625 0.25 -0.6875q0.265625 -0.3125 0.6875 -0.3125q0.3125 0 0.9375 0.03125q0.625 0.015625 0.9375 0.015625q0.203125 0 0.59375 -0.015625q0.390625 -0.03125 0.59375 -0.03125q0.953125 0 0.953125 1.015625q0 0.921875 -0.875 1.015625q-0.875 0.078125 -2.109375 0.015625q0.0625 0.9375 0.0625 2.125l-0.140625 6.984375l-0.171875 6.96875l0.90625 -0.03125q0.3125 0 0.921875 0.03125q0.609375 0.03125 0.90625 0.03125q0.421875 0 0.65625 0.296875q0.25 0.296875 0.25 0.703125q0 0.421875 -0.25 0.71875q-0.234375 0.296875 -0.65625 0.296875q-0.296875 0 -0.90625 -0.03125q-0.609375 -0.015625 -0.921875 -0.015625zm9.810547 -3.890625q-3.15625 0 -4.625 -2.890625q-1.09375 -2.234375 -1.09375 -5.8125q0 -3.015625 1.4375 -5.265625q1.6875 -2.625 4.609375 -2.625q2.734375 0 4.265625 2.328125q1.328125 2.015625 1.328125 4.921875q0 4.671875 -1.484375 7.015625q-1.46875 2.328125 -4.4375 2.328125zm0.3125 -14.59375q-1.9375 0 -3.0625 1.96875q-0.953125 1.640625 -0.953125 3.765625q0 3.421875 0.921875 5.140625q0.9375 1.71875 2.78125 1.71875q2.21875 0 3.171875 -2.515625q0.671875 -1.75 0.671875 -4.4375q0 -2.828125 -0.890625 -4.234375q-0.875 -1.40625 -2.640625 -1.40625zm10.908325 18.484375q0.234375 0 0.703125 0.015625q0.46875 0.03125 0.703125 0.03125q1.34375 0 1.34375 -1.21875q0 -1.90625 -0.15625 -7.328125q-0.140625 -5.421875 -0.140625 -7.328125l0.15625 -3.15625l0.015625 -0.140625q0.015625 -0.390625 -0.25 -0.6875q-0.265625 -0.3125 -0.671875 -0.3125q-0.3125 0 -0.953125 0.03125q-0.625 0.015625 -0.9375 0.015625q-0.203125 0 -0.59375 -0.015625q-0.390625 -0.03125 -0.578125 -0.03125q-0.96875 0 -0.96875 1.015625q0 0.921875 0.875 1.015625q0.875 0.078125 2.125 0.015625q-0.0625 0.9375 -0.0625 2.125l0.125 6.984375l0.171875 6.96875l-0.90625 -0.03125q-0.296875 0 -0.90625 0.03125q-0.609375 0.03125 -0.921875 0.03125q-0.40625 0 -0.65625 0.296875q-0.25 0.296875 -0.25 0.703125q0 0.421875 0.25 0.71875q0.25 0.296875 0.65625 0.296875q0.3125 0 0.921875 -0.03125q0.609375 -0.015625 0.90625 -0.015625zm10.716797 -10.34375q0 7.84375 -4.421875 10.3125q-0.421875 0.234375 -0.734375 0.234375q-0.359375 0 -0.625 -0.265625q-0.265625 -0.25 -0.265625 -0.59375q0 -0.46875 0.59375 -0.9375q0.484375 -0.375 0.96875 -0.75q2.40625 -2.46875 2.40625 -7.765625q0 -2.046875 -0.578125 -4.171875q-0.671875 -2.4375 -1.8125 -3.75q-0.484375 -0.484375 -0.953125 -0.953125q-0.640625 -0.703125 -0.640625 -1.0625q0 -0.375 0.265625 -0.671875q0.28125 -0.296875 0.65625 -0.296875q0.25 0 0.671875 0.28125q2.0625 1.453125 3.328125 4.671875q1.140625 2.890625 1.140625 5.71875z" fill-rule="nonzero"/><path fill="#000000" fill-opacity="0.0" d="m354.56693 267.932l0 0c0 -6.5898743 5.3421326 -11.932007 11.932007 -11.932007l193.42734 0c3.1645508 0 6.199524 1.2571106 8.437195 3.494812c2.237671 2.237671 3.494812 5.2726135 3.494812 8.437195l0 47.726532c0 6.5898743 -5.342163 11.932007 -11.932007 11.932007l-193.42734 0c-6.5898743 0 -11.932007 -5.3421326 -11.932007 -11.932007z" fill-rule="evenodd"/><path stroke="#ffffff" stroke-width="2.0" stroke-linejoin="round" stroke-linecap="butt" d="m354.56693 267.932l0 0c0 -6.5898743 5.3421326 -11.932007 11.932007 -11.932007l193.42734 0c3.1645508 0 6.199524 1.2571106 8.437195 3.494812c2.237671 2.237671 3.494812 5.2726135 3.494812 8.437195l0 47.726532c0 6.5898743 -5.342163 11.932007 -11.932007 11.932007l-193.42734 0c-6.5898743 0 -11.932007 -5.3421326 -11.932007 -11.932007z" fill-rule="evenodd"/><path fill="#ffffff" d="m453.5018 284.6034q-0.15625 0.4375 -0.15625 1.28125q0 0.3125 0.015625 0.9375q0.03125 0.609375 0.03125 0.921875q0 1.03125 -0.1875 3.09375q-0.171875 2.0625 -0.171875 3.109375q0 0.78125 0.109375 2.375q0.109375 1.578125 0.109375 2.375q0 0.4375 -0.28125 0.71875q-0.28125 0.296875 -0.71875 0.296875q-0.40625 0 -0.703125 -0.296875q-0.296875 -0.28125 -0.296875 -0.71875q0 -0.796875 -0.109375 -2.375q-0.109375 -1.59375 -0.109375 -2.375q0 -0.765625 0.046875 -1.546875q-1.78125 0.03125 -4.40625 0.53125l-4.375 0.859375q0 0.9375 -0.1875 2.65625q-0.1875 1.71875 -0.1875 2.671875q0 0.421875 -0.28125 0.71875q-0.28125 0.296875 -0.71875 0.296875q-0.421875 0 -0.71875 -0.296875q-0.28125 -0.296875 -0.28125 -0.71875q0 -1.109375 0.1875 -3.296875q0.1875 -2.1875 0.1875 -3.296875q0 -0.578125 -0.046875 -1.734375q-0.046875 -1.15625 -0.046875 -1.734375q0 -0.8125 0.109375 -2.46875q0.109375 -1.65625 0.109375 -2.46875q0 -0.4375 0.28125 -0.734375q0.28125 -0.296875 0.71875 -0.296875q0.421875 0 0.703125 0.296875q0.296875 0.296875 0.296875 0.734375q0 0.828125 -0.109375 2.5q-0.109375 1.65625 -0.109375 2.484375l0.0625 2.625l4.46875 -0.84375q2.671875 -0.5 4.5 -0.515625q0.109375 -1.484375 0.109375 -4.484375q0 -0.796875 0.265625 -1.609375q0.34375 -1.109375 0.96875 -1.109375q0.390625 0 0.703125 0.296875q0.3125 0.28125 0.3125 0.71875q0 0.15625 -0.09375 0.421875z" fill-rule="nonzero"/><path fill="#ffffff" d="m465.4301 289.7284q0 0.34375 -0.109375 1.109375q-0.109375 0.703125 -0.75 0.703125q-0.375 0 -0.90625 -0.5q-2.828125 -2.671875 -6.484375 -7.703125l-0.03125 1.578125l-0.03125 1.578125q0 0.578125 0.015625 1.734375q0.03125 1.140625 0.03125 1.734375q0 1.859375 -0.71875 1.859375q-0.375 0 -0.59375 -0.234375q-0.203125 -0.21875 -0.203125 -0.515625q0 -0.296875 0.03125 -0.890625q0.046875 -0.59375 0.046875 -0.875q0 -0.4375 0.03125 -1.28125q0.03125 -0.859375 0.03125 -1.296875q0 -0.453125 -0.03125 -1.375q-0.015625 -0.9375 -0.015625 -1.390625q0 -0.4375 -0.078125 -1.296875q-0.078125 -0.875 -0.078125 -1.3125q0 -0.3125 0.265625 -0.578125q0.28125 -0.265625 0.625 -0.265625q0.375 0 0.90625 0.796875q1.734375 2.59375 3.109375 4.3125q1.65625 2.03125 3.609375 3.890625q0.03125 -0.296875 0 -0.890625l-0.015625 -0.875q0 -3.046875 -0.234375 -4.84375q-0.03125 -0.1875 -0.1875 -0.734375q-0.140625 -0.46875 -0.140625 -0.734375q0 -0.8125 0.734375 -0.8125q1.203125 0 1.203125 4.515625q0 0.765625 -0.015625 2.296875q-0.015625 1.53125 -0.015625 2.296875zm5.5178833 1.546875l-1.390625 0l-1.375 0q-0.484375 0 -0.671875 -0.0625q-0.359375 -0.125 -0.359375 -0.53125q0 -0.703125 1.09375 -0.703125l0.328125 0.015625l0.296875 0.015625q0 -0.34375 -0.0625 -0.984375q-0.0625 -0.65625 -0.0625 -0.984375q0 -0.875 0.15625 -2.6875q0.15625 -1.765625 0.15625 -2.6875q-0.9375 0.734375 -1.1875 0.734375q-0.28125 0 -0.484375 -0.203125q-0.203125 -0.21875 -0.203125 -0.484375q0 -0.328125 0.59375 -0.796875q0.375 -0.265625 1.0625 -0.84375q0.609375 -0.625 1.15625 -0.625q0.46875 0 0.46875 0.53125q0 0.171875 -0.046875 0.484375q-0.03125 0.3125 -0.03125 0.46875q0 0.234375 0.015625 0.703125q0.03125 0.46875 0.03125 0.6875q0 0.796875 -0.171875 2.375q-0.15625 1.5625 -0.15625 2.34375q0 0.40625 0.046875 0.984375q0.0625 0.5625 0.0625 0.9375l0.734375 -0.015625q0.28125 0 0.46875 0.203125q0.203125 0.1875 0.203125 0.46875q0 0.28125 -0.203125 0.46875q-0.1875 0.1875 -0.46875 0.1875z" fill-rule="nonzero"/><path fill="#ffffff" d="m479.70847 283.52527q0 0.359375 -0.640625 1.0625q-0.484375 0.46875 -0.953125 0.953125q-1.15625 1.3125 -1.8125 3.75q-0.578125 2.125 -0.578125 4.171875q0 5.296875 2.40625 7.765625q0.46875 0.375 0.96875 0.75q0.59375 0.46875 0.59375 0.9375q0 0.34375 -0.265625 0.59375q-0.265625 0.265625 -0.625 0.265625q-0.3125 0 -0.75 -0.234375q-4.40625 -2.46875 -4.40625 -10.3125q0 -2.828125 1.140625 -5.71875q1.265625 -3.21875 3.328125 -4.671875q0.421875 -0.28125 0.65625 -0.28125q0.375 0 0.65625 0.296875q0.28125 0.296875 0.28125 0.671875zm7.810608 9.703125q0 7.84375 -4.421875 10.3125q-0.421875 0.234375 -0.734375 0.234375q-0.359375 0 -0.625 -0.265625q-0.265625 -0.25 -0.265625 -0.59375q0 -0.46875 0.59375 -0.9375q0.484375 -0.375 0.96875 -0.75q2.40625 -2.46875 2.40625 -7.765625q0 -2.046875 -0.578125 -4.171875q-0.671875 -2.4375 -1.8125 -3.75q-0.484375 -0.484375 -0.953125 -0.953125q-0.640625 -0.703125 -0.640625 -1.0625q0 -0.375 0.265625 -0.671875q0.28125 -0.296875 0.65625 -0.296875q0.25 0 0.671875 0.28125q2.0625 1.453125 3.328125 4.671875q1.140625 2.890625 1.140625 5.71875z" fill-rule="nonzero"/><path fill="#000000" fill-opacity="0.0" d="m354.56693 378.995l0 0c0 -6.5898743 5.3421326 -11.932007 11.932007 -11.932007l193.42734 0c3.1645508 0 6.199524 1.2571106 8.437195 3.494812c2.237671 2.237671 3.494812 5.2726135 3.494812 8.437195l0 47.726562c0 6.5898438 -5.342163 11.931976 -11.932007 11.931976l-193.42734 0c-6.5898743 0 -11.932007 -5.3421326 -11.932007 -11.931976z" fill-rule="evenodd"/><path stroke="#ffffff" stroke-width="2.0" stroke-linejoin="round" stroke-linecap="butt" d="m354.56693 378.995l0 0c0 -6.5898743 5.3421326 -11.932007 11.932007 -11.932007l193.42734 0c3.1645508 0 6.199524 1.2571106 8.437195 3.494812c2.237671 2.237671 3.494812 5.2726135 3.494812 8.437195l0 47.726562c0 6.5898438 -5.342163 11.931976 -11.932007 11.931976l-193.42734 0c-6.5898743 0 -11.932007 -5.3421326 -11.932007 -11.931976z" fill-rule="evenodd"/><path fill="#ffffff" d="m425.5878 410.69763q-1.046875 0 -2.296875 -0.328125l-0.015625 4.984375q0 0.453125 -0.296875 0.734375q-0.28125 0.296875 -0.71875 0.296875q-0.453125 0 -0.75 -0.296875q-0.28125 -0.28125 -0.28125 -0.734375l0.03125 -4.171875l0 -4.15625q-0.03125 -2.28125 -0.15625 -4.15625l-0.15625 -2.109375q0 -0.75 0.28125 -1.25q0.3125 -0.609375 0.90625 -0.609375q0.40625 0 0.671875 0.28125q0.28125 0.28125 0.28125 0.703125q0 0.09375 -0.03125 0.34375q-0.046875 0.3125 -0.078125 0.59375q0.90625 -0.625 1.734375 -0.921875q0.828125 -0.3125 1.59375 -0.3125q2.140625 0 3.125 1.890625q0.78125 1.5 0.78125 3.96875q0 2.25 -1.203125 3.71875q-1.28125 1.53125 -3.421875 1.53125zm0.71875 -9.03125q-0.953125 0 -1.734375 0.4375q-0.546875 0.296875 -1.390625 1.09375q0.140625 2.375 0.140625 4.96875q1.125 0.4375 2.265625 0.4375q1.296875 0 1.984375 -0.96875q0.59375 -0.84375 0.59375 -2.1875q0 -1.890625 -0.46875 -2.828125q-0.453125 -0.953125 -1.390625 -0.953125zm14.762848 2.59375q0 0.75 0 2.25q0.015625 1.5 0.015625 2.25q0 0.21875 0.03125 0.6875q0.046875 0.46875 0.046875 0.703125q0 0.453125 -0.3125 0.734375q-0.296875 0.28125 -0.734375 0.28125q-0.796875 0 -1.015625 -0.984375q-1.3125 0.671875 -3.0 0.671875q-1.375 0 -2.265625 -0.59375q-0.984375 -0.671875 -1.171875 -1.953125q-0.40625 -2.765625 -0.40625 -4.921875q0 -1.421875 0.3125 -3.25q0.140625 -0.890625 0.984375 -0.890625q0.453125 0 0.75 0.28125q0.296875 0.28125 0.296875 0.734375q0 0.46875 -0.15625 1.53125q-0.140625 1.046875 -0.140625 1.59375q0 1.75 0.109375 2.984375q0.125 1.234375 0.34375 1.984375q0.34375 0.1875 0.671875 0.296875q0.34375 0.09375 0.671875 0.09375q1.390625 0 2.9375 -0.453125l0 -2.109375l-0.03125 -2.015625q0 -2.25 0.203125 -3.90625q0.109375 -0.953125 1.015625 -0.953125q0.4375 0 0.734375 0.296875q0.3125 0.28125 0.296875 0.71875l-0.1875 3.9375zm7.450409 6.515625q-1.59375 0 -2.890625 -0.625q-0.34375 0.5 -0.8125 0.5q-0.40625 0 -0.6875 -0.28125q-0.265625 -0.265625 -0.265625 -0.6875q0 -0.265625 0.015625 -0.796875q0.03125 -0.53125 0.03125 -0.8125q0 -1.09375 -0.0625 -3.296875q-0.046875 -2.203125 -0.046875 -3.3125q0 -0.765625 0 -2.875q0.015625 -2.125 0.015625 -2.890625q0 -0.625 0.265625 -1.125q0.34375 -0.640625 0.953125 -0.640625q0.78125 0 0.78125 0.90625q0 0.15625 -0.0625 0.4375q-0.046875 0.28125 -0.046875 0.421875l-0.03125 2.28125l-0.015625 2.65625q0.90625 -0.625 1.71875 -0.921875q0.8125 -0.3125 1.53125 -0.3125q2.25 0 3.640625 1.71875q1.3125 1.609375 1.3125 3.96875q0 2.375 -1.53125 4.03125q-1.53125 1.65625 -3.8125 1.65625zm0.390625 -9.40625q-0.84375 0 -1.75 0.484375q-0.4375 0.234375 -1.5 1.03125l-0.015625 1.796875l0.015625 1.625l0 1.703125q0.5 0.234375 1.40625 0.59375q0.65625 0.1875 1.453125 0.1875q1.515625 0 2.484375 -1.0625q0.96875 -1.0625 0.96875 -2.640625q0 -1.546875 -0.78125 -2.59375q-0.84375 -1.125 -2.28125 -1.125zm10.043793 0.78125l-0.15625 5.171875q0 0.828125 -0.078125 2.421875q-0.109375 1.046875 -1.03125 1.046875q-1.015625 0 -1.015625 -1.0625q0 -1.265625 0.109375 -3.78125q0.125 -2.53125 0.125 -3.796875q0 -1.640625 0.046875 -3.75q0.046875 -2.125 0.046875 -3.78125q0 -1.03125 1.03125 -1.03125q1.03125 0 1.03125 1.03125q0 1.65625 -0.0625 3.78125q-0.046875 2.109375 -0.046875 3.75zm5.186096 -5.0q-0.5 0 -0.875 -0.34375q-0.359375 -0.359375 -0.359375 -0.859375q0 -0.5 0.359375 -0.84375q0.375 -0.359375 0.875 -0.359375q0.5 0 0.859375 0.359375q0.359375 0.34375 0.359375 0.84375q0 0.5 -0.359375 0.859375q-0.359375 0.34375 -0.859375 0.34375zm0.46875 8.453125q0 0.625 0.03125 1.875q0.046875 1.25 0.046875 1.875q0 0.453125 -0.28125 0.75q-0.28125 0.28125 -0.75 0.28125q-0.4375 0 -0.734375 -0.28125q-0.28125 -0.296875 -0.28125 -0.75q0 -0.625 -0.046875 -1.875q-0.03125 -1.25 -0.03125 -1.875q0 -0.96875 0.109375 -2.4375q0.109375 -1.46875 0.109375 -2.4375q0 -0.46875 0.28125 -0.765625q0.28125 -0.296875 0.734375 -0.296875q0.453125 0 0.734375 0.296875q0.28125 0.296875 0.28125 0.765625q0 0.96875 -0.109375 2.4375q-0.09375 1.46875 -0.09375 2.4375zm8.227692 5.390625q-2.140625 0 -3.5625 -1.296875q-1.5 -1.34375 -1.5 -3.5625q0 -2.125 1.40625 -4.375q1.5625 -2.484375 3.515625 -2.484375q1.03125 0 2.28125 0.46875q1.59375 0.609375 1.59375 1.5q0 0.390625 -0.265625 0.703125q-0.25 0.3125 -0.640625 0.3125q-0.296875 0 -0.53125 -0.1875q-0.21875 -0.1875 -0.421875 -0.359375q-0.609375 -0.484375 -2.015625 -0.484375q-1.0625 0 -2.09375 1.890625q-0.953125 1.734375 -0.953125 3.015625q0 1.375 0.9375 2.15625q0.875 0.75 2.25 0.75q0.625 0 1.328125 -0.34375l1.21875 -0.640625q0.3125 -0.171875 0.4375 -0.171875q0.390625 0 0.671875 0.3125q0.28125 0.3125 0.28125 0.703125q0 0.765625 -1.609375 1.46875q-1.40625 0.625 -2.328125 0.625zm9.377533 3.640625q-0.21875 0 -0.6875 0.015625q-0.46875 0.03125 -0.71875 0.03125q-1.34375 0 -1.34375 -1.21875q0 -1.90625 0.15625 -7.328125q0.15625 -5.421875 0.15625 -7.328125l-0.171875 -3.15625l-0.015625 -0.140625q-0.015625 -0.390625 0.25 -0.6875q0.265625 -0.3125 0.6875 -0.3125q0.3125 0 0.9375 0.03125q0.625 0.015625 0.9375 0.015625q0.203125 0 0.59375 -0.015625q0.390625 -0.03125 0.59375 -0.03125q0.953125 0 0.953125 1.015625q0 0.921875 -0.875 1.015625q-0.875 0.078125 -2.109375 0.015625q0.0625 0.9375 0.0625 2.125l-0.140625 6.984375l-0.171875 6.96875l0.90625 -0.03125q0.3125 0 0.921875 0.03125q0.609375 0.03125 0.90625 0.03125q0.421875 0 0.65625 0.296875q0.25 0.296875 0.25 0.703125q0 0.421875 -0.25 0.71875q-0.234375 0.296875 -0.65625 0.296875q-0.296875 0 -0.90625 -0.03125q-0.609375 -0.015625 -0.921875 -0.015625zm9.810547 -3.890625q-3.15625 0 -4.625 -2.890625q-1.09375 -2.234375 -1.09375 -5.8125q0 -3.015625 1.4375 -5.265625q1.6875 -2.625 4.609375 -2.625q2.734375 0 4.265625 2.328125q1.328125 2.015625 1.328125 4.921875q0 4.671875 -1.484375 7.015625q-1.46875 2.328125 -4.4375 2.328125zm0.3125 -14.59375q-1.9375 0 -3.0625 1.96875q-0.953125 1.640625 -0.953125 3.765625q0 3.421875 0.921875 5.140625q0.9375 1.71875 2.78125 1.71875q2.21875 0 3.171875 -2.515625q0.671875 -1.75 0.671875 -4.4375q0 -2.828125 -0.890625 -4.234375q-0.875 -1.40625 -2.640625 -1.40625zm10.908295 18.484375q0.234375 0 0.703125 0.015625q0.46875 0.03125 0.703125 0.03125q1.34375 0 1.34375 -1.21875q0 -1.90625 -0.15625 -7.328125q-0.140625 -5.421875 -0.140625 -7.328125l0.15625 -3.15625l0.015625 -0.140625q0.015625 -0.390625 -0.25 -0.6875q-0.265625 -0.3125 -0.671875 -0.3125q-0.3125 0 -0.953125 0.03125q-0.625 0.015625 -0.9375 0.015625q-0.203125 0 -0.59375 -0.015625q-0.390625 -0.03125 -0.578125 -0.03125q-0.96875 0 -0.96875 1.015625q0 0.921875 0.875 1.015625q0.875 0.078125 2.125 0.015625q-0.0625 0.9375 -0.0625 2.125l0.125 6.984375l0.171875 6.96875l-0.90625 -0.03125q-0.296875 0 -0.90625 0.03125q-0.609375 0.03125 -0.921875 0.03125q-0.40625 0 -0.65625 0.296875q-0.25 0.296875 -0.25 0.703125q0 0.421875 0.25 0.71875q0.25 0.296875 0.65625 0.296875q0.3125 0 0.921875 -0.03125q0.609375 -0.015625 0.90625 -0.015625z" fill-rule="nonzero"/><path fill="#000000" fill-opacity="0.0" d="m89.12336 275.3545l0 0c0 -4.5401306 3.6805038 -8.220642 8.220634 -8.220642l71.212265 0c2.180252 0 4.2712097 0.8661194 5.8128815 2.4077759c1.5416565 1.5416565 2.4077606 3.6326294 2.4077606 5.812866l0 32.88156c0 4.5401306 -3.6804962 8.220642 -8.220642 8.220642l-71.212265 0c-4.5401306 0 -8.220634 -3.6805115 -8.220634 -8.220642z" fill-rule="evenodd"/><path stroke="#ffffff" stroke-width="2.0" stroke-linejoin="round" stroke-linecap="butt" d="m89.12336 275.3545l0 0c0 -4.5401306 3.6805038 -8.220642 8.220634 -8.220642l71.212265 0c2.180252 0 4.2712097 0.8661194 5.8128815 2.4077759c1.5416565 1.5416565 2.4077606 3.6326294 2.4077606 5.812866l0 32.88156c0 4.5401306 -3.6804962 8.220642 -8.220642 8.220642l-71.212265 0c-4.5401306 0 -8.220634 -3.6805115 -8.220634 -8.220642z" fill-rule="evenodd"/><path fill="#ffffff" d="m135.34856 296.69965q0 0.4375 -0.140625 1.453125q-0.140625 0.921875 -0.96875 0.921875q-0.5 0 -1.203125 -0.65625q-3.703125 -3.515625 -8.5 -10.125l-0.046875 2.0625l-0.03125 2.078125q0 0.765625 0.03125 2.28125q0.03125 1.5 0.03125 2.265625q0 2.453125 -0.9375 2.453125q-0.5 0 -0.796875 -0.3125q-0.265625 -0.28125 -0.265625 -0.671875q0 -0.390625 0.0625 -1.15625q0.0625 -0.78125 0.0625 -1.171875q0 -0.5625 0.03125 -1.6875q0.03125 -1.125 0.03125 -1.6875q0 -0.59375 -0.03125 -1.8125q-0.015625 -1.21875 -0.015625 -1.8125q0 -0.578125 -0.109375 -1.703125q-0.109375 -1.140625 -0.109375 -1.71875q0 -0.421875 0.359375 -0.765625q0.359375 -0.34375 0.8125 -0.34375q0.484375 0 1.1875 1.046875q2.265625 3.40625 4.078125 5.65625q2.171875 2.671875 4.75 5.09375q0.015625 -0.390625 0 -1.15625l-0.03125 -1.140625q0 -4.0 -0.3125 -6.375q-0.03125 -0.234375 -0.25 -0.953125q-0.171875 -0.625 -0.171875 -0.96875q0 -1.046875 0.953125 -1.046875q1.59375 0 1.59375 5.90625q0 1.015625 -0.03125 3.03125q-0.03125 2.0 -0.03125 3.015625zm7.241699 2.03125l-1.8125 0l-1.796875 -0.015625q-0.640625 0 -0.890625 -0.078125q-0.46875 -0.171875 -0.46875 -0.703125q0 -0.90625 1.4375 -0.90625l0.4375 0l0.375 0.015625q0 -0.4375 -0.078125 -1.28125q-0.078125 -0.859375 -0.078125 -1.296875q0 -1.15625 0.203125 -3.515625q0.203125 -2.3125 0.1875 -3.515625q-1.21875 0.9375 -1.546875 0.9375q-0.375 0 -0.640625 -0.265625q-0.265625 -0.28125 -0.265625 -0.625q0 -0.4375 0.78125 -1.046875q0.484375 -0.34375 1.390625 -1.109375q0.8125 -0.8125 1.53125 -0.8125q0.609375 0 0.609375 0.703125q0 0.203125 -0.0625 0.625q-0.046875 0.40625 -0.046875 0.625q0 0.296875 0.03125 0.90625q0.03125 0.609375 0.03125 0.90625q0 1.046875 -0.21875 3.109375q-0.21875 2.046875 -0.21875 3.078125q0 0.53125 0.078125 1.296875q0.078125 0.75 0.078125 1.234375l0.953125 -0.015625q0.390625 0 0.640625 0.25q0.25 0.25 0.25 0.625q0 0.375 -0.25 0.625q-0.25 0.25 -0.640625 0.25z" fill-rule="nonzero"/><path fill="#000000" fill-opacity="0.0" d="m463.2126 223.93701l0 32.06299" fill-rule="evenodd"/><path stroke="#ffffff" stroke-width="2.0" stroke-linejoin="round" stroke-linecap="butt" d="m463.2126 223.93701l0 20.062988" fill-rule="evenodd"/><path fill="#ffffff" stroke="#ffffff" stroke-width="2.0" stroke-linecap="butt" d="m459.90912 244.0l3.3034668 9.076202l3.3034668 -9.076202z" fill-rule="evenodd"/><path fill="#000000" fill-opacity="0.0" d="m463.2126 327.59055l0 39.46457" fill-rule="evenodd"/><path stroke="#ffffff" stroke-width="2.0" stroke-linejoin="round" stroke-linecap="butt" d="m463.2126 327.59055l0 27.46457" fill-rule="evenodd"/><path fill="#ffffff" stroke="#ffffff" stroke-width="2.0" stroke-linecap="butt" d="m459.90912 355.0551l3.3034668 9.076202l3.3034668 -9.076202z" fill-rule="evenodd"/><path fill="#000000" fill-opacity="0.0" d="m176.7769 291.7953l177.79527 0" fill-rule="evenodd"/><path stroke="#ffffff" stroke-width="2.0" stroke-linejoin="round" stroke-linecap="butt" d="m176.7769 291.7953l165.79527 0" fill-rule="evenodd"/><path fill="#ffffff" stroke="#ffffff" stroke-width="2.0" stroke-linecap="butt" d="m342.57217 295.09875l9.076202 -3.3034668l-9.076202 -3.3034668z" fill-rule="evenodd"/><path fill="#000000" fill-opacity="0.0" d="m578.02625 264.69815l154.33069 0l0 37.039368l-154.33069 0z" fill-rule="evenodd"/><path fill="#ffffff" d="m600.2919 278.79004q-0.140625 0.375 -0.140625 1.109375q0 0.28125 0.015625 0.828125q0.015625 0.53125 0.015625 0.796875q0 0.90625 -0.15625 2.71875q-0.15625 1.796875 -0.15625 2.703125q0 0.703125 0.09375 2.09375q0.109375 1.375 0.109375 2.078125q0 0.375 -0.25 0.625q-0.25 0.25 -0.625 0.25q-0.359375 0 -0.625 -0.25q-0.25 -0.25 -0.25 -0.625q0 -0.703125 -0.109375 -2.078125q-0.09375 -1.390625 -0.09375 -2.09375q0 -0.65625 0.046875 -1.34375q-1.5625 0.03125 -3.859375 0.46875l-3.8125 0.75q0 0.8125 -0.171875 2.328125q-0.15625 1.5 -0.15625 2.328125q0 0.375 -0.265625 0.625q-0.25 0.265625 -0.609375 0.265625q-0.375 0 -0.625 -0.265625q-0.25 -0.25 -0.25 -0.625q0 -0.96875 0.15625 -2.875q0.15625 -1.921875 0.15625 -2.890625q0 -0.5 -0.046875 -1.5q-0.03125 -1.015625 -0.03125 -1.53125q0 -0.71875 0.09375 -2.15625q0.09375 -1.453125 0.09375 -2.171875q0 -0.375 0.25 -0.625q0.25 -0.265625 0.625 -0.265625q0.375 0 0.625 0.265625q0.25 0.25 0.25 0.625q0 0.734375 -0.09375 2.1875q-0.09375 1.453125 -0.09375 2.171875l0.046875 2.3125l3.90625 -0.734375q2.34375 -0.4375 3.953125 -0.453125q0.09375 -1.3125 0.09375 -3.9375q0 -0.6875 0.234375 -1.40625q0.296875 -0.96875 0.84375 -0.96875q0.34375 0 0.609375 0.25q0.28125 0.25 0.28125 0.640625q0 0.125 -0.078125 0.375zm9.438599 13.421875q-0.171875 0 -0.625 -0.390625q-0.40625 -0.375 -0.609375 -0.671875q-0.875 0.484375 -1.546875 0.71875q-0.65625 0.234375 -1.109375 0.234375q-2.125 0 -3.09375 -1.1875q-0.921875 -1.140625 -0.921875 -3.46875q0 -2.203125 1.515625 -3.765625q1.515625 -1.578125 3.625 -1.578125q0.78125 0 1.765625 0.421875q1.25 0.5 1.25 1.21875q0 0.25 -0.1875 0.4375q-0.09375 0.34375 -0.140625 1.140625q-0.046875 0.796875 -0.0625 2.03125q-0.015625 1.125 0.15625 1.78125q0.09375 0.40625 0.578125 1.609375q0.0625 0.171875 0.203125 0.484375l0.0625 0.15625q0 0.359375 -0.265625 0.59375q-0.25 0.234375 -0.59375 0.234375zm-1.890625 -6.328125q0 -0.390625 0.046875 -0.84375q0.0625 -0.46875 0.15625 -0.984375q-0.34375 -0.171875 -0.59375 -0.25q-0.234375 -0.078125 -0.375 -0.078125q-1.40625 0 -2.4375 1.15625q-1.015625 1.140625 -1.015625 2.640625q0 1.5 0.515625 2.25q0.53125 0.734375 1.59375 0.734375q0.875 0 1.484375 -0.3125q0.328125 -0.171875 0.921875 -0.6875q-0.296875 -2.421875 -0.296875 -3.625zm10.484253 -1.28125q-0.5 0 -0.703125 -0.328125q-0.140625 -0.25 -0.234375 -0.984375q-0.6875 0.171875 -2.109375 0.625q-1.46875 0.59375 -1.484375 1.4375q0.28125 0.109375 0.546875 0.15625q2.09375 0.375 3.109375 1.03125q1.484375 0.953125 1.484375 2.765625q0 1.484375 -1.28125 2.234375q-1.0625 0.625 -2.703125 0.625q-1.1875 0 -2.265625 -0.40625q-1.40625 -0.5 -1.40625 -1.421875q0 -0.359375 0.28125 -0.625q0.296875 -0.28125 0.65625 -0.28125q0.28125 0 0.734375 0.4375q0.21875 0.203125 0.984375 0.34375q0.609375 0.109375 1.015625 0.109375q0.765625 0 1.359375 -0.171875q0.84375 -0.265625 0.84375 -0.84375q0 -1.234375 -1.734375 -1.671875l-0.9375 -0.21875q-1.21875 -0.265625 -1.734375 -0.609375q-0.734375 -0.515625 -0.734375 -1.546875q0 -1.90625 1.796875 -2.71875q0.546875 -0.234375 1.75 -0.578125q1.203125 -0.34375 1.71875 -0.578125q0.375 -0.171875 0.8125 -0.171875q0.390625 0 0.640625 0.265625q0.25 0.25 0.25 0.65625q0 0.265625 0.109375 0.78125q0.125 0.5 0.125 0.765625q0 0.40625 -0.25 0.671875q-0.25 0.25 -0.640625 0.25zm10.550964 7.578125q-0.640625 0 -0.84375 -0.6875q-0.21875 -0.75 -0.390625 -2.125q-0.15625 -1.328125 -0.15625 -2.171875q0 -0.234375 0.015625 -0.71875q0.03125 -0.484375 0.03125 -0.71875q0 -1.703125 -0.859375 -1.703125q-1.15625 0 -2.0625 1.046875q-0.46875 0.53125 -1.28125 2.046875q0 3.46875 -0.296875 4.109375q-0.25 0.5625 -0.78125 0.5625q-0.375 0 -0.65625 -0.25q-0.28125 -0.265625 -0.28125 -0.625q0 -0.125 0.078125 -0.40625q0.0625 -0.21875 0.09375 -1.328125l0.03125 -1.34375l0.03125 -6.703125q0.0625 -1.125 0.0625 -1.515625q0 -0.46875 -0.09375 -0.875q-0.078125 -0.421875 -0.078125 -0.859375q0 -0.390625 0.265625 -0.640625q0.265625 -0.25 0.640625 -0.25q0.75 0 0.875 0.796875q0.140625 0.890625 0.140625 1.59375q0 0.96875 -0.0625 2.0q-0.046875 1.0 -0.046875 2.0l0.015625 0.796875q0.75 -1.0 1.59375 -1.5q0.859375 -0.5 1.8125 -0.5q1.515625 0 2.078125 0.984375q0.40625 0.703125 0.453125 2.34375l0.078125 1.734375l0.171875 1.890625q0.125 1.0625 0.3125 1.875q0.03125 0.15625 0.03125 0.265625q0 0.375 -0.265625 0.625q-0.265625 0.25 -0.65625 0.25zm21.492126 -2.578125q0 0.4375 -0.140625 1.453125q-0.140625 0.921875 -0.96875 0.921875q-0.5 0 -1.203125 -0.65625q-3.703125 -3.515625 -8.5 -10.125l-0.046875 2.0625l-0.03125 2.078125q0 0.765625 0.03125 2.28125q0.03125 1.5 0.03125 2.265625q0 2.453125 -0.9375 2.453125q-0.5 0 -0.796875 -0.3125q-0.265625 -0.28125 -0.265625 -0.671875q0 -0.390625 0.0625 -1.15625q0.0625 -0.78125 0.0625 -1.171875q0 -0.5625 0.03125 -1.6875q0.03125 -1.125 0.03125 -1.6875q0 -0.59375 -0.03125 -1.8125q-0.015625 -1.21875 -0.015625 -1.8125q0 -0.578125 -0.109375 -1.703125q-0.109375 -1.140625 -0.109375 -1.71875q0 -0.421875 0.359375 -0.765625q0.359375 -0.34375 0.8125 -0.34375q0.484375 0 1.1875 1.046875q2.265625 3.40625 4.078125 5.65625q2.171875 2.671875 4.75 5.09375q0.015625 -0.390625 0 -1.15625l-0.03125 -1.140625q0 -4.0 -0.3125 -6.375q-0.03125 -0.234375 -0.25 -0.953125q-0.171875 -0.625 -0.171875 -0.96875q0 -1.046875 0.953125 -1.046875q1.59375 0 1.59375 5.90625q0 1.015625 -0.03125 3.03125q-0.03125 2.0 -0.03125 3.015625zm7.241699 2.03125l-1.8125 0l-1.796875 -0.015625q-0.640625 0 -0.890625 -0.078125q-0.46875 -0.171875 -0.46875 -0.703125q0 -0.90625 1.4375 -0.90625l0.4375 0l0.375 0.015625q0 -0.4375 -0.078125 -1.28125q-0.078125 -0.859375 -0.078125 -1.296875q0 -1.15625 0.203125 -3.515625q0.203125 -2.3125 0.1875 -3.515625q-1.21875 0.9375 -1.546875 0.9375q-0.375 0 -0.640625 -0.265625q-0.265625 -0.28125 -0.265625 -0.625q0 -0.4375 0.78125 -1.046875q0.484375 -0.34375 1.390625 -1.109375q0.8125 -0.8125 1.53125 -0.8125q0.609375 0 0.609375 0.703125q0 0.203125 -0.0625 0.625q-0.046875 0.40625 -0.046875 0.625q0 0.296875 0.03125 0.90625q0.03125 0.609375 0.03125 0.90625q0 1.046875 -0.21875 3.109375q-0.21875 2.046875 -0.21875 3.078125q0 0.53125 0.078125 1.296875q0.078125 0.75 0.078125 1.234375l0.953125 -0.015625q0.390625 0 0.640625 0.25q0.25 0.25 0.25 0.625q0 0.375 -0.25 0.625q-0.25 0.25 -0.640625 0.25zm14.927124 -7.78125q-0.1875 0 -0.453125 -0.015625q-0.25 -0.015625 -0.453125 -0.015625q-0.203125 0 -1.234375 0.140625l0.171875 5.375l0.015625 0.40625l0 0.46875q0.046875 1.984375 -0.953125 1.984375q-0.359375 0 -0.640625 -0.234375q-0.265625 -0.234375 -0.265625 -0.59375q0 -0.34375 0.03125 -1.03125q0.03125 -0.703125 0.03125 -1.046875l-0.1875 -5.3125q-0.65625 -0.03125 -2.015625 -0.15625q-0.8125 -0.109375 -0.8125 -0.90625q0 -0.390625 0.234375 -0.65625q0.25 -0.265625 0.640625 -0.265625l1.90625 0.15625q0 -0.46875 -0.046875 -1.25q-0.03125 -0.78125 -0.03125 -1.125q0 -0.375 0.265625 -0.625q0.265625 -0.25 0.640625 -0.25q0.828125 0 0.96875 1.328125q0.015625 0.34375 0.015625 0.8125l-0.015625 0.53125l0 0.5625q1.125 -0.140625 1.28125 -0.140625q0.953125 0 1.25 0.09375q0.546875 0.171875 0.546875 0.84375q0 0.40625 -0.25 0.671875q-0.25 0.25 -0.640625 0.25zm4.4312744 -3.765625q-0.4375 0 -0.75 -0.3125q-0.3125 -0.3125 -0.3125 -0.75q0 -0.4375 0.3125 -0.734375q0.3125 -0.3125 0.75 -0.3125q0.4375 0 0.75 0.3125q0.328125 0.296875 0.328125 0.734375q0 0.4375 -0.328125 0.75q-0.3125 0.3125 -0.75 0.3125zm0.421875 7.390625q0 0.546875 0.03125 1.640625q0.03125 1.09375 0.03125 1.640625q0 0.390625 -0.25 0.65625q-0.25 0.25 -0.640625 0.25q-0.390625 0 -0.65625 -0.25q-0.25 -0.265625 -0.25 -0.65625q0 -0.546875 -0.03125 -1.640625q-0.03125 -1.09375 -0.03125 -1.640625q0 -0.84375 0.09375 -2.125q0.09375 -1.28125 0.09375 -2.140625q0 -0.40625 0.25 -0.65625q0.25 -0.265625 0.640625 -0.265625q0.390625 0 0.640625 0.265625q0.25 0.25 0.25 0.65625q0 0.859375 -0.09375 2.140625q-0.078125 1.28125 -0.078125 2.125zm14.635132 4.890625q-0.734375 0 -0.875 -0.78125q-0.15625 -1.0 -0.3125 -2.828125l-0.3125 -2.828125q-0.09375 -0.625 -0.3125 -1.234375q-0.3125 -0.8125 -0.671875 -0.8125q-0.34375 0 -1.265625 0.578125q-0.875 0.53125 -1.140625 0.84375q-0.015625 0.859375 0.046875 1.71875l0.265625 2.421875q0.171875 1.4375 0.171875 2.375q0 0.40625 -0.25 0.65625q-0.25 0.265625 -0.640625 0.265625q-0.390625 0 -0.640625 -0.265625q-0.25 -0.25 -0.25 -0.65625q0 -1.09375 -0.234375 -3.25q-0.21875 -2.15625 -0.21875 -3.25q0 -0.96875 -0.265625 -1.515625q-0.640625 0.296875 -1.296875 0.953125l-1.078125 1.203125q-0.140625 0.21875 -0.453125 0.578125q0 0.546875 -0.109375 1.609375q-0.09375 1.0625 -0.09375 1.578125q0 0.265625 0.078125 0.765625q0.09375 0.484375 0.09375 0.703125q0 0.375 -0.28125 0.625q-0.28125 0.265625 -0.65625 0.265625q-1.015625 0 -1.015625 -2.34375q0 -0.546875 0.09375 -1.625q0.09375 -1.09375 0.09375 -1.640625q0 -0.484375 -0.09375 -1.4375q-0.078125 -0.96875 -0.078125 -1.46875q0 -2.0625 0.9375 -2.0625q0.34375 0 0.640625 0.3125q0.296875 0.3125 0.296875 0.671875q0 0.171875 -0.046875 0.546875q-0.03125 0.359375 -0.03125 0.546875l0.015625 0.953125q0.46875 -0.96875 1.390625 -1.75q0.921875 -0.796875 1.5625 -0.796875q1.4375 0 1.96875 1.421875q0.5 -0.671875 1.1875 -1.0q0.703125 -0.328125 1.59375 -0.328125q1.515625 0 2.078125 1.640625q0.109375 0.328125 0.375 2.546875q0.25 1.578125 0.65625 5.21875q0.03125 0.375 -0.25 0.625q-0.265625 0.25 -0.671875 0.25zm7.180664 -0.328125q-2.046875 0 -3.328125 -1.03125q-1.390625 -1.140625 -1.390625 -3.1875q0 -2.375 1.140625 -3.96875q1.25 -1.75 3.34375 -1.75q1.5 0 2.46875 0.5q1.171875 0.640625 1.171875 1.9375q0 0.90625 -1.03125 1.65625q-0.453125 0.328125 -1.9375 1.015625l-3.46875 1.65625q0.5 0.75 1.265625 1.140625q0.765625 0.375 1.765625 0.375q0.640625 0 1.484375 -0.234375q1.078125 -0.296875 1.375 -0.78125q0.3125 -0.484375 0.671875 -0.484375q0.3125 0 0.5625 0.234375q0.25 0.234375 0.25 0.5625q0 1.015625 -1.625 1.734375q-1.390625 0.625 -2.71875 0.625zm-0.234375 -8.296875q-1.125 0 -1.859375 0.859375q-0.734375 0.859375 -1.09375 2.59375l2.796875 -1.328125q1.640625 -0.8125 2.34375 -1.40625q-0.78125 -0.71875 -2.1875 -0.71875zm12.361511 0.859375q-0.5 0 -0.703125 -0.328125q-0.140625 -0.25 -0.234375 -0.984375q-0.6875 0.171875 -2.109375 0.625q-1.46875 0.59375 -1.484375 1.4375q0.28125 0.109375 0.546875 0.15625q2.09375 0.375 3.109375 1.03125q1.484375 0.953125 1.484375 2.765625q0 1.484375 -1.28125 2.234375q-1.0625 0.625 -2.703125 0.625q-1.1875 0 -2.265625 -0.40625q-1.40625 -0.5 -1.40625 -1.421875q0 -0.359375 0.28125 -0.625q0.296875 -0.28125 0.65625 -0.28125q0.28125 0 0.734375 0.4375q0.21875 0.203125 0.984375 0.34375q0.609375 0.109375 1.015625 0.109375q0.765625 0 1.359375 -0.171875q0.84375 -0.265625 0.84375 -0.84375q0 -1.234375 -1.734375 -1.671875l-0.9375 -0.21875q-1.21875 -0.265625 -1.734375 -0.609375q-0.734375 -0.515625 -0.734375 -1.546875q0 -1.90625 1.796875 -2.71875q0.546875 -0.234375 1.75 -0.578125q1.203125 -0.34375 1.71875 -0.578125q0.375 -0.171875 0.8125 -0.171875q0.390625 0 0.640625 0.265625q0.25 0.25 0.25 0.65625q0 0.265625 0.109375 0.78125q0.125 0.5 0.125 0.765625q0 0.40625 -0.25 0.671875q-0.25 0.25 -0.640625 0.25z" fill-rule="nonzero"/></g></svg>